  0
SECTION
  2
BLOCKS
  0
ENDSEC
  0
SECTION
  2
ENTITIES
  0
LINE
  8
0
 10
60.0309
 20
99.9049
 11
60.0588
 21
99.9191
  0
LINE
  8
0
 10
60.0588
 20
99.9191
 11
60.0809
 21
99.9412
  0
LINE
  8
0
 10
60.0809
 20
99.9412
 11
60.0951
 21
99.9691
  0
LINE
  8
0
 10
60.0951
 20
99.9691
 11
60.1
 21
100
  0
LINE
  8
0
 10
60.1
 20
100
 11
60.1
 21
170
  0
LINE
  8
0
 10
60.1
 20
170
 11
60.0951
 21
170.031
  0
LINE
  8
0
 10
60.0951
 20
170.031
 11
60.0809
 21
170.059
  0
LINE
  8
0
 10
60.0809
 20
170.059
 11
60.0588
 21
170.081
  0
LINE
  8
0
 10
60.0588
 20
170.081
 11
60.0309
 21
170.095
  0
LINE
  8
0
 10
60.0309
 20
170.095
 11
60
 21
170.1
  0
LINE
  8
0
 10
60
 20
170.1
 11
53.675
 21
170.1
  0
LINE
  8
0
 10
53.675
 20
170.1
 11
53.6441
 21
170.095
  0
LINE
  8
0
 10
53.6441
 20
170.095
 11
53.6162
 21
170.081
  0
LINE
  8
0
 10
53.6162
 20
170.081
 11
53.5941
 21
170.059
  0
LINE
  8
0
 10
53.5941
 20
170.059
 11
53.5799
 21
170.031
  0
LINE
  8
0
 10
53.5799
 20
170.031
 11
53.5762
 21
170.016
  0
LINE
  8
0
 10
53.5762
 20
170.016
 11
53.3985
 21
168.894
  0
LINE
  8
0
 10
53.3985
 20
168.894
 11
44.3031
 21
149.294
  0
LINE
  8
0
 10
44.3031
 20
149.294
 11
44.2938
 21
149.252
  0
LINE
  8
0
 10
44.2938
 20
149.252
 11
44.2938
 21
140.008
  0
LINE
  8
0
 10
44.2938
 20
140.008
 11
43.1074
 21
132.517
  0
LINE
  8
0
 10
43.1074
 20
132.517
 11
39.6677
 21
125.766
  0
LINE
  8
0
 10
39.6677
 20
125.766
 11
34.3103
 21
120.409
  0
LINE
  8
0
 10
34.3103
 20
120.409
 11
27.5596
 21
116.969
  0
LINE
  8
0
 10
27.5596
 20
116.969
 11
20.1424
 21
115.794
  0
LINE
  8
0
 10
20.1424
 20
115.794
 11
20.1352
 21
115.801
  0
LINE
  8
0
 10
20.1352
 20
115.801
 11
20.1073
 21
115.816
  0
LINE
  8
0
 10
20.1073
 20
115.816
 11
20.0764
 21
115.821
  0
LINE
  8
0
 10
20.0764
 20
115.821
 11
20.0522
 21
115.818
  0
LINE
  8
0
 10
20.0522
 20
115.818
 11
19.9073
 21
115.781
  0
LINE
  8
0
 10
19.9073
 20
115.781
 11
-0.00871277
 21
114.039
  0
LINE
  8
0
 10
-0.00871277
 20
114.039
 11
-0.0390778
 21
114.031
  0
LINE
  8
0
 10
-0.0390778
 20
114.031
 11
-0.0656128
 21
114.015
  0
LINE
  8
0
 10
-0.0656128
 20
114.015
 11
-0.0857239
 21
113.991
  0
LINE
  8
0
 10
-0.0857239
 20
113.991
 11
-0.0974426
 21
113.962
  0
LINE
  8
0
 10
-0.0974426
 20
113.962
 11
-0.100006
 21
113.939
  0
LINE
  8
0
 10
-0.100006
 20
113.939
 11
-0.100006
 21
100
  0
LINE
  8
0
 10
-0.100006
 20
100
 11
-0.095108
 21
99.9691
  0
LINE
  8
0
 10
-0.095108
 20
99.9691
 11
-0.0809021
 21
99.9412
  0
LINE
  8
0
 10
-0.0809021
 20
99.9412
 11
-0.0587769
 21
99.9191
  0
LINE
  8
0
 10
-0.0587769
 20
99.9191
 11
-0.030899
 21
99.9049
  0
LINE
  8
0
 10
-0.030899
 20
99.9049
 11
0
 21
99.9
  0
LINE
  8
0
 10
0
 20
99.9
 11
60
 21
99.9
  0
LINE
  8
0
 10
60
 20
99.9
 11
60.0309
 21
99.9049
  0
LINE
  8
0
 10
55.4132
 20
141.194
 11
54.8839
 21
141.464
  0
LINE
  8
0
 10
54.8839
 20
141.464
 11
54.4639
 21
141.884
  0
LINE
  8
0
 10
54.4639
 20
141.884
 11
54.1942
 21
142.413
  0
LINE
  8
0
 10
54.1942
 20
142.413
 11
54.1012
 21
143
  0
LINE
  8
0
 10
54.1012
 20
143
 11
54.1942
 21
143.587
  0
LINE
  8
0
 10
54.1942
 20
143.587
 11
54.4639
 21
144.116
  0
LINE
  8
0
 10
54.4639
 20
144.116
 11
54.8839
 21
144.536
  0
LINE
  8
0
 10
54.8839
 20
144.536
 11
55.4132
 21
144.806
  0
LINE
  8
0
 10
55.4132
 20
144.806
 11
56
 21
144.899
  0
LINE
  8
0
 10
56
 20
144.899
 11
56.5868
 21
144.806
  0
LINE
  8
0
 10
56.5868
 20
144.806
 11
57.116
 21
144.536
  0
LINE
  8
0
 10
57.116
 20
144.536
 11
57.5361
 21
144.116
  0
LINE
  8
0
 10
57.5361
 20
144.116
 11
57.8058
 21
143.587
  0
LINE
  8
0
 10
57.8058
 20
143.587
 11
57.8988
 21
143
  0
LINE
  8
0
 10
57.8988
 20
143
 11
57.8058
 21
142.413
  0
LINE
  8
0
 10
57.8058
 20
142.413
 11
57.5361
 21
141.884
  0
LINE
  8
0
 10
57.5361
 20
141.884
 11
57.116
 21
141.464
  0
LINE
  8
0
 10
57.116
 20
141.464
 11
56.5868
 21
141.194
  0
LINE
  8
0
 10
56.5868
 20
141.194
 11
56
 21
141.101
  0
LINE
  8
0
 10
56
 20
141.101
 11
55.4132
 21
141.194
  0
LINE
  8
0
 10
7.41322
 20
105.194
 11
6.88394
 21
105.464
  0
LINE
  8
0
 10
6.88394
 20
105.464
 11
6.46385
 21
105.884
  0
LINE
  8
0
 10
6.46385
 20
105.884
 11
6.19418
 21
106.413
  0
LINE
  8
0
 10
6.19418
 20
106.413
 11
6.10124
 21
107
  0
LINE
  8
0
 10
6.10124
 20
107
 11
6.19418
 21
107.587
  0
LINE
  8
0
 10
6.19418
 20
107.587
 11
6.46385
 21
108.116
  0
LINE
  8
0
 10
6.46385
 20
108.116
 11
6.88394
 21
108.536
  0
LINE
  8
0
 10
6.88394
 20
108.536
 11
7.41322
 21
108.806
  0
LINE
  8
0
 10
7.41322
 20
108.806
 11
8
 21
108.899
  0
LINE
  8
0
 10
8
 20
108.899
 11
8.58676
 21
108.806
  0
LINE
  8
0
 10
8.58676
 20
108.806
 11
9.11604
 21
108.536
  0
LINE
  8
0
 10
9.11604
 20
108.536
 11
9.53613
 21
108.116
  0
LINE
  8
0
 10
9.53613
 20
108.116
 11
9.8058
 21
107.587
  0
LINE
  8
0
 10
9.8058
 20
107.587
 11
9.89876
 21
107
  0
LINE
  8
0
 10
9.89876
 20
107
 11
9.8058
 21
106.413
  0
LINE
  8
0
 10
9.8058
 20
106.413
 11
9.53613
 21
105.884
  0
LINE
  8
0
 10
9.53613
 20
105.884
 11
9.11604
 21
105.464
  0
LINE
  8
0
 10
9.11604
 20
105.464
 11
8.58676
 21
105.194
  0
LINE
  8
0
 10
8.58676
 20
105.194
 11
8
 21
105.101
  0
LINE
  8
0
 10
8
 20
105.101
 11
7.41322
 21
105.194
  0
LINE
  8
0
 10
43.4132
 20
105.194
 11
42.8839
 21
105.464
  0
LINE
  8
0
 10
42.8839
 20
105.464
 11
42.4639
 21
105.884
  0
LINE
  8
0
 10
42.4639
 20
105.884
 11
42.1942
 21
106.413
  0
LINE
  8
0
 10
42.1942
 20
106.413
 11
42.1012
 21
107
  0
LINE
  8
0
 10
42.1012
 20
107
 11
42.1942
 21
107.587
  0
LINE
  8
0
 10
42.1942
 20
107.587
 11
42.4639
 21
108.116
  0
LINE
  8
0
 10
42.4639
 20
108.116
 11
42.8839
 21
108.536
  0
LINE
  8
0
 10
42.8839
 20
108.536
 11
43.4132
 21
108.806
  0
LINE
  8
0
 10
43.4132
 20
108.806
 11
44
 21
108.899
  0
LINE
  8
0
 10
44
 20
108.899
 11
44.5868
 21
108.806
  0
LINE
  8
0
 10
44.5868
 20
108.806
 11
45.116
 21
108.536
  0
LINE
  8
0
 10
45.116
 20
108.536
 11
45.5361
 21
108.116
  0
LINE
  8
0
 10
45.5361
 20
108.116
 11
45.8058
 21
107.587
  0
LINE
  8
0
 10
45.8058
 20
107.587
 11
45.8988
 21
107
  0
LINE
  8
0
 10
45.8988
 20
107
 11
45.8058
 21
106.413
  0
LINE
  8
0
 10
45.8058
 20
106.413
 11
45.5361
 21
105.884
  0
LINE
  8
0
 10
45.5361
 20
105.884
 11
45.116
 21
105.464
  0
LINE
  8
0
 10
45.116
 20
105.464
 11
44.5868
 21
105.194
  0
LINE
  8
0
 10
44.5868
 20
105.194
 11
44
 21
105.101
  0
LINE
  8
0
 10
44
 20
105.101
 11
43.4132
 21
105.194
  0
LINE
  8
0
 10
140.031
 20
109.905
 11
140.059
 21
109.919
  0
LINE
  8
0
 10
140.059
 20
109.919
 11
140.081
 21
109.941
  0
LINE
  8
0
 10
140.081
 20
109.941
 11
140.095
 21
109.969
  0
LINE
  8
0
 10
140.095
 20
109.969
 11
140.1
 21
110
  0
LINE
  8
0
 10
140.1
 20
110
 11
140.1
 21
170
  0
LINE
  8
0
 10
140.1
 20
170
 11
140.095
 21
170.031
  0
LINE
  8
0
 10
140.095
 20
170.031
 11
140.081
 21
170.059
  0
LINE
  8
0
 10
140.081
 20
170.059
 11
140.059
 21
170.081
  0
LINE
  8
0
 10
140.059
 20
170.081
 11
140.031
 21
170.095
  0
LINE
  8
0
 10
140.031
 20
170.095
 11
140
 21
170.1
  0
LINE
  8
0
 10
140
 20
170.1
 11
70
 21
170.1
  0
LINE
  8
0
 10
70
 20
170.1
 11
69.9691
 21
170.095
  0
LINE
  8
0
 10
69.9691
 20
170.095
 11
69.9412
 21
170.081
  0
LINE
  8
0
 10
69.9412
 20
170.081
 11
69.9191
 21
170.059
  0
LINE
  8
0
 10
69.9191
 20
170.059
 11
69.9049
 21
170.031
  0
LINE
  8
0
 10
69.9049
 20
170.031
 11
69.9
 21
170
  0
LINE
  8
0
 10
69.9
 20
170
 11
69.9
 21
110
  0
LINE
  8
0
 10
69.9
 20
110
 11
69.9049
 21
109.969
  0
LINE
  8
0
 10
69.9049
 20
109.969
 11
69.9191
 21
109.941
  0
LINE
  8
0
 10
69.9191
 20
109.941
 11
69.9412
 21
109.919
  0
LINE
  8
0
 10
69.9412
 20
109.919
 11
69.9691
 21
109.905
  0
LINE
  8
0
 10
69.9691
 20
109.905
 11
70
 21
109.9
  0
LINE
  8
0
 10
70
 20
109.9
 11
140
 21
109.9
  0
LINE
  8
0
 10
140
 20
109.9
 11
140.031
 21
109.905
  0
LINE
  8
0
 10
96.4132
 20
164.194
 11
95.884
 21
164.464
  0
LINE
  8
0
 10
95.884
 20
164.464
 11
95.4639
 21
164.884
  0
LINE
  8
0
 10
95.4639
 20
164.884
 11
95.1942
 21
165.413
  0
LINE
  8
0
 10
95.1942
 20
165.413
 11
95.1012
 21
166
  0
LINE
  8
0
 10
95.1012
 20
166
 11
95.1942
 21
166.587
  0
LINE
  8
0
 10
95.1942
 20
166.587
 11
95.4639
 21
167.116
  0
LINE
  8
0
 10
95.4639
 20
167.116
 11
95.884
 21
167.536
  0
LINE
  8
0
 10
95.884
 20
167.536
 11
96.4132
 21
167.806
  0
LINE
  8
0
 10
96.4132
 20
167.806
 11
97
 21
167.899
  0
LINE
  8
0
 10
97
 20
167.899
 11
97.5868
 21
167.806
  0
LINE
  8
0
 10
97.5868
 20
167.806
 11
98.1161
 21
167.536
  0
LINE
  8
0
 10
98.1161
 20
167.536
 11
98.5361
 21
167.116
  0
LINE
  8
0
 10
98.5361
 20
167.116
 11
98.8058
 21
166.587
  0
LINE
  8
0
 10
98.8058
 20
166.587
 11
98.8988
 21
166
  0
LINE
  8
0
 10
98.8988
 20
166
 11
98.8058
 21
165.413
  0
LINE
  8
0
 10
98.8058
 20
165.413
 11
98.5361
 21
164.884
  0
LINE
  8
0
 10
98.5361
 20
164.884
 11
98.1161
 21
164.464
  0
LINE
  8
0
 10
98.1161
 20
164.464
 11
97.5868
 21
164.194
  0
LINE
  8
0
 10
97.5868
 20
164.194
 11
97
 21
164.101
  0
LINE
  8
0
 10
97
 20
164.101
 11
96.4132
 21
164.194
  0
LINE
  8
0
 10
132.413
 20
152.194
 11
131.884
 21
152.464
  0
LINE
  8
0
 10
131.884
 20
152.464
 11
131.464
 21
152.884
  0
LINE
  8
0
 10
131.464
 20
152.884
 11
131.194
 21
153.413
  0
LINE
  8
0
 10
131.194
 20
153.413
 11
131.101
 21
154
  0
LINE
  8
0
 10
131.101
 20
154
 11
131.194
 21
154.587
  0
LINE
  8
0
 10
131.194
 20
154.587
 11
131.464
 21
155.116
  0
LINE
  8
0
 10
131.464
 20
155.116
 11
131.884
 21
155.536
  0
LINE
  8
0
 10
131.884
 20
155.536
 11
132.413
 21
155.806
  0
LINE
  8
0
 10
132.413
 20
155.806
 11
133
 21
155.899
  0
LINE
  8
0
 10
133
 20
155.899
 11
133.587
 21
155.806
  0
LINE
  8
0
 10
133.587
 20
155.806
 11
134.116
 21
155.536
  0
LINE
  8
0
 10
134.116
 20
155.536
 11
134.536
 21
155.116
  0
LINE
  8
0
 10
134.536
 20
155.116
 11
134.806
 21
154.587
  0
LINE
  8
0
 10
134.806
 20
154.587
 11
134.899
 21
154
  0
LINE
  8
0
 10
134.899
 20
154
 11
134.806
 21
153.413
  0
LINE
  8
0
 10
134.806
 20
153.413
 11
134.536
 21
152.884
  0
LINE
  8
0
 10
134.536
 20
152.884
 11
134.116
 21
152.464
  0
LINE
  8
0
 10
134.116
 20
152.464
 11
133.587
 21
152.194
  0
LINE
  8
0
 10
133.587
 20
152.194
 11
133
 21
152.101
  0
LINE
  8
0
 10
133
 20
152.101
 11
132.413
 21
152.194
  0
LINE
  8
0
 10
96.4132
 20
128.194
 11
95.884
 21
128.464
  0
LINE
  8
0
 10
95.884
 20
128.464
 11
95.4639
 21
128.884
  0
LINE
  8
0
 10
95.4639
 20
128.884
 11
95.1942
 21
129.413
  0
LINE
  8
0
 10
95.1942
 20
129.413
 11
95.1012
 21
130
  0
LINE
  8
0
 10
95.1012
 20
130
 11
95.1942
 21
130.587
  0
LINE
  8
0
 10
95.1942
 20
130.587
 11
95.4639
 21
131.116
  0
LINE
  8
0
 10
95.4639
 20
131.116
 11
95.884
 21
131.536
  0
LINE
  8
0
 10
95.884
 20
131.536
 11
96.4132
 21
131.806
  0
LINE
  8
0
 10
96.4132
 20
131.806
 11
97
 21
131.899
  0
LINE
  8
0
 10
97
 20
131.899
 11
97.5868
 21
131.806
  0
LINE
  8
0
 10
97.5868
 20
131.806
 11
98.1161
 21
131.536
  0
LINE
  8
0
 10
98.1161
 20
131.536
 11
98.5361
 21
131.116
  0
LINE
  8
0
 10
98.5361
 20
131.116
 11
98.8058
 21
130.587
  0
LINE
  8
0
 10
98.8058
 20
130.587
 11
98.8988
 21
130
  0
LINE
  8
0
 10
98.8988
 20
130
 11
98.8058
 21
129.413
  0
LINE
  8
0
 10
98.8058
 20
129.413
 11
98.5361
 21
128.884
  0
LINE
  8
0
 10
98.5361
 20
128.884
 11
98.1161
 21
128.464
  0
LINE
  8
0
 10
98.1161
 20
128.464
 11
97.5868
 21
128.194
  0
LINE
  8
0
 10
97.5868
 20
128.194
 11
97
 21
128.101
  0
LINE
  8
0
 10
97
 20
128.101
 11
96.4132
 21
128.194
  0
LINE
  8
0
 10
96.4132
 20
116.194
 11
95.884
 21
116.464
  0
LINE
  8
0
 10
95.884
 20
116.464
 11
95.4639
 21
116.884
  0
LINE
  8
0
 10
95.4639
 20
116.884
 11
95.1942
 21
117.413
  0
LINE
  8
0
 10
95.1942
 20
117.413
 11
95.1012
 21
118
  0
LINE
  8
0
 10
95.1012
 20
118
 11
95.1942
 21
118.587
  0
LINE
  8
0
 10
95.1942
 20
118.587
 11
95.4639
 21
119.116
  0
LINE
  8
0
 10
95.4639
 20
119.116
 11
95.884
 21
119.536
  0
LINE
  8
0
 10
95.884
 20
119.536
 11
96.4132
 21
119.806
  0
LINE
  8
0
 10
96.4132
 20
119.806
 11
97
 21
119.899
  0
LINE
  8
0
 10
97
 20
119.899
 11
97.5868
 21
119.806
  0
LINE
  8
0
 10
97.5868
 20
119.806
 11
98.1161
 21
119.536
  0
LINE
  8
0
 10
98.1161
 20
119.536
 11
98.5361
 21
119.116
  0
LINE
  8
0
 10
98.5361
 20
119.116
 11
98.8058
 21
118.587
  0
LINE
  8
0
 10
98.8058
 20
118.587
 11
98.8988
 21
118
  0
LINE
  8
0
 10
98.8988
 20
118
 11
98.8058
 21
117.413
  0
LINE
  8
0
 10
98.8058
 20
117.413
 11
98.5361
 21
116.884
  0
LINE
  8
0
 10
98.5361
 20
116.884
 11
98.1161
 21
116.464
  0
LINE
  8
0
 10
98.1161
 20
116.464
 11
97.5868
 21
116.194
  0
LINE
  8
0
 10
97.5868
 20
116.194
 11
97
 21
116.101
  0
LINE
  8
0
 10
97
 20
116.101
 11
96.4132
 21
116.194
  0
LINE
  8
0
 10
132.413
 20
116.194
 11
131.884
 21
116.464
  0
LINE
  8
0
 10
131.884
 20
116.464
 11
131.464
 21
116.884
  0
LINE
  8
0
 10
131.464
 20
116.884
 11
131.194
 21
117.413
  0
LINE
  8
0
 10
131.194
 20
117.413
 11
131.101
 21
118
  0
LINE
  8
0
 10
131.101
 20
118
 11
131.194
 21
118.587
  0
LINE
  8
0
 10
131.194
 20
118.587
 11
131.464
 21
119.116
  0
LINE
  8
0
 10
131.464
 20
119.116
 11
131.884
 21
119.536
  0
LINE
  8
0
 10
131.884
 20
119.536
 11
132.413
 21
119.806
  0
LINE
  8
0
 10
132.413
 20
119.806
 11
133
 21
119.899
  0
LINE
  8
0
 10
133
 20
119.899
 11
133.587
 21
119.806
  0
LINE
  8
0
 10
133.587
 20
119.806
 11
134.116
 21
119.536
  0
LINE
  8
0
 10
134.116
 20
119.536
 11
134.536
 21
119.116
  0
LINE
  8
0
 10
134.536
 20
119.116
 11
134.806
 21
118.587
  0
LINE
  8
0
 10
134.806
 20
118.587
 11
134.899
 21
118
  0
LINE
  8
0
 10
134.899
 20
118
 11
134.806
 21
117.413
  0
LINE
  8
0
 10
134.806
 20
117.413
 11
134.536
 21
116.884
  0
LINE
  8
0
 10
134.536
 20
116.884
 11
134.116
 21
116.464
  0
LINE
  8
0
 10
134.116
 20
116.464
 11
133.587
 21
116.194
  0
LINE
  8
0
 10
133.587
 20
116.194
 11
133
 21
116.101
  0
LINE
  8
0
 10
133
 20
116.101
 11
132.413
 21
116.194
  0
LINE
  8
0
 10
19.2842
 20
122.904
 11
20.0694
 21
122.849
  0
LINE
  8
0
 10
20.0694
 20
122.849
 11
20.1006
 21
122.852
  0
LINE
  8
0
 10
20.1006
 20
122.852
 11
20.1294
 21
122.864
  0
LINE
  8
0
 10
20.1294
 20
122.864
 11
20.153
 21
122.885
  0
LINE
  8
0
 10
20.153
 20
122.885
 11
20.1691
 21
122.912
  0
LINE
  8
0
 10
20.1691
 20
122.912
 11
20.176
 21
122.947
  0
LINE
  8
0
 10
20.176
 20
122.947
 11
25.3353
 21
123.764
  0
LINE
  8
0
 10
25.3353
 20
123.764
 11
25.365
 21
123.774
  0
LINE
  8
0
 10
25.365
 20
123.774
 11
30.095
 21
126.184
  0
LINE
  8
0
 10
30.095
 20
126.184
 11
30.1203
 21
126.202
  0
LINE
  8
0
 10
30.1203
 20
126.202
 11
33.8741
 21
129.956
  0
LINE
  8
0
 10
33.8741
 20
129.956
 11
33.8924
 21
129.981
  0
LINE
  8
0
 10
33.8924
 20
129.981
 11
36.3025
 21
134.711
  0
LINE
  8
0
 10
36.3025
 20
134.711
 11
36.3122
 21
134.741
  0
LINE
  8
0
 10
36.3122
 20
134.741
 11
37.1426
 21
139.984
  0
LINE
  8
0
 10
37.1426
 20
139.984
 11
37.1438
 21
140
  0
LINE
  8
0
 10
37.1438
 20
140
 11
37.1438
 21
148.013
  0
LINE
  8
0
 10
37.1438
 20
148.013
 11
37.1389
 21
148.044
  0
LINE
  8
0
 10
37.1389
 20
148.044
 11
37.1247
 21
148.072
  0
LINE
  8
0
 10
37.1247
 20
148.072
 11
37.0984
 21
148.097
  0
LINE
  8
0
 10
37.0984
 20
148.097
 11
7.90318
 21
167.105
  0
LINE
  8
0
 10
7.90318
 20
167.105
 11
7.10875
 21
167.899
  0
LINE
  8
0
 10
7.10875
 20
167.899
 11
6.60115
 21
168.896
  0
LINE
  8
0
 10
6.60115
 20
168.896
 11
6.42377
 21
170.016
  0
LINE
  8
0
 10
6.42377
 20
170.016
 11
6.41409
 21
170.045
  0
LINE
  8
0
 10
6.41409
 20
170.045
 11
6.39571
 21
170.071
  0
LINE
  8
0
 10
6.39571
 20
170.071
 11
6.37039
 21
170.089
  0
LINE
  8
0
 10
6.37039
 20
170.089
 11
6.34064
 21
170.099
  0
LINE
  8
0
 10
6.34064
 20
170.099
 11
6.325
 21
170.1
  0
LINE
  8
0
 10
6.325
 20
170.1
 11
0
 21
170.1
  0
LINE
  8
0
 10
0
 20
170.1
 11
-0.030899
 21
170.095
  0
LINE
  8
0
 10
-0.030899
 20
170.095
 11
-0.0587769
 21
170.081
  0
LINE
  8
0
 10
-0.0587769
 20
170.081
 11
-0.0809021
 21
170.059
  0
LINE
  8
0
 10
-0.0809021
 20
170.059
 11
-0.095108
 21
170.031
  0
LINE
  8
0
 10
-0.095108
 20
170.031
 11
-0.100006
 21
170
  0
LINE
  8
0
 10
-0.100006
 20
170
 11
-0.100006
 21
121.318
  0
LINE
  8
0
 10
-0.100006
 20
121.318
 11
-0.095108
 21
121.287
  0
LINE
  8
0
 10
-0.095108
 20
121.287
 11
-0.0809021
 21
121.259
  0
LINE
  8
0
 10
-0.0809021
 20
121.259
 11
-0.0587769
 21
121.237
  0
LINE
  8
0
 10
-0.0587769
 20
121.237
 11
-0.030899
 21
121.222
  0
LINE
  8
0
 10
-0.030899
 20
121.222
 11
0.00871277
 21
121.218
  0
LINE
  8
0
 10
0.00871277
 20
121.218
 11
19.2842
 21
122.904
  0
LINE
  8
0
 10
7.41322
 20
141.194
 11
6.88394
 21
141.464
  0
LINE
  8
0
 10
6.88394
 20
141.464
 11
6.46385
 21
141.884
  0
LINE
  8
0
 10
6.46385
 20
141.884
 11
6.19418
 21
142.413
  0
LINE
  8
0
 10
6.19418
 20
142.413
 11
6.10124
 21
143
  0
LINE
  8
0
 10
6.10124
 20
143
 11
6.19418
 21
143.587
  0
LINE
  8
0
 10
6.19418
 20
143.587
 11
6.46385
 21
144.116
  0
LINE
  8
0
 10
6.46385
 20
144.116
 11
6.88394
 21
144.536
  0
LINE
  8
0
 10
6.88394
 20
144.536
 11
7.41322
 21
144.806
  0
LINE
  8
0
 10
7.41322
 20
144.806
 11
8
 21
144.899
  0
LINE
  8
0
 10
8
 20
144.899
 11
8.58676
 21
144.806
  0
LINE
  8
0
 10
8.58676
 20
144.806
 11
9.11604
 21
144.536
  0
LINE
  8
0
 10
9.11604
 20
144.536
 11
9.53613
 21
144.116
  0
LINE
  8
0
 10
9.53613
 20
144.116
 11
9.8058
 21
143.587
  0
LINE
  8
0
 10
9.8058
 20
143.587
 11
9.89876
 21
143
  0
LINE
  8
0
 10
9.89876
 20
143
 11
9.8058
 21
142.413
  0
LINE
  8
0
 10
9.8058
 20
142.413
 11
9.53613
 21
141.884
  0
LINE
  8
0
 10
9.53613
 20
141.884
 11
9.11604
 21
141.464
  0
LINE
  8
0
 10
9.11604
 20
141.464
 11
8.58676
 21
141.194
  0
LINE
  8
0
 10
8.58676
 20
141.194
 11
8
 21
141.101
  0
LINE
  8
0
 10
8
 20
141.101
 11
7.41322
 21
141.194
  0
LINE
  8
0
 10
19.4132
 20
141.194
 11
18.8839
 21
141.464
  0
LINE
  8
0
 10
18.8839
 20
141.464
 11
18.4639
 21
141.884
  0
LINE
  8
0
 10
18.4639
 20
141.884
 11
18.1942
 21
142.413
  0
LINE
  8
0
 10
18.1942
 20
142.413
 11
18.1012
 21
143
  0
LINE
  8
0
 10
18.1012
 20
143
 11
18.1942
 21
143.587
  0
LINE
  8
0
 10
18.1942
 20
143.587
 11
18.4639
 21
144.116
  0
LINE
  8
0
 10
18.4639
 20
144.116
 11
18.8839
 21
144.536
  0
LINE
  8
0
 10
18.8839
 20
144.536
 11
19.4132
 21
144.806
  0
LINE
  8
0
 10
19.4132
 20
144.806
 11
20
 21
144.899
  0
LINE
  8
0
 10
20
 20
144.899
 11
20.5868
 21
144.806
  0
LINE
  8
0
 10
20.5868
 20
144.806
 11
21.116
 21
144.536
  0
LINE
  8
0
 10
21.116
 20
144.536
 11
21.5361
 21
144.116
  0
LINE
  8
0
 10
21.5361
 20
144.116
 11
21.8058
 21
143.587
  0
LINE
  8
0
 10
21.8058
 20
143.587
 11
21.8988
 21
143
  0
LINE
  8
0
 10
21.8988
 20
143
 11
21.8058
 21
142.413
  0
LINE
  8
0
 10
21.8058
 20
142.413
 11
21.5361
 21
141.884
  0
LINE
  8
0
 10
21.5361
 20
141.884
 11
21.116
 21
141.464
  0
LINE
  8
0
 10
21.116
 20
141.464
 11
20.5868
 21
141.194
  0
LINE
  8
0
 10
20.5868
 20
141.194
 11
20
 21
141.101
  0
LINE
  8
0
 10
20
 20
141.101
 11
19.4132
 21
141.194
  0
LINE
  8
0
 10
220.031
 20
109.905
 11
220.059
 21
109.919
  0
LINE
  8
0
 10
220.059
 20
109.919
 11
220.081
 21
109.941
  0
LINE
  8
0
 10
220.081
 20
109.941
 11
220.095
 21
109.969
  0
LINE
  8
0
 10
220.095
 20
109.969
 11
220.1
 21
110
  0
LINE
  8
0
 10
220.1
 20
110
 11
220.1
 21
170
  0
LINE
  8
0
 10
220.1
 20
170
 11
220.095
 21
170.031
  0
LINE
  8
0
 10
220.095
 20
170.031
 11
220.081
 21
170.059
  0
LINE
  8
0
 10
220.081
 20
170.059
 11
220.059
 21
170.081
  0
LINE
  8
0
 10
220.059
 20
170.081
 11
220.031
 21
170.095
  0
LINE
  8
0
 10
220.031
 20
170.095
 11
220
 21
170.1
  0
LINE
  8
0
 10
220
 20
170.1
 11
150
 21
170.1
  0
LINE
  8
0
 10
150
 20
170.1
 11
149.969
 21
170.095
  0
LINE
  8
0
 10
149.969
 20
170.095
 11
149.941
 21
170.081
  0
LINE
  8
0
 10
149.941
 20
170.081
 11
149.919
 21
170.059
  0
LINE
  8
0
 10
149.919
 20
170.059
 11
149.905
 21
170.031
  0
LINE
  8
0
 10
149.905
 20
170.031
 11
149.9
 21
170
  0
LINE
  8
0
 10
149.9
 20
170
 11
149.9
 21
110
  0
LINE
  8
0
 10
149.9
 20
110
 11
149.905
 21
109.969
  0
LINE
  8
0
 10
149.905
 20
109.969
 11
149.919
 21
109.941
  0
LINE
  8
0
 10
149.919
 20
109.941
 11
149.941
 21
109.919
  0
LINE
  8
0
 10
149.941
 20
109.919
 11
149.969
 21
109.905
  0
LINE
  8
0
 10
149.969
 20
109.905
 11
150
 21
109.9
  0
LINE
  8
0
 10
150
 20
109.9
 11
220
 21
109.9
  0
LINE
  8
0
 10
220
 20
109.9
 11
220.031
 21
109.905
  0
LINE
  8
0
 10
176.413
 20
164.194
 11
175.884
 21
164.464
  0
LINE
  8
0
 10
175.884
 20
164.464
 11
175.464
 21
164.884
  0
LINE
  8
0
 10
175.464
 20
164.884
 11
175.194
 21
165.413
  0
LINE
  8
0
 10
175.194
 20
165.413
 11
175.101
 21
166
  0
LINE
  8
0
 10
175.101
 20
166
 11
175.194
 21
166.587
  0
LINE
  8
0
 10
175.194
 20
166.587
 11
175.464
 21
167.116
  0
LINE
  8
0
 10
175.464
 20
167.116
 11
175.884
 21
167.536
  0
LINE
  8
0
 10
175.884
 20
167.536
 11
176.413
 21
167.806
  0
LINE
  8
0
 10
176.413
 20
167.806
 11
177
 21
167.899
  0
LINE
  8
0
 10
177
 20
167.899
 11
177.587
 21
167.806
  0
LINE
  8
0
 10
177.587
 20
167.806
 11
178.116
 21
167.536
  0
LINE
  8
0
 10
178.116
 20
167.536
 11
178.536
 21
167.116
  0
LINE
  8
0
 10
178.536
 20
167.116
 11
178.806
 21
166.587
  0
LINE
  8
0
 10
178.806
 20
166.587
 11
178.899
 21
166
  0
LINE
  8
0
 10
178.899
 20
166
 11
178.806
 21
165.413
  0
LINE
  8
0
 10
178.806
 20
165.413
 11
178.536
 21
164.884
  0
LINE
  8
0
 10
178.536
 20
164.884
 11
178.116
 21
164.464
  0
LINE
  8
0
 10
178.116
 20
164.464
 11
177.587
 21
164.194
  0
LINE
  8
0
 10
177.587
 20
164.194
 11
177
 21
164.101
  0
LINE
  8
0
 10
177
 20
164.101
 11
176.413
 21
164.194
  0
LINE
  8
0
 10
212.413
 20
152.194
 11
211.884
 21
152.464
  0
LINE
  8
0
 10
211.884
 20
152.464
 11
211.464
 21
152.884
  0
LINE
  8
0
 10
211.464
 20
152.884
 11
211.194
 21
153.413
  0
LINE
  8
0
 10
211.194
 20
153.413
 11
211.101
 21
154
  0
LINE
  8
0
 10
211.101
 20
154
 11
211.194
 21
154.587
  0
LINE
  8
0
 10
211.194
 20
154.587
 11
211.464
 21
155.116
  0
LINE
  8
0
 10
211.464
 20
155.116
 11
211.884
 21
155.536
  0
LINE
  8
0
 10
211.884
 20
155.536
 11
212.413
 21
155.806
  0
LINE
  8
0
 10
212.413
 20
155.806
 11
213
 21
155.899
  0
LINE
  8
0
 10
213
 20
155.899
 11
213.587
 21
155.806
  0
LINE
  8
0
 10
213.587
 20
155.806
 11
214.116
 21
155.536
  0
LINE
  8
0
 10
214.116
 20
155.536
 11
214.536
 21
155.116
  0
LINE
  8
0
 10
214.536
 20
155.116
 11
214.806
 21
154.587
  0
LINE
  8
0
 10
214.806
 20
154.587
 11
214.899
 21
154
  0
LINE
  8
0
 10
214.899
 20
154
 11
214.806
 21
153.413
  0
LINE
  8
0
 10
214.806
 20
153.413
 11
214.536
 21
152.884
  0
LINE
  8
0
 10
214.536
 20
152.884
 11
214.116
 21
152.464
  0
LINE
  8
0
 10
214.116
 20
152.464
 11
213.587
 21
152.194
  0
LINE
  8
0
 10
213.587
 20
152.194
 11
213
 21
152.101
  0
LINE
  8
0
 10
213
 20
152.101
 11
212.413
 21
152.194
  0
LINE
  8
0
 10
176.413
 20
128.194
 11
175.884
 21
128.464
  0
LINE
  8
0
 10
175.884
 20
128.464
 11
175.464
 21
128.884
  0
LINE
  8
0
 10
175.464
 20
128.884
 11
175.194
 21
129.413
  0
LINE
  8
0
 10
175.194
 20
129.413
 11
175.101
 21
130
  0
LINE
  8
0
 10
175.101
 20
130
 11
175.194
 21
130.587
  0
LINE
  8
0
 10
175.194
 20
130.587
 11
175.464
 21
131.116
  0
LINE
  8
0
 10
175.464
 20
131.116
 11
175.884
 21
131.536
  0
LINE
  8
0
 10
175.884
 20
131.536
 11
176.413
 21
131.806
  0
LINE
  8
0
 10
176.413
 20
131.806
 11
177
 21
131.899
  0
LINE
  8
0
 10
177
 20
131.899
 11
177.587
 21
131.806
  0
LINE
  8
0
 10
177.587
 20
131.806
 11
178.116
 21
131.536
  0
LINE
  8
0
 10
178.116
 20
131.536
 11
178.536
 21
131.116
  0
LINE
  8
0
 10
178.536
 20
131.116
 11
178.806
 21
130.587
  0
LINE
  8
0
 10
178.806
 20
130.587
 11
178.899
 21
130
  0
LINE
  8
0
 10
178.899
 20
130
 11
178.806
 21
129.413
  0
LINE
  8
0
 10
178.806
 20
129.413
 11
178.536
 21
128.884
  0
LINE
  8
0
 10
178.536
 20
128.884
 11
178.116
 21
128.464
  0
LINE
  8
0
 10
178.116
 20
128.464
 11
177.587
 21
128.194
  0
LINE
  8
0
 10
177.587
 20
128.194
 11
177
 21
128.101
  0
LINE
  8
0
 10
177
 20
128.101
 11
176.413
 21
128.194
  0
LINE
  8
0
 10
176.413
 20
116.194
 11
175.884
 21
116.464
  0
LINE
  8
0
 10
175.884
 20
116.464
 11
175.464
 21
116.884
  0
LINE
  8
0
 10
175.464
 20
116.884
 11
175.194
 21
117.413
  0
LINE
  8
0
 10
175.194
 20
117.413
 11
175.101
 21
118
  0
LINE
  8
0
 10
175.101
 20
118
 11
175.194
 21
118.587
  0
LINE
  8
0
 10
175.194
 20
118.587
 11
175.464
 21
119.116
  0
LINE
  8
0
 10
175.464
 20
119.116
 11
175.884
 21
119.536
  0
LINE
  8
0
 10
175.884
 20
119.536
 11
176.413
 21
119.806
  0
LINE
  8
0
 10
176.413
 20
119.806
 11
177
 21
119.899
  0
LINE
  8
0
 10
177
 20
119.899
 11
177.587
 21
119.806
  0
LINE
  8
0
 10
177.587
 20
119.806
 11
178.116
 21
119.536
  0
LINE
  8
0
 10
178.116
 20
119.536
 11
178.536
 21
119.116
  0
LINE
  8
0
 10
178.536
 20
119.116
 11
178.806
 21
118.587
  0
LINE
  8
0
 10
178.806
 20
118.587
 11
178.899
 21
118
  0
LINE
  8
0
 10
178.899
 20
118
 11
178.806
 21
117.413
  0
LINE
  8
0
 10
178.806
 20
117.413
 11
178.536
 21
116.884
  0
LINE
  8
0
 10
178.536
 20
116.884
 11
178.116
 21
116.464
  0
LINE
  8
0
 10
178.116
 20
116.464
 11
177.587
 21
116.194
  0
LINE
  8
0
 10
177.587
 20
116.194
 11
177
 21
116.101
  0
LINE
  8
0
 10
177
 20
116.101
 11
176.413
 21
116.194
  0
LINE
  8
0
 10
212.413
 20
116.194
 11
211.884
 21
116.464
  0
LINE
  8
0
 10
211.884
 20
116.464
 11
211.464
 21
116.884
  0
LINE
  8
0
 10
211.464
 20
116.884
 11
211.194
 21
117.413
  0
LINE
  8
0
 10
211.194
 20
117.413
 11
211.101
 21
118
  0
LINE
  8
0
 10
211.101
 20
118
 11
211.194
 21
118.587
  0
LINE
  8
0
 10
211.194
 20
118.587
 11
211.464
 21
119.116
  0
LINE
  8
0
 10
211.464
 20
119.116
 11
211.884
 21
119.536
  0
LINE
  8
0
 10
211.884
 20
119.536
 11
212.413
 21
119.806
  0
LINE
  8
0
 10
212.413
 20
119.806
 11
213
 21
119.899
  0
LINE
  8
0
 10
213
 20
119.899
 11
213.587
 21
119.806
  0
LINE
  8
0
 10
213.587
 20
119.806
 11
214.116
 21
119.536
  0
LINE
  8
0
 10
214.116
 20
119.536
 11
214.536
 21
119.116
  0
LINE
  8
0
 10
214.536
 20
119.116
 11
214.806
 21
118.587
  0
LINE
  8
0
 10
214.806
 20
118.587
 11
214.899
 21
118
  0
LINE
  8
0
 10
214.899
 20
118
 11
214.806
 21
117.413
  0
LINE
  8
0
 10
214.806
 20
117.413
 11
214.536
 21
116.884
  0
LINE
  8
0
 10
214.536
 20
116.884
 11
214.116
 21
116.464
  0
LINE
  8
0
 10
214.116
 20
116.464
 11
213.587
 21
116.194
  0
LINE
  8
0
 10
213.587
 20
116.194
 11
213
 21
116.101
  0
LINE
  8
0
 10
213
 20
116.101
 11
212.413
 21
116.194
  0
LINE
  8
0
 10
205.831
 20
91.2549
 11
205.859
 21
91.2691
  0
LINE
  8
0
 10
205.859
 20
91.2691
 11
205.881
 21
91.2912
  0
LINE
  8
0
 10
205.881
 20
91.2912
 11
205.895
 21
91.3191
  0
LINE
  8
0
 10
205.895
 20
91.3191
 11
205.9
 21
91.35
  0
LINE
  8
0
 10
205.9
 20
91.35
 11
205.9
 21
101.35
  0
LINE
  8
0
 10
205.9
 20
101.35
 11
205.895
 21
101.381
  0
LINE
  8
0
 10
205.895
 20
101.381
 11
205.881
 21
101.409
  0
LINE
  8
0
 10
205.881
 20
101.409
 11
205.859
 21
101.431
  0
LINE
  8
0
 10
205.859
 20
101.431
 11
205.831
 21
101.445
  0
LINE
  8
0
 10
205.831
 20
101.445
 11
205.8
 21
101.45
  0
LINE
  8
0
 10
205.8
 20
101.45
 11
155
 21
101.45
  0
LINE
  8
0
 10
155
 20
101.45
 11
154.969
 21
101.445
  0
LINE
  8
0
 10
154.969
 20
101.445
 11
154.941
 21
101.431
  0
LINE
  8
0
 10
154.941
 20
101.431
 11
154.919
 21
101.409
  0
LINE
  8
0
 10
154.919
 20
101.409
 11
154.905
 21
101.381
  0
LINE
  8
0
 10
154.905
 20
101.381
 11
154.9
 21
101.35
  0
LINE
  8
0
 10
154.9
 20
101.35
 11
154.9
 21
91.35
  0
LINE
  8
0
 10
154.9
 20
91.35
 11
154.905
 21
91.3191
  0
LINE
  8
0
 10
154.905
 20
91.3191
 11
154.919
 21
91.2912
  0
LINE
  8
0
 10
154.919
 20
91.2912
 11
154.941
 21
91.2691
  0
LINE
  8
0
 10
154.941
 20
91.2691
 11
154.969
 21
91.2549
  0
LINE
  8
0
 10
154.969
 20
91.2549
 11
155
 21
91.25
  0
LINE
  8
0
 10
155
 20
91.25
 11
205.8
 21
91.25
  0
LINE
  8
0
 10
205.8
 20
91.25
 11
205.831
 21
91.2549
  0
LINE
  8
0
 10
164.568
 20
96.0197
 11
164.178
 21
96.2184
  0
LINE
  8
0
 10
164.178
 20
96.2184
 11
163.868
 21
96.5278
  0
LINE
  8
0
 10
163.868
 20
96.5278
 11
163.67
 21
96.9177
  0
LINE
  8
0
 10
163.67
 20
96.9177
 11
163.601
 21
97.35
  0
LINE
  8
0
 10
163.601
 20
97.35
 11
163.67
 21
97.7823
  0
LINE
  8
0
 10
163.67
 20
97.7823
 11
163.868
 21
98.1721
  0
LINE
  8
0
 10
163.868
 20
98.1721
 11
164.178
 21
98.4816
  0
LINE
  8
0
 10
164.178
 20
98.4816
 11
164.568
 21
98.6803
  0
LINE
  8
0
 10
164.568
 20
98.6803
 11
165
 21
98.7487
  0
LINE
  8
0
 10
165
 20
98.7487
 11
165.432
 21
98.6803
  0
LINE
  8
0
 10
165.432
 20
98.6803
 11
165.822
 21
98.4816
  0
LINE
  8
0
 10
165.822
 20
98.4816
 11
166.132
 21
98.1721
  0
LINE
  8
0
 10
166.132
 20
98.1721
 11
166.33
 21
97.7823
  0
LINE
  8
0
 10
166.33
 20
97.7823
 11
166.399
 21
97.35
  0
LINE
  8
0
 10
166.399
 20
97.35
 11
166.33
 21
96.9177
  0
LINE
  8
0
 10
166.33
 20
96.9177
 11
166.132
 21
96.5278
  0
LINE
  8
0
 10
166.132
 20
96.5278
 11
165.822
 21
96.2184
  0
LINE
  8
0
 10
165.822
 20
96.2184
 11
165.432
 21
96.0197
  0
LINE
  8
0
 10
165.432
 20
96.0197
 11
165
 21
95.9512
  0
LINE
  8
0
 10
165
 20
95.9512
 11
164.568
 21
96.0197
  0
LINE
  8
0
 10
195.368
 20
96.0197
 11
194.978
 21
96.2184
  0
LINE
  8
0
 10
194.978
 20
96.2184
 11
194.668
 21
96.5278
  0
LINE
  8
0
 10
194.668
 20
96.5278
 11
194.47
 21
96.9177
  0
LINE
  8
0
 10
194.47
 20
96.9177
 11
194.401
 21
97.35
  0
LINE
  8
0
 10
194.401
 20
97.35
 11
194.47
 21
97.7823
  0
LINE
  8
0
 10
194.47
 20
97.7823
 11
194.668
 21
98.1721
  0
LINE
  8
0
 10
194.668
 20
98.1721
 11
194.978
 21
98.4816
  0
LINE
  8
0
 10
194.978
 20
98.4816
 11
195.368
 21
98.6803
  0
LINE
  8
0
 10
195.368
 20
98.6803
 11
195.8
 21
98.7487
  0
LINE
  8
0
 10
195.8
 20
98.7487
 11
196.232
 21
98.6803
  0
LINE
  8
0
 10
196.232
 20
98.6803
 11
196.622
 21
98.4816
  0
LINE
  8
0
 10
196.622
 20
98.4816
 11
196.932
 21
98.1721
  0
LINE
  8
0
 10
196.932
 20
98.1721
 11
197.13
 21
97.7823
  0
LINE
  8
0
 10
197.13
 20
97.7823
 11
197.199
 21
97.35
  0
LINE
  8
0
 10
197.199
 20
97.35
 11
197.13
 21
96.9177
  0
LINE
  8
0
 10
197.13
 20
96.9177
 11
196.932
 21
96.5278
  0
LINE
  8
0
 10
196.932
 20
96.5278
 11
196.622
 21
96.2184
  0
LINE
  8
0
 10
196.622
 20
96.2184
 11
196.232
 21
96.0197
  0
LINE
  8
0
 10
196.232
 20
96.0197
 11
195.8
 21
95.9512
  0
LINE
  8
0
 10
195.8
 20
95.9512
 11
195.368
 21
96.0197
  0
LINE
  8
0
 10
280.031
 20
-0.095108
 11
280.059
 21
-0.0809021
  0
LINE
  8
0
 10
280.059
 20
-0.0809021
 11
280.081
 21
-0.0587769
  0
LINE
  8
0
 10
280.081
 20
-0.0587769
 11
280.095
 21
-0.030899
  0
LINE
  8
0
 10
280.095
 20
-0.030899
 11
280.1
 21
0
  0
LINE
  8
0
 10
280.1
 20
0
 11
280.1
 21
100
  0
LINE
  8
0
 10
280.1
 20
100
 11
280.095
 21
100.031
  0
LINE
  8
0
 10
280.095
 20
100.031
 11
280.081
 21
100.059
  0
LINE
  8
0
 10
280.081
 20
100.059
 11
280.059
 21
100.081
  0
LINE
  8
0
 10
280.059
 20
100.081
 11
280.031
 21
100.095
  0
LINE
  8
0
 10
280.031
 20
100.095
 11
280
 21
100.1
  0
LINE
  8
0
 10
280
 20
100.1
 11
250
 21
100.1
  0
LINE
  8
0
 10
250
 20
100.1
 11
249.969
 21
100.095
  0
LINE
  8
0
 10
249.969
 20
100.095
 11
249.941
 21
100.081
  0
LINE
  8
0
 10
249.941
 20
100.081
 11
249.919
 21
100.059
  0
LINE
  8
0
 10
249.919
 20
100.059
 11
249.905
 21
100.031
  0
LINE
  8
0
 10
249.905
 20
100.031
 11
249.9
 21
100
  0
LINE
  8
0
 10
249.9
 20
100
 11
249.9
 21
0
  0
LINE
  8
0
 10
249.9
 20
0
 11
249.905
 21
-0.030899
  0
LINE
  8
0
 10
249.905
 20
-0.030899
 11
249.919
 21
-0.0587769
  0
LINE
  8
0
 10
249.919
 20
-0.0587769
 11
249.941
 21
-0.0809021
  0
LINE
  8
0
 10
249.941
 20
-0.0809021
 11
249.969
 21
-0.095108
  0
LINE
  8
0
 10
249.969
 20
-0.095108
 11
250
 21
-0.100006
  0
LINE
  8
0
 10
250
 20
-0.100006
 11
280
 21
-0.100006
  0
LINE
  8
0
 10
280
 20
-0.100006
 11
280.031
 21
-0.095108
  0
LINE
  8
0
 10
268.413
 20
90.7942
 11
267.884
 21
91.0639
  0
LINE
  8
0
 10
267.884
 20
91.0639
 11
267.464
 21
91.4839
  0
LINE
  8
0
 10
267.464
 20
91.4839
 11
267.194
 21
92.0132
  0
LINE
  8
0
 10
267.194
 20
92.0132
 11
267.101
 21
92.6
  0
LINE
  8
0
 10
267.101
 20
92.6
 11
267.194
 21
93.1868
  0
LINE
  8
0
 10
267.194
 20
93.1868
 11
267.464
 21
93.716
  0
LINE
  8
0
 10
267.464
 20
93.716
 11
267.884
 21
94.1361
  0
LINE
  8
0
 10
267.884
 20
94.1361
 11
268.413
 21
94.4058
  0
LINE
  8
0
 10
268.413
 20
94.4058
 11
269
 21
94.4987
  0
LINE
  8
0
 10
269
 20
94.4987
 11
269.587
 21
94.4058
  0
LINE
  8
0
 10
269.587
 20
94.4058
 11
270.116
 21
94.1361
  0
LINE
  8
0
 10
270.116
 20
94.1361
 11
270.536
 21
93.716
  0
LINE
  8
0
 10
270.536
 20
93.716
 11
270.806
 21
93.1868
  0
LINE
  8
0
 10
270.806
 20
93.1868
 11
270.899
 21
92.6
  0
LINE
  8
0
 10
270.899
 20
92.6
 11
270.806
 21
92.0132
  0
LINE
  8
0
 10
270.806
 20
92.0132
 11
270.536
 21
91.4839
  0
LINE
  8
0
 10
270.536
 20
91.4839
 11
270.116
 21
91.0639
  0
LINE
  8
0
 10
270.116
 20
91.0639
 11
269.587
 21
90.7942
  0
LINE
  8
0
 10
269.587
 20
90.7942
 11
269
 21
90.7012
  0
LINE
  8
0
 10
269
 20
90.7012
 11
268.413
 21
90.7942
  0
LINE
  8
0
 10
275.568
 20
85.6697
 11
275.178
 21
85.8684
  0
LINE
  8
0
 10
275.178
 20
85.8684
 11
274.868
 21
86.1778
  0
LINE
  8
0
 10
274.868
 20
86.1778
 11
274.67
 21
86.5677
  0
LINE
  8
0
 10
274.67
 20
86.5677
 11
274.601
 21
87
  0
LINE
  8
0
 10
274.601
 20
87
 11
274.67
 21
87.4323
  0
LINE
  8
0
 10
274.67
 20
87.4323
 11
274.868
 21
87.8221
  0
LINE
  8
0
 10
274.868
 20
87.8221
 11
275.178
 21
88.1316
  0
LINE
  8
0
 10
275.178
 20
88.1316
 11
275.568
 21
88.3303
  0
LINE
  8
0
 10
275.568
 20
88.3303
 11
276
 21
88.3988
  0
LINE
  8
0
 10
276
 20
88.3988
 11
276.432
 21
88.3303
  0
LINE
  8
0
 10
276.432
 20
88.3303
 11
276.822
 21
88.1316
  0
LINE
  8
0
 10
276.822
 20
88.1316
 11
277.132
 21
87.8221
  0
LINE
  8
0
 10
277.132
 20
87.8221
 11
277.33
 21
87.4323
  0
LINE
  8
0
 10
277.33
 20
87.4323
 11
277.399
 21
87
  0
LINE
  8
0
 10
277.399
 20
87
 11
277.33
 21
86.5677
  0
LINE
  8
0
 10
277.33
 20
86.5677
 11
277.132
 21
86.1778
  0
LINE
  8
0
 10
277.132
 20
86.1778
 11
276.822
 21
85.8684
  0
LINE
  8
0
 10
276.822
 20
85.8684
 11
276.432
 21
85.6697
  0
LINE
  8
0
 10
276.432
 20
85.6697
 11
276
 21
85.6012
  0
LINE
  8
0
 10
276
 20
85.6012
 11
275.568
 21
85.6697
  0
LINE
  8
0
 10
254.568
 20
78.6697
 11
254.178
 21
78.8683
  0
LINE
  8
0
 10
254.178
 20
78.8683
 11
253.868
 21
79.1778
  0
LINE
  8
0
 10
253.868
 20
79.1778
 11
253.67
 21
79.5677
  0
LINE
  8
0
 10
253.67
 20
79.5677
 11
253.601
 21
80
  0
LINE
  8
0
 10
253.601
 20
80
 11
253.67
 21
80.4322
  0
LINE
  8
0
 10
253.67
 20
80.4322
 11
253.868
 21
80.8221
  0
LINE
  8
0
 10
253.868
 20
80.8221
 11
254.178
 21
81.1316
  0
LINE
  8
0
 10
254.178
 20
81.1316
 11
254.568
 21
81.3303
  0
LINE
  8
0
 10
254.568
 20
81.3303
 11
255
 21
81.3987
  0
LINE
  8
0
 10
255
 20
81.3987
 11
255.432
 21
81.3303
  0
LINE
  8
0
 10
255.432
 20
81.3303
 11
255.822
 21
81.1316
  0
LINE
  8
0
 10
255.822
 20
81.1316
 11
256.132
 21
80.8221
  0
LINE
  8
0
 10
256.132
 20
80.8221
 11
256.33
 21
80.4322
  0
LINE
  8
0
 10
256.33
 20
80.4322
 11
256.399
 21
80
  0
LINE
  8
0
 10
256.399
 20
80
 11
256.33
 21
79.5677
  0
LINE
  8
0
 10
256.33
 20
79.5677
 11
256.132
 21
79.1778
  0
LINE
  8
0
 10
256.132
 20
79.1778
 11
255.822
 21
78.8683
  0
LINE
  8
0
 10
255.822
 20
78.8683
 11
255.432
 21
78.6697
  0
LINE
  8
0
 10
255.432
 20
78.6697
 11
255
 21
78.6012
  0
LINE
  8
0
 10
255
 20
78.6012
 11
254.568
 21
78.6697
  0
LINE
  8
0
 10
254.568
 20
18.6697
 11
254.178
 21
18.8684
  0
LINE
  8
0
 10
254.178
 20
18.8684
 11
253.868
 21
19.1779
  0
LINE
  8
0
 10
253.868
 20
19.1779
 11
253.67
 21
19.5677
  0
LINE
  8
0
 10
253.67
 20
19.5677
 11
253.601
 21
20
  0
LINE
  8
0
 10
253.601
 20
20
 11
253.67
 21
20.4323
  0
LINE
  8
0
 10
253.67
 20
20.4323
 11
253.868
 21
20.8222
  0
LINE
  8
0
 10
253.868
 20
20.8222
 11
254.178
 21
21.1316
  0
LINE
  8
0
 10
254.178
 20
21.1316
 11
254.568
 21
21.3303
  0
LINE
  8
0
 10
254.568
 20
21.3303
 11
255
 21
21.3988
  0
LINE
  8
0
 10
255
 20
21.3988
 11
255.432
 21
21.3303
  0
LINE
  8
0
 10
255.432
 20
21.3303
 11
255.822
 21
21.1316
  0
LINE
  8
0
 10
255.822
 20
21.1316
 11
256.132
 21
20.8222
  0
LINE
  8
0
 10
256.132
 20
20.8222
 11
256.33
 21
20.4323
  0
LINE
  8
0
 10
256.33
 20
20.4323
 11
256.399
 21
20
  0
LINE
  8
0
 10
256.399
 20
20
 11
256.33
 21
19.5677
  0
LINE
  8
0
 10
256.33
 20
19.5677
 11
256.132
 21
19.1779
  0
LINE
  8
0
 10
256.132
 20
19.1779
 11
255.822
 21
18.8684
  0
LINE
  8
0
 10
255.822
 20
18.8684
 11
255.432
 21
18.6697
  0
LINE
  8
0
 10
255.432
 20
18.6697
 11
255
 21
18.6012
  0
LINE
  8
0
 10
255
 20
18.6012
 11
254.568
 21
18.6697
  0
LINE
  8
0
 10
275.568
 20
11.6697
 11
275.178
 21
11.8684
  0
LINE
  8
0
 10
275.178
 20
11.8684
 11
274.868
 21
12.1779
  0
LINE
  8
0
 10
274.868
 20
12.1779
 11
274.67
 21
12.5677
  0
LINE
  8
0
 10
274.67
 20
12.5677
 11
274.601
 21
13
  0
LINE
  8
0
 10
274.601
 20
13
 11
274.67
 21
13.4323
  0
LINE
  8
0
 10
274.67
 20
13.4323
 11
274.868
 21
13.8222
  0
LINE
  8
0
 10
274.868
 20
13.8222
 11
275.178
 21
14.1316
  0
LINE
  8
0
 10
275.178
 20
14.1316
 11
275.568
 21
14.3303
  0
LINE
  8
0
 10
275.568
 20
14.3303
 11
276
 21
14.3988
  0
LINE
  8
0
 10
276
 20
14.3988
 11
276.432
 21
14.3303
  0
LINE
  8
0
 10
276.432
 20
14.3303
 11
276.822
 21
14.1316
  0
LINE
  8
0
 10
276.822
 20
14.1316
 11
277.132
 21
13.8222
  0
LINE
  8
0
 10
277.132
 20
13.8222
 11
277.33
 21
13.4323
  0
LINE
  8
0
 10
277.33
 20
13.4323
 11
277.399
 21
13
  0
LINE
  8
0
 10
277.399
 20
13
 11
277.33
 21
12.5677
  0
LINE
  8
0
 10
277.33
 20
12.5677
 11
277.132
 21
12.1779
  0
LINE
  8
0
 10
277.132
 20
12.1779
 11
276.822
 21
11.8684
  0
LINE
  8
0
 10
276.822
 20
11.8684
 11
276.432
 21
11.6697
  0
LINE
  8
0
 10
276.432
 20
11.6697
 11
276
 21
11.6012
  0
LINE
  8
0
 10
276
 20
11.6012
 11
275.568
 21
11.6697
  0
LINE
  8
0
 10
268.413
 20
6.79419
 11
267.884
 21
7.06387
  0
LINE
  8
0
 10
267.884
 20
7.06387
 11
267.464
 21
7.48396
  0
LINE
  8
0
 10
267.464
 20
7.48396
 11
267.194
 21
8.01324
  0
LINE
  8
0
 10
267.194
 20
8.01324
 11
267.101
 21
8.60001
  0
LINE
  8
0
 10
267.101
 20
8.60001
 11
267.194
 21
9.18678
  0
LINE
  8
0
 10
267.194
 20
9.18678
 11
267.464
 21
9.71605
  0
LINE
  8
0
 10
267.464
 20
9.71605
 11
267.884
 21
10.1362
  0
LINE
  8
0
 10
267.884
 20
10.1362
 11
268.413
 21
10.4058
  0
LINE
  8
0
 10
268.413
 20
10.4058
 11
269
 21
10.4988
  0
LINE
  8
0
 10
269
 20
10.4988
 11
269.587
 21
10.4058
  0
LINE
  8
0
 10
269.587
 20
10.4058
 11
270.116
 21
10.1362
  0
LINE
  8
0
 10
270.116
 20
10.1362
 11
270.536
 21
9.71605
  0
LINE
  8
0
 10
270.536
 20
9.71605
 11
270.806
 21
9.18678
  0
LINE
  8
0
 10
270.806
 20
9.18678
 11
270.899
 21
8.60001
  0
LINE
  8
0
 10
270.899
 20
8.60001
 11
270.806
 21
8.01324
  0
LINE
  8
0
 10
270.806
 20
8.01324
 11
270.536
 21
7.48396
  0
LINE
  8
0
 10
270.536
 20
7.48396
 11
270.116
 21
7.06387
  0
LINE
  8
0
 10
270.116
 20
7.06387
 11
269.587
 21
6.79419
  0
LINE
  8
0
 10
269.587
 20
6.79419
 11
269
 21
6.70125
  0
LINE
  8
0
 10
269
 20
6.70125
 11
268.413
 21
6.79419
  0
LINE
  8
0
 10
220.031
 20
-0.095108
 11
220.059
 21
-0.0809021
  0
LINE
  8
0
 10
220.059
 20
-0.0809021
 11
220.081
 21
-0.0587769
  0
LINE
  8
0
 10
220.081
 20
-0.0587769
 11
220.095
 21
-0.030899
  0
LINE
  8
0
 10
220.095
 20
-0.030899
 11
220.1
 21
0
  0
LINE
  8
0
 10
220.1
 20
0
 11
220.1
 21
14.0098
  0
LINE
  8
0
 10
220.1
 20
14.0098
 11
220.335
 21
14.1297
  0
LINE
  8
0
 10
220.335
 20
14.1297
 11
220.361
 21
14.1481
  0
LINE
  8
0
 10
220.361
 20
14.1481
 11
222.352
 21
16.1392
  0
LINE
  8
0
 10
222.352
 20
16.1392
 11
222.37
 21
16.1645
  0
LINE
  8
0
 10
222.37
 20
16.1645
 11
223.649
 21
18.6734
  0
LINE
  8
0
 10
223.649
 20
18.6734
 11
223.658
 21
18.7032
  0
LINE
  8
0
 10
223.658
 20
18.7032
 11
223.861
 21
19.9844
  0
LINE
  8
0
 10
223.861
 20
19.9844
 11
223.861
 21
20.0156
  0
LINE
  8
0
 10
223.861
 20
20.0156
 11
223.852
 21
20.0454
  0
LINE
  8
0
 10
223.852
 20
20.0454
 11
223.833
 21
20.0707
  0
LINE
  8
0
 10
223.833
 20
20.0707
 11
223.808
 21
20.0891
  0
LINE
  8
0
 10
223.808
 20
20.0891
 11
223.778
 21
20.0988
  0
LINE
  8
0
 10
223.778
 20
20.0988
 11
223.762
 21
20.1
  0
LINE
  8
0
 10
223.762
 20
20.1
 11
220.1
 21
20.1
  0
LINE
  8
0
 10
220.1
 20
20.1
 11
220.1
 21
22.9
  0
LINE
  8
0
 10
220.1
 20
22.9
 11
223.762
 21
22.9
  0
LINE
  8
0
 10
223.762
 20
22.9
 11
223.793
 21
22.9049
  0
LINE
  8
0
 10
223.793
 20
22.9049
 11
223.821
 21
22.9191
  0
LINE
  8
0
 10
223.821
 20
22.9191
 11
223.843
 21
22.9412
  0
LINE
  8
0
 10
223.843
 20
22.9412
 11
223.858
 21
22.9691
  0
LINE
  8
0
 10
223.858
 20
22.9691
 11
223.862
 21
23
  0
LINE
  8
0
 10
223.862
 20
23
 11
223.861
 21
23.0156
  0
LINE
  8
0
 10
223.861
 20
23.0156
 11
223.658
 21
24.2968
  0
LINE
  8
0
 10
223.658
 20
24.2968
 11
223.649
 21
24.3265
  0
LINE
  8
0
 10
223.649
 20
24.3265
 11
222.37
 21
26.8354
  0
LINE
  8
0
 10
222.37
 20
26.8354
 11
222.352
 21
26.8608
  0
LINE
  8
0
 10
222.352
 20
26.8608
 11
220.361
 21
28.8519
  0
LINE
  8
0
 10
220.361
 20
28.8519
 11
220.335
 21
28.8702
  0
LINE
  8
0
 10
220.335
 20
28.8702
 11
220.1
 21
28.9902
  0
LINE
  8
0
 10
220.1
 20
28.9902
 11
220.1
 21
69.8098
  0
LINE
  8
0
 10
220.1
 20
69.8098
 11
220.335
 21
69.9297
  0
LINE
  8
0
 10
220.335
 20
69.9297
 11
220.361
 21
69.9481
  0
LINE
  8
0
 10
220.361
 20
69.9481
 11
222.352
 21
71.9392
  0
LINE
  8
0
 10
222.352
 20
71.9392
 11
222.37
 21
71.9645
  0
LINE
  8
0
 10
222.37
 20
71.9645
 11
223.649
 21
74.4734
  0
LINE
  8
0
 10
223.649
 20
74.4734
 11
223.658
 21
74.5032
  0
LINE
  8
0
 10
223.658
 20
74.5032
 11
223.861
 21
75.7843
  0
LINE
  8
0
 10
223.861
 20
75.7843
 11
223.861
 21
75.8156
  0
LINE
  8
0
 10
223.861
 20
75.8156
 11
223.852
 21
75.8454
  0
LINE
  8
0
 10
223.852
 20
75.8454
 11
223.833
 21
75.8707
  0
LINE
  8
0
 10
223.833
 20
75.8707
 11
223.808
 21
75.8891
  0
LINE
  8
0
 10
223.808
 20
75.8891
 11
223.778
 21
75.8988
  0
LINE
  8
0
 10
223.778
 20
75.8988
 11
223.762
 21
75.9
  0
LINE
  8
0
 10
223.762
 20
75.9
 11
220.1
 21
75.9
  0
LINE
  8
0
 10
220.1
 20
75.9
 11
220.1
 21
78.7
  0
LINE
  8
0
 10
220.1
 20
78.7
 11
223.762
 21
78.7
  0
LINE
  8
0
 10
223.762
 20
78.7
 11
223.793
 21
78.7049
  0
LINE
  8
0
 10
223.793
 20
78.7049
 11
223.821
 21
78.7191
  0
LINE
  8
0
 10
223.821
 20
78.7191
 11
223.843
 21
78.7412
  0
LINE
  8
0
 10
223.843
 20
78.7412
 11
223.858
 21
78.7691
  0
LINE
  8
0
 10
223.858
 20
78.7691
 11
223.862
 21
78.8
  0
LINE
  8
0
 10
223.862
 20
78.8
 11
223.861
 21
78.8156
  0
LINE
  8
0
 10
223.861
 20
78.8156
 11
223.658
 21
80.0968
  0
LINE
  8
0
 10
223.658
 20
80.0968
 11
223.649
 21
80.1265
  0
LINE
  8
0
 10
223.649
 20
80.1265
 11
222.37
 21
82.6355
  0
LINE
  8
0
 10
222.37
 20
82.6355
 11
222.352
 21
82.6608
  0
LINE
  8
0
 10
222.352
 20
82.6608
 11
220.361
 21
84.6519
  0
LINE
  8
0
 10
220.361
 20
84.6519
 11
220.335
 21
84.6702
  0
LINE
  8
0
 10
220.335
 20
84.6702
 11
220.1
 21
84.7902
  0
LINE
  8
0
 10
220.1
 20
84.7902
 11
220.1
 21
100
  0
LINE
  8
0
 10
220.1
 20
100
 11
220.095
 21
100.031
  0
LINE
  8
0
 10
220.095
 20
100.031
 11
220.081
 21
100.059
  0
LINE
  8
0
 10
220.081
 20
100.059
 11
220.059
 21
100.081
  0
LINE
  8
0
 10
220.059
 20
100.081
 11
220.031
 21
100.095
  0
LINE
  8
0
 10
220.031
 20
100.095
 11
220
 21
100.1
  0
LINE
  8
0
 10
220
 20
100.1
 11
210
 21
100.1
  0
LINE
  8
0
 10
210
 20
100.1
 11
209.969
 21
100.095
  0
LINE
  8
0
 10
209.969
 20
100.095
 11
209.941
 21
100.081
  0
LINE
  8
0
 10
209.941
 20
100.081
 11
209.919
 21
100.059
  0
LINE
  8
0
 10
209.919
 20
100.059
 11
209.905
 21
100.031
  0
LINE
  8
0
 10
209.905
 20
100.031
 11
209.9
 21
100
  0
LINE
  8
0
 10
209.9
 20
100
 11
209.9
 21
84.7902
  0
LINE
  8
0
 10
209.9
 20
84.7902
 11
209.665
 21
84.6702
  0
LINE
  8
0
 10
209.665
 20
84.6702
 11
209.639
 21
84.6519
  0
LINE
  8
0
 10
209.639
 20
84.6519
 11
207.648
 21
82.6608
  0
LINE
  8
0
 10
207.648
 20
82.6608
 11
207.63
 21
82.6355
  0
LINE
  8
0
 10
207.63
 20
82.6355
 11
206.351
 21
80.1265
  0
LINE
  8
0
 10
206.351
 20
80.1265
 11
206.342
 21
80.0968
  0
LINE
  8
0
 10
206.342
 20
80.0968
 11
206.139
 21
78.8156
  0
LINE
  8
0
 10
206.139
 20
78.8156
 11
206.139
 21
78.7843
  0
LINE
  8
0
 10
206.139
 20
78.7843
 11
206.148
 21
78.7546
  0
LINE
  8
0
 10
206.148
 20
78.7546
 11
206.167
 21
78.7293
  0
LINE
  8
0
 10
206.167
 20
78.7293
 11
206.192
 21
78.7109
  0
LINE
  8
0
 10
206.192
 20
78.7109
 11
206.222
 21
78.7012
  0
LINE
  8
0
 10
206.222
 20
78.7012
 11
206.238
 21
78.7
  0
LINE
  8
0
 10
206.238
 20
78.7
 11
209.9
 21
78.7
  0
LINE
  8
0
 10
209.9
 20
78.7
 11
209.9
 21
75.9
  0
LINE
  8
0
 10
209.9
 20
75.9
 11
206.238
 21
75.9
  0
LINE
  8
0
 10
206.238
 20
75.9
 11
206.207
 21
75.8951
  0
LINE
  8
0
 10
206.207
 20
75.8951
 11
206.179
 21
75.8809
  0
LINE
  8
0
 10
206.179
 20
75.8809
 11
206.157
 21
75.8588
  0
LINE
  8
0
 10
206.157
 20
75.8588
 11
206.142
 21
75.8309
  0
LINE
  8
0
 10
206.142
 20
75.8309
 11
206.138
 21
75.8
  0
LINE
  8
0
 10
206.138
 20
75.8
 11
206.139
 21
75.7843
  0
LINE
  8
0
 10
206.139
 20
75.7843
 11
206.342
 21
74.5032
  0
LINE
  8
0
 10
206.342
 20
74.5032
 11
206.351
 21
74.4734
  0
LINE
  8
0
 10
206.351
 20
74.4734
 11
207.63
 21
71.9645
  0
LINE
  8
0
 10
207.63
 20
71.9645
 11
207.648
 21
71.9392
  0
LINE
  8
0
 10
207.648
 20
71.9392
 11
209.639
 21
69.9481
  0
LINE
  8
0
 10
209.639
 20
69.9481
 11
209.665
 21
69.9297
  0
LINE
  8
0
 10
209.665
 20
69.9297
 11
209.9
 21
69.8098
  0
LINE
  8
0
 10
209.9
 20
69.8098
 11
209.9
 21
28.9902
  0
LINE
  8
0
 10
209.9
 20
28.9902
 11
209.665
 21
28.8702
  0
LINE
  8
0
 10
209.665
 20
28.8702
 11
209.639
 21
28.8519
  0
LINE
  8
0
 10
209.639
 20
28.8519
 11
207.648
 21
26.8608
  0
LINE
  8
0
 10
207.648
 20
26.8608
 11
207.63
 21
26.8354
  0
LINE
  8
0
 10
207.63
 20
26.8354
 11
206.351
 21
24.3265
  0
LINE
  8
0
 10
206.351
 20
24.3265
 11
206.342
 21
24.2968
  0
LINE
  8
0
 10
206.342
 20
24.2968
 11
206.139
 21
23.0156
  0
LINE
  8
0
 10
206.139
 20
23.0156
 11
206.139
 21
22.9844
  0
LINE
  8
0
 10
206.139
 20
22.9844
 11
206.148
 21
22.9546
  0
LINE
  8
0
 10
206.148
 20
22.9546
 11
206.167
 21
22.9293
  0
LINE
  8
0
 10
206.167
 20
22.9293
 11
206.192
 21
22.9109
  0
LINE
  8
0
 10
206.192
 20
22.9109
 11
206.222
 21
22.9012
  0
LINE
  8
0
 10
206.222
 20
22.9012
 11
206.238
 21
22.9
  0
LINE
  8
0
 10
206.238
 20
22.9
 11
209.9
 21
22.9
  0
LINE
  8
0
 10
209.9
 20
22.9
 11
209.9
 21
20.1
  0
LINE
  8
0
 10
209.9
 20
20.1
 11
206.238
 21
20.1
  0
LINE
  8
0
 10
206.238
 20
20.1
 11
206.207
 21
20.0951
  0
LINE
  8
0
 10
206.207
 20
20.0951
 11
206.179
 21
20.0809
  0
LINE
  8
0
 10
206.179
 20
20.0809
 11
206.157
 21
20.0588
  0
LINE
  8
0
 10
206.157
 20
20.0588
 11
206.142
 21
20.0309
  0
LINE
  8
0
 10
206.142
 20
20.0309
 11
206.138
 21
20
  0
LINE
  8
0
 10
206.138
 20
20
 11
206.139
 21
19.9844
  0
LINE
  8
0
 10
206.139
 20
19.9844
 11
206.342
 21
18.7032
  0
LINE
  8
0
 10
206.342
 20
18.7032
 11
206.351
 21
18.6734
  0
LINE
  8
0
 10
206.351
 20
18.6734
 11
207.63
 21
16.1645
  0
LINE
  8
0
 10
207.63
 20
16.1645
 11
207.648
 21
16.1392
  0
LINE
  8
0
 10
207.648
 20
16.1392
 11
209.639
 21
14.1481
  0
LINE
  8
0
 10
209.639
 20
14.1481
 11
209.665
 21
14.1297
  0
LINE
  8
0
 10
209.665
 20
14.1297
 11
209.9
 21
14.0098
  0
LINE
  8
0
 10
209.9
 20
14.0098
 11
209.9
 21
0
  0
LINE
  8
0
 10
209.9
 20
0
 11
209.905
 21
-0.030899
  0
LINE
  8
0
 10
209.905
 20
-0.030899
 11
209.919
 21
-0.0587769
  0
LINE
  8
0
 10
209.919
 20
-0.0587769
 11
209.941
 21
-0.0809021
  0
LINE
  8
0
 10
209.941
 20
-0.0809021
 11
209.969
 21
-0.095108
  0
LINE
  8
0
 10
209.969
 20
-0.095108
 11
210
 21
-0.100006
  0
LINE
  8
0
 10
210
 20
-0.100006
 11
220
 21
-0.100006
  0
LINE
  8
0
 10
220
 20
-0.100006
 11
220.031
 21
-0.095108
  0
LINE
  8
0
 10
214.413
 20
90.1942
 11
213.884
 21
90.4639
  0
LINE
  8
0
 10
213.884
 20
90.4639
 11
213.464
 21
90.8839
  0
LINE
  8
0
 10
213.464
 20
90.8839
 11
213.194
 21
91.4132
  0
LINE
  8
0
 10
213.194
 20
91.4132
 11
213.101
 21
92
  0
LINE
  8
0
 10
213.101
 20
92
 11
213.194
 21
92.5868
  0
LINE
  8
0
 10
213.194
 20
92.5868
 11
213.464
 21
93.116
  0
LINE
  8
0
 10
213.464
 20
93.116
 11
213.884
 21
93.5361
  0
LINE
  8
0
 10
213.884
 20
93.5361
 11
214.413
 21
93.8058
  0
LINE
  8
0
 10
214.413
 20
93.8058
 11
215
 21
93.8988
  0
LINE
  8
0
 10
215
 20
93.8988
 11
215.587
 21
93.8058
  0
LINE
  8
0
 10
215.587
 20
93.8058
 11
216.116
 21
93.5361
  0
LINE
  8
0
 10
216.116
 20
93.5361
 11
216.536
 21
93.116
  0
LINE
  8
0
 10
216.536
 20
93.116
 11
216.806
 21
92.5868
  0
LINE
  8
0
 10
216.806
 20
92.5868
 11
216.899
 21
92
  0
LINE
  8
0
 10
216.899
 20
92
 11
216.806
 21
91.4132
  0
LINE
  8
0
 10
216.806
 20
91.4132
 11
216.536
 21
90.8839
  0
LINE
  8
0
 10
216.536
 20
90.8839
 11
216.116
 21
90.4639
  0
LINE
  8
0
 10
216.116
 20
90.4639
 11
215.587
 21
90.1942
  0
LINE
  8
0
 10
215.587
 20
90.1942
 11
215
 21
90.1012
  0
LINE
  8
0
 10
215
 20
90.1012
 11
214.413
 21
90.1942
  0
LINE
  8
0
 10
214.413
 20
6.19418
 11
213.884
 21
6.46385
  0
LINE
  8
0
 10
213.884
 20
6.46385
 11
213.464
 21
6.88394
  0
LINE
  8
0
 10
213.464
 20
6.88394
 11
213.194
 21
7.41322
  0
LINE
  8
0
 10
213.194
 20
7.41322
 11
213.101
 21
8
  0
LINE
  8
0
 10
213.101
 20
8
 11
213.194
 21
8.58676
  0
LINE
  8
0
 10
213.194
 20
8.58676
 11
213.464
 21
9.11604
  0
LINE
  8
0
 10
213.464
 20
9.11604
 11
213.884
 21
9.53613
  0
LINE
  8
0
 10
213.884
 20
9.53613
 11
214.413
 21
9.8058
  0
LINE
  8
0
 10
214.413
 20
9.8058
 11
215
 21
9.89876
  0
LINE
  8
0
 10
215
 20
9.89876
 11
215.587
 21
9.8058
  0
LINE
  8
0
 10
215.587
 20
9.8058
 11
216.116
 21
9.53613
  0
LINE
  8
0
 10
216.116
 20
9.53613
 11
216.536
 21
9.11604
  0
LINE
  8
0
 10
216.536
 20
9.11604
 11
216.806
 21
8.58676
  0
LINE
  8
0
 10
216.806
 20
8.58676
 11
216.899
 21
8
  0
LINE
  8
0
 10
216.899
 20
8
 11
216.806
 21
7.41322
  0
LINE
  8
0
 10
216.806
 20
7.41322
 11
216.536
 21
6.88394
  0
LINE
  8
0
 10
216.536
 20
6.88394
 11
216.116
 21
6.46385
  0
LINE
  8
0
 10
216.116
 20
6.46385
 11
215.587
 21
6.19418
  0
LINE
  8
0
 10
215.587
 20
6.19418
 11
215
 21
6.10124
  0
LINE
  8
0
 10
215
 20
6.10124
 11
214.413
 21
6.19418
  0
LINE
  8
0
 10
125.031
 20
-0.095108
 11
125.059
 21
-0.0809021
  0
LINE
  8
0
 10
125.059
 20
-0.0809021
 11
125.081
 21
-0.0587769
  0
LINE
  8
0
 10
125.081
 20
-0.0587769
 11
125.095
 21
-0.030899
  0
LINE
  8
0
 10
125.095
 20
-0.030899
 11
125.1
 21
0
  0
LINE
  8
0
 10
125.1
 20
0
 11
125.1
 21
55
  0
LINE
  8
0
 10
125.1
 20
55
 11
125.095
 21
55.0309
  0
LINE
  8
0
 10
125.095
 20
55.0309
 11
125.081
 21
55.0588
  0
LINE
  8
0
 10
125.081
 20
55.0588
 11
125.059
 21
55.0809
  0
LINE
  8
0
 10
125.059
 20
55.0809
 11
125.031
 21
55.0951
  0
LINE
  8
0
 10
125.031
 20
55.0951
 11
125
 21
55.1
  0
LINE
  8
0
 10
125
 20
55.1
 11
122.1
 21
55.1
  0
LINE
  8
0
 10
122.1
 20
55.1
 11
122.1
 21
64.9
  0
LINE
  8
0
 10
122.1
 20
64.9
 11
125
 21
64.9
  0
LINE
  8
0
 10
125
 20
64.9
 11
125.031
 21
64.9049
  0
LINE
  8
0
 10
125.031
 20
64.9049
 11
125.059
 21
64.9191
  0
LINE
  8
0
 10
125.059
 20
64.9191
 11
125.081
 21
64.9412
  0
LINE
  8
0
 10
125.081
 20
64.9412
 11
125.095
 21
64.9691
  0
LINE
  8
0
 10
125.095
 20
64.9691
 11
125.1
 21
65
  0
LINE
  8
0
 10
125.1
 20
65
 11
125.1
 21
100
  0
LINE
  8
0
 10
125.1
 20
100
 11
125.095
 21
100.031
  0
LINE
  8
0
 10
125.095
 20
100.031
 11
125.081
 21
100.059
  0
LINE
  8
0
 10
125.081
 20
100.059
 11
125.059
 21
100.081
  0
LINE
  8
0
 10
125.059
 20
100.081
 11
125.031
 21
100.095
  0
LINE
  8
0
 10
125.031
 20
100.095
 11
125
 21
100.1
  0
LINE
  8
0
 10
125
 20
100.1
 11
115
 21
100.1
  0
LINE
  8
0
 10
115
 20
100.1
 11
114.969
 21
100.095
  0
LINE
  8
0
 10
114.969
 20
100.095
 11
114.941
 21
100.081
  0
LINE
  8
0
 10
114.941
 20
100.081
 11
114.919
 21
100.059
  0
LINE
  8
0
 10
114.919
 20
100.059
 11
114.905
 21
100.031
  0
LINE
  8
0
 10
114.905
 20
100.031
 11
114.9
 21
100
  0
LINE
  8
0
 10
114.9
 20
100
 11
114.9
 21
95
  0
LINE
  8
0
 10
114.9
 20
95
 11
114.905
 21
94.9691
  0
LINE
  8
0
 10
114.905
 20
94.9691
 11
114.919
 21
94.9412
  0
LINE
  8
0
 10
114.919
 20
94.9412
 11
114.941
 21
94.9191
  0
LINE
  8
0
 10
114.941
 20
94.9191
 11
114.969
 21
94.9049
  0
LINE
  8
0
 10
114.969
 20
94.9049
 11
115
 21
94.9
  0
LINE
  8
0
 10
115
 20
94.9
 11
119.9
 21
94.9
  0
LINE
  8
0
 10
119.9
 20
94.9
 11
119.9
 21
90.1
  0
LINE
  8
0
 10
119.9
 20
90.1
 11
105
 21
90.1
  0
LINE
  8
0
 10
105
 20
90.1
 11
104.969
 21
90.0951
  0
LINE
  8
0
 10
104.969
 20
90.0951
 11
104.941
 21
90.0809
  0
LINE
  8
0
 10
104.941
 20
90.0809
 11
104.919
 21
90.0588
  0
LINE
  8
0
 10
104.919
 20
90.0588
 11
104.905
 21
90.0309
  0
LINE
  8
0
 10
104.905
 20
90.0309
 11
104.9
 21
90
  0
LINE
  8
0
 10
104.9
 20
90
 11
104.9
 21
0
  0
LINE
  8
0
 10
104.9
 20
0
 11
104.905
 21
-0.030899
  0
LINE
  8
0
 10
104.905
 20
-0.030899
 11
104.919
 21
-0.0587769
  0
LINE
  8
0
 10
104.919
 20
-0.0587769
 11
104.941
 21
-0.0809021
  0
LINE
  8
0
 10
104.941
 20
-0.0809021
 11
104.969
 21
-0.095108
  0
LINE
  8
0
 10
104.969
 20
-0.095108
 11
105
 21
-0.100006
  0
LINE
  8
0
 10
105
 20
-0.100006
 11
125
 21
-0.100006
  0
LINE
  8
0
 10
125
 20
-0.100006
 11
125.031
 21
-0.095108
  0
LINE
  8
0
 10
116.068
 20
78.6697
 11
115.678
 21
78.8684
  0
LINE
  8
0
 10
115.678
 20
78.8684
 11
115.368
 21
79.1778
  0
LINE
  8
0
 10
115.368
 20
79.1778
 11
115.17
 21
79.5677
  0
LINE
  8
0
 10
115.17
 20
79.5677
 11
115.101
 21
80
  0
LINE
  8
0
 10
115.101
 20
80
 11
115.17
 21
80.4323
  0
LINE
  8
0
 10
115.17
 20
80.4323
 11
115.368
 21
80.8221
  0
LINE
  8
0
 10
115.368
 20
80.8221
 11
115.678
 21
81.1316
  0
LINE
  8
0
 10
115.678
 20
81.1316
 11
116.068
 21
81.3303
  0
LINE
  8
0
 10
116.068
 20
81.3303
 11
116.5
 21
81.3988
  0
LINE
  8
0
 10
116.5
 20
81.3988
 11
116.932
 21
81.3303
  0
LINE
  8
0
 10
116.932
 20
81.3303
 11
117.322
 21
81.1316
  0
LINE
  8
0
 10
117.322
 20
81.1316
 11
117.632
 21
80.8221
  0
LINE
  8
0
 10
117.632
 20
80.8221
 11
117.83
 21
80.4323
  0
LINE
  8
0
 10
117.83
 20
80.4323
 11
117.899
 21
80
  0
LINE
  8
0
 10
117.899
 20
80
 11
117.83
 21
79.5677
  0
LINE
  8
0
 10
117.83
 20
79.5677
 11
117.632
 21
79.1778
  0
LINE
  8
0
 10
117.632
 20
79.1778
 11
117.322
 21
78.8684
  0
LINE
  8
0
 10
117.322
 20
78.8684
 11
116.932
 21
78.6697
  0
LINE
  8
0
 10
116.932
 20
78.6697
 11
116.5
 21
78.6012
  0
LINE
  8
0
 10
116.5
 20
78.6012
 11
116.068
 21
78.6697
  0
LINE
  8
0
 10
116.145
 20
16.9075
 11
115.825
 21
17.0706
  0
LINE
  8
0
 10
115.825
 20
17.0706
 11
115.571
 21
17.3248
  0
LINE
  8
0
 10
115.571
 20
17.3248
 11
115.407
 21
17.645
  0
LINE
  8
0
 10
115.407
 20
17.645
 11
115.351
 21
18
  0
LINE
  8
0
 10
115.351
 20
18
 11
115.407
 21
18.355
  0
LINE
  8
0
 10
115.407
 20
18.355
 11
115.571
 21
18.6752
  0
LINE
  8
0
 10
115.571
 20
18.6752
 11
115.825
 21
18.9294
  0
LINE
  8
0
 10
115.825
 20
18.9294
 11
116.145
 21
19.0925
  0
LINE
  8
0
 10
116.145
 20
19.0925
 11
116.5
 21
19.1488
  0
LINE
  8
0
 10
116.5
 20
19.1488
 11
116.855
 21
19.0925
  0
LINE
  8
0
 10
116.855
 20
19.0925
 11
117.175
 21
18.9294
  0
LINE
  8
0
 10
117.175
 20
18.9294
 11
117.429
 21
18.6752
  0
LINE
  8
0
 10
117.429
 20
18.6752
 11
117.593
 21
18.355
  0
LINE
  8
0
 10
117.593
 20
18.355
 11
117.649
 21
18
  0
LINE
  8
0
 10
117.649
 20
18
 11
117.593
 21
17.645
  0
LINE
  8
0
 10
117.593
 20
17.645
 11
117.429
 21
17.3248
  0
LINE
  8
0
 10
117.429
 20
17.3248
 11
117.175
 21
17.0706
  0
LINE
  8
0
 10
117.175
 20
17.0706
 11
116.855
 21
16.9075
  0
LINE
  8
0
 10
116.855
 20
16.9075
 11
116.5
 21
16.8512
  0
LINE
  8
0
 10
116.5
 20
16.8512
 11
116.145
 21
16.9075
  0
LINE
  8
0
 10
115.1
 20
5.10001
 11
115.1
 21
14.9
  0
LINE
  8
0
 10
115.1
 20
14.9
 11
117.9
 21
14.9
  0
LINE
  8
0
 10
117.9
 20
14.9
 11
117.9
 21
5.10001
  0
LINE
  8
0
 10
117.9
 20
5.10001
 11
115.1
 21
5.10001
  0
LINE
  8
0
 10
150.031
 20
-0.095108
 11
150.059
 21
-0.0809021
  0
LINE
  8
0
 10
150.059
 20
-0.0809021
 11
150.081
 21
-0.0587769
  0
LINE
  8
0
 10
150.081
 20
-0.0587769
 11
150.095
 21
-0.030899
  0
LINE
  8
0
 10
150.095
 20
-0.030899
 11
150.1
 21
0
  0
LINE
  8
0
 10
150.1
 20
0
 11
150.1
 21
55
  0
LINE
  8
0
 10
150.1
 20
55
 11
150.095
 21
55.0309
  0
LINE
  8
0
 10
150.095
 20
55.0309
 11
150.081
 21
55.0588
  0
LINE
  8
0
 10
150.081
 20
55.0588
 11
150.059
 21
55.0809
  0
LINE
  8
0
 10
150.059
 20
55.0809
 11
150.031
 21
55.0951
  0
LINE
  8
0
 10
150.031
 20
55.0951
 11
150
 21
55.1
  0
LINE
  8
0
 10
150
 20
55.1
 11
147.1
 21
55.1
  0
LINE
  8
0
 10
147.1
 20
55.1
 11
147.1
 21
64.9
  0
LINE
  8
0
 10
147.1
 20
64.9
 11
150
 21
64.9
  0
LINE
  8
0
 10
150
 20
64.9
 11
150.031
 21
64.9049
  0
LINE
  8
0
 10
150.031
 20
64.9049
 11
150.059
 21
64.9191
  0
LINE
  8
0
 10
150.059
 20
64.9191
 11
150.081
 21
64.9412
  0
LINE
  8
0
 10
150.081
 20
64.9412
 11
150.095
 21
64.9691
  0
LINE
  8
0
 10
150.095
 20
64.9691
 11
150.1
 21
65
  0
LINE
  8
0
 10
150.1
 20
65
 11
150.1
 21
100
  0
LINE
  8
0
 10
150.1
 20
100
 11
150.095
 21
100.031
  0
LINE
  8
0
 10
150.095
 20
100.031
 11
150.081
 21
100.059
  0
LINE
  8
0
 10
150.081
 20
100.059
 11
150.059
 21
100.081
  0
LINE
  8
0
 10
150.059
 20
100.081
 11
150.031
 21
100.095
  0
LINE
  8
0
 10
150.031
 20
100.095
 11
150
 21
100.1
  0
LINE
  8
0
 10
150
 20
100.1
 11
140
 21
100.1
  0
LINE
  8
0
 10
140
 20
100.1
 11
139.969
 21
100.095
  0
LINE
  8
0
 10
139.969
 20
100.095
 11
139.941
 21
100.081
  0
LINE
  8
0
 10
139.941
 20
100.081
 11
139.919
 21
100.059
  0
LINE
  8
0
 10
139.919
 20
100.059
 11
139.905
 21
100.031
  0
LINE
  8
0
 10
139.905
 20
100.031
 11
139.9
 21
100
  0
LINE
  8
0
 10
139.9
 20
100
 11
139.9
 21
95
  0
LINE
  8
0
 10
139.9
 20
95
 11
139.905
 21
94.9691
  0
LINE
  8
0
 10
139.905
 20
94.9691
 11
139.919
 21
94.9412
  0
LINE
  8
0
 10
139.919
 20
94.9412
 11
139.941
 21
94.9191
  0
LINE
  8
0
 10
139.941
 20
94.9191
 11
139.969
 21
94.9049
  0
LINE
  8
0
 10
139.969
 20
94.9049
 11
140
 21
94.9
  0
LINE
  8
0
 10
140
 20
94.9
 11
144.9
 21
94.9
  0
LINE
  8
0
 10
144.9
 20
94.9
 11
144.9
 21
90.1
  0
LINE
  8
0
 10
144.9
 20
90.1
 11
130
 21
90.1
  0
LINE
  8
0
 10
130
 20
90.1
 11
129.969
 21
90.0951
  0
LINE
  8
0
 10
129.969
 20
90.0951
 11
129.941
 21
90.0809
  0
LINE
  8
0
 10
129.941
 20
90.0809
 11
129.919
 21
90.0588
  0
LINE
  8
0
 10
129.919
 20
90.0588
 11
129.905
 21
90.0309
  0
LINE
  8
0
 10
129.905
 20
90.0309
 11
129.9
 21
90
  0
LINE
  8
0
 10
129.9
 20
90
 11
129.9
 21
0
  0
LINE
  8
0
 10
129.9
 20
0
 11
129.905
 21
-0.030899
  0
LINE
  8
0
 10
129.905
 20
-0.030899
 11
129.919
 21
-0.0587769
  0
LINE
  8
0
 10
129.919
 20
-0.0587769
 11
129.941
 21
-0.0809021
  0
LINE
  8
0
 10
129.941
 20
-0.0809021
 11
129.969
 21
-0.095108
  0
LINE
  8
0
 10
129.969
 20
-0.095108
 11
130
 21
-0.100006
  0
LINE
  8
0
 10
130
 20
-0.100006
 11
150
 21
-0.100006
  0
LINE
  8
0
 10
150
 20
-0.100006
 11
150.031
 21
-0.095108
  0
LINE
  8
0
 10
141.068
 20
78.6697
 11
140.678
 21
78.8684
  0
LINE
  8
0
 10
140.678
 20
78.8684
 11
140.368
 21
79.1778
  0
LINE
  8
0
 10
140.368
 20
79.1778
 11
140.17
 21
79.5677
  0
LINE
  8
0
 10
140.17
 20
79.5677
 11
140.101
 21
80
  0
LINE
  8
0
 10
140.101
 20
80
 11
140.17
 21
80.4323
  0
LINE
  8
0
 10
140.17
 20
80.4323
 11
140.368
 21
80.8221
  0
LINE
  8
0
 10
140.368
 20
80.8221
 11
140.678
 21
81.1316
  0
LINE
  8
0
 10
140.678
 20
81.1316
 11
141.068
 21
81.3303
  0
LINE
  8
0
 10
141.068
 20
81.3303
 11
141.5
 21
81.3988
  0
LINE
  8
0
 10
141.5
 20
81.3988
 11
141.932
 21
81.3303
  0
LINE
  8
0
 10
141.932
 20
81.3303
 11
142.322
 21
81.1316
  0
LINE
  8
0
 10
142.322
 20
81.1316
 11
142.632
 21
80.8221
  0
LINE
  8
0
 10
142.632
 20
80.8221
 11
142.83
 21
80.4323
  0
LINE
  8
0
 10
142.83
 20
80.4323
 11
142.899
 21
80
  0
LINE
  8
0
 10
142.899
 20
80
 11
142.83
 21
79.5677
  0
LINE
  8
0
 10
142.83
 20
79.5677
 11
142.632
 21
79.1778
  0
LINE
  8
0
 10
142.632
 20
79.1778
 11
142.322
 21
78.8684
  0
LINE
  8
0
 10
142.322
 20
78.8684
 11
141.932
 21
78.6697
  0
LINE
  8
0
 10
141.932
 20
78.6697
 11
141.5
 21
78.6012
  0
LINE
  8
0
 10
141.5
 20
78.6012
 11
141.068
 21
78.6697
  0
LINE
  8
0
 10
140.1
 20
5.10001
 11
140.1
 21
15.3655
  0
LINE
  8
0
 10
140.1
 20
15.3655
 11
140.095
 21
15.3964
  0
LINE
  8
0
 10
140.095
 20
15.3964
 11
140.081
 21
15.4243
  0
LINE
  8
0
 10
140.081
 20
15.4243
 11
140.059
 21
15.4464
  0
LINE
  8
0
 10
140.059
 20
15.4464
 11
140.045
 21
15.4546
  0
LINE
  8
0
 10
140.045
 20
15.4546
 11
139.399
 21
15.7838
  0
LINE
  8
0
 10
139.399
 20
15.7838
 11
138.609
 21
16.5744
  0
LINE
  8
0
 10
138.609
 20
16.5744
 11
138.101
 21
17.5706
  0
LINE
  8
0
 10
138.101
 20
17.5706
 11
137.925
 21
18.6828
  0
LINE
  8
0
 10
137.925
 20
18.6828
 11
137.925
 21
23.6671
  0
LINE
  8
0
 10
137.925
 20
23.6671
 11
138.101
 21
24.7794
  0
LINE
  8
0
 10
138.101
 20
24.7794
 11
138.609
 21
25.7756
  0
LINE
  8
0
 10
138.609
 20
25.7756
 11
139.399
 21
26.5662
  0
LINE
  8
0
 10
139.399
 20
26.5662
 11
140.396
 21
27.0738
  0
LINE
  8
0
 10
140.396
 20
27.0738
 11
141.5
 21
27.2487
  0
LINE
  8
0
 10
141.5
 20
27.2487
 11
142.604
 21
27.0738
  0
LINE
  8
0
 10
142.604
 20
27.0738
 11
143.601
 21
26.5662
  0
LINE
  8
0
 10
143.601
 20
26.5662
 11
144.391
 21
25.7756
  0
LINE
  8
0
 10
144.391
 20
25.7756
 11
144.899
 21
24.7794
  0
LINE
  8
0
 10
144.899
 20
24.7794
 11
145.075
 21
23.6671
  0
LINE
  8
0
 10
145.075
 20
23.6671
 11
145.075
 21
18.6828
  0
LINE
  8
0
 10
145.075
 20
18.6828
 11
144.899
 21
17.5706
  0
LINE
  8
0
 10
144.899
 20
17.5706
 11
144.391
 21
16.5744
  0
LINE
  8
0
 10
144.391
 20
16.5744
 11
143.601
 21
15.7838
  0
LINE
  8
0
 10
143.601
 20
15.7838
 11
142.955
 21
15.4546
  0
LINE
  8
0
 10
142.955
 20
15.4546
 11
142.929
 21
15.4362
  0
LINE
  8
0
 10
142.929
 20
15.4362
 11
142.911
 21
15.4109
  0
LINE
  8
0
 10
142.911
 20
15.4109
 11
142.9
 21
15.3655
  0
LINE
  8
0
 10
142.9
 20
15.3655
 11
142.9
 21
5.10001
  0
LINE
  8
0
 10
142.9
 20
5.10001
 11
140.1
 21
5.10001
  0
LINE
  8
0
 10
245.031
 20
-0.095108
 11
245.059
 21
-0.0809021
  0
LINE
  8
0
 10
245.059
 20
-0.0809021
 11
245.081
 21
-0.0587769
  0
LINE
  8
0
 10
245.081
 20
-0.0587769
 11
245.095
 21
-0.030899
  0
LINE
  8
0
 10
245.095
 20
-0.030899
 11
245.1
 21
0
  0
LINE
  8
0
 10
245.1
 20
0
 11
245.1
 21
100
  0
LINE
  8
0
 10
245.1
 20
100
 11
245.095
 21
100.031
  0
LINE
  8
0
 10
245.095
 20
100.031
 11
245.081
 21
100.059
  0
LINE
  8
0
 10
245.081
 20
100.059
 11
245.059
 21
100.081
  0
LINE
  8
0
 10
245.059
 20
100.081
 11
245.031
 21
100.095
  0
LINE
  8
0
 10
245.031
 20
100.095
 11
245
 21
100.1
  0
LINE
  8
0
 10
245
 20
100.1
 11
230
 21
100.1
  0
LINE
  8
0
 10
230
 20
100.1
 11
229.969
 21
100.095
  0
LINE
  8
0
 10
229.969
 20
100.095
 11
229.941
 21
100.081
  0
LINE
  8
0
 10
229.941
 20
100.081
 11
229.919
 21
100.059
  0
LINE
  8
0
 10
229.919
 20
100.059
 11
229.905
 21
100.031
  0
LINE
  8
0
 10
229.905
 20
100.031
 11
229.9
 21
100
  0
LINE
  8
0
 10
229.9
 20
100
 11
229.9
 21
0
  0
LINE
  8
0
 10
229.9
 20
0
 11
229.905
 21
-0.030899
  0
LINE
  8
0
 10
229.905
 20
-0.030899
 11
229.919
 21
-0.0587769
  0
LINE
  8
0
 10
229.919
 20
-0.0587769
 11
229.941
 21
-0.0809021
  0
LINE
  8
0
 10
229.941
 20
-0.0809021
 11
229.969
 21
-0.095108
  0
LINE
  8
0
 10
229.969
 20
-0.095108
 11
230
 21
-0.100006
  0
LINE
  8
0
 10
230
 20
-0.100006
 11
245
 21
-0.100006
  0
LINE
  8
0
 10
245
 20
-0.100006
 11
245.031
 21
-0.095108
  0
LINE
  8
0
 10
238.413
 20
90.1942
 11
237.884
 21
90.4639
  0
LINE
  8
0
 10
237.884
 20
90.4639
 11
237.464
 21
90.8839
  0
LINE
  8
0
 10
237.464
 20
90.8839
 11
237.194
 21
91.4132
  0
LINE
  8
0
 10
237.194
 20
91.4132
 11
237.101
 21
92
  0
LINE
  8
0
 10
237.101
 20
92
 11
237.194
 21
92.5868
  0
LINE
  8
0
 10
237.194
 20
92.5868
 11
237.464
 21
93.116
  0
LINE
  8
0
 10
237.464
 20
93.116
 11
237.884
 21
93.5361
  0
LINE
  8
0
 10
237.884
 20
93.5361
 11
238.413
 21
93.8058
  0
LINE
  8
0
 10
238.413
 20
93.8058
 11
239
 21
93.8988
  0
LINE
  8
0
 10
239
 20
93.8988
 11
239.587
 21
93.8058
  0
LINE
  8
0
 10
239.587
 20
93.8058
 11
240.116
 21
93.5361
  0
LINE
  8
0
 10
240.116
 20
93.5361
 11
240.536
 21
93.116
  0
LINE
  8
0
 10
240.536
 20
93.116
 11
240.806
 21
92.5868
  0
LINE
  8
0
 10
240.806
 20
92.5868
 11
240.899
 21
92
  0
LINE
  8
0
 10
240.899
 20
92
 11
240.806
 21
91.4132
  0
LINE
  8
0
 10
240.806
 20
91.4132
 11
240.536
 21
90.8839
  0
LINE
  8
0
 10
240.536
 20
90.8839
 11
240.116
 21
90.4639
  0
LINE
  8
0
 10
240.116
 20
90.4639
 11
239.587
 21
90.1942
  0
LINE
  8
0
 10
239.587
 20
90.1942
 11
239
 21
90.1012
  0
LINE
  8
0
 10
239
 20
90.1012
 11
238.413
 21
90.1942
  0
LINE
  8
0
 10
235.1
 20
75.9
 11
235.1
 21
78.7
  0
LINE
  8
0
 10
235.1
 20
78.7
 11
239.9
 21
78.7
  0
LINE
  8
0
 10
239.9
 20
78.7
 11
239.9
 21
75.9
  0
LINE
  8
0
 10
239.9
 20
75.9
 11
235.1
 21
75.9
  0
LINE
  8
0
 10
235.1
 20
20.1
 11
235.1
 21
22.9
  0
LINE
  8
0
 10
235.1
 20
22.9
 11
239.9
 21
22.9
  0
LINE
  8
0
 10
239.9
 20
22.9
 11
239.9
 21
20.1
  0
LINE
  8
0
 10
239.9
 20
20.1
 11
235.1
 21
20.1
  0
LINE
  8
0
 10
238.413
 20
6.19418
 11
237.884
 21
6.46385
  0
LINE
  8
0
 10
237.884
 20
6.46385
 11
237.464
 21
6.88394
  0
LINE
  8
0
 10
237.464
 20
6.88394
 11
237.194
 21
7.41322
  0
LINE
  8
0
 10
237.194
 20
7.41322
 11
237.101
 21
8
  0
LINE
  8
0
 10
237.101
 20
8
 11
237.194
 21
8.58676
  0
LINE
  8
0
 10
237.194
 20
8.58676
 11
237.464
 21
9.11604
  0
LINE
  8
0
 10
237.464
 20
9.11604
 11
237.884
 21
9.53613
  0
LINE
  8
0
 10
237.884
 20
9.53613
 11
238.413
 21
9.8058
  0
LINE
  8
0
 10
238.413
 20
9.8058
 11
239
 21
9.89876
  0
LINE
  8
0
 10
239
 20
9.89876
 11
239.587
 21
9.8058
  0
LINE
  8
0
 10
239.587
 20
9.8058
 11
240.116
 21
9.53613
  0
LINE
  8
0
 10
240.116
 20
9.53613
 11
240.536
 21
9.11604
  0
LINE
  8
0
 10
240.536
 20
9.11604
 11
240.806
 21
8.58676
  0
LINE
  8
0
 10
240.806
 20
8.58676
 11
240.899
 21
8
  0
LINE
  8
0
 10
240.899
 20
8
 11
240.806
 21
7.41322
  0
LINE
  8
0
 10
240.806
 20
7.41322
 11
240.536
 21
6.88394
  0
LINE
  8
0
 10
240.536
 20
6.88394
 11
240.116
 21
6.46385
  0
LINE
  8
0
 10
240.116
 20
6.46385
 11
239.587
 21
6.19418
  0
LINE
  8
0
 10
239.587
 20
6.19418
 11
239
 21
6.10124
  0
LINE
  8
0
 10
239
 20
6.10124
 11
238.413
 21
6.19418
  0
LINE
  8
0
 10
100.831
 20
69.9049
 11
100.859
 21
69.9191
  0
LINE
  8
0
 10
100.859
 20
69.9191
 11
100.881
 21
69.9412
  0
LINE
  8
0
 10
100.881
 20
69.9412
 11
100.895
 21
69.9691
  0
LINE
  8
0
 10
100.895
 20
69.9691
 11
100.9
 21
70
  0
LINE
  8
0
 10
100.9
 20
70
 11
100.9
 21
94
  0
LINE
  8
0
 10
100.9
 20
94
 11
100.895
 21
94.0309
  0
LINE
  8
0
 10
100.895
 20
94.0309
 11
100.881
 21
94.0588
  0
LINE
  8
0
 10
100.881
 20
94.0588
 11
100.859
 21
94.0809
  0
LINE
  8
0
 10
100.859
 20
94.0809
 11
100.831
 21
94.0951
  0
LINE
  8
0
 10
100.831
 20
94.0951
 11
100.8
 21
94.1
  0
LINE
  8
0
 10
100.8
 20
94.1
 11
50
 21
94.1
  0
LINE
  8
0
 10
50
 20
94.1
 11
49.9691
 21
94.0951
  0
LINE
  8
0
 10
49.9691
 20
94.0951
 11
49.9412
 21
94.0809
  0
LINE
  8
0
 10
49.9412
 20
94.0809
 11
49.9191
 21
94.0588
  0
LINE
  8
0
 10
49.9191
 20
94.0588
 11
49.9049
 21
94.0309
  0
LINE
  8
0
 10
49.9049
 20
94.0309
 11
49.9
 21
94
  0
LINE
  8
0
 10
49.9
 20
94
 11
49.9
 21
70
  0
LINE
  8
0
 10
49.9
 20
70
 11
49.9049
 21
69.9691
  0
LINE
  8
0
 10
49.9049
 20
69.9691
 11
49.9191
 21
69.9412
  0
LINE
  8
0
 10
49.9191
 20
69.9412
 11
49.9412
 21
69.9191
  0
LINE
  8
0
 10
49.9412
 20
69.9191
 11
49.9691
 21
69.9049
  0
LINE
  8
0
 10
49.9691
 20
69.9049
 11
50
 21
69.9
  0
LINE
  8
0
 10
50
 20
69.9
 11
100.8
 21
69.9
  0
LINE
  8
0
 10
100.8
 20
69.9
 11
100.831
 21
69.9049
  0
LINE
  8
0
 10
59.5677
 20
81.0197
 11
59.1778
 21
81.2184
  0
LINE
  8
0
 10
59.1778
 20
81.2184
 11
58.8684
 21
81.5278
  0
LINE
  8
0
 10
58.8684
 20
81.5278
 11
58.6697
 21
81.9177
  0
LINE
  8
0
 10
58.6697
 20
81.9177
 11
58.6012
 21
82.35
  0
LINE
  8
0
 10
58.6012
 20
82.35
 11
58.6697
 21
82.7823
  0
LINE
  8
0
 10
58.6697
 20
82.7823
 11
58.8684
 21
83.1721
  0
LINE
  8
0
 10
58.8684
 20
83.1721
 11
59.1778
 21
83.4816
  0
LINE
  8
0
 10
59.1778
 20
83.4816
 11
59.5677
 21
83.6803
  0
LINE
  8
0
 10
59.5677
 20
83.6803
 11
60
 21
83.7487
  0
LINE
  8
0
 10
60
 20
83.7487
 11
60.4323
 21
83.6803
  0
LINE
  8
0
 10
60.4323
 20
83.6803
 11
60.8221
 21
83.4816
  0
LINE
  8
0
 10
60.8221
 20
83.4816
 11
61.1316
 21
83.1721
  0
LINE
  8
0
 10
61.1316
 20
83.1721
 11
61.3303
 21
82.7823
  0
LINE
  8
0
 10
61.3303
 20
82.7823
 11
61.3988
 21
82.35
  0
LINE
  8
0
 10
61.3988
 20
82.35
 11
61.3303
 21
81.9177
  0
LINE
  8
0
 10
61.3303
 20
81.9177
 11
61.1316
 21
81.5278
  0
LINE
  8
0
 10
61.1316
 20
81.5278
 11
60.8221
 21
81.2184
  0
LINE
  8
0
 10
60.8221
 20
81.2184
 11
60.4323
 21
81.0197
  0
LINE
  8
0
 10
60.4323
 20
81.0197
 11
60
 21
80.9512
  0
LINE
  8
0
 10
60
 20
80.9512
 11
59.5677
 21
81.0197
  0
LINE
  8
0
 10
90.3677
 20
81.0197
 11
89.9778
 21
81.2184
  0
LINE
  8
0
 10
89.9778
 20
81.2184
 11
89.6684
 21
81.5278
  0
LINE
  8
0
 10
89.6684
 20
81.5278
 11
89.4697
 21
81.9177
  0
LINE
  8
0
 10
89.4697
 20
81.9177
 11
89.4012
 21
82.35
  0
LINE
  8
0
 10
89.4012
 20
82.35
 11
89.4697
 21
82.7823
  0
LINE
  8
0
 10
89.4697
 20
82.7823
 11
89.6684
 21
83.1721
  0
LINE
  8
0
 10
89.6684
 20
83.1721
 11
89.9778
 21
83.4816
  0
LINE
  8
0
 10
89.9778
 20
83.4816
 11
90.3677
 21
83.6803
  0
LINE
  8
0
 10
90.3677
 20
83.6803
 11
90.8
 21
83.7487
  0
LINE
  8
0
 10
90.8
 20
83.7487
 11
91.2323
 21
83.6803
  0
LINE
  8
0
 10
91.2323
 20
83.6803
 11
91.6221
 21
83.4816
  0
LINE
  8
0
 10
91.6221
 20
83.4816
 11
91.9316
 21
83.1721
  0
LINE
  8
0
 10
91.9316
 20
83.1721
 11
92.1303
 21
82.7823
  0
LINE
  8
0
 10
92.1303
 20
82.7823
 11
92.1987
 21
82.35
  0
LINE
  8
0
 10
92.1987
 20
82.35
 11
92.1303
 21
81.9177
  0
LINE
  8
0
 10
92.1303
 20
81.9177
 11
91.9316
 21
81.5278
  0
LINE
  8
0
 10
91.9316
 20
81.5278
 11
91.6221
 21
81.2184
  0
LINE
  8
0
 10
91.6221
 20
81.2184
 11
91.2323
 21
81.0197
  0
LINE
  8
0
 10
91.2323
 20
81.0197
 11
90.8
 21
80.9512
  0
LINE
  8
0
 10
90.8
 20
80.9512
 11
90.3677
 21
81.0197
  0
LINE
  8
0
 10
39.8309
 20
59.9049
 11
39.8588
 21
59.9191
  0
LINE
  8
0
 10
39.8588
 20
59.9191
 11
39.8809
 21
59.9412
  0
LINE
  8
0
 10
39.8809
 20
59.9412
 11
39.8951
 21
59.9691
  0
LINE
  8
0
 10
39.8951
 20
59.9691
 11
39.9
 21
60
  0
LINE
  8
0
 10
39.9
 20
60
 11
39.9
 21
90
  0
LINE
  8
0
 10
39.9
 20
90
 11
39.8951
 21
90.0309
  0
LINE
  8
0
 10
39.8951
 20
90.0309
 11
39.8809
 21
90.0588
  0
LINE
  8
0
 10
39.8809
 20
90.0588
 11
39.8588
 21
90.0809
  0
LINE
  8
0
 10
39.8588
 20
90.0809
 11
39.8309
 21
90.0951
  0
LINE
  8
0
 10
39.8309
 20
90.0951
 11
39.8
 21
90.1
  0
LINE
  8
0
 10
39.8
 20
90.1
 11
-0.200012
 21
90.1
  0
LINE
  8
0
 10
-0.200012
 20
90.1
 11
-0.230911
 21
90.0951
  0
LINE
  8
0
 10
-0.230911
 20
90.0951
 11
-0.258789
 21
90.0809
  0
LINE
  8
0
 10
-0.258789
 20
90.0809
 11
-0.280914
 21
90.0588
  0
LINE
  8
0
 10
-0.280914
 20
90.0588
 11
-0.29512
 21
90.0309
  0
LINE
  8
0
 10
-0.29512
 20
90.0309
 11
-0.300018
 21
90
  0
LINE
  8
0
 10
-0.300018
 20
90
 11
-0.300018
 21
60
  0
LINE
  8
0
 10
-0.300018
 20
60
 11
-0.29512
 21
59.9691
  0
LINE
  8
0
 10
-0.29512
 20
59.9691
 11
-0.280914
 21
59.9412
  0
LINE
  8
0
 10
-0.280914
 20
59.9412
 11
-0.258789
 21
59.9191
  0
LINE
  8
0
 10
-0.258789
 20
59.9191
 11
-0.230911
 21
59.9049
  0
LINE
  8
0
 10
-0.230911
 20
59.9049
 11
-0.200012
 21
59.9
  0
LINE
  8
0
 10
-0.200012
 20
59.9
 11
39.8
 21
59.9
  0
LINE
  8
0
 10
39.8
 20
59.9
 11
39.8309
 21
59.9049
  0
LINE
  8
0
 10
9.56773
 20
83.6697
 11
9.17784
 21
83.8684
  0
LINE
  8
0
 10
9.17784
 20
83.8684
 11
8.86836
 21
84.1778
  0
LINE
  8
0
 10
8.86836
 20
84.1778
 11
8.66971
 21
84.5677
  0
LINE
  8
0
 10
8.66971
 20
84.5677
 11
8.60124
 21
85
  0
LINE
  8
0
 10
8.60124
 20
85
 11
8.66971
 21
85.4323
  0
LINE
  8
0
 10
8.66971
 20
85.4323
 11
8.86836
 21
85.8221
  0
LINE
  8
0
 10
8.86836
 20
85.8221
 11
9.17784
 21
86.1316
  0
LINE
  8
0
 10
9.17784
 20
86.1316
 11
9.56773
 21
86.3303
  0
LINE
  8
0
 10
9.56773
 20
86.3303
 11
10
 21
86.3988
  0
LINE
  8
0
 10
10
 20
86.3988
 11
10.4323
 21
86.3303
  0
LINE
  8
0
 10
10.4323
 20
86.3303
 11
10.8221
 21
86.1316
  0
LINE
  8
0
 10
10.8221
 20
86.1316
 11
11.1316
 21
85.8221
  0
LINE
  8
0
 10
11.1316
 20
85.8221
 11
11.3303
 21
85.4323
  0
LINE
  8
0
 10
11.3303
 20
85.4323
 11
11.3988
 21
85
  0
LINE
  8
0
 10
11.3988
 20
85
 11
11.3303
 21
84.5677
  0
LINE
  8
0
 10
11.3303
 20
84.5677
 11
11.1316
 21
84.1778
  0
LINE
  8
0
 10
11.1316
 20
84.1778
 11
10.8221
 21
83.8684
  0
LINE
  8
0
 10
10.8221
 20
83.8684
 11
10.4323
 21
83.6697
  0
LINE
  8
0
 10
10.4323
 20
83.6697
 11
10
 21
83.6012
  0
LINE
  8
0
 10
10
 20
83.6012
 11
9.56773
 21
83.6697
  0
LINE
  8
0
 10
29.5677
 20
83.6697
 11
29.1778
 21
83.8684
  0
LINE
  8
0
 10
29.1778
 20
83.8684
 11
28.8684
 21
84.1778
  0
LINE
  8
0
 10
28.8684
 20
84.1778
 11
28.6697
 21
84.5677
  0
LINE
  8
0
 10
28.6697
 20
84.5677
 11
28.6012
 21
85
  0
LINE
  8
0
 10
28.6012
 20
85
 11
28.6697
 21
85.4323
  0
LINE
  8
0
 10
28.6697
 20
85.4323
 11
28.8684
 21
85.8221
  0
LINE
  8
0
 10
28.8684
 20
85.8221
 11
29.1778
 21
86.1316
  0
LINE
  8
0
 10
29.1778
 20
86.1316
 11
29.5677
 21
86.3303
  0
LINE
  8
0
 10
29.5677
 20
86.3303
 11
30
 21
86.3988
  0
LINE
  8
0
 10
30
 20
86.3988
 11
30.4323
 21
86.3303
  0
LINE
  8
0
 10
30.4323
 20
86.3303
 11
30.8221
 21
86.1316
  0
LINE
  8
0
 10
30.8221
 20
86.1316
 11
31.1316
 21
85.8221
  0
LINE
  8
0
 10
31.1316
 20
85.8221
 11
31.3303
 21
85.4323
  0
LINE
  8
0
 10
31.3303
 20
85.4323
 11
31.3988
 21
85
  0
LINE
  8
0
 10
31.3988
 20
85
 11
31.3303
 21
84.5677
  0
LINE
  8
0
 10
31.3303
 20
84.5677
 11
31.1316
 21
84.1778
  0
LINE
  8
0
 10
31.1316
 20
84.1778
 11
30.8221
 21
83.8684
  0
LINE
  8
0
 10
30.8221
 20
83.8684
 11
30.4323
 21
83.6697
  0
LINE
  8
0
 10
30.4323
 20
83.6697
 11
30
 21
83.6012
  0
LINE
  8
0
 10
30
 20
83.6012
 11
29.5677
 21
83.6697
  0
LINE
  8
0
 10
9.56773
 20
63.6697
 11
9.17784
 21
63.8684
  0
LINE
  8
0
 10
9.17784
 20
63.8684
 11
8.86836
 21
64.1778
  0
LINE
  8
0
 10
8.86836
 20
64.1778
 11
8.66971
 21
64.5677
  0
LINE
  8
0
 10
8.66971
 20
64.5677
 11
8.60124
 21
65
  0
LINE
  8
0
 10
8.60124
 20
65
 11
8.66971
 21
65.4323
  0
LINE
  8
0
 10
8.66971
 20
65.4323
 11
8.86836
 21
65.8221
  0
LINE
  8
0
 10
8.86836
 20
65.8221
 11
9.17784
 21
66.1316
  0
LINE
  8
0
 10
9.17784
 20
66.1316
 11
9.56773
 21
66.3303
  0
LINE
  8
0
 10
9.56773
 20
66.3303
 11
10
 21
66.3988
  0
LINE
  8
0
 10
10
 20
66.3988
 11
10.4323
 21
66.3303
  0
LINE
  8
0
 10
10.4323
 20
66.3303
 11
10.8221
 21
66.1316
  0
LINE
  8
0
 10
10.8221
 20
66.1316
 11
11.1316
 21
65.8221
  0
LINE
  8
0
 10
11.1316
 20
65.8221
 11
11.3303
 21
65.4323
  0
LINE
  8
0
 10
11.3303
 20
65.4323
 11
11.3988
 21
65
  0
LINE
  8
0
 10
11.3988
 20
65
 11
11.3303
 21
64.5677
  0
LINE
  8
0
 10
11.3303
 20
64.5677
 11
11.1316
 21
64.1778
  0
LINE
  8
0
 10
11.1316
 20
64.1778
 11
10.8221
 21
63.8684
  0
LINE
  8
0
 10
10.8221
 20
63.8684
 11
10.4323
 21
63.6697
  0
LINE
  8
0
 10
10.4323
 20
63.6697
 11
10
 21
63.6012
  0
LINE
  8
0
 10
10
 20
63.6012
 11
9.56773
 21
63.6697
  0
LINE
  8
0
 10
29.5677
 20
63.6697
 11
29.1778
 21
63.8684
  0
LINE
  8
0
 10
29.1778
 20
63.8684
 11
28.8684
 21
64.1778
  0
LINE
  8
0
 10
28.8684
 20
64.1778
 11
28.6697
 21
64.5677
  0
LINE
  8
0
 10
28.6697
 20
64.5677
 11
28.6012
 21
65
  0
LINE
  8
0
 10
28.6012
 20
65
 11
28.6697
 21
65.4323
  0
LINE
  8
0
 10
28.6697
 20
65.4323
 11
28.8684
 21
65.8221
  0
LINE
  8
0
 10
28.8684
 20
65.8221
 11
29.1778
 21
66.1316
  0
LINE
  8
0
 10
29.1778
 20
66.1316
 11
29.5677
 21
66.3303
  0
LINE
  8
0
 10
29.5677
 20
66.3303
 11
30
 21
66.3988
  0
LINE
  8
0
 10
30
 20
66.3988
 11
30.4323
 21
66.3303
  0
LINE
  8
0
 10
30.4323
 20
66.3303
 11
30.8221
 21
66.1316
  0
LINE
  8
0
 10
30.8221
 20
66.1316
 11
31.1316
 21
65.8221
  0
LINE
  8
0
 10
31.1316
 20
65.8221
 11
31.3303
 21
65.4323
  0
LINE
  8
0
 10
31.3303
 20
65.4323
 11
31.3988
 21
65
  0
LINE
  8
0
 10
31.3988
 20
65
 11
31.3303
 21
64.5677
  0
LINE
  8
0
 10
31.3303
 20
64.5677
 11
31.1316
 21
64.1778
  0
LINE
  8
0
 10
31.1316
 20
64.1778
 11
30.8221
 21
63.8684
  0
LINE
  8
0
 10
30.8221
 20
63.8684
 11
30.4323
 21
63.6697
  0
LINE
  8
0
 10
30.4323
 20
63.6697
 11
30
 21
63.6012
  0
LINE
  8
0
 10
30
 20
63.6012
 11
29.5677
 21
63.6697
  0
LINE
  8
0
 10
184.856
 20
19.9049
 11
184.884
 21
19.9191
  0
LINE
  8
0
 10
184.884
 20
19.9191
 11
184.906
 21
19.9412
  0
LINE
  8
0
 10
184.906
 20
19.9412
 11
184.92
 21
19.9691
  0
LINE
  8
0
 10
184.92
 20
19.9691
 11
184.925
 21
20
  0
LINE
  8
0
 10
184.925
 20
20
 11
184.925
 21
29.9
  0
LINE
  8
0
 10
184.925
 20
29.9
 11
187.725
 21
29.9
  0
LINE
  8
0
 10
187.725
 20
29.9
 11
187.725
 21
20
  0
LINE
  8
0
 10
187.725
 20
20
 11
187.73
 21
19.9691
  0
LINE
  8
0
 10
187.73
 20
19.9691
 11
187.744
 21
19.9412
  0
LINE
  8
0
 10
187.744
 20
19.9412
 11
187.766
 21
19.9191
  0
LINE
  8
0
 10
187.766
 20
19.9191
 11
187.794
 21
19.9049
  0
LINE
  8
0
 10
187.794
 20
19.9049
 11
187.825
 21
19.9
  0
LINE
  8
0
 10
187.825
 20
19.9
 11
195.175
 21
19.9
  0
LINE
  8
0
 10
195.175
 20
19.9
 11
195.206
 21
19.9049
  0
LINE
  8
0
 10
195.206
 20
19.9049
 11
195.234
 21
19.9191
  0
LINE
  8
0
 10
195.234
 20
19.9191
 11
195.256
 21
19.9412
  0
LINE
  8
0
 10
195.256
 20
19.9412
 11
195.27
 21
19.9691
  0
LINE
  8
0
 10
195.27
 20
19.9691
 11
195.275
 21
20
  0
LINE
  8
0
 10
195.275
 20
20
 11
195.275
 21
29.9
  0
LINE
  8
0
 10
195.275
 20
29.9
 11
198.075
 21
29.9
  0
LINE
  8
0
 10
198.075
 20
29.9
 11
198.075
 21
20
  0
LINE
  8
0
 10
198.075
 20
20
 11
198.08
 21
19.9691
  0
LINE
  8
0
 10
198.08
 20
19.9691
 11
198.094
 21
19.9412
  0
LINE
  8
0
 10
198.094
 20
19.9412
 11
198.116
 21
19.9191
  0
LINE
  8
0
 10
198.116
 20
19.9191
 11
198.144
 21
19.9049
  0
LINE
  8
0
 10
198.144
 20
19.9049
 11
198.175
 21
19.9
  0
LINE
  8
0
 10
198.175
 20
19.9
 11
200
 21
19.9
  0
LINE
  8
0
 10
200
 20
19.9
 11
200.031
 21
19.9049
  0
LINE
  8
0
 10
200.031
 20
19.9049
 11
200.059
 21
19.9191
  0
LINE
  8
0
 10
200.059
 20
19.9191
 11
200.081
 21
19.9412
  0
LINE
  8
0
 10
200.081
 20
19.9412
 11
200.095
 21
19.9691
  0
LINE
  8
0
 10
200.095
 20
19.9691
 11
200.1
 21
20
  0
LINE
  8
0
 10
200.1
 20
20
 11
200.1
 21
40
  0
LINE
  8
0
 10
200.1
 20
40
 11
200.095
 21
40.0309
  0
LINE
  8
0
 10
200.095
 20
40.0309
 11
200.081
 21
40.0588
  0
LINE
  8
0
 10
200.081
 20
40.0588
 11
200.059
 21
40.0809
  0
LINE
  8
0
 10
200.059
 20
40.0809
 11
200.031
 21
40.0951
  0
LINE
  8
0
 10
200.031
 20
40.0951
 11
200
 21
40.1
  0
LINE
  8
0
 10
200
 20
40.1
 11
195.1
 21
40.1
  0
LINE
  8
0
 10
195.1
 20
40.1
 11
195.1
 21
59.9
  0
LINE
  8
0
 10
195.1
 20
59.9
 11
200
 21
59.9
  0
LINE
  8
0
 10
200
 20
59.9
 11
200.031
 21
59.9049
  0
LINE
  8
0
 10
200.031
 20
59.9049
 11
200.059
 21
59.9191
  0
LINE
  8
0
 10
200.059
 20
59.9191
 11
200.081
 21
59.9412
  0
LINE
  8
0
 10
200.081
 20
59.9412
 11
200.095
 21
59.9691
  0
LINE
  8
0
 10
200.095
 20
59.9691
 11
200.1
 21
60
  0
LINE
  8
0
 10
200.1
 20
60
 11
200.1
 21
70
  0
LINE
  8
0
 10
200.1
 20
70
 11
200.099
 21
70.0156
  0
LINE
  8
0
 10
200.099
 20
70.0156
 11
199.683
 21
72.6423
  0
LINE
  8
0
 10
199.683
 20
72.6423
 11
199.673
 21
72.672
  0
LINE
  8
0
 10
199.673
 20
72.672
 11
198.466
 21
75.0416
  0
LINE
  8
0
 10
198.466
 20
75.0416
 11
198.447
 21
75.0669
  0
LINE
  8
0
 10
198.447
 20
75.0669
 11
196.567
 21
76.9473
  0
LINE
  8
0
 10
196.567
 20
76.9473
 11
196.542
 21
76.9657
  0
LINE
  8
0
 10
196.542
 20
76.9657
 11
194.172
 21
78.1731
  0
LINE
  8
0
 10
194.172
 20
78.1731
 11
194.142
 21
78.1827
  0
LINE
  8
0
 10
194.142
 20
78.1827
 11
191.516
 21
78.5988
  0
LINE
  8
0
 10
191.516
 20
78.5988
 11
191.5
 21
78.6
  0
LINE
  8
0
 10
191.5
 20
78.6
 11
160
 21
78.6
  0
LINE
  8
0
 10
160
 20
78.6
 11
159.969
 21
78.5951
  0
LINE
  8
0
 10
159.969
 20
78.5951
 11
159.941
 21
78.5809
  0
LINE
  8
0
 10
159.941
 20
78.5809
 11
159.919
 21
78.5588
  0
LINE
  8
0
 10
159.919
 20
78.5588
 11
159.905
 21
78.5309
  0
LINE
  8
0
 10
159.905
 20
78.5309
 11
159.9
 21
78.5
  0
LINE
  8
0
 10
159.9
 20
78.5
 11
159.9
 21
70
  0
LINE
  8
0
 10
159.9
 20
70
 11
159.905
 21
69.9691
  0
LINE
  8
0
 10
159.905
 20
69.9691
 11
159.919
 21
69.9412
  0
LINE
  8
0
 10
159.919
 20
69.9412
 11
159.941
 21
69.9191
  0
LINE
  8
0
 10
159.941
 20
69.9191
 11
159.969
 21
69.9049
  0
LINE
  8
0
 10
159.969
 20
69.9049
 11
160
 21
69.9
  0
LINE
  8
0
 10
160
 20
69.9
 11
179.9
 21
69.9
  0
LINE
  8
0
 10
179.9
 20
69.9
 11
179.9
 21
20
  0
LINE
  8
0
 10
179.9
 20
20
 11
179.905
 21
19.9691
  0
LINE
  8
0
 10
179.905
 20
19.9691
 11
179.919
 21
19.9412
  0
LINE
  8
0
 10
179.919
 20
19.9412
 11
179.941
 21
19.9191
  0
LINE
  8
0
 10
179.941
 20
19.9191
 11
179.969
 21
19.9049
  0
LINE
  8
0
 10
179.969
 20
19.9049
 11
180
 21
19.9
  0
LINE
  8
0
 10
180
 20
19.9
 11
184.825
 21
19.9
  0
LINE
  8
0
 10
184.825
 20
19.9
 11
184.856
 21
19.9049
  0
LINE
  8
0
 10
164.568
 20
72.6697
 11
164.178
 21
72.8684
  0
LINE
  8
0
 10
164.178
 20
72.8684
 11
163.868
 21
73.1778
  0
LINE
  8
0
 10
163.868
 20
73.1778
 11
163.67
 21
73.5677
  0
LINE
  8
0
 10
163.67
 20
73.5677
 11
163.601
 21
74
  0
LINE
  8
0
 10
163.601
 20
74
 11
163.67
 21
74.4323
  0
LINE
  8
0
 10
163.67
 20
74.4323
 11
163.868
 21
74.8221
  0
LINE
  8
0
 10
163.868
 20
74.8221
 11
164.178
 21
75.1316
  0
LINE
  8
0
 10
164.178
 20
75.1316
 11
164.568
 21
75.3303
  0
LINE
  8
0
 10
164.568
 20
75.3303
 11
165
 21
75.3988
  0
LINE
  8
0
 10
165
 20
75.3988
 11
165.432
 21
75.3303
  0
LINE
  8
0
 10
165.432
 20
75.3303
 11
165.822
 21
75.1316
  0
LINE
  8
0
 10
165.822
 20
75.1316
 11
166.132
 21
74.8221
  0
LINE
  8
0
 10
166.132
 20
74.8221
 11
166.33
 21
74.4323
  0
LINE
  8
0
 10
166.33
 20
74.4323
 11
166.399
 21
74
  0
LINE
  8
0
 10
166.399
 20
74
 11
166.33
 21
73.5677
  0
LINE
  8
0
 10
166.33
 20
73.5677
 11
166.132
 21
73.1778
  0
LINE
  8
0
 10
166.132
 20
73.1778
 11
165.822
 21
72.8684
  0
LINE
  8
0
 10
165.822
 20
72.8684
 11
165.432
 21
72.6697
  0
LINE
  8
0
 10
165.432
 20
72.6697
 11
165
 21
72.6012
  0
LINE
  8
0
 10
165
 20
72.6012
 11
164.568
 21
72.6697
  0
LINE
  8
0
 10
191.068
 20
68.6697
 11
190.678
 21
68.8684
  0
LINE
  8
0
 10
190.678
 20
68.8684
 11
190.368
 21
69.1778
  0
LINE
  8
0
 10
190.368
 20
69.1778
 11
190.17
 21
69.5677
  0
LINE
  8
0
 10
190.17
 20
69.5677
 11
190.101
 21
70
  0
LINE
  8
0
 10
190.101
 20
70
 11
190.17
 21
70.4323
  0
LINE
  8
0
 10
190.17
 20
70.4323
 11
190.368
 21
70.8221
  0
LINE
  8
0
 10
190.368
 20
70.8221
 11
190.678
 21
71.1316
  0
LINE
  8
0
 10
190.678
 20
71.1316
 11
191.068
 21
71.3303
  0
LINE
  8
0
 10
191.068
 20
71.3303
 11
191.5
 21
71.3988
  0
LINE
  8
0
 10
191.5
 20
71.3988
 11
191.932
 21
71.3303
  0
LINE
  8
0
 10
191.932
 20
71.3303
 11
192.322
 21
71.1316
  0
LINE
  8
0
 10
192.322
 20
71.1316
 11
192.632
 21
70.8221
  0
LINE
  8
0
 10
192.632
 20
70.8221
 11
192.83
 21
70.4323
  0
LINE
  8
0
 10
192.83
 20
70.4323
 11
192.899
 21
70
  0
LINE
  8
0
 10
192.899
 20
70
 11
192.83
 21
69.5677
  0
LINE
  8
0
 10
192.83
 20
69.5677
 11
192.632
 21
69.1778
  0
LINE
  8
0
 10
192.632
 20
69.1778
 11
192.322
 21
68.8684
  0
LINE
  8
0
 10
192.322
 20
68.8684
 11
191.932
 21
68.6697
  0
LINE
  8
0
 10
191.932
 20
68.6697
 11
191.5
 21
68.6012
  0
LINE
  8
0
 10
191.5
 20
68.6012
 11
191.068
 21
68.6697
  0
LINE
  8
0
 10
100.831
 20
39.9049
 11
100.859
 21
39.9191
  0
LINE
  8
0
 10
100.859
 20
39.9191
 11
100.881
 21
39.9412
  0
LINE
  8
0
 10
100.881
 20
39.9412
 11
100.895
 21
39.9691
  0
LINE
  8
0
 10
100.895
 20
39.9691
 11
100.9
 21
40
  0
LINE
  8
0
 10
100.9
 20
40
 11
100.9
 21
64
  0
LINE
  8
0
 10
100.9
 20
64
 11
100.895
 21
64.0309
  0
LINE
  8
0
 10
100.895
 20
64.0309
 11
100.881
 21
64.0588
  0
LINE
  8
0
 10
100.881
 20
64.0588
 11
100.859
 21
64.0809
  0
LINE
  8
0
 10
100.859
 20
64.0809
 11
100.831
 21
64.0951
  0
LINE
  8
0
 10
100.831
 20
64.0951
 11
100.8
 21
64.1
  0
LINE
  8
0
 10
100.8
 20
64.1
 11
50
 21
64.1
  0
LINE
  8
0
 10
50
 20
64.1
 11
49.9691
 21
64.0951
  0
LINE
  8
0
 10
49.9691
 20
64.0951
 11
49.9412
 21
64.0809
  0
LINE
  8
0
 10
49.9412
 20
64.0809
 11
49.9191
 21
64.0588
  0
LINE
  8
0
 10
49.9191
 20
64.0588
 11
49.9049
 21
64.0309
  0
LINE
  8
0
 10
49.9049
 20
64.0309
 11
49.9
 21
64
  0
LINE
  8
0
 10
49.9
 20
64
 11
49.9
 21
40
  0
LINE
  8
0
 10
49.9
 20
40
 11
49.9049
 21
39.9691
  0
LINE
  8
0
 10
49.9049
 20
39.9691
 11
49.9191
 21
39.9412
  0
LINE
  8
0
 10
49.9191
 20
39.9412
 11
49.9412
 21
39.9191
  0
LINE
  8
0
 10
49.9412
 20
39.9191
 11
49.9691
 21
39.9049
  0
LINE
  8
0
 10
49.9691
 20
39.9049
 11
50
 21
39.9
  0
LINE
  8
0
 10
50
 20
39.9
 11
100.8
 21
39.9
  0
LINE
  8
0
 10
100.8
 20
39.9
 11
100.831
 21
39.9049
  0
LINE
  8
0
 10
59.5677
 20
51.0197
 11
59.1778
 21
51.2184
  0
LINE
  8
0
 10
59.1778
 20
51.2184
 11
58.8684
 21
51.5278
  0
LINE
  8
0
 10
58.8684
 20
51.5278
 11
58.6697
 21
51.9177
  0
LINE
  8
0
 10
58.6697
 20
51.9177
 11
58.6012
 21
52.35
  0
LINE
  8
0
 10
58.6012
 20
52.35
 11
58.6697
 21
52.7823
  0
LINE
  8
0
 10
58.6697
 20
52.7823
 11
58.8684
 21
53.1721
  0
LINE
  8
0
 10
58.8684
 20
53.1721
 11
59.1778
 21
53.4816
  0
LINE
  8
0
 10
59.1778
 20
53.4816
 11
59.5677
 21
53.6803
  0
LINE
  8
0
 10
59.5677
 20
53.6803
 11
60
 21
53.7487
  0
LINE
  8
0
 10
60
 20
53.7487
 11
60.4323
 21
53.6803
  0
LINE
  8
0
 10
60.4323
 20
53.6803
 11
60.8221
 21
53.4816
  0
LINE
  8
0
 10
60.8221
 20
53.4816
 11
61.1316
 21
53.1721
  0
LINE
  8
0
 10
61.1316
 20
53.1721
 11
61.3303
 21
52.7823
  0
LINE
  8
0
 10
61.3303
 20
52.7823
 11
61.3988
 21
52.35
  0
LINE
  8
0
 10
61.3988
 20
52.35
 11
61.3303
 21
51.9177
  0
LINE
  8
0
 10
61.3303
 20
51.9177
 11
61.1316
 21
51.5278
  0
LINE
  8
0
 10
61.1316
 20
51.5278
 11
60.8221
 21
51.2184
  0
LINE
  8
0
 10
60.8221
 20
51.2184
 11
60.4323
 21
51.0197
  0
LINE
  8
0
 10
60.4323
 20
51.0197
 11
60
 21
50.9512
  0
LINE
  8
0
 10
60
 20
50.9512
 11
59.5677
 21
51.0197
  0
LINE
  8
0
 10
90.3677
 20
51.0197
 11
89.9778
 21
51.2184
  0
LINE
  8
0
 10
89.9778
 20
51.2184
 11
89.6684
 21
51.5278
  0
LINE
  8
0
 10
89.6684
 20
51.5278
 11
89.4697
 21
51.9177
  0
LINE
  8
0
 10
89.4697
 20
51.9177
 11
89.4012
 21
52.35
  0
LINE
  8
0
 10
89.4012
 20
52.35
 11
89.4697
 21
52.7823
  0
LINE
  8
0
 10
89.4697
 20
52.7823
 11
89.6684
 21
53.1721
  0
LINE
  8
0
 10
89.6684
 20
53.1721
 11
89.9778
 21
53.4816
  0
LINE
  8
0
 10
89.9778
 20
53.4816
 11
90.3677
 21
53.6803
  0
LINE
  8
0
 10
90.3677
 20
53.6803
 11
90.8
 21
53.7487
  0
LINE
  8
0
 10
90.8
 20
53.7487
 11
91.2323
 21
53.6803
  0
LINE
  8
0
 10
91.2323
 20
53.6803
 11
91.6221
 21
53.4816
  0
LINE
  8
0
 10
91.6221
 20
53.4816
 11
91.9316
 21
53.1721
  0
LINE
  8
0
 10
91.9316
 20
53.1721
 11
92.1303
 21
52.7823
  0
LINE
  8
0
 10
92.1303
 20
52.7823
 11
92.1987
 21
52.35
  0
LINE
  8
0
 10
92.1987
 20
52.35
 11
92.1303
 21
51.9177
  0
LINE
  8
0
 10
92.1303
 20
51.9177
 11
91.9316
 21
51.5278
  0
LINE
  8
0
 10
91.9316
 20
51.5278
 11
91.6221
 21
51.2184
  0
LINE
  8
0
 10
91.6221
 20
51.2184
 11
91.2323
 21
51.0197
  0
LINE
  8
0
 10
91.2323
 20
51.0197
 11
90.8
 21
50.9512
  0
LINE
  8
0
 10
90.8
 20
50.9512
 11
90.3677
 21
51.0197
  0
LINE
  8
0
 10
195.031
 20
1.40489
 11
195.059
 21
1.4191
  0
LINE
  8
0
 10
195.059
 20
1.4191
 11
195.081
 21
1.44122
  0
LINE
  8
0
 10
195.081
 20
1.44122
 11
195.095
 21
1.4691
  0
LINE
  8
0
 10
195.095
 20
1.4691
 11
195.1
 21
1.5
  0
LINE
  8
0
 10
195.1
 20
1.5
 11
195.1
 21
10
  0
LINE
  8
0
 10
195.1
 20
10
 11
195.095
 21
10.0309
  0
LINE
  8
0
 10
195.095
 20
10.0309
 11
195.081
 21
10.0588
  0
LINE
  8
0
 10
195.081
 20
10.0588
 11
195.059
 21
10.0809
  0
LINE
  8
0
 10
195.059
 20
10.0809
 11
195.031
 21
10.0951
  0
LINE
  8
0
 10
195.031
 20
10.0951
 11
195
 21
10.1
  0
LINE
  8
0
 10
195
 20
10.1
 11
175.1
 21
10.1
  0
LINE
  8
0
 10
175.1
 20
10.1
 11
175.1
 21
60
  0
LINE
  8
0
 10
175.1
 20
60
 11
175.095
 21
60.0309
  0
LINE
  8
0
 10
175.095
 20
60.0309
 11
175.081
 21
60.0588
  0
LINE
  8
0
 10
175.081
 20
60.0588
 11
175.059
 21
60.0809
  0
LINE
  8
0
 10
175.059
 20
60.0809
 11
175.031
 21
60.0951
  0
LINE
  8
0
 10
175.031
 20
60.0951
 11
175
 21
60.1
  0
LINE
  8
0
 10
175
 20
60.1
 11
170.175
 21
60.1
  0
LINE
  8
0
 10
170.175
 20
60.1
 11
170.144
 21
60.0951
  0
LINE
  8
0
 10
170.144
 20
60.0951
 11
170.116
 21
60.0809
  0
LINE
  8
0
 10
170.116
 20
60.0809
 11
170.094
 21
60.0588
  0
LINE
  8
0
 10
170.094
 20
60.0588
 11
170.08
 21
60.0309
  0
LINE
  8
0
 10
170.08
 20
60.0309
 11
170.075
 21
60
  0
LINE
  8
0
 10
170.075
 20
60
 11
170.075
 21
50.1
  0
LINE
  8
0
 10
170.075
 20
50.1
 11
167.275
 21
50.1
  0
LINE
  8
0
 10
167.275
 20
50.1
 11
167.275
 21
60
  0
LINE
  8
0
 10
167.275
 20
60
 11
167.27
 21
60.0309
  0
LINE
  8
0
 10
167.27
 20
60.0309
 11
167.256
 21
60.0588
  0
LINE
  8
0
 10
167.256
 20
60.0588
 11
167.234
 21
60.0809
  0
LINE
  8
0
 10
167.234
 20
60.0809
 11
167.206
 21
60.0951
  0
LINE
  8
0
 10
167.206
 20
60.0951
 11
167.175
 21
60.1
  0
LINE
  8
0
 10
167.175
 20
60.1
 11
159.825
 21
60.1
  0
LINE
  8
0
 10
159.825
 20
60.1
 11
159.794
 21
60.0951
  0
LINE
  8
0
 10
159.794
 20
60.0951
 11
159.766
 21
60.0809
  0
LINE
  8
0
 10
159.766
 20
60.0809
 11
159.744
 21
60.0588
  0
LINE
  8
0
 10
159.744
 20
60.0588
 11
159.73
 21
60.0309
  0
LINE
  8
0
 10
159.73
 20
60.0309
 11
159.725
 21
60
  0
LINE
  8
0
 10
159.725
 20
60
 11
159.725
 21
50.1
  0
LINE
  8
0
 10
159.725
 20
50.1
 11
156.925
 21
50.1
  0
LINE
  8
0
 10
156.925
 20
50.1
 11
156.925
 21
60
  0
LINE
  8
0
 10
156.925
 20
60
 11
156.92
 21
60.0309
  0
LINE
  8
0
 10
156.92
 20
60.0309
 11
156.906
 21
60.0588
  0
LINE
  8
0
 10
156.906
 20
60.0588
 11
156.884
 21
60.0809
  0
LINE
  8
0
 10
156.884
 20
60.0809
 11
156.856
 21
60.0951
  0
LINE
  8
0
 10
156.856
 20
60.0951
 11
156.825
 21
60.1
  0
LINE
  8
0
 10
156.825
 20
60.1
 11
155
 21
60.1
  0
LINE
  8
0
 10
155
 20
60.1
 11
154.969
 21
60.0951
  0
LINE
  8
0
 10
154.969
 20
60.0951
 11
154.941
 21
60.0809
  0
LINE
  8
0
 10
154.941
 20
60.0809
 11
154.919
 21
60.0588
  0
LINE
  8
0
 10
154.919
 20
60.0588
 11
154.905
 21
60.0309
  0
LINE
  8
0
 10
154.905
 20
60.0309
 11
154.9
 21
60
  0
LINE
  8
0
 10
154.9
 20
60
 11
154.9
 21
40
  0
LINE
  8
0
 10
154.9
 20
40
 11
154.905
 21
39.9691
  0
LINE
  8
0
 10
154.905
 20
39.9691
 11
154.919
 21
39.9412
  0
LINE
  8
0
 10
154.919
 20
39.9412
 11
154.941
 21
39.9191
  0
LINE
  8
0
 10
154.941
 20
39.9191
 11
154.969
 21
39.9049
  0
LINE
  8
0
 10
154.969
 20
39.9049
 11
155
 21
39.9
  0
LINE
  8
0
 10
155
 20
39.9
 11
159.9
 21
39.9
  0
LINE
  8
0
 10
159.9
 20
39.9
 11
159.9
 21
20.1
  0
LINE
  8
0
 10
159.9
 20
20.1
 11
155
 21
20.1
  0
LINE
  8
0
 10
155
 20
20.1
 11
154.969
 21
20.0951
  0
LINE
  8
0
 10
154.969
 20
20.0951
 11
154.941
 21
20.0809
  0
LINE
  8
0
 10
154.941
 20
20.0809
 11
154.919
 21
20.0588
  0
LINE
  8
0
 10
154.919
 20
20.0588
 11
154.905
 21
20.0309
  0
LINE
  8
0
 10
154.905
 20
20.0309
 11
154.9
 21
20
  0
LINE
  8
0
 10
154.9
 20
20
 11
154.9
 21
10
  0
LINE
  8
0
 10
154.9
 20
10
 11
154.901
 21
9.98436
  0
LINE
  8
0
 10
154.901
 20
9.98436
 11
155.317
 21
7.35773
  0
LINE
  8
0
 10
155.317
 20
7.35773
 11
155.327
 21
7.32797
  0
LINE
  8
0
 10
155.327
 20
7.32797
 11
156.534
 21
4.95844
  0
LINE
  8
0
 10
156.534
 20
4.95844
 11
156.553
 21
4.93312
  0
LINE
  8
0
 10
156.553
 20
4.93312
 11
158.433
 21
3.05266
  0
LINE
  8
0
 10
158.433
 20
3.05266
 11
158.458
 21
3.03427
  0
LINE
  8
0
 10
158.458
 20
3.03427
 11
160.828
 21
1.82693
  0
LINE
  8
0
 10
160.828
 20
1.82693
 11
160.858
 21
1.81726
  0
LINE
  8
0
 10
160.858
 20
1.81726
 11
163.484
 21
1.40123
  0
LINE
  8
0
 10
163.484
 20
1.40123
 11
163.5
 21
1.39999
  0
LINE
  8
0
 10
163.5
 20
1.39999
 11
195
 21
1.39999
  0
LINE
  8
0
 10
195
 20
1.39999
 11
195.031
 21
1.40489
  0
LINE
  8
0
 10
163.068
 20
8.66972
 11
162.678
 21
8.86838
  0
LINE
  8
0
 10
162.678
 20
8.86838
 11
162.368
 21
9.17786
  0
LINE
  8
0
 10
162.368
 20
9.17786
 11
162.17
 21
9.56775
  0
LINE
  8
0
 10
162.17
 20
9.56775
 11
162.101
 21
10
  0
LINE
  8
0
 10
162.101
 20
10
 11
162.17
 21
10.4323
  0
LINE
  8
0
 10
162.17
 20
10.4323
 11
162.368
 21
10.8222
  0
LINE
  8
0
 10
162.368
 20
10.8222
 11
162.678
 21
11.1316
  0
LINE
  8
0
 10
162.678
 20
11.1316
 11
163.068
 21
11.3303
  0
LINE
  8
0
 10
163.068
 20
11.3303
 11
163.5
 21
11.3988
  0
LINE
  8
0
 10
163.5
 20
11.3988
 11
163.932
 21
11.3303
  0
LINE
  8
0
 10
163.932
 20
11.3303
 11
164.322
 21
11.1316
  0
LINE
  8
0
 10
164.322
 20
11.1316
 11
164.632
 21
10.8222
  0
LINE
  8
0
 10
164.632
 20
10.8222
 11
164.83
 21
10.4323
  0
LINE
  8
0
 10
164.83
 20
10.4323
 11
164.899
 21
10
  0
LINE
  8
0
 10
164.899
 20
10
 11
164.83
 21
9.56775
  0
LINE
  8
0
 10
164.83
 20
9.56775
 11
164.632
 21
9.17786
  0
LINE
  8
0
 10
164.632
 20
9.17786
 11
164.322
 21
8.86838
  0
LINE
  8
0
 10
164.322
 20
8.86838
 11
163.932
 21
8.66972
  0
LINE
  8
0
 10
163.932
 20
8.66972
 11
163.5
 21
8.60124
  0
LINE
  8
0
 10
163.5
 20
8.60124
 11
163.068
 21
8.66972
  0
LINE
  8
0
 10
189.568
 20
4.66972
 11
189.178
 21
4.86838
  0
LINE
  8
0
 10
189.178
 20
4.86838
 11
188.868
 21
5.17786
  0
LINE
  8
0
 10
188.868
 20
5.17786
 11
188.67
 21
5.56775
  0
LINE
  8
0
 10
188.67
 20
5.56775
 11
188.601
 21
6
  0
LINE
  8
0
 10
188.601
 20
6
 11
188.67
 21
6.43227
  0
LINE
  8
0
 10
188.67
 20
6.43227
 11
188.868
 21
6.82216
  0
LINE
  8
0
 10
188.868
 20
6.82216
 11
189.178
 21
7.13164
  0
LINE
  8
0
 10
189.178
 20
7.13164
 11
189.568
 21
7.33029
  0
LINE
  8
0
 10
189.568
 20
7.33029
 11
190
 21
7.39876
  0
LINE
  8
0
 10
190
 20
7.39876
 11
190.432
 21
7.33029
  0
LINE
  8
0
 10
190.432
 20
7.33029
 11
190.822
 21
7.13164
  0
LINE
  8
0
 10
190.822
 20
7.13164
 11
191.132
 21
6.82216
  0
LINE
  8
0
 10
191.132
 20
6.82216
 11
191.33
 21
6.43227
  0
LINE
  8
0
 10
191.33
 20
6.43227
 11
191.399
 21
6
  0
LINE
  8
0
 10
191.399
 20
6
 11
191.33
 21
5.56775
  0
LINE
  8
0
 10
191.33
 20
5.56775
 11
191.132
 21
5.17786
  0
LINE
  8
0
 10
191.132
 20
5.17786
 11
190.822
 21
4.86838
  0
LINE
  8
0
 10
190.822
 20
4.86838
 11
190.432
 21
4.66972
  0
LINE
  8
0
 10
190.432
 20
4.66972
 11
190
 21
4.60124
  0
LINE
  8
0
 10
190
 20
4.60124
 11
189.568
 21
4.66972
  0
LINE
  8
0
 10
39.8309
 20
19.9049
 11
39.8588
 21
19.9191
  0
LINE
  8
0
 10
39.8588
 20
19.9191
 11
39.8809
 21
19.9412
  0
LINE
  8
0
 10
39.8809
 20
19.9412
 11
39.8951
 21
19.9691
  0
LINE
  8
0
 10
39.8951
 20
19.9691
 11
39.9
 21
20
  0
LINE
  8
0
 10
39.9
 20
20
 11
39.9
 21
50
  0
LINE
  8
0
 10
39.9
 20
50
 11
39.8951
 21
50.0309
  0
LINE
  8
0
 10
39.8951
 20
50.0309
 11
39.8809
 21
50.0588
  0
LINE
  8
0
 10
39.8809
 20
50.0588
 11
39.8588
 21
50.0809
  0
LINE
  8
0
 10
39.8588
 20
50.0809
 11
39.8309
 21
50.0951
  0
LINE
  8
0
 10
39.8309
 20
50.0951
 11
39.8
 21
50.1
  0
LINE
  8
0
 10
39.8
 20
50.1
 11
-0.200012
 21
50.1
  0
LINE
  8
0
 10
-0.200012
 20
50.1
 11
-0.230911
 21
50.0951
  0
LINE
  8
0
 10
-0.230911
 20
50.0951
 11
-0.258789
 21
50.0809
  0
LINE
  8
0
 10
-0.258789
 20
50.0809
 11
-0.280914
 21
50.0588
  0
LINE
  8
0
 10
-0.280914
 20
50.0588
 11
-0.29512
 21
50.0309
  0
LINE
  8
0
 10
-0.29512
 20
50.0309
 11
-0.300018
 21
50
  0
LINE
  8
0
 10
-0.300018
 20
50
 11
-0.300018
 21
20
  0
LINE
  8
0
 10
-0.300018
 20
20
 11
-0.29512
 21
19.9691
  0
LINE
  8
0
 10
-0.29512
 20
19.9691
 11
-0.280914
 21
19.9412
  0
LINE
  8
0
 10
-0.280914
 20
19.9412
 11
-0.258789
 21
19.9191
  0
LINE
  8
0
 10
-0.258789
 20
19.9191
 11
-0.230911
 21
19.9049
  0
LINE
  8
0
 10
-0.230911
 20
19.9049
 11
-0.200012
 21
19.9
  0
LINE
  8
0
 10
-0.200012
 20
19.9
 11
39.8
 21
19.9
  0
LINE
  8
0
 10
39.8
 20
19.9
 11
39.8309
 21
19.9049
  0
LINE
  8
0
 10
9.56773
 20
43.6697
 11
9.17784
 21
43.8684
  0
LINE
  8
0
 10
9.17784
 20
43.8684
 11
8.86836
 21
44.1778
  0
LINE
  8
0
 10
8.86836
 20
44.1778
 11
8.66971
 21
44.5677
  0
LINE
  8
0
 10
8.66971
 20
44.5677
 11
8.60124
 21
45
  0
LINE
  8
0
 10
8.60124
 20
45
 11
8.66971
 21
45.4323
  0
LINE
  8
0
 10
8.66971
 20
45.4323
 11
8.86836
 21
45.8221
  0
LINE
  8
0
 10
8.86836
 20
45.8221
 11
9.17784
 21
46.1316
  0
LINE
  8
0
 10
9.17784
 20
46.1316
 11
9.56773
 21
46.3303
  0
LINE
  8
0
 10
9.56773
 20
46.3303
 11
10
 21
46.3988
  0
LINE
  8
0
 10
10
 20
46.3988
 11
10.4323
 21
46.3303
  0
LINE
  8
0
 10
10.4323
 20
46.3303
 11
10.8221
 21
46.1316
  0
LINE
  8
0
 10
10.8221
 20
46.1316
 11
11.1316
 21
45.8221
  0
LINE
  8
0
 10
11.1316
 20
45.8221
 11
11.3303
 21
45.4323
  0
LINE
  8
0
 10
11.3303
 20
45.4323
 11
11.3988
 21
45
  0
LINE
  8
0
 10
11.3988
 20
45
 11
11.3303
 21
44.5677
  0
LINE
  8
0
 10
11.3303
 20
44.5677
 11
11.1316
 21
44.1778
  0
LINE
  8
0
 10
11.1316
 20
44.1778
 11
10.8221
 21
43.8684
  0
LINE
  8
0
 10
10.8221
 20
43.8684
 11
10.4323
 21
43.6697
  0
LINE
  8
0
 10
10.4323
 20
43.6697
 11
10
 21
43.6012
  0
LINE
  8
0
 10
10
 20
43.6012
 11
9.56773
 21
43.6697
  0
LINE
  8
0
 10
29.5677
 20
43.6697
 11
29.1778
 21
43.8684
  0
LINE
  8
0
 10
29.1778
 20
43.8684
 11
28.8684
 21
44.1778
  0
LINE
  8
0
 10
28.8684
 20
44.1778
 11
28.6697
 21
44.5677
  0
LINE
  8
0
 10
28.6697
 20
44.5677
 11
28.6012
 21
45
  0
LINE
  8
0
 10
28.6012
 20
45
 11
28.6697
 21
45.4323
  0
LINE
  8
0
 10
28.6697
 20
45.4323
 11
28.8684
 21
45.8221
  0
LINE
  8
0
 10
28.8684
 20
45.8221
 11
29.1778
 21
46.1316
  0
LINE
  8
0
 10
29.1778
 20
46.1316
 11
29.5677
 21
46.3303
  0
LINE
  8
0
 10
29.5677
 20
46.3303
 11
30
 21
46.3988
  0
LINE
  8
0
 10
30
 20
46.3988
 11
30.4323
 21
46.3303
  0
LINE
  8
0
 10
30.4323
 20
46.3303
 11
30.8221
 21
46.1316
  0
LINE
  8
0
 10
30.8221
 20
46.1316
 11
31.1316
 21
45.8221
  0
LINE
  8
0
 10
31.1316
 20
45.8221
 11
31.3303
 21
45.4323
  0
LINE
  8
0
 10
31.3303
 20
45.4323
 11
31.3988
 21
45
  0
LINE
  8
0
 10
31.3988
 20
45
 11
31.3303
 21
44.5677
  0
LINE
  8
0
 10
31.3303
 20
44.5677
 11
31.1316
 21
44.1778
  0
LINE
  8
0
 10
31.1316
 20
44.1778
 11
30.8221
 21
43.8684
  0
LINE
  8
0
 10
30.8221
 20
43.8684
 11
30.4323
 21
43.6697
  0
LINE
  8
0
 10
30.4323
 20
43.6697
 11
30
 21
43.6012
  0
LINE
  8
0
 10
30
 20
43.6012
 11
29.5677
 21
43.6697
  0
LINE
  8
0
 10
9.56773
 20
23.6697
 11
9.17784
 21
23.8684
  0
LINE
  8
0
 10
9.17784
 20
23.8684
 11
8.86836
 21
24.1778
  0
LINE
  8
0
 10
8.86836
 20
24.1778
 11
8.66971
 21
24.5677
  0
LINE
  8
0
 10
8.66971
 20
24.5677
 11
8.60124
 21
25
  0
LINE
  8
0
 10
8.60124
 20
25
 11
8.66971
 21
25.4323
  0
LINE
  8
0
 10
8.66971
 20
25.4323
 11
8.86836
 21
25.8221
  0
LINE
  8
0
 10
8.86836
 20
25.8221
 11
9.17784
 21
26.1316
  0
LINE
  8
0
 10
9.17784
 20
26.1316
 11
9.56773
 21
26.3303
  0
LINE
  8
0
 10
9.56773
 20
26.3303
 11
10
 21
26.3988
  0
LINE
  8
0
 10
10
 20
26.3988
 11
10.4323
 21
26.3303
  0
LINE
  8
0
 10
10.4323
 20
26.3303
 11
10.8221
 21
26.1316
  0
LINE
  8
0
 10
10.8221
 20
26.1316
 11
11.1316
 21
25.8221
  0
LINE
  8
0
 10
11.1316
 20
25.8221
 11
11.3303
 21
25.4323
  0
LINE
  8
0
 10
11.3303
 20
25.4323
 11
11.3988
 21
25
  0
LINE
  8
0
 10
11.3988
 20
25
 11
11.3303
 21
24.5677
  0
LINE
  8
0
 10
11.3303
 20
24.5677
 11
11.1316
 21
24.1778
  0
LINE
  8
0
 10
11.1316
 20
24.1778
 11
10.8221
 21
23.8684
  0
LINE
  8
0
 10
10.8221
 20
23.8684
 11
10.4323
 21
23.6697
  0
LINE
  8
0
 10
10.4323
 20
23.6697
 11
10
 21
23.6012
  0
LINE
  8
0
 10
10
 20
23.6012
 11
9.56773
 21
23.6697
  0
LINE
  8
0
 10
29.5677
 20
23.6697
 11
29.1778
 21
23.8684
  0
LINE
  8
0
 10
29.1778
 20
23.8684
 11
28.8684
 21
24.1778
  0
LINE
  8
0
 10
28.8684
 20
24.1778
 11
28.6697
 21
24.5677
  0
LINE
  8
0
 10
28.6697
 20
24.5677
 11
28.6012
 21
25
  0
LINE
  8
0
 10
28.6012
 20
25
 11
28.6697
 21
25.4323
  0
LINE
  8
0
 10
28.6697
 20
25.4323
 11
28.8684
 21
25.8221
  0
LINE
  8
0
 10
28.8684
 20
25.8221
 11
29.1778
 21
26.1316
  0
LINE
  8
0
 10
29.1778
 20
26.1316
 11
29.5677
 21
26.3303
  0
LINE
  8
0
 10
29.5677
 20
26.3303
 11
30
 21
26.3988
  0
LINE
  8
0
 10
30
 20
26.3988
 11
30.4323
 21
26.3303
  0
LINE
  8
0
 10
30.4323
 20
26.3303
 11
30.8221
 21
26.1316
  0
LINE
  8
0
 10
30.8221
 20
26.1316
 11
31.1316
 21
25.8221
  0
LINE
  8
0
 10
31.1316
 20
25.8221
 11
31.3303
 21
25.4323
  0
LINE
  8
0
 10
31.3303
 20
25.4323
 11
31.3988
 21
25
  0
LINE
  8
0
 10
31.3988
 20
25
 11
31.3303
 21
24.5677
  0
LINE
  8
0
 10
31.3303
 20
24.5677
 11
31.1316
 21
24.1778
  0
LINE
  8
0
 10
31.1316
 20
24.1778
 11
30.8221
 21
23.8684
  0
LINE
  8
0
 10
30.8221
 20
23.8684
 11
30.4323
 21
23.6697
  0
LINE
  8
0
 10
30.4323
 20
23.6697
 11
30
 21
23.6012
  0
LINE
  8
0
 10
30
 20
23.6012
 11
29.5677
 21
23.6697
  0
LINE
  8
0
 10
100.009
 20
21.2329
 11
100.039
 21
21.2405
  0
LINE
  8
0
 10
100.039
 20
21.2405
 11
100.066
 21
21.2571
  0
LINE
  8
0
 10
100.066
 20
21.2571
 11
100.086
 21
21.2811
  0
LINE
  8
0
 10
100.086
 20
21.2811
 11
100.097
 21
21.3101
  0
LINE
  8
0
 10
100.097
 20
21.3101
 11
100.1
 21
21.3326
  0
LINE
  8
0
 10
100.1
 20
21.3326
 11
100.1
 21
33.8444
  0
LINE
  8
0
 10
100.1
 20
33.8444
 11
100.095
 21
33.8753
  0
LINE
  8
0
 10
100.095
 20
33.8753
 11
100.081
 21
33.9031
  0
LINE
  8
0
 10
100.081
 20
33.9031
 11
100.059
 21
33.9253
  0
LINE
  8
0
 10
100.059
 20
33.9253
 11
100.031
 21
33.9395
  0
LINE
  8
0
 10
100.031
 20
33.9395
 11
99.9913
 21
33.944
  0
LINE
  8
0
 10
99.9913
 20
33.944
 11
60.3734
 21
30.4779
  0
LINE
  8
0
 10
60.3734
 20
30.4779
 11
60.343
 21
30.4703
  0
LINE
  8
0
 10
60.343
 20
30.4703
 11
60.3165
 21
30.4537
  0
LINE
  8
0
 10
60.3165
 20
30.4537
 11
60.2964
 21
30.4297
  0
LINE
  8
0
 10
60.2964
 20
30.4297
 11
60.2847
 21
30.4007
  0
LINE
  8
0
 10
60.2847
 20
30.4007
 11
60.2825
 21
30.3695
  0
LINE
  8
0
 10
60.2825
 20
30.3695
 11
61.0935
 21
21.1
  0
LINE
  8
0
 10
61.0935
 20
21.1
 11
55.3
 21
21.1
  0
LINE
  8
0
 10
55.3
 20
21.1
 11
55.2691
 21
21.0951
  0
LINE
  8
0
 10
55.2691
 20
21.0951
 11
55.2412
 21
21.0809
  0
LINE
  8
0
 10
55.2412
 20
21.0809
 11
55.2191
 21
21.0588
  0
LINE
  8
0
 10
55.2191
 20
21.0588
 11
55.2049
 21
21.0309
  0
LINE
  8
0
 10
55.2049
 20
21.0309
 11
55.2
 21
21
  0
LINE
  8
0
 10
55.2
 20
21
 11
55.2
 21
17.4218
  0
LINE
  8
0
 10
55.2
 20
17.4218
 11
55.2049
 21
17.3909
  0
LINE
  8
0
 10
55.2049
 20
17.3909
 11
55.2191
 21
17.363
  0
LINE
  8
0
 10
55.2191
 20
17.363
 11
55.2412
 21
17.3409
  0
LINE
  8
0
 10
55.2412
 20
17.3409
 11
55.2691
 21
17.3267
  0
LINE
  8
0
 10
55.2691
 20
17.3267
 11
55.3087
 21
17.3222
  0
LINE
  8
0
 10
55.3087
 20
17.3222
 11
100.009
 21
21.2329
  0
LINE
  8
0
 10
69.5677
 20
23.6697
 11
69.1778
 21
23.8684
  0
LINE
  8
0
 10
69.1778
 20
23.8684
 11
68.8684
 21
24.1778
  0
LINE
  8
0
 10
68.8684
 20
24.1778
 11
68.6697
 21
24.5677
  0
LINE
  8
0
 10
68.6697
 20
24.5677
 11
68.6012
 21
25
  0
LINE
  8
0
 10
68.6012
 20
25
 11
68.6697
 21
25.4323
  0
LINE
  8
0
 10
68.6697
 20
25.4323
 11
68.8684
 21
25.8221
  0
LINE
  8
0
 10
68.8684
 20
25.8221
 11
69.1778
 21
26.1316
  0
LINE
  8
0
 10
69.1778
 20
26.1316
 11
69.5677
 21
26.3303
  0
LINE
  8
0
 10
69.5677
 20
26.3303
 11
70
 21
26.3988
  0
LINE
  8
0
 10
70
 20
26.3988
 11
70.4323
 21
26.3303
  0
LINE
  8
0
 10
70.4323
 20
26.3303
 11
70.8221
 21
26.1316
  0
LINE
  8
0
 10
70.8221
 20
26.1316
 11
71.1316
 21
25.8221
  0
LINE
  8
0
 10
71.1316
 20
25.8221
 11
71.3303
 21
25.4323
  0
LINE
  8
0
 10
71.3303
 20
25.4323
 11
71.3988
 21
25
  0
LINE
  8
0
 10
71.3988
 20
25
 11
71.3303
 21
24.5677
  0
LINE
  8
0
 10
71.3303
 20
24.5677
 11
71.1316
 21
24.1778
  0
LINE
  8
0
 10
71.1316
 20
24.1778
 11
70.8221
 21
23.8684
  0
LINE
  8
0
 10
70.8221
 20
23.8684
 11
70.4323
 21
23.6697
  0
LINE
  8
0
 10
70.4323
 20
23.6697
 11
70
 21
23.6012
  0
LINE
  8
0
 10
70
 20
23.6012
 11
69.5677
 21
23.6697
  0
LINE
  8
0
 10
89.5677
 20
23.6697
 11
89.1778
 21
23.8684
  0
LINE
  8
0
 10
89.1778
 20
23.8684
 11
88.8684
 21
24.1778
  0
LINE
  8
0
 10
88.8684
 20
24.1778
 11
88.6697
 21
24.5677
  0
LINE
  8
0
 10
88.6697
 20
24.5677
 11
88.6012
 21
25
  0
LINE
  8
0
 10
88.6012
 20
25
 11
88.6697
 21
25.4323
  0
LINE
  8
0
 10
88.6697
 20
25.4323
 11
88.8684
 21
25.8221
  0
LINE
  8
0
 10
88.8684
 20
25.8221
 11
89.1778
 21
26.1316
  0
LINE
  8
0
 10
89.1778
 20
26.1316
 11
89.5677
 21
26.3303
  0
LINE
  8
0
 10
89.5677
 20
26.3303
 11
90
 21
26.3988
  0
LINE
  8
0
 10
90
 20
26.3988
 11
90.4323
 21
26.3303
  0
LINE
  8
0
 10
90.4323
 20
26.3303
 11
90.8221
 21
26.1316
  0
LINE
  8
0
 10
90.8221
 20
26.1316
 11
91.1316
 21
25.8221
  0
LINE
  8
0
 10
91.1316
 20
25.8221
 11
91.3303
 21
25.4323
  0
LINE
  8
0
 10
91.3303
 20
25.4323
 11
91.3988
 21
25
  0
LINE
  8
0
 10
91.3988
 20
25
 11
91.3303
 21
24.5677
  0
LINE
  8
0
 10
91.3303
 20
24.5677
 11
91.1316
 21
24.1778
  0
LINE
  8
0
 10
91.1316
 20
24.1778
 11
90.8221
 21
23.8684
  0
LINE
  8
0
 10
90.8221
 20
23.8684
 11
90.4323
 21
23.6697
  0
LINE
  8
0
 10
90.4323
 20
23.6697
 11
90
 21
23.6012
  0
LINE
  8
0
 10
90
 20
23.6012
 11
89.5677
 21
23.6697
  0
LINE
  8
0
 10
100.031
 20
-0.095108
 11
100.059
 21
-0.0809021
  0
LINE
  8
0
 10
100.059
 20
-0.0809021
 11
100.081
 21
-0.0587769
  0
LINE
  8
0
 10
100.081
 20
-0.0587769
 11
100.095
 21
-0.030899
  0
LINE
  8
0
 10
100.095
 20
-0.030899
 11
100.1
 21
0
  0
LINE
  8
0
 10
100.1
 20
0
 11
100.1
 21
13.9545
  0
LINE
  8
0
 10
100.1
 20
13.9545
 11
100.095
 21
13.9854
  0
LINE
  8
0
 10
100.095
 20
13.9854
 11
100.081
 21
14.0133
  0
LINE
  8
0
 10
100.081
 20
14.0133
 11
100.059
 21
14.0354
  0
LINE
  8
0
 10
100.059
 20
14.0354
 11
100.031
 21
14.0496
  0
LINE
  8
0
 10
100.031
 20
14.0496
 11
99.9913
 21
14.0541
  0
LINE
  8
0
 10
99.9913
 20
14.0541
 11
54.7956
 21
10.1
  0
LINE
  8
0
 10
54.7956
 20
10.1
 11
0
 21
10.1
  0
LINE
  8
0
 10
0
 20
10.1
 11
-0.030899
 21
10.0951
  0
LINE
  8
0
 10
-0.030899
 20
10.0951
 11
-0.0587769
 21
10.0809
  0
LINE
  8
0
 10
-0.0587769
 20
10.0809
 11
-0.0809021
 21
10.0588
  0
LINE
  8
0
 10
-0.0809021
 20
10.0588
 11
-0.095108
 21
10.0309
  0
LINE
  8
0
 10
-0.095108
 20
10.0309
 11
-0.100006
 21
10
  0
LINE
  8
0
 10
-0.100006
 20
10
 11
-0.100006
 21
0
  0
LINE
  8
0
 10
-0.100006
 20
0
 11
-0.095108
 21
-0.030899
  0
LINE
  8
0
 10
-0.095108
 20
-0.030899
 11
-0.0809021
 21
-0.0587769
  0
LINE
  8
0
 10
-0.0809021
 20
-0.0587769
 11
-0.0587769
 21
-0.0809021
  0
LINE
  8
0
 10
-0.0587769
 20
-0.0809021
 11
-0.030899
 21
-0.095108
  0
LINE
  8
0
 10
-0.030899
 20
-0.095108
 11
0
 21
-0.100006
  0
LINE
  8
0
 10
0
 20
-0.100006
 11
100
 21
-0.100006
  0
LINE
  8
0
 10
100
 20
-0.100006
 11
100.031
 21
-0.095108
  0
LINE
  8
0
 10
9.56773
 20
3.66971
 11
9.17784
 21
3.86836
  0
LINE
  8
0
 10
9.17784
 20
3.86836
 11
8.86836
 21
4.17784
  0
LINE
  8
0
 10
8.86836
 20
4.17784
 11
8.66971
 21
4.56773
  0
LINE
  8
0
 10
8.66971
 20
4.56773
 11
8.60124
 21
5
  0
LINE
  8
0
 10
8.60124
 20
5
 11
8.66971
 21
5.43225
  0
LINE
  8
0
 10
8.66971
 20
5.43225
 11
8.86836
 21
5.82214
  0
LINE
  8
0
 10
8.86836
 20
5.82214
 11
9.17784
 21
6.13162
  0
LINE
  8
0
 10
9.17784
 20
6.13162
 11
9.56773
 21
6.33028
  0
LINE
  8
0
 10
9.56773
 20
6.33028
 11
10
 21
6.39876
  0
LINE
  8
0
 10
10
 20
6.39876
 11
10.4323
 21
6.33028
  0
LINE
  8
0
 10
10.4323
 20
6.33028
 11
10.8221
 21
6.13162
  0
LINE
  8
0
 10
10.8221
 20
6.13162
 11
11.1316
 21
5.82214
  0
LINE
  8
0
 10
11.1316
 20
5.82214
 11
11.3303
 21
5.43225
  0
LINE
  8
0
 10
11.3303
 20
5.43225
 11
11.3988
 21
5
  0
LINE
  8
0
 10
11.3988
 20
5
 11
11.3303
 21
4.56773
  0
LINE
  8
0
 10
11.3303
 20
4.56773
 11
11.1316
 21
4.17784
  0
LINE
  8
0
 10
11.1316
 20
4.17784
 11
10.8221
 21
3.86836
  0
LINE
  8
0
 10
10.8221
 20
3.86836
 11
10.4323
 21
3.66971
  0
LINE
  8
0
 10
10.4323
 20
3.66971
 11
10
 21
3.60124
  0
LINE
  8
0
 10
10
 20
3.60124
 11
9.56773
 21
3.66971
  0
LINE
  8
0
 10
69.5677
 20
3.66971
 11
69.1778
 21
3.86836
  0
LINE
  8
0
 10
69.1778
 20
3.86836
 11
68.8684
 21
4.17784
  0
LINE
  8
0
 10
68.8684
 20
4.17784
 11
68.6697
 21
4.56773
  0
LINE
  8
0
 10
68.6697
 20
4.56773
 11
68.6012
 21
5
  0
LINE
  8
0
 10
68.6012
 20
5
 11
68.6697
 21
5.43225
  0
LINE
  8
0
 10
68.6697
 20
5.43225
 11
68.8684
 21
5.82214
  0
LINE
  8
0
 10
68.8684
 20
5.82214
 11
69.1778
 21
6.13162
  0
LINE
  8
0
 10
69.1778
 20
6.13162
 11
69.5677
 21
6.33028
  0
LINE
  8
0
 10
69.5677
 20
6.33028
 11
70
 21
6.39876
  0
LINE
  8
0
 10
70
 20
6.39876
 11
70.4323
 21
6.33028
  0
LINE
  8
0
 10
70.4323
 20
6.33028
 11
70.8221
 21
6.13162
  0
LINE
  8
0
 10
70.8221
 20
6.13162
 11
71.1316
 21
5.82214
  0
LINE
  8
0
 10
71.1316
 20
5.82214
 11
71.3303
 21
5.43225
  0
LINE
  8
0
 10
71.3303
 20
5.43225
 11
71.3988
 21
5
  0
LINE
  8
0
 10
71.3988
 20
5
 11
71.3303
 21
4.56773
  0
LINE
  8
0
 10
71.3303
 20
4.56773
 11
71.1316
 21
4.17784
  0
LINE
  8
0
 10
71.1316
 20
4.17784
 11
70.8221
 21
3.86836
  0
LINE
  8
0
 10
70.8221
 20
3.86836
 11
70.4323
 21
3.66971
  0
LINE
  8
0
 10
70.4323
 20
3.66971
 11
70
 21
3.60124
  0
LINE
  8
0
 10
70
 20
3.60124
 11
69.5677
 21
3.66971
  0
LINE
  8
0
 10
89.5677
 20
3.66971
 11
89.1778
 21
3.86836
  0
LINE
  8
0
 10
89.1778
 20
3.86836
 11
88.8684
 21
4.17784
  0
LINE
  8
0
 10
88.8684
 20
4.17784
 11
88.6697
 21
4.56773
  0
LINE
  8
0
 10
88.6697
 20
4.56773
 11
88.6012
 21
5
  0
LINE
  8
0
 10
88.6012
 20
5
 11
88.6697
 21
5.43225
  0
LINE
  8
0
 10
88.6697
 20
5.43225
 11
88.8684
 21
5.82214
  0
LINE
  8
0
 10
88.8684
 20
5.82214
 11
89.1778
 21
6.13162
  0
LINE
  8
0
 10
89.1778
 20
6.13162
 11
89.5677
 21
6.33028
  0
LINE
  8
0
 10
89.5677
 20
6.33028
 11
90
 21
6.39876
  0
LINE
  8
0
 10
90
 20
6.39876
 11
90.4323
 21
6.33028
  0
LINE
  8
0
 10
90.4323
 20
6.33028
 11
90.8221
 21
6.13162
  0
LINE
  8
0
 10
90.8221
 20
6.13162
 11
91.1316
 21
5.82214
  0
LINE
  8
0
 10
91.1316
 20
5.82214
 11
91.3303
 21
5.43225
  0
LINE
  8
0
 10
91.3303
 20
5.43225
 11
91.3988
 21
5
  0
LINE
  8
0
 10
91.3988
 20
5
 11
91.3303
 21
4.56773
  0
LINE
  8
0
 10
91.3303
 20
4.56773
 11
91.1316
 21
4.17784
  0
LINE
  8
0
 10
91.1316
 20
4.17784
 11
90.8221
 21
3.86836
  0
LINE
  8
0
 10
90.8221
 20
3.86836
 11
90.4323
 21
3.66971
  0
LINE
  8
0
 10
90.4323
 20
3.66971
 11
90
 21
3.60124
  0
LINE
  8
0
 10
90
 20
3.60124
 11
89.5677
 21
3.66971
  0
ENDSEC
  0
SECTION
  2
OBJECTS
  0
DICTIONARY
  0
ENDSEC
  0
EOF
