  0
SECTION
  2
BLOCKS
  0
ENDSEC
  0
SECTION
  2
ENTITIES
  0
LINE
  8
0
 10
100
 20
100
 11
0
 21
100
  0
LINE
  8
0
 10
0
 20
100
 11
0
 21
0
  0
LINE
  8
0
 10
0
 20
0
 11
100
 21
0
  0
LINE
  8
0
 10
100
 20
0
 11
100
 21
100
  0
LINE
  8
0
 10
72.3229
 20
68.9785
 11
72.2838
 21
68.9927
  0
LINE
  8
0
 10
72.2838
 20
68.9927
 11
71.8688
 21
69.232
  0
LINE
  8
0
 10
71.8688
 20
69.232
 11
71.8159
 21
69.2951
  0
LINE
  8
0
 10
71.8159
 20
69.2951
 11
71.6528
 21
69.7453
  0
LINE
  8
0
 10
71.6528
 20
69.7453
 11
71.6456
 21
69.7861
  0
LINE
  8
0
 10
71.6456
 20
69.7861
 11
71.6456
 21
76.7551
  0
LINE
  8
0
 10
71.6456
 20
76.7551
 11
71.5976
 21
76.8866
  0
LINE
  8
0
 10
71.5976
 20
76.8866
 11
71.4759
 21
76.9568
  0
LINE
  8
0
 10
71.4759
 20
76.9568
 11
64.2506
 21
78.2314
  0
LINE
  8
0
 10
64.2506
 20
78.2314
 11
64.1999
 21
78.2533
  0
LINE
  8
0
 10
64.1999
 20
78.2533
 11
63.7888
 21
78.559
  0
LINE
  8
0
 10
63.7888
 20
78.559
 11
63.7404
 21
78.6553
  0
LINE
  8
0
 10
63.7404
 20
78.6553
 11
63.7404
 21
79.167
  0
LINE
  8
0
 10
63.7404
 20
79.167
 11
63.7888
 21
79.2633
  0
LINE
  8
0
 10
63.7888
 20
79.2633
 11
64.1999
 21
79.569
  0
LINE
  8
0
 10
64.1999
 20
79.569
 11
64.2507
 21
79.5908
  0
LINE
  8
0
 10
64.2507
 20
79.5908
 11
71.4759
 21
80.8645
  0
LINE
  8
0
 10
71.4759
 20
80.8645
 11
71.5975
 21
80.9346
  0
LINE
  8
0
 10
71.5975
 20
80.9346
 11
71.6456
 21
81.0671
  0
LINE
  8
0
 10
71.6456
 20
81.0671
 11
71.6456
 21
86.1546
  0
LINE
  8
0
 10
71.6456
 20
86.1546
 11
71.5975
 21
86.287
  0
LINE
  8
0
 10
71.5975
 20
86.287
 11
71.4759
 21
86.3572
  0
LINE
  8
0
 10
71.4759
 20
86.3572
 11
63.944
 21
87.6846
  0
LINE
  8
0
 10
63.944
 20
87.6846
 11
63.8873
 21
87.7111
  0
LINE
  8
0
 10
63.8873
 20
87.7111
 11
63.735
 21
87.84
  0
LINE
  8
0
 10
63.735
 20
87.84
 11
63.6943
 21
87.9521
  0
LINE
  8
0
 10
63.6943
 20
87.9521
 11
63.7284
 21
88.1494
  0
LINE
  8
0
 10
63.7284
 20
88.1494
 11
63.8058
 21
88.2417
  0
LINE
  8
0
 10
63.8058
 20
88.2417
 11
63.9942
 21
88.3101
  0
LINE
  8
0
 10
63.9942
 20
88.3101
 11
64.056
 21
88.3154
  0
LINE
  8
0
 10
64.056
 20
88.3154
 11
71.6078
 21
86.9834
  0
LINE
  8
0
 10
71.6078
 20
86.9834
 11
71.6469
 21
86.9692
  0
LINE
  8
0
 10
71.6469
 20
86.9692
 11
72.0619
 21
86.7299
  0
LINE
  8
0
 10
72.0619
 20
86.7299
 11
72.1148
 21
86.6669
  0
LINE
  8
0
 10
72.1148
 20
86.6669
 11
72.2779
 21
86.2167
  0
LINE
  8
0
 10
72.2779
 20
86.2167
 11
72.285
 21
86.1758
  0
LINE
  8
0
 10
72.285
 20
86.1758
 11
72.285
 21
81.0459
  0
LINE
  8
0
 10
72.285
 20
81.0459
 11
72.2779
 21
81.005
  0
LINE
  8
0
 10
72.2779
 20
81.005
 11
72.1148
 21
80.5548
  0
LINE
  8
0
 10
72.1148
 20
80.5548
 11
72.0619
 21
80.4917
  0
LINE
  8
0
 10
72.0619
 20
80.4917
 11
71.6469
 21
80.2525
  0
LINE
  8
0
 10
71.6469
 20
80.2525
 11
71.6077
 21
80.2383
  0
LINE
  8
0
 10
71.6077
 20
80.2383
 11
64.3897
 21
78.9659
  0
LINE
  8
0
 10
64.3897
 20
78.9659
 11
64.3378
 21
78.9271
  0
LINE
  8
0
 10
64.3378
 20
78.9271
 11
64.3378
 21
78.8952
  0
LINE
  8
0
 10
64.3378
 20
78.8952
 11
64.3897
 21
78.8564
  0
LINE
  8
0
 10
64.3897
 20
78.8564
 11
71.6077
 21
77.584
  0
LINE
  8
0
 10
71.6077
 20
77.584
 11
71.6469
 21
77.5698
  0
LINE
  8
0
 10
71.6469
 20
77.5698
 11
72.0619
 21
77.3305
  0
LINE
  8
0
 10
72.0619
 20
77.3305
 11
72.1148
 21
77.2674
  0
LINE
  8
0
 10
72.1148
 20
77.2674
 11
72.2779
 21
76.8172
  0
LINE
  8
0
 10
72.2779
 20
76.8172
 11
72.285
 21
76.7764
  0
LINE
  8
0
 10
72.285
 20
76.7764
 11
72.285
 21
69.8074
  0
LINE
  8
0
 10
72.285
 20
69.8074
 11
72.3331
 21
69.6759
  0
LINE
  8
0
 10
72.3331
 20
69.6759
 11
72.4547
 21
69.6057
  0
LINE
  8
0
 10
72.4547
 20
69.6057
 11
80.0208
 21
68.2715
  0
LINE
  8
0
 10
80.0208
 20
68.2715
 11
80.0772
 21
68.2452
  0
LINE
  8
0
 10
80.0772
 20
68.2452
 11
80.2305
 21
68.1163
  0
LINE
  8
0
 10
80.2305
 20
68.1163
 11
80.2715
 21
68.0034
  0
LINE
  8
0
 10
80.2715
 20
68.0034
 11
80.2363
 21
67.8061
  0
LINE
  8
0
 10
80.2363
 20
67.8061
 11
80.1593
 21
67.7144
  0
LINE
  8
0
 10
80.1593
 20
67.7144
 11
79.9718
 21
67.646
  0
LINE
  8
0
 10
79.9718
 20
67.646
 11
79.9098
 21
67.6406
  0
LINE
  8
0
 10
79.9098
 20
67.6406
 11
72.3229
 21
68.9785
  0
LINE
  8
0
 10
56.3264
 20
68.9982
 11
56.2938
 21
69.01
  0
LINE
  8
0
 10
56.2938
 20
69.01
 11
55.8788
 21
69.2493
  0
LINE
  8
0
 10
55.8788
 20
69.2493
 11
55.8347
 21
69.3019
  0
LINE
  8
0
 10
55.8347
 20
69.3019
 11
55.6716
 21
69.7521
  0
LINE
  8
0
 10
55.6716
 20
69.7521
 11
55.6656
 21
69.7861
  0
LINE
  8
0
 10
55.6656
 20
69.7861
 11
55.6656
 21
76.7587
  0
LINE
  8
0
 10
55.6656
 20
76.7587
 11
55.6139
 21
76.9003
  0
LINE
  8
0
 10
55.6139
 20
76.9003
 11
55.4828
 21
76.9759
  0
LINE
  8
0
 10
55.4828
 20
76.9759
 11
48.2541
 21
78.2511
  0
LINE
  8
0
 10
48.2541
 20
78.2511
 11
48.2118
 21
78.2694
  0
LINE
  8
0
 10
48.2118
 20
78.2694
 11
47.8007
 21
78.575
  0
LINE
  8
0
 10
47.8007
 20
78.575
 11
47.7603
 21
78.6553
  0
LINE
  8
0
 10
47.7603
 20
78.6553
 11
47.7603
 21
79.167
  0
LINE
  8
0
 10
47.7603
 20
79.167
 11
47.8007
 21
79.2472
  0
LINE
  8
0
 10
47.8007
 20
79.2472
 11
48.2118
 21
79.5529
  0
LINE
  8
0
 10
48.2118
 20
79.5529
 11
48.2541
 21
79.5711
  0
LINE
  8
0
 10
48.2541
 20
79.5711
 11
55.4828
 21
80.8454
  0
LINE
  8
0
 10
55.4828
 20
80.8454
 11
55.6138
 21
80.921
  0
LINE
  8
0
 10
55.6138
 20
80.921
 11
55.6656
 21
81.0635
  0
LINE
  8
0
 10
55.6656
 20
81.0635
 11
55.6656
 21
86.1582
  0
LINE
  8
0
 10
55.6656
 20
86.1582
 11
55.6138
 21
86.3007
  0
LINE
  8
0
 10
55.6138
 20
86.3007
 11
55.4828
 21
86.3763
  0
LINE
  8
0
 10
55.4828
 20
86.3763
 11
47.9475
 21
87.7043
  0
LINE
  8
0
 10
47.9475
 20
87.7043
 11
47.9003
 21
87.7264
  0
LINE
  8
0
 10
47.9003
 20
87.7264
 11
47.7479
 21
87.8553
  0
LINE
  8
0
 10
47.7479
 20
87.8553
 11
47.714
 21
87.9487
  0
LINE
  8
0
 10
47.714
 20
87.9487
 11
47.7482
 21
88.146
  0
LINE
  8
0
 10
47.7482
 20
88.146
 11
47.8126
 21
88.2229
  0
LINE
  8
0
 10
47.8126
 20
88.2229
 11
48.0011
 21
88.2913
  0
LINE
  8
0
 10
48.0011
 20
88.2913
 11
48.0525
 21
88.2957
  0
LINE
  8
0
 10
48.0525
 20
88.2957
 11
55.6043
 21
86.9637
  0
LINE
  8
0
 10
55.6043
 20
86.9637
 11
55.6369
 21
86.9519
  0
LINE
  8
0
 10
55.6369
 20
86.9519
 11
56.0519
 21
86.7126
  0
LINE
  8
0
 10
56.0519
 20
86.7126
 11
56.096
 21
86.66
  0
LINE
  8
0
 10
56.096
 20
86.66
 11
56.2591
 21
86.2098
  0
LINE
  8
0
 10
56.2591
 20
86.2098
 11
56.265
 21
86.1758
  0
LINE
  8
0
 10
56.265
 20
86.1758
 11
56.265
 21
81.0459
  0
LINE
  8
0
 10
56.265
 20
81.0459
 11
56.2591
 21
81.0118
  0
LINE
  8
0
 10
56.2591
 20
81.0118
 11
56.096
 21
80.5616
  0
LINE
  8
0
 10
56.096
 20
80.5616
 11
56.0519
 21
80.5091
  0
LINE
  8
0
 10
56.0519
 20
80.5091
 11
55.6369
 21
80.2698
  0
LINE
  8
0
 10
55.6369
 20
80.2698
 11
55.6043
 21
80.258
  0
LINE
  8
0
 10
55.6043
 20
80.258
 11
48.3816
 21
78.9847
  0
LINE
  8
0
 10
48.3816
 20
78.9847
 11
48.3178
 21
78.9371
  0
LINE
  8
0
 10
48.3178
 20
78.9371
 11
48.3178
 21
78.8851
  0
LINE
  8
0
 10
48.3178
 20
78.8851
 11
48.3816
 21
78.8375
  0
LINE
  8
0
 10
48.3816
 20
78.8375
 11
55.6043
 21
77.5643
  0
LINE
  8
0
 10
55.6043
 20
77.5643
 11
55.6369
 21
77.5525
  0
LINE
  8
0
 10
55.6369
 20
77.5525
 11
56.0519
 21
77.3132
  0
LINE
  8
0
 10
56.0519
 20
77.3132
 11
56.096
 21
77.2606
  0
LINE
  8
0
 10
56.096
 20
77.2606
 11
56.2591
 21
76.8104
  0
LINE
  8
0
 10
56.2591
 20
76.8104
 11
56.265
 21
76.7764
  0
LINE
  8
0
 10
56.265
 20
76.7764
 11
56.265
 21
69.8038
  0
LINE
  8
0
 10
56.265
 20
69.8038
 11
56.3168
 21
69.6622
  0
LINE
  8
0
 10
56.3168
 20
69.6622
 11
56.4478
 21
69.5866
  0
LINE
  8
0
 10
56.4478
 20
69.5866
 11
64.0174
 21
68.2518
  0
LINE
  8
0
 10
64.0174
 20
68.2518
 11
64.0643
 21
68.2299
  0
LINE
  8
0
 10
64.0643
 20
68.2299
 11
64.2177
 21
68.101
  0
LINE
  8
0
 10
64.2177
 20
68.101
 11
64.2518
 21
68.0069
  0
LINE
  8
0
 10
64.2518
 20
68.0069
 11
64.2166
 21
67.8096
  0
LINE
  8
0
 10
64.2166
 20
67.8096
 11
64.1524
 21
67.7332
  0
LINE
  8
0
 10
64.1524
 20
67.7332
 11
63.9649
 21
67.6648
  0
LINE
  8
0
 10
63.9649
 20
67.6648
 11
63.9133
 21
67.6603
  0
LINE
  8
0
 10
63.9133
 20
67.6603
 11
56.3264
 21
68.9982
  0
LINE
  8
0
 10
40.3299
 20
69.0179
 11
40.3038
 21
69.0274
  0
LINE
  8
0
 10
40.3038
 20
69.0274
 11
39.8888
 21
69.2666
  0
LINE
  8
0
 10
39.8888
 20
69.2666
 11
39.8535
 21
69.3087
  0
LINE
  8
0
 10
39.8535
 20
69.3087
 11
39.6904
 21
69.7589
  0
LINE
  8
0
 10
39.6904
 20
69.7589
 11
39.6856
 21
69.7861
  0
LINE
  8
0
 10
39.6856
 20
69.7861
 11
39.6856
 21
76.7622
  0
LINE
  8
0
 10
39.6856
 20
76.7622
 11
39.6302
 21
76.914
  0
LINE
  8
0
 10
39.6302
 20
76.914
 11
39.4898
 21
76.9949
  0
LINE
  8
0
 10
39.4898
 20
76.9949
 11
32.2576
 21
78.2708
  0
LINE
  8
0
 10
32.2576
 20
78.2708
 11
32.2238
 21
78.2854
  0
LINE
  8
0
 10
32.2238
 20
78.2854
 11
31.8126
 21
78.5911
  0
LINE
  8
0
 10
31.8126
 20
78.5911
 11
31.7803
 21
78.6553
  0
LINE
  8
0
 10
31.7803
 20
78.6553
 11
31.7803
 21
79.167
  0
LINE
  8
0
 10
31.7803
 20
79.167
 11
31.8126
 21
79.2312
  0
LINE
  8
0
 10
31.8126
 20
79.2312
 11
32.2238
 21
79.5368
  0
LINE
  8
0
 10
32.2238
 20
79.5368
 11
32.2576
 21
79.5514
  0
LINE
  8
0
 10
32.2576
 20
79.5514
 11
39.4898
 21
80.8263
  0
LINE
  8
0
 10
39.4898
 20
80.8263
 11
39.6301
 21
80.9073
  0
LINE
  8
0
 10
39.6301
 20
80.9073
 11
39.6856
 21
81.06
  0
LINE
  8
0
 10
39.6856
 20
81.06
 11
39.6856
 21
86.1617
  0
LINE
  8
0
 10
39.6856
 20
86.1617
 11
39.6301
 21
86.3144
  0
LINE
  8
0
 10
39.6301
 20
86.3144
 11
39.4898
 21
86.3953
  0
LINE
  8
0
 10
39.4898
 20
86.3953
 11
31.951
 21
87.724
  0
LINE
  8
0
 10
31.951
 20
87.724
 11
31.9132
 21
87.7417
  0
LINE
  8
0
 10
31.9132
 20
87.7417
 11
31.7608
 21
87.8706
  0
LINE
  8
0
 10
31.7608
 20
87.8706
 11
31.7337
 21
87.9453
  0
LINE
  8
0
 10
31.7337
 20
87.9453
 11
31.7679
 21
88.1426
  0
LINE
  8
0
 10
31.7679
 20
88.1426
 11
31.8194
 21
88.2041
  0
LINE
  8
0
 10
31.8194
 20
88.2041
 11
32.0079
 21
88.2725
  0
LINE
  8
0
 10
32.0079
 20
88.2725
 11
32.0491
 21
88.276
  0
LINE
  8
0
 10
32.0491
 20
88.276
 11
39.6008
 21
86.944
  0
LINE
  8
0
 10
39.6008
 20
86.944
 11
39.6269
 21
86.9345
  0
LINE
  8
0
 10
39.6269
 20
86.9345
 11
40.0419
 21
86.6953
  0
LINE
  8
0
 10
40.0419
 20
86.6953
 11
40.0772
 21
86.6532
  0
LINE
  8
0
 10
40.0772
 20
86.6532
 11
40.2402
 21
86.203
  0
LINE
  8
0
 10
40.2402
 20
86.203
 11
40.245
 21
86.1758
  0
LINE
  8
0
 10
40.245
 20
86.1758
 11
40.245
 21
81.0459
  0
LINE
  8
0
 10
40.245
 20
81.0459
 11
40.2402
 21
81.0186
  0
LINE
  8
0
 10
40.2402
 20
81.0186
 11
40.0772
 21
80.5685
  0
LINE
  8
0
 10
40.0772
 20
80.5685
 11
40.0419
 21
80.5264
  0
LINE
  8
0
 10
40.0419
 20
80.5264
 11
39.6269
 21
80.2871
  0
LINE
  8
0
 10
39.6269
 20
80.2871
 11
39.6008
 21
80.2777
  0
LINE
  8
0
 10
39.6008
 20
80.2777
 11
32.3734
 21
79.0036
  0
LINE
  8
0
 10
32.3734
 20
79.0036
 11
32.2978
 21
78.9472
  0
LINE
  8
0
 10
32.2978
 20
78.9472
 11
32.2978
 21
78.8751
  0
LINE
  8
0
 10
32.2978
 20
78.8751
 11
32.3734
 21
78.8186
  0
LINE
  8
0
 10
32.3734
 20
78.8186
 11
39.6008
 21
77.5446
  0
LINE
  8
0
 10
39.6008
 20
77.5446
 11
39.6269
 21
77.5351
  0
LINE
  8
0
 10
39.6269
 20
77.5351
 11
40.0419
 21
77.2959
  0
LINE
  8
0
 10
40.0419
 20
77.2959
 11
40.0772
 21
77.2538
  0
LINE
  8
0
 10
40.0772
 20
77.2538
 11
40.2402
 21
76.8036
  0
LINE
  8
0
 10
40.2402
 20
76.8036
 11
40.245
 21
76.7764
  0
LINE
  8
0
 10
40.245
 20
76.7764
 11
40.245
 21
69.8003
  0
LINE
  8
0
 10
40.245
 20
69.8003
 11
40.3005
 21
69.6485
  0
LINE
  8
0
 10
40.3005
 20
69.6485
 11
40.4409
 21
69.5676
  0
LINE
  8
0
 10
40.4409
 20
69.5676
 11
48.0139
 21
68.2321
  0
LINE
  8
0
 10
48.0139
 20
68.2321
 11
48.0515
 21
68.2146
  0
LINE
  8
0
 10
48.0515
 20
68.2146
 11
48.2048
 21
68.0856
  0
LINE
  8
0
 10
48.2048
 20
68.0856
 11
48.2321
 21
68.0104
  0
LINE
  8
0
 10
48.2321
 20
68.0104
 11
48.1969
 21
67.8131
  0
LINE
  8
0
 10
48.1969
 20
67.8131
 11
48.1456
 21
67.752
  0
LINE
  8
0
 10
48.1456
 20
67.752
 11
47.9581
 21
67.6836
  0
LINE
  8
0
 10
47.9581
 20
67.6836
 11
47.9168
 21
67.68
  0
LINE
  8
0
 10
47.9168
 20
67.68
 11
40.3299
 21
69.0179
  0
LINE
  8
0
 10
24.3333
 20
69.0376
 11
24.3138
 21
69.0447
  0
LINE
  8
0
 10
24.3138
 20
69.0447
 11
23.8987
 21
69.284
  0
LINE
  8
0
 10
23.8987
 20
69.284
 11
23.8723
 21
69.3155
  0
LINE
  8
0
 10
23.8723
 20
69.3155
 11
23.7092
 21
69.7657
  0
LINE
  8
0
 10
23.7092
 20
69.7657
 11
23.7056
 21
69.7861
  0
LINE
  8
0
 10
23.7056
 20
69.7861
 11
23.7056
 21
76.7657
  0
LINE
  8
0
 10
23.7056
 20
76.7657
 11
23.6464
 21
76.9277
  0
LINE
  8
0
 10
23.6464
 20
76.9277
 11
23.4967
 21
77.0141
  0
LINE
  8
0
 10
23.4967
 20
77.0141
 11
16.2611
 21
78.2905
  0
LINE
  8
0
 10
16.2611
 20
78.2905
 11
16.2357
 21
78.3015
  0
LINE
  8
0
 10
16.2357
 20
78.3015
 11
15.8246
 21
78.6071
  0
LINE
  8
0
 10
15.8246
 20
78.6071
 11
15.8004
 21
78.6553
  0
LINE
  8
0
 10
15.8004
 20
78.6553
 11
15.8004
 21
79.167
  0
LINE
  8
0
 10
15.8004
 20
79.167
 11
15.8246
 21
79.2151
  0
LINE
  8
0
 10
15.8246
 20
79.2151
 11
16.2357
 21
79.5208
  0
LINE
  8
0
 10
16.2357
 20
79.5208
 11
16.2611
 21
79.5317
  0
LINE
  8
0
 10
16.2611
 20
79.5317
 11
23.4967
 21
80.8073
  0
LINE
  8
0
 10
23.4967
 20
80.8073
 11
23.6464
 21
80.8936
  0
LINE
  8
0
 10
23.6464
 20
80.8936
 11
23.7056
 21
81.0565
  0
LINE
  8
0
 10
23.7056
 20
81.0565
 11
23.7056
 21
86.1652
  0
LINE
  8
0
 10
23.7056
 20
86.1652
 11
23.6464
 21
86.3281
  0
LINE
  8
0
 10
23.6464
 20
86.3281
 11
23.4967
 21
86.4144
  0
LINE
  8
0
 10
23.4967
 20
86.4144
 11
15.9544
 21
87.7437
  0
LINE
  8
0
 10
15.9544
 20
87.7437
 11
15.9261
 21
87.7569
  0
LINE
  8
0
 10
15.9261
 20
87.7569
 11
15.7737
 21
87.8858
  0
LINE
  8
0
 10
15.7737
 20
87.8858
 11
15.7534
 21
87.9419
  0
LINE
  8
0
 10
15.7534
 20
87.9419
 11
15.7876
 21
88.1391
  0
LINE
  8
0
 10
15.7876
 20
88.1391
 11
15.8262
 21
88.1853
  0
LINE
  8
0
 10
15.8262
 20
88.1853
 11
16.0147
 21
88.2537
  0
LINE
  8
0
 10
16.0147
 20
88.2537
 11
16.0456
 21
88.2563
  0
LINE
  8
0
 10
16.0456
 20
88.2563
 11
23.5973
 21
86.9243
  0
LINE
  8
0
 10
23.5973
 20
86.9243
 11
23.6169
 21
86.9172
  0
LINE
  8
0
 10
23.6169
 20
86.9172
 11
24.0319
 21
86.678
  0
LINE
  8
0
 10
24.0319
 20
86.678
 11
24.0584
 21
86.6464
  0
LINE
  8
0
 10
24.0584
 20
86.6464
 11
24.2215
 21
86.1962
  0
LINE
  8
0
 10
24.2215
 20
86.1962
 11
24.225
 21
86.1758
  0
LINE
  8
0
 10
24.225
 20
86.1758
 11
24.225
 21
81.0459
  0
LINE
  8
0
 10
24.225
 20
81.0459
 11
24.2215
 21
81.0255
  0
LINE
  8
0
 10
24.2215
 20
81.0255
 11
24.0584
 21
80.5753
  0
LINE
  8
0
 10
24.0584
 20
80.5753
 11
24.0319
 21
80.5437
  0
LINE
  8
0
 10
24.0319
 20
80.5437
 11
23.6169
 21
80.3045
  0
LINE
  8
0
 10
23.6169
 20
80.3045
 11
23.5973
 21
80.2974
  0
LINE
  8
0
 10
23.5973
 20
80.2974
 11
16.3653
 21
79.0225
  0
LINE
  8
0
 10
16.3653
 20
79.0225
 11
16.2778
 21
78.9572
  0
LINE
  8
0
 10
16.2778
 20
78.9572
 11
16.2778
 21
78.8651
  0
LINE
  8
0
 10
16.2778
 20
78.8651
 11
16.3653
 21
78.7998
  0
LINE
  8
0
 10
16.3653
 20
78.7998
 11
23.5973
 21
77.5249
  0
LINE
  8
0
 10
23.5973
 20
77.5249
 11
23.6169
 21
77.5178
  0
LINE
  8
0
 10
23.6169
 20
77.5178
 11
24.0319
 21
77.2785
  0
LINE
  8
0
 10
24.0319
 20
77.2785
 11
24.0584
 21
77.247
  0
LINE
  8
0
 10
24.0584
 20
77.247
 11
24.2215
 21
76.7968
  0
LINE
  8
0
 10
24.2215
 20
76.7968
 11
24.225
 21
76.7764
  0
LINE
  8
0
 10
24.225
 20
76.7764
 11
24.225
 21
69.7968
  0
LINE
  8
0
 10
24.225
 20
69.7968
 11
24.2842
 21
69.6348
  0
LINE
  8
0
 10
24.2842
 20
69.6348
 11
24.4339
 21
69.5485
  0
LINE
  8
0
 10
24.4339
 20
69.5485
 11
32.0104
 21
68.2124
  0
LINE
  8
0
 10
32.0104
 20
68.2124
 11
32.0386
 21
68.1992
  0
LINE
  8
0
 10
32.0386
 20
68.1992
 11
32.1919
 21
68.0703
  0
LINE
  8
0
 10
32.1919
 20
68.0703
 11
32.2124
 21
68.0139
  0
LINE
  8
0
 10
32.2124
 20
68.0139
 11
32.1772
 21
67.8166
  0
LINE
  8
0
 10
32.1772
 20
67.8166
 11
32.1387
 21
67.7708
  0
LINE
  8
0
 10
32.1387
 20
67.7708
 11
31.9512
 21
67.7024
  0
LINE
  8
0
 10
31.9512
 20
67.7024
 11
31.9202
 21
67.6997
  0
LINE
  8
0
 10
31.9202
 20
67.6997
 11
24.3333
 21
69.0376
  0
LINE
  8
0
 10
72.3368
 20
43.0573
 11
72.3238
 21
43.062
  0
LINE
  8
0
 10
72.3238
 20
43.062
 11
71.9087
 21
43.3013
  0
LINE
  8
0
 10
71.9087
 20
43.3013
 11
71.8911
 21
43.3223
  0
LINE
  8
0
 10
71.8911
 20
43.3223
 11
71.728
 21
43.7725
  0
LINE
  8
0
 10
71.728
 20
43.7725
 11
71.7256
 21
43.7861
  0
LINE
  8
0
 10
71.7256
 20
43.7861
 11
71.7256
 21
50.7693
  0
LINE
  8
0
 10
71.7256
 20
50.7693
 11
71.6627
 21
50.9414
  0
LINE
  8
0
 10
71.6627
 20
50.9414
 11
71.5037
 21
51.0331
  0
LINE
  8
0
 10
71.5037
 20
51.0331
 11
64.2645
 21
52.3102
  0
LINE
  8
0
 10
64.2645
 20
52.3102
 11
64.2476
 21
52.3175
  0
LINE
  8
0
 10
64.2476
 20
52.3175
 11
63.8365
 21
52.6232
  0
LINE
  8
0
 10
63.8365
 20
52.6232
 11
63.8204
 21
52.6553
  0
LINE
  8
0
 10
63.8204
 20
52.6553
 11
63.8204
 21
53.167
  0
LINE
  8
0
 10
63.8204
 20
53.167
 11
63.8365
 21
53.1991
  0
LINE
  8
0
 10
63.8365
 20
53.1991
 11
64.2476
 21
53.5048
  0
LINE
  8
0
 10
64.2476
 20
53.5048
 11
64.2645
 21
53.5121
  0
LINE
  8
0
 10
64.2645
 20
53.5121
 11
71.5037
 21
54.7882
  0
LINE
  8
0
 10
71.5037
 20
54.7882
 11
71.6627
 21
54.8799
  0
LINE
  8
0
 10
71.6627
 20
54.8799
 11
71.7256
 21
55.053
  0
LINE
  8
0
 10
71.7256
 20
55.053
 11
71.7256
 21
60.1687
  0
LINE
  8
0
 10
71.7256
 20
60.1687
 11
71.6627
 21
60.3418
  0
LINE
  8
0
 10
71.6627
 20
60.3418
 11
71.5037
 21
60.4335
  0
LINE
  8
0
 10
71.5037
 20
60.4335
 11
63.9579
 21
61.7633
  0
LINE
  8
0
 10
63.9579
 20
61.7633
 11
63.939
 21
61.7722
  0
LINE
  8
0
 10
63.939
 20
61.7722
 11
63.7867
 21
61.9011
  0
LINE
  8
0
 10
63.7867
 20
61.9011
 11
63.7731
 21
61.9385
  0
LINE
  8
0
 10
63.7731
 20
61.9385
 11
63.8073
 21
62.1357
  0
LINE
  8
0
 10
63.8073
 20
62.1357
 11
63.833
 21
62.1665
  0
LINE
  8
0
 10
63.833
 20
62.1665
 11
64.0215
 21
62.2349
  0
LINE
  8
0
 10
64.0215
 20
62.2349
 11
64.0421
 21
62.2367
  0
LINE
  8
0
 10
64.0421
 20
62.2367
 11
71.5939
 21
60.9046
  0
LINE
  8
0
 10
71.5939
 20
60.9046
 11
71.6069
 21
60.8999
  0
LINE
  8
0
 10
71.6069
 20
60.8999
 11
72.0219
 21
60.6606
  0
LINE
  8
0
 10
72.0219
 20
60.6606
 11
72.0396
 21
60.6396
  0
LINE
  8
0
 10
72.0396
 20
60.6396
 11
72.2027
 21
60.1894
  0
LINE
  8
0
 10
72.2027
 20
60.1894
 11
72.205
 21
60.1758
  0
LINE
  8
0
 10
72.205
 20
60.1758
 11
72.205
 21
55.0459
  0
LINE
  8
0
 10
72.205
 20
55.0459
 11
72.2027
 21
55.0323
  0
LINE
  8
0
 10
72.2027
 20
55.0323
 11
72.0396
 21
54.5821
  0
LINE
  8
0
 10
72.0396
 20
54.5821
 11
72.0219
 21
54.5611
  0
LINE
  8
0
 10
72.0219
 20
54.5611
 11
71.6069
 21
54.3218
  0
LINE
  8
0
 10
71.6069
 20
54.3218
 11
71.5939
 21
54.317
  0
LINE
  8
0
 10
71.5939
 20
54.317
 11
64.3571
 21
53.0414
  0
LINE
  8
0
 10
64.3571
 20
53.0414
 11
64.2578
 21
52.9672
  0
LINE
  8
0
 10
64.2578
 20
52.9672
 11
64.2578
 21
52.855
  0
LINE
  8
0
 10
64.2578
 20
52.855
 11
64.3571
 21
52.7809
  0
LINE
  8
0
 10
64.3571
 20
52.7809
 11
71.5939
 21
51.5052
  0
LINE
  8
0
 10
71.5939
 20
51.5052
 11
71.6069
 21
51.5005
  0
LINE
  8
0
 10
71.6069
 20
51.5005
 11
72.0219
 21
51.2612
  0
LINE
  8
0
 10
72.0219
 20
51.2612
 11
72.0396
 21
51.2402
  0
LINE
  8
0
 10
72.0396
 20
51.2402
 11
72.2027
 21
50.79
  0
LINE
  8
0
 10
72.2027
 20
50.79
 11
72.205
 21
50.7764
  0
LINE
  8
0
 10
72.205
 20
50.7764
 11
72.205
 21
43.7932
  0
LINE
  8
0
 10
72.205
 20
43.7932
 11
72.2679
 21
43.6211
  0
LINE
  8
0
 10
72.2679
 20
43.6211
 11
72.427
 21
43.5294
  0
LINE
  8
0
 10
72.427
 20
43.5294
 11
80.0069
 21
42.1927
  0
LINE
  8
0
 10
80.0069
 20
42.1927
 11
80.0257
 21
42.1839
  0
LINE
  8
0
 10
80.0257
 20
42.1839
 11
80.1791
 21
42.055
  0
LINE
  8
0
 10
80.1791
 20
42.055
 11
80.1927
 21
42.0174
  0
LINE
  8
0
 10
80.1927
 20
42.0174
 11
80.1575
 21
41.8201
  0
LINE
  8
0
 10
80.1575
 20
41.8201
 11
80.1319
 21
41.7896
  0
LINE
  8
0
 10
80.1319
 20
41.7896
 11
79.9444
 21
41.7212
  0
LINE
  8
0
 10
79.9444
 20
41.7212
 11
79.9237
 21
41.7194
  0
LINE
  8
0
 10
79.9237
 20
41.7194
 11
72.3368
 21
43.0573
  0
LINE
  8
0
 10
56.3403
 20
43.077
 11
56.3338
 21
43.0793
  0
LINE
  8
0
 10
56.3338
 20
43.0793
 11
55.9187
 21
43.3186
  0
LINE
  8
0
 10
55.9187
 20
43.3186
 11
55.9099
 21
43.3291
  0
LINE
  8
0
 10
55.9099
 20
43.3291
 11
55.7468
 21
43.7793
  0
LINE
  8
0
 10
55.7468
 20
43.7793
 11
55.7456
 21
43.7861
  0
LINE
  8
0
 10
55.7456
 20
43.7861
 11
55.7456
 21
50.7728
  0
LINE
  8
0
 10
55.7456
 20
50.7728
 11
55.679
 21
50.9551
  0
LINE
  8
0
 10
55.679
 20
50.9551
 11
55.5107
 21
51.0522
  0
LINE
  8
0
 10
55.5107
 20
51.0522
 11
48.268
 21
52.3299
  0
LINE
  8
0
 10
48.268
 20
52.3299
 11
48.2596
 21
52.3336
  0
LINE
  8
0
 10
48.2596
 20
52.3336
 11
47.8484
 21
52.6392
  0
LINE
  8
0
 10
47.8484
 20
52.6392
 11
47.8403
 21
52.6553
  0
LINE
  8
0
 10
47.8403
 20
52.6553
 11
47.8403
 21
53.167
  0
LINE
  8
0
 10
47.8403
 20
53.167
 11
47.8484
 21
53.183
  0
LINE
  8
0
 10
47.8484
 20
53.183
 11
48.2596
 21
53.4887
  0
LINE
  8
0
 10
48.2596
 20
53.4887
 11
48.268
 21
53.4924
  0
LINE
  8
0
 10
48.268
 20
53.4924
 11
55.5107
 21
54.7691
  0
LINE
  8
0
 10
55.5107
 20
54.7691
 11
55.679
 21
54.8662
  0
LINE
  8
0
 10
55.679
 20
54.8662
 11
55.7456
 21
55.0494
  0
LINE
  8
0
 10
55.7456
 20
55.0494
 11
55.7456
 21
60.1723
  0
LINE
  8
0
 10
55.7456
 20
60.1723
 11
55.679
 21
60.3555
  0
LINE
  8
0
 10
55.679
 20
60.3555
 11
55.5107
 21
60.4526
  0
LINE
  8
0
 10
55.5107
 20
60.4526
 11
47.9614
 21
61.783
  0
LINE
  8
0
 10
47.9614
 20
61.783
 11
47.9519
 21
61.7875
  0
LINE
  8
0
 10
47.9519
 20
61.7875
 11
47.7996
 21
61.9164
  0
LINE
  8
0
 10
47.7996
 20
61.9164
 11
47.7928
 21
61.9351
  0
LINE
  8
0
 10
47.7928
 20
61.9351
 11
47.827
 21
62.1323
  0
LINE
  8
0
 10
47.827
 20
62.1323
 11
47.8399
 21
62.1477
  0
LINE
  8
0
 10
47.8399
 20
62.1477
 11
48.0283
 21
62.2161
  0
LINE
  8
0
 10
48.0283
 20
62.2161
 11
48.0386
 21
62.217
  0
LINE
  8
0
 10
48.0386
 20
62.217
 11
55.5904
 21
60.8849
  0
LINE
  8
0
 10
55.5904
 20
60.8849
 11
55.5969
 21
60.8826
  0
LINE
  8
0
 10
55.5969
 20
60.8826
 11
56.0119
 21
60.6433
  0
LINE
  8
0
 10
56.0119
 20
60.6433
 11
56.0208
 21
60.6328
  0
LINE
  8
0
 10
56.0208
 20
60.6328
 11
56.1838
 21
60.1826
  0
LINE
  8
0
 10
56.1838
 20
60.1826
 11
56.185
 21
60.1758
  0
LINE
  8
0
 10
56.185
 20
60.1758
 11
56.185
 21
55.0459
  0
LINE
  8
0
 10
56.185
 20
55.0459
 11
56.1838
 21
55.0391
  0
LINE
  8
0
 10
56.1838
 20
55.0391
 11
56.0208
 21
54.5889
  0
LINE
  8
0
 10
56.0208
 20
54.5889
 11
56.0119
 21
54.5784
  0
LINE
  8
0
 10
56.0119
 20
54.5784
 11
55.5969
 21
54.3391
  0
LINE
  8
0
 10
55.5969
 20
54.3391
 11
55.5904
 21
54.3367
  0
LINE
  8
0
 10
55.5904
 20
54.3367
 11
48.349
 21
53.0602
  0
LINE
  8
0
 10
48.349
 20
53.0602
 11
48.2378
 21
52.9773
  0
LINE
  8
0
 10
48.2378
 20
52.9773
 11
48.2378
 21
52.845
  0
LINE
  8
0
 10
48.2378
 20
52.845
 11
48.349
 21
52.762
  0
LINE
  8
0
 10
48.349
 20
52.762
 11
55.5904
 21
51.4855
  0
LINE
  8
0
 10
55.5904
 20
51.4855
 11
55.5969
 21
51.4832
  0
LINE
  8
0
 10
55.5969
 20
51.4832
 11
56.0119
 21
51.2439
  0
LINE
  8
0
 10
56.0119
 20
51.2439
 11
56.0208
 21
51.2334
  0
LINE
  8
0
 10
56.0208
 20
51.2334
 11
56.1838
 21
50.7832
  0
LINE
  8
0
 10
56.1838
 20
50.7832
 11
56.185
 21
50.7764
  0
LINE
  8
0
 10
56.185
 20
50.7764
 11
56.185
 21
43.7897
  0
LINE
  8
0
 10
56.185
 20
43.7897
 11
56.2516
 21
43.6074
  0
LINE
  8
0
 10
56.2516
 20
43.6074
 11
56.42
 21
43.5103
  0
LINE
  8
0
 10
56.42
 20
43.5103
 11
64.0035
 21
42.173
  0
LINE
  8
0
 10
64.0035
 20
42.173
 11
64.0129
 21
42.1686
  0
LINE
  8
0
 10
64.0129
 20
42.1686
 11
64.1662
 21
42.0397
  0
LINE
  8
0
 10
64.1662
 20
42.0397
 11
64.173
 21
42.0209
  0
LINE
  8
0
 10
64.173
 20
42.0209
 11
64.1378
 21
41.8236
  0
LINE
  8
0
 10
64.1378
 20
41.8236
 11
64.125
 21
41.8084
  0
LINE
  8
0
 10
64.125
 20
41.8084
 11
63.9375
 21
41.74
  0
LINE
  8
0
 10
63.9375
 20
41.74
 11
63.9272
 21
41.7391
  0
LINE
  8
0
 10
63.9272
 20
41.7391
 11
56.3403
 21
43.077
  0
LINE
  8
0
 10
40.3438
 20
43.0967
 11
39.9287
 21
43.3359
  0
LINE
  8
0
 10
39.9287
 20
43.3359
 11
39.7656
 21
43.7861
  0
LINE
  8
0
 10
39.7656
 20
43.7861
 11
39.7656
 21
50.7764
  0
LINE
  8
0
 10
39.7656
 20
50.7764
 11
39.6953
 21
50.9688
  0
LINE
  8
0
 10
39.6953
 20
50.9688
 11
39.5176
 21
51.0713
  0
LINE
  8
0
 10
39.5176
 20
51.0713
 11
32.2715
 21
52.3496
  0
LINE
  8
0
 10
32.2715
 20
52.3496
 11
31.8604
 21
52.6553
  0
LINE
  8
0
 10
31.8604
 20
52.6553
 11
31.8604
 21
53.167
  0
LINE
  8
0
 10
31.8604
 20
53.167
 11
32.2715
 21
53.4727
  0
LINE
  8
0
 10
32.2715
 20
53.4727
 11
39.5176
 21
54.75
  0
LINE
  8
0
 10
39.5176
 20
54.75
 11
39.6953
 21
54.8525
  0
LINE
  8
0
 10
39.6953
 20
54.8525
 11
39.7656
 21
55.0459
  0
LINE
  8
0
 10
39.7656
 20
55.0459
 11
39.7656
 21
60.1758
  0
LINE
  8
0
 10
39.7656
 20
60.1758
 11
39.6953
 21
60.3691
  0
LINE
  8
0
 10
39.6953
 20
60.3691
 11
39.5176
 21
60.4717
  0
LINE
  8
0
 10
39.5176
 20
60.4717
 11
31.9648
 21
61.8027
  0
LINE
  8
0
 10
31.9648
 20
61.8027
 11
31.8125
 21
61.9316
  0
LINE
  8
0
 10
31.8125
 20
61.9316
 11
31.8467
 21
62.1289
  0
LINE
  8
0
 10
31.8467
 20
62.1289
 11
32.0352
 21
62.1973
  0
LINE
  8
0
 10
32.0352
 20
62.1973
 11
39.5869
 21
60.8652
  0
LINE
  8
0
 10
39.5869
 20
60.8652
 11
40.002
 21
60.626
  0
LINE
  8
0
 10
40.002
 20
60.626
 11
40.165
 21
60.1758
  0
LINE
  8
0
 10
40.165
 20
60.1758
 11
40.165
 21
55.0459
  0
LINE
  8
0
 10
40.165
 20
55.0459
 11
40.002
 21
54.5957
  0
LINE
  8
0
 10
40.002
 20
54.5957
 11
39.5869
 21
54.3564
  0
LINE
  8
0
 10
39.5869
 20
54.3564
 11
32.3408
 21
53.0791
  0
LINE
  8
0
 10
32.3408
 20
53.0791
 11
32.2178
 21
52.9873
  0
LINE
  8
0
 10
32.2178
 20
52.9873
 11
32.2178
 21
52.835
  0
LINE
  8
0
 10
32.2178
 20
52.835
 11
32.3408
 21
52.7432
  0
LINE
  8
0
 10
32.3408
 20
52.7432
 11
39.5869
 21
51.4658
  0
LINE
  8
0
 10
39.5869
 20
51.4658
 11
40.002
 21
51.2266
  0
LINE
  8
0
 10
40.002
 20
51.2266
 11
40.165
 21
50.7764
  0
LINE
  8
0
 10
40.165
 20
50.7764
 11
40.165
 21
43.7861
  0
LINE
  8
0
 10
40.165
 20
43.7861
 11
40.2354
 21
43.5938
  0
LINE
  8
0
 10
40.2354
 20
43.5938
 11
40.4131
 21
43.4912
  0
LINE
  8
0
 10
40.4131
 20
43.4912
 11
48
 21
42.1533
  0
LINE
  8
0
 10
48
 20
42.1533
 11
48.1533
 21
42.0244
  0
LINE
  8
0
 10
48.1533
 20
42.0244
 11
48.1182
 21
41.8271
  0
LINE
  8
0
 10
48.1182
 20
41.8271
 11
47.9307
 21
41.7588
  0
LINE
  8
0
 10
47.9307
 20
41.7588
 11
40.3438
 21
43.0967
  0
LINE
  8
0
 10
24.3507
 20
43.1158
 11
23.945
 21
43.3496
  0
LINE
  8
0
 10
23.945
 20
43.3496
 11
23.7856
 21
43.7896
  0
LINE
  8
0
 10
23.7856
 20
43.7896
 11
23.7856
 21
50.7764
  0
LINE
  8
0
 10
23.7856
 20
50.7764
 11
23.7844
 21
50.7832
  0
LINE
  8
0
 10
23.7844
 20
50.7832
 11
23.7141
 21
50.9756
  0
LINE
  8
0
 10
23.7141
 20
50.9756
 11
23.7053
 21
50.9861
  0
LINE
  8
0
 10
23.7053
 20
50.9861
 11
23.5276
 21
51.0886
  0
LINE
  8
0
 10
23.5276
 20
51.0886
 11
23.5211
 21
51.091
  0
LINE
  8
0
 10
23.5211
 20
51.091
 11
16.2796
 21
52.3685
  0
LINE
  8
0
 10
16.2796
 20
52.3685
 11
15.8804
 21
52.6653
  0
LINE
  8
0
 10
15.8804
 20
52.6653
 11
15.8804
 21
53.1569
  0
LINE
  8
0
 10
15.8804
 20
53.1569
 11
16.2796
 21
53.4538
  0
LINE
  8
0
 10
16.2796
 20
53.4538
 11
23.5211
 21
54.7303
  0
LINE
  8
0
 10
23.5211
 20
54.7303
 11
23.5276
 21
54.7327
  0
LINE
  8
0
 10
23.5276
 20
54.7327
 11
23.7053
 21
54.8352
  0
LINE
  8
0
 10
23.7053
 20
54.8352
 11
23.7141
 21
54.8457
  0
LINE
  8
0
 10
23.7141
 20
54.8457
 11
23.7844
 21
55.0391
  0
LINE
  8
0
 10
23.7844
 20
55.0391
 11
23.7856
 21
55.0459
  0
LINE
  8
0
 10
23.7856
 20
55.0459
 11
23.7856
 21
60.1758
  0
LINE
  8
0
 10
23.7856
 20
60.1758
 11
23.7844
 21
60.1826
  0
LINE
  8
0
 10
23.7844
 20
60.1826
 11
23.7141
 21
60.376
  0
LINE
  8
0
 10
23.7141
 20
60.376
 11
23.7053
 21
60.3865
  0
LINE
  8
0
 10
23.7053
 20
60.3865
 11
23.5276
 21
60.489
  0
LINE
  8
0
 10
23.5276
 20
60.489
 11
23.521
 21
60.4914
  0
LINE
  8
0
 10
23.521
 20
60.4914
 11
15.9736
 21
61.8215
  0
LINE
  8
0
 10
15.9736
 20
61.8215
 11
15.8342
 21
61.9395
  0
LINE
  8
0
 10
15.8342
 20
61.9395
 11
15.8644
 21
62.1141
  0
LINE
  8
0
 10
15.8644
 20
62.1141
 11
16.0369
 21
62.1766
  0
LINE
  8
0
 10
16.0369
 20
62.1766
 11
23.58
 21
60.8461
  0
LINE
  8
0
 10
23.58
 20
60.8461
 11
23.9857
 21
60.6123
  0
LINE
  8
0
 10
23.9857
 20
60.6123
 11
24.145
 21
60.1723
  0
LINE
  8
0
 10
24.145
 20
60.1723
 11
24.145
 21
55.0494
  0
LINE
  8
0
 10
24.145
 20
55.0494
 11
23.9857
 21
54.6094
  0
LINE
  8
0
 10
23.9857
 20
54.6094
 11
23.58
 21
54.3755
  0
LINE
  8
0
 10
23.58
 20
54.3755
 11
16.3373
 21
53.0988
  0
LINE
  8
0
 10
16.3373
 20
53.0988
 11
16.3289
 21
53.0951
  0
LINE
  8
0
 10
16.3289
 20
53.0951
 11
16.2058
 21
53.0033
  0
LINE
  8
0
 10
16.2058
 20
53.0033
 11
16.1978
 21
52.9873
  0
LINE
  8
0
 10
16.1978
 20
52.9873
 11
16.1978
 21
52.835
  0
LINE
  8
0
 10
16.1978
 20
52.835
 11
16.2058
 21
52.8189
  0
LINE
  8
0
 10
16.2058
 20
52.8189
 11
16.3289
 21
52.7271
  0
LINE
  8
0
 10
16.3289
 20
52.7271
 11
16.3373
 21
52.7235
  0
LINE
  8
0
 10
16.3373
 20
52.7235
 11
23.58
 21
51.4467
  0
LINE
  8
0
 10
23.58
 20
51.4467
 11
23.9857
 21
51.2129
  0
LINE
  8
0
 10
23.9857
 20
51.2129
 11
24.145
 21
50.7729
  0
LINE
  8
0
 10
24.145
 20
50.7729
 11
24.145
 21
43.7861
  0
LINE
  8
0
 10
24.145
 20
43.7861
 11
24.1463
 21
43.7793
  0
LINE
  8
0
 10
24.1463
 20
43.7793
 11
24.2166
 21
43.5869
  0
LINE
  8
0
 10
24.2166
 20
43.5869
 11
24.2254
 21
43.5764
  0
LINE
  8
0
 10
24.2254
 20
43.5764
 11
24.4031
 21
43.4739
  0
LINE
  8
0
 10
24.4031
 20
43.4739
 11
24.4096
 21
43.4715
  0
LINE
  8
0
 10
24.4096
 20
43.4715
 11
31.9913
 21
42.1346
  0
LINE
  8
0
 10
31.9913
 20
42.1346
 11
32.1316
 21
42.0166
  0
LINE
  8
0
 10
32.1316
 20
42.0166
 11
32.1005
 21
41.842
  0
LINE
  8
0
 10
32.1005
 20
41.842
 11
31.9289
 21
41.7794
  0
LINE
  8
0
 10
31.9289
 20
41.7794
 11
24.3507
 21
43.1158
  0
LINE
  8
0
 10
72.3576
 20
17.1349
 11
71.9613
 21
17.3633
  0
LINE
  8
0
 10
71.9613
 20
17.3633
 11
71.8056
 21
17.7932
  0
LINE
  8
0
 10
71.8056
 20
17.7932
 11
71.8056
 21
24.7764
  0
LINE
  8
0
 10
71.8056
 20
24.7764
 11
71.8032
 21
24.7901
  0
LINE
  8
0
 10
71.8032
 20
24.7901
 11
71.7329
 21
24.9825
  0
LINE
  8
0
 10
71.7329
 20
24.9825
 11
71.7153
 21
25.0034
  0
LINE
  8
0
 10
71.7153
 20
25.0034
 11
71.5376
 21
25.1059
  0
LINE
  8
0
 10
71.5376
 20
25.1059
 11
71.5245
 21
25.1107
  0
LINE
  8
0
 10
71.5245
 20
25.1107
 11
64.2878
 21
26.3874
  0
LINE
  8
0
 10
64.2878
 20
26.3874
 11
63.9003
 21
26.6754
  0
LINE
  8
0
 10
63.9003
 20
26.6754
 11
63.9003
 21
27.1469
  0
LINE
  8
0
 10
63.9003
 20
27.1469
 11
64.2878
 21
27.4349
  0
LINE
  8
0
 10
64.2878
 20
27.4349
 11
71.5245
 21
28.7106
  0
LINE
  8
0
 10
71.5245
 20
28.7106
 11
71.5376
 21
28.7153
  0
LINE
  8
0
 10
71.5376
 20
28.7153
 11
71.7153
 21
28.8179
  0
LINE
  8
0
 10
71.7153
 20
28.8179
 11
71.7329
 21
28.8389
  0
LINE
  8
0
 10
71.7329
 20
28.8389
 11
71.8032
 21
29.0322
  0
LINE
  8
0
 10
71.8032
 20
29.0322
 11
71.8056
 21
29.0459
  0
LINE
  8
0
 10
71.8056
 20
29.0459
 11
71.8056
 21
34.1758
  0
LINE
  8
0
 10
71.8056
 20
34.1758
 11
71.8032
 21
34.1895
  0
LINE
  8
0
 10
71.8032
 20
34.1895
 11
71.7329
 21
34.3828
  0
LINE
  8
0
 10
71.7329
 20
34.3828
 11
71.7153
 21
34.4038
  0
LINE
  8
0
 10
71.7153
 20
34.4038
 11
71.5376
 21
34.5063
  0
LINE
  8
0
 10
71.5376
 20
34.5063
 11
71.5245
 21
34.5111
  0
LINE
  8
0
 10
71.5245
 20
34.5111
 11
63.9824
 21
35.8403
  0
LINE
  8
0
 10
63.9824
 20
35.8403
 11
63.8558
 21
35.9474
  0
LINE
  8
0
 10
63.8558
 20
35.9474
 11
63.8821
 21
36.0992
  0
LINE
  8
0
 10
63.8821
 20
36.0992
 11
64.0387
 21
36.156
  0
LINE
  8
0
 10
64.0387
 20
36.156
 11
71.5731
 21
34.8271
  0
LINE
  8
0
 10
71.5731
 20
34.8271
 11
71.9693
 21
34.5986
  0
LINE
  8
0
 10
71.9693
 20
34.5986
 11
72.125
 21
34.1687
  0
LINE
  8
0
 10
72.125
 20
34.1687
 11
72.125
 21
29.0529
  0
LINE
  8
0
 10
72.125
 20
29.0529
 11
71.9693
 21
28.623
  0
LINE
  8
0
 10
71.9693
 20
28.623
 11
71.5731
 21
28.3946
  0
LINE
  8
0
 10
71.5731
 20
28.3946
 11
64.3339
 21
27.1185
  0
LINE
  8
0
 10
64.3339
 20
27.1185
 11
64.3169
 21
27.1112
  0
LINE
  8
0
 10
64.3169
 20
27.1112
 11
64.1938
 21
27.0194
  0
LINE
  8
0
 10
64.1938
 20
27.0194
 11
64.1778
 21
26.9873
  0
LINE
  8
0
 10
64.1778
 20
26.9873
 11
64.1778
 21
26.835
  0
LINE
  8
0
 10
64.1778
 20
26.835
 11
64.1938
 21
26.8029
  0
LINE
  8
0
 10
64.1938
 20
26.8029
 11
64.3169
 21
26.7111
  0
LINE
  8
0
 10
64.3169
 20
26.7111
 11
64.3339
 21
26.7038
  0
LINE
  8
0
 10
64.3339
 20
26.7038
 11
71.5731
 21
25.4276
  0
LINE
  8
0
 10
71.5731
 20
25.4276
 11
71.9693
 21
25.1992
  0
LINE
  8
0
 10
71.9693
 20
25.1992
 11
72.125
 21
24.7693
  0
LINE
  8
0
 10
72.125
 20
24.7693
 11
72.125
 21
17.7861
  0
LINE
  8
0
 10
72.125
 20
17.7861
 11
72.1275
 21
17.7724
  0
LINE
  8
0
 10
72.1275
 20
17.7724
 11
72.1978
 21
17.58
  0
LINE
  8
0
 10
72.1978
 20
17.58
 11
72.2154
 21
17.5591
  0
LINE
  8
0
 10
72.2154
 20
17.5591
 11
72.3931
 21
17.4566
  0
LINE
  8
0
 10
72.3931
 20
17.4566
 11
72.4061
 21
17.4518
  0
LINE
  8
0
 10
72.4061
 20
17.4518
 11
79.9825
 21
16.1158
  0
LINE
  8
0
 10
79.9825
 20
16.1158
 11
80.1099
 21
16.0087
  0
LINE
  8
0
 10
80.1099
 20
16.0087
 11
80.0828
 21
15.8568
  0
LINE
  8
0
 10
80.0828
 20
15.8568
 11
79.927
 21
15.8
  0
LINE
  8
0
 10
79.927
 20
15.8
 11
72.3576
 21
17.1349
  0
LINE
  8
0
 10
56.3646
 20
17.1539
 11
55.9777
 21
17.377
  0
LINE
  8
0
 10
55.9777
 20
17.377
 11
55.8256
 21
17.7967
  0
LINE
  8
0
 10
55.8256
 20
17.7967
 11
55.8256
 21
24.7764
  0
LINE
  8
0
 10
55.8256
 20
24.7764
 11
55.822
 21
24.797
  0
LINE
  8
0
 10
55.822
 20
24.797
 11
55.7517
 21
24.9893
  0
LINE
  8
0
 10
55.7517
 20
24.9893
 11
55.7253
 21
25.0207
  0
LINE
  8
0
 10
55.7253
 20
25.0207
 11
55.5476
 21
25.1233
  0
LINE
  8
0
 10
55.5476
 20
25.1233
 11
55.528
 21
25.1304
  0
LINE
  8
0
 10
55.528
 20
25.1304
 11
48.2959
 21
26.4062
  0
LINE
  8
0
 10
48.2959
 20
26.4062
 11
47.9203
 21
26.6854
  0
LINE
  8
0
 10
47.9203
 20
26.6854
 11
47.9203
 21
27.1368
  0
LINE
  8
0
 10
47.9203
 20
27.1368
 11
48.2959
 21
27.416
  0
LINE
  8
0
 10
48.2959
 20
27.416
 11
55.528
 21
28.6909
  0
LINE
  8
0
 10
55.528
 20
28.6909
 11
55.5476
 21
28.698
  0
LINE
  8
0
 10
55.5476
 20
28.698
 11
55.7253
 21
28.8006
  0
LINE
  8
0
 10
55.7253
 20
28.8006
 11
55.7517
 21
28.832
  0
LINE
  8
0
 10
55.7517
 20
28.832
 11
55.822
 21
29.0254
  0
LINE
  8
0
 10
55.822
 20
29.0254
 11
55.8256
 21
29.0459
  0
LINE
  8
0
 10
55.8256
 20
29.0459
 11
55.8256
 21
34.1758
  0
LINE
  8
0
 10
55.8256
 20
34.1758
 11
55.822
 21
34.1963
  0
LINE
  8
0
 10
55.822
 20
34.1963
 11
55.7517
 21
34.3896
  0
LINE
  8
0
 10
55.7517
 20
34.3896
 11
55.7253
 21
34.4211
  0
LINE
  8
0
 10
55.7253
 20
34.4211
 11
55.5476
 21
34.5237
  0
LINE
  8
0
 10
55.5476
 20
34.5237
 11
55.528
 21
34.5308
  0
LINE
  8
0
 10
55.528
 20
34.5308
 11
47.9912
 21
35.859
  0
LINE
  8
0
 10
47.9912
 20
35.859
 11
47.8775
 21
35.9553
  0
LINE
  8
0
 10
47.8775
 20
35.9553
 11
47.8998
 21
36.0844
  0
LINE
  8
0
 10
47.8998
 20
36.0844
 11
48.0406
 21
36.1354
  0
LINE
  8
0
 10
48.0406
 20
36.1354
 11
55.5661
 21
34.808
  0
LINE
  8
0
 10
55.5661
 20
34.808
 11
55.953
 21
34.5849
  0
LINE
  8
0
 10
55.953
 20
34.5849
 11
56.105
 21
34.1653
  0
LINE
  8
0
 10
56.105
 20
34.1653
 11
56.105
 21
29.0564
  0
LINE
  8
0
 10
56.105
 20
29.0564
 11
55.953
 21
28.6367
  0
LINE
  8
0
 10
55.953
 20
28.6367
 11
55.5661
 21
28.4137
  0
LINE
  8
0
 10
55.5661
 20
28.4137
 11
48.3304
 21
27.1382
  0
LINE
  8
0
 10
48.3304
 20
27.1382
 11
48.3049
 21
27.1272
  0
LINE
  8
0
 10
48.3049
 20
27.1272
 11
48.1819
 21
27.0354
  0
LINE
  8
0
 10
48.1819
 20
27.0354
 11
48.1578
 21
26.9873
  0
LINE
  8
0
 10
48.1578
 20
26.9873
 11
48.1578
 21
26.835
  0
LINE
  8
0
 10
48.1578
 20
26.835
 11
48.1819
 21
26.7869
  0
LINE
  8
0
 10
48.1819
 20
26.7869
 11
48.3049
 21
26.6951
  0
LINE
  8
0
 10
48.3049
 20
26.6951
 11
48.3304
 21
26.6841
  0
LINE
  8
0
 10
48.3304
 20
26.6841
 11
55.5661
 21
25.4086
  0
LINE
  8
0
 10
55.5661
 20
25.4086
 11
55.953
 21
25.1855
  0
LINE
  8
0
 10
55.953
 20
25.1855
 11
56.105
 21
24.7658
  0
LINE
  8
0
 10
56.105
 20
24.7658
 11
56.105
 21
17.7861
  0
LINE
  8
0
 10
56.105
 20
17.7861
 11
56.1087
 21
17.7655
  0
LINE
  8
0
 10
56.1087
 20
17.7655
 11
56.179
 21
17.5732
  0
LINE
  8
0
 10
56.179
 20
17.5732
 11
56.2054
 21
17.5418
  0
LINE
  8
0
 10
56.2054
 20
17.5418
 11
56.3831
 21
17.4392
  0
LINE
  8
0
 10
56.3831
 20
17.4392
 11
56.4027
 21
17.4321
  0
LINE
  8
0
 10
56.4027
 20
17.4321
 11
63.9737
 21
16.097
  0
LINE
  8
0
 10
63.9737
 20
16.097
 11
64.0882
 21
16.0008
  0
LINE
  8
0
 10
64.0882
 20
16.0008
 11
64.0652
 21
15.8717
  0
LINE
  8
0
 10
64.0652
 20
15.8717
 11
63.9252
 21
15.8207
  0
LINE
  8
0
 10
63.9252
 20
15.8207
 11
56.3646
 21
17.1539
  0
LINE
  8
0
 10
40.3715
 20
17.173
 11
39.994
 21
17.3907
  0
LINE
  8
0
 10
39.994
 20
17.3907
 11
39.8456
 21
17.8002
  0
LINE
  8
0
 10
39.8456
 20
17.8002
 11
39.8456
 21
24.7764
  0
LINE
  8
0
 10
39.8456
 20
24.7764
 11
39.8408
 21
24.8038
  0
LINE
  8
0
 10
39.8408
 20
24.8038
 11
39.7704
 21
24.9962
  0
LINE
  8
0
 10
39.7704
 20
24.9962
 11
39.7353
 21
25.038
  0
LINE
  8
0
 10
39.7353
 20
25.038
 11
39.5576
 21
25.1406
  0
LINE
  8
0
 10
39.5576
 20
25.1406
 11
39.5315
 21
25.1501
  0
LINE
  8
0
 10
39.5315
 20
25.1501
 11
32.304
 21
26.4251
  0
LINE
  8
0
 10
32.304
 20
26.4251
 11
31.9404
 21
26.6955
  0
LINE
  8
0
 10
31.9404
 20
26.6955
 11
31.9404
 21
27.1268
  0
LINE
  8
0
 10
31.9404
 20
27.1268
 11
32.304
 21
27.3972
  0
LINE
  8
0
 10
32.304
 20
27.3972
 11
39.5315
 21
28.6712
  0
LINE
  8
0
 10
39.5315
 20
28.6712
 11
39.5576
 21
28.6807
  0
LINE
  8
0
 10
39.5576
 20
28.6807
 11
39.7353
 21
28.7832
  0
LINE
  8
0
 10
39.7353
 20
28.7832
 11
39.7705
 21
28.8252
  0
LINE
  8
0
 10
39.7705
 20
28.8252
 11
39.8408
 21
29.0186
  0
LINE
  8
0
 10
39.8408
 20
29.0186
 11
39.8456
 21
29.0459
  0
LINE
  8
0
 10
39.8456
 20
29.0459
 11
39.8456
 21
34.1758
  0
LINE
  8
0
 10
39.8456
 20
34.1758
 11
39.8408
 21
34.2031
  0
LINE
  8
0
 10
39.8408
 20
34.2031
 11
39.7705
 21
34.3965
  0
LINE
  8
0
 10
39.7705
 20
34.3965
 11
39.7353
 21
34.4384
  0
LINE
  8
0
 10
39.7353
 20
34.4384
 11
39.5576
 21
34.541
  0
LINE
  8
0
 10
39.5576
 20
34.541
 11
39.5315
 21
34.5505
  0
LINE
  8
0
 10
39.5315
 20
34.5505
 11
32
 21
35.8778
  0
LINE
  8
0
 10
32
 20
35.8778
 11
31.8992
 21
35.9631
  0
LINE
  8
0
 10
31.8992
 20
35.9631
 11
31.9176
 21
36.0695
  0
LINE
  8
0
 10
31.9176
 20
36.0695
 11
32.0423
 21
36.1148
  0
LINE
  8
0
 10
32.0423
 20
36.1148
 11
39.5592
 21
34.7889
  0
LINE
  8
0
 10
39.5592
 20
34.7889
 11
39.9367
 21
34.5713
  0
LINE
  8
0
 10
39.9367
 20
34.5713
 11
40.085
 21
34.1618
  0
LINE
  8
0
 10
40.085
 20
34.1618
 11
40.085
 21
29.0599
  0
LINE
  8
0
 10
40.085
 20
29.0599
 11
39.9367
 21
28.6504
  0
LINE
  8
0
 10
39.9367
 20
28.6504
 11
39.5592
 21
28.4328
  0
LINE
  8
0
 10
39.5592
 20
28.4328
 11
32.3269
 21
27.1579
  0
LINE
  8
0
 10
32.3269
 20
27.1579
 11
32.293
 21
27.1432
  0
LINE
  8
0
 10
32.293
 20
27.1432
 11
32.1699
 21
27.0514
  0
LINE
  8
0
 10
32.1699
 20
27.0514
 11
32.1378
 21
26.9873
  0
LINE
  8
0
 10
32.1378
 20
26.9873
 11
32.1378
 21
26.835
  0
LINE
  8
0
 10
32.1378
 20
26.835
 11
32.1699
 21
26.7708
  0
LINE
  8
0
 10
32.1699
 20
26.7708
 11
32.293
 21
26.679
  0
LINE
  8
0
 10
32.293
 20
26.679
 11
32.3269
 21
26.6644
  0
LINE
  8
0
 10
32.3269
 20
26.6644
 11
39.5592
 21
25.3895
  0
LINE
  8
0
 10
39.5592
 20
25.3895
 11
39.9367
 21
25.1718
  0
LINE
  8
0
 10
39.9367
 20
25.1718
 11
40.085
 21
24.7623
  0
LINE
  8
0
 10
40.085
 20
24.7623
 11
40.085
 21
17.7861
  0
LINE
  8
0
 10
40.085
 20
17.7861
 11
40.0899
 21
17.7587
  0
LINE
  8
0
 10
40.0899
 20
17.7587
 11
40.1602
 21
17.5663
  0
LINE
  8
0
 10
40.1602
 20
17.5663
 11
40.1954
 21
17.5245
  0
LINE
  8
0
 10
40.1954
 20
17.5245
 11
40.3731
 21
17.4219
  0
LINE
  8
0
 10
40.3731
 20
17.4219
 11
40.3992
 21
17.4124
  0
LINE
  8
0
 10
40.3992
 20
17.4124
 11
47.965
 21
16.0783
  0
LINE
  8
0
 10
47.965
 20
16.0783
 11
48.0664
 21
15.9929
  0
LINE
  8
0
 10
48.0664
 20
15.9929
 11
48.0475
 21
15.8865
  0
LINE
  8
0
 10
48.0475
 20
15.8865
 11
47.9234
 21
15.8413
  0
LINE
  8
0
 10
47.9234
 20
15.8413
 11
40.3715
 21
17.173
  0
LINE
  8
0
 10
24.3785
 20
17.1921
 11
24.0103
 21
17.4043
  0
LINE
  8
0
 10
24.0103
 20
17.4043
 11
23.8656
 21
17.8037
  0
LINE
  8
0
 10
23.8656
 20
17.8037
 11
23.8656
 21
24.7764
  0
LINE
  8
0
 10
23.8656
 20
24.7764
 11
23.8595
 21
24.8107
  0
LINE
  8
0
 10
23.8595
 20
24.8107
 11
23.7892
 21
25.0031
  0
LINE
  8
0
 10
23.7892
 20
25.0031
 11
23.7453
 21
25.0554
  0
LINE
  8
0
 10
23.7453
 20
25.0554
 11
23.5676
 21
25.1579
  0
LINE
  8
0
 10
23.5676
 20
25.1579
 11
23.535
 21
25.1698
  0
LINE
  8
0
 10
23.535
 20
25.1698
 11
16.3121
 21
26.444
  0
LINE
  8
0
 10
16.3121
 20
26.444
 11
15.9604
 21
26.7055
  0
LINE
  8
0
 10
15.9604
 20
26.7055
 11
15.9604
 21
27.1167
  0
LINE
  8
0
 10
15.9604
 20
27.1167
 11
16.3121
 21
27.3783
  0
LINE
  8
0
 10
16.3121
 20
27.3783
 11
23.5349
 21
28.6515
  0
LINE
  8
0
 10
23.5349
 20
28.6515
 11
23.5676
 21
28.6634
  0
LINE
  8
0
 10
23.5676
 20
28.6634
 11
23.7453
 21
28.7659
  0
LINE
  8
0
 10
23.7453
 20
28.7659
 11
23.7893
 21
28.8184
  0
LINE
  8
0
 10
23.7893
 20
28.8184
 11
23.8596
 21
29.0117
  0
LINE
  8
0
 10
23.8596
 20
29.0117
 11
23.8656
 21
29.0459
  0
LINE
  8
0
 10
23.8656
 20
29.0459
 11
23.8656
 21
34.1758
  0
LINE
  8
0
 10
23.8656
 20
34.1758
 11
23.8596
 21
34.21
  0
LINE
  8
0
 10
23.8596
 20
34.21
 11
23.7893
 21
34.4033
  0
LINE
  8
0
 10
23.7893
 20
34.4033
 11
23.7453
 21
34.4558
  0
LINE
  8
0
 10
23.7453
 20
34.4558
 11
23.5676
 21
34.5583
  0
LINE
  8
0
 10
23.5676
 20
34.5583
 11
23.5349
 21
34.5702
  0
LINE
  8
0
 10
23.5349
 20
34.5702
 11
16.0088
 21
35.8965
  0
LINE
  8
0
 10
16.0088
 20
35.8965
 11
15.9208
 21
35.971
  0
LINE
  8
0
 10
15.9208
 20
35.971
 11
15.9353
 21
36.0547
  0
LINE
  8
0
 10
15.9353
 20
36.0547
 11
16.0441
 21
36.0941
  0
LINE
  8
0
 10
16.0441
 20
36.0941
 11
23.5522
 21
34.7698
  0
LINE
  8
0
 10
23.5522
 20
34.7698
 11
23.9204
 21
34.5576
  0
LINE
  8
0
 10
23.9204
 20
34.5576
 11
24.065
 21
34.1582
  0
LINE
  8
0
 10
24.065
 20
34.1582
 11
24.065
 21
29.0634
  0
LINE
  8
0
 10
24.065
 20
29.0634
 11
23.9204
 21
28.6641
  0
LINE
  8
0
 10
23.9204
 20
28.6641
 11
23.5522
 21
28.4519
  0
LINE
  8
0
 10
23.5522
 20
28.4519
 11
16.3235
 21
27.1776
  0
LINE
  8
0
 10
16.3235
 20
27.1776
 11
16.281
 21
27.1593
  0
LINE
  8
0
 10
16.281
 20
27.1593
 11
16.158
 21
27.0675
  0
LINE
  8
0
 10
16.158
 20
27.0675
 11
16.1178
 21
26.9873
  0
LINE
  8
0
 10
16.1178
 20
26.9873
 11
16.1178
 21
26.835
  0
LINE
  8
0
 10
16.1178
 20
26.835
 11
16.158
 21
26.7548
  0
LINE
  8
0
 10
16.158
 20
26.7548
 11
16.281
 21
26.663
  0
LINE
  8
0
 10
16.281
 20
26.663
 11
16.3235
 21
26.6447
  0
LINE
  8
0
 10
16.3235
 20
26.6447
 11
23.5522
 21
25.3704
  0
LINE
  8
0
 10
23.5522
 20
25.3704
 11
23.9204
 21
25.1582
  0
LINE
  8
0
 10
23.9204
 20
25.1582
 11
24.065
 21
24.7588
  0
LINE
  8
0
 10
24.065
 20
24.7588
 11
24.065
 21
17.7861
  0
LINE
  8
0
 10
24.065
 20
17.7861
 11
24.0711
 21
17.7518
  0
LINE
  8
0
 10
24.0711
 20
17.7518
 11
24.1414
 21
17.5594
  0
LINE
  8
0
 10
24.1414
 20
17.5594
 11
24.1854
 21
17.5071
  0
LINE
  8
0
 10
24.1854
 20
17.5071
 11
24.3631
 21
17.4046
  0
LINE
  8
0
 10
24.3631
 20
17.4046
 11
24.3957
 21
17.3927
  0
LINE
  8
0
 10
24.3957
 20
17.3927
 11
31.9562
 21
16.0595
  0
LINE
  8
0
 10
31.9562
 20
16.0595
 11
32.0447
 21
15.9851
  0
LINE
  8
0
 10
32.0447
 20
15.9851
 11
32.0298
 21
15.9014
  0
LINE
  8
0
 10
32.0298
 20
15.9014
 11
31.9216
 21
15.8619
  0
LINE
  8
0
 10
31.9216
 20
15.8619
 11
24.3785
 21
17.1921
  0
LINE
  8
0
 10
90
 20
4.92
 11
89.92
 21
5
  0
LINE
  8
0
 10
89.92
 20
5
 11
89.92
 21
11
  0
LINE
  8
0
 10
89.92
 20
11
 11
90
 21
11.08
  0
LINE
  8
0
 10
90
 20
11.08
 11
90.8
 21
11.08
  0
LINE
  8
0
 10
90.8
 20
11.08
 11
90.88
 21
11
  0
LINE
  8
0
 10
90.88
 20
11
 11
90.88
 21
5
  0
LINE
  8
0
 10
90.88
 20
5
 11
90.8
 21
4.92
  0
LINE
  8
0
 10
90.8
 20
4.92
 11
90
 21
4.92
  0
LINE
  8
0
 10
80
 20
4.94
 11
79.94
 21
5
  0
LINE
  8
0
 10
79.94
 20
5
 11
79.94
 21
11
  0
LINE
  8
0
 10
79.94
 20
11
 11
80
 21
11.06
  0
LINE
  8
0
 10
80
 20
11.06
 11
80.8
 21
11.06
  0
LINE
  8
0
 10
80.8
 20
11.06
 11
80.86
 21
11
  0
LINE
  8
0
 10
80.86
 20
11
 11
80.86
 21
5
  0
LINE
  8
0
 10
80.86
 20
5
 11
80.8
 21
4.94
  0
LINE
  8
0
 10
80.8
 20
4.94
 11
80
 21
4.94
  0
LINE
  8
0
 10
70
 20
4.96001
 11
69.96
 21
5
  0
LINE
  8
0
 10
69.96
 20
5
 11
69.96
 21
11
  0
LINE
  8
0
 10
69.96
 20
11
 11
70
 21
11.04
  0
LINE
  8
0
 10
70
 20
11.04
 11
70.8
 21
11.04
  0
LINE
  8
0
 10
70.8
 20
11.04
 11
70.84
 21
11
  0
LINE
  8
0
 10
70.84
 20
11
 11
70.84
 21
5
  0
LINE
  8
0
 10
70.84
 20
5
 11
70.8
 21
4.96001
  0
LINE
  8
0
 10
70.8
 20
4.96001
 11
70
 21
4.96001
  0
LINE
  8
0
 10
60
 20
4.98
 11
59.98
 21
5
  0
LINE
  8
0
 10
59.98
 20
5
 11
59.98
 21
11
  0
LINE
  8
0
 10
59.98
 20
11
 11
60
 21
11.02
  0
LINE
  8
0
 10
60
 20
11.02
 11
60.8
 21
11.02
  0
LINE
  8
0
 10
60.8
 20
11.02
 11
60.82
 21
11
  0
LINE
  8
0
 10
60.82
 20
11
 11
60.82
 21
5
  0
LINE
  8
0
 10
60.82
 20
5
 11
60.8
 21
4.98
  0
LINE
  8
0
 10
60.8
 20
4.98
 11
60
 21
4.98
  0
LINE
  8
0
 10
50
 20
5
 11
50
 21
11
  0
LINE
  8
0
 10
50
 20
11
 11
50.8
 21
11
  0
LINE
  8
0
 10
50.8
 20
11
 11
50.8
 21
5
  0
LINE
  8
0
 10
50.8
 20
5
 11
50
 21
5
  0
LINE
  8
0
 10
40.02
 20
5.02
 11
40.02
 21
10.98
  0
LINE
  8
0
 10
40.02
 20
10.98
 11
40.78
 21
10.98
  0
LINE
  8
0
 10
40.78
 20
10.98
 11
40.78
 21
5.02
  0
LINE
  8
0
 10
40.78
 20
5.02
 11
40.02
 21
5.02
  0
LINE
  8
0
 10
30.04
 20
5.03999
 11
30.04
 21
10.96
  0
LINE
  8
0
 10
30.04
 20
10.96
 11
30.76
 21
10.96
  0
LINE
  8
0
 10
30.76
 20
10.96
 11
30.76
 21
5.03999
  0
LINE
  8
0
 10
30.76
 20
5.03999
 11
30.04
 21
5.03999
  0
LINE
  8
0
 10
20.06
 20
5.06
 11
20.06
 21
10.94
  0
LINE
  8
0
 10
20.06
 20
10.94
 11
20.74
 21
10.94
  0
LINE
  8
0
 10
20.74
 20
10.94
 11
20.74
 21
5.06
  0
LINE
  8
0
 10
20.74
 20
5.06
 11
20.06
 21
5.06
  0
LINE
  8
0
 10
10.08
 20
5.08
 11
10.08
 21
10.92
  0
LINE
  8
0
 10
10.08
 20
10.92
 11
10.72
 21
10.92
  0
LINE
  8
0
 10
10.72
 20
10.92
 11
10.72
 21
5.08
  0
LINE
  8
0
 10
10.72
 20
5.08
 11
10.08
 21
5.08
  0
ENDSEC
  0
SECTION
  2
OBJECTS
  0
DICTIONARY
  0
ENDSEC
  0
EOF
