<?xml version="1.0" encoding="UTF-8" standalone="no"?>
<!-- Created with Inkscape (http://www.inkscape.org/) -->

<svg
   xmlns:dc="http://purl.org/dc/elements/1.1/"
   xmlns:cc="http://creativecommons.org/ns#"
   xmlns:rdf="http://www.w3.org/1999/02/22-rdf-syntax-ns#"
   xmlns:svg="http://www.w3.org/2000/svg"
   xmlns="http://www.w3.org/2000/svg"
   xmlns:sodipodi="http://sodipodi.sourceforge.net/DTD/sodipodi-0.dtd"
   xmlns:inkscape="http://www.inkscape.org/namespaces/inkscape"
   id="svg2"
   version="1.1"
   inkscape:version="0.91 r13725"
   xml:space="preserve"
   width="1052.5"
   height="743.75"
   viewBox="0 0 1052.5 743.75"
   sodipodi:docname="millihertz_f_logo.svg"><metadata
     id="metadata8"><rdf:RDF><cc:Work
         rdf:about=""><dc:format>image/svg+xml</dc:format><dc:type
           rdf:resource="http://purl.org/dc/dcmitype/StillImage" /><dc:title></dc:title></cc:Work></rdf:RDF></metadata><defs
     id="defs6" /><sodipodi:namedview
     pagecolor="#ffffff"
     bordercolor="#666666"
     borderopacity="1"
     objecttolerance="10"
     gridtolerance="10"
     guidetolerance="10"
     inkscape:pageopacity="0"
     inkscape:pageshadow="2"
     inkscape:window-width="1855"
     inkscape:window-height="1176"
     id="namedview4"
     showgrid="false"
     inkscape:zoom="5.0769748"
     inkscape:cx="499.67345"
     inkscape:cy="394.41432"
     inkscape:window-x="65"
     inkscape:window-y="24"
     inkscape:window-maximized="1"
     inkscape:current-layer="g10" /><g
     id="g10"
     inkscape:groupmode="layer"
     inkscape:label="temp"
     transform="matrix(1.25,0,0,-1.25,0,743.75)"><g
       id="g14"
       transform="matrix(0.06,0,0,-0.06,0,595)"><g
         id="g16" /></g><path
       id="path78"
       style="fill:none;stroke:#000000;stroke-width:4.8;stroke-linecap:round;stroke-linejoin:round;stroke-miterlimit:10;stroke-dasharray:none;stroke-opacity:1"
       d="m 400.33774,325.66422 0,-19.86 m 0,46.5 0,-14.58 m 0,-31.92 0,-0.12 0,-0.12 -0.06,-0.12 0,-0.06 -0.06,-0.12 -0.06,-0.12 -0.06,-0.12 -0.06,-0.06 -0.12,-0.12 -0.06,-0.06 -0.12,-0.12 -0.06,-0.06 -0.12,-0.06 -0.12,0 -0.12,-0.06 -0.12,-0.06 -0.06,0 m -21.48,-3.78 21.48,3.78 m 1.2,21.24 0,0.12 0,0.12 0.06,0.12 0,0.06 0.06,0.12 0.06,0.12 0.06,0.12 0.06,0.06 0.12,0.12 0.06,0.06 0.06,0.12 0.12,0.06 0.12,0.06 0.12,0 0.12,0.06 0.12,0.06 m 20.58,3.6 -20.58,-3.6 m -1.14,25.26 0,0.12 0,0.12 0.06,0.12 0,0.06 0.06,0.12 0.06,0.12 0.06,0.12 0.06,0.06 0.12,0.12 0.06,0.06 0.06,0.12 0.12,0.06 0.12,0.06 0.12,0 0.12,0.06 0.12,0.06 m 0,0 21.42,3.78 m -21.42,-21.12 -0.06,0 -0.12,0.06 -0.12,0.06 -0.12,0.06 -0.12,0.06 -0.06,0.06 -0.12,0.06 -0.06,0.12 -0.06,0.06 -0.12,0.12 -0.06,0.12 0,0.12 -0.06,0.06 -0.06,0.12 0,0.12 0,0.12 0,0.06 m 21.72,-4.98 -20.58,3.6 m 20.58,-3.6 0.12,-0.06 0.12,0 0.06,-0.06 0.12,-0.06 0.12,-0.12 0.06,-0.06 0.06,-0.12 0.06,-0.06 0.06,-0.12 0.06,-0.12 0,-0.12 0,-0.12 0,-0.12 0,-0.12 -0.06,-0.12 0,-0.12 -0.06,-0.12 -0.06,-0.06 -0.12,-0.12 -0.06,-0.06 -0.12,-0.06 -0.12,-0.06 -0.06,-0.06 -0.12,-0.06 -0.06,0"
       inkscape:connector-curvature="0" /><path
       style="fill:#999999;fill-opacity:0;stroke:#000000;stroke-width:4.59040022;stroke-linejoin:round;stroke-miterlimit:10;stroke-dasharray:none;stroke-dashoffset:0;stroke-opacity:1"
       d="m 443.66165,-329.05423 a 43.383907,43.383907 0 0 1 -43.38391,43.38391 43.383907,43.383907 0 0 1 -43.38391,-43.38391 43.383907,43.383907 0 0 1 43.38391,-43.38391 43.383907,43.383907 0 0 1 43.38391,43.38391 z"
       id="path4300"
       transform="scale(1,-1)" /><circle
       style="fill:#000000;fill-opacity:0.50140848;stroke:none;stroke-width:3.91322112;stroke-linejoin:round;stroke-miterlimit:10;stroke-dasharray:none;stroke-dashoffset:0;stroke-opacity:1"
       id="path4321"
       cx="384.40219"
       cy="-343.43286"
       r="9.8718262"
       transform="scale(1,-1)" /></g></svg>