  0
SECTION
  2
BLOCKS
  0
ENDSEC
  0
SECTION
  2
ENTITIES
  0
LINE
  8
0
 10
27.1
 20
175
 11
27.1
 21
180.5
  0
LINE
  8
0
 10
27.1
 20
180.5
 11
27
 21
180.6
  0
LINE
  8
0
 10
27
 20
180.6
 11
23
 21
180.6
  0
LINE
  8
0
 10
23
 20
180.6
 11
22.9
 21
180.5
  0
LINE
  8
0
 10
22.9
 20
180.5
 11
22.9
 21
180.1
  0
LINE
  8
0
 10
22.9
 20
180.1
 11
13.1
 21
180.1
  0
LINE
  8
0
 10
13.1
 20
180.1
 11
13.1
 21
184.4
  0
LINE
  8
0
 10
13.1
 20
184.4
 11
14
 21
184.4
  0
LINE
  8
0
 10
14
 20
184.4
 11
14.1
 21
184.5
  0
LINE
  8
0
 10
14.1
 20
184.5
 11
14.1
 21
186
  0
LINE
  8
0
 10
14.1
 20
186
 11
14
 21
186.1
  0
LINE
  8
0
 10
14
 20
186.1
 11
13.6
 21
186.1
  0
LINE
  8
0
 10
13.6
 20
186.1
 11
13.6
 21
187.9
  0
LINE
  8
0
 10
13.6
 20
187.9
 11
16.8
 21
187.9
  0
LINE
  8
0
 10
16.8
 20
187.9
 11
16.8
 21
186.1
  0
LINE
  8
0
 10
16.8
 20
186.1
 11
16.4
 21
186.1
  0
LINE
  8
0
 10
16.4
 20
186.1
 11
16.3
 21
186
  0
LINE
  8
0
 10
16.3
 20
186
 11
16.3
 21
184.5
  0
LINE
  8
0
 10
16.3
 20
184.5
 11
16.4
 21
184.4
  0
LINE
  8
0
 10
16.4
 20
184.4
 11
19.6
 21
184.4
  0
LINE
  8
0
 10
19.6
 20
184.4
 11
19.7
 21
184.5
  0
LINE
  8
0
 10
19.7
 20
184.5
 11
19.7
 21
186
  0
LINE
  8
0
 10
19.7
 20
186
 11
19.6
 21
186.1
  0
LINE
  8
0
 10
19.6
 20
186.1
 11
19.2
 21
186.1
  0
LINE
  8
0
 10
19.2
 20
186.1
 11
19.2
 21
187.9
  0
LINE
  8
0
 10
19.2
 20
187.9
 11
22.4
 21
187.9
  0
LINE
  8
0
 10
22.4
 20
187.9
 11
22.4
 21
186.1
  0
LINE
  8
0
 10
22.4
 20
186.1
 11
22
 21
186.1
  0
LINE
  8
0
 10
22
 20
186.1
 11
21.9
 21
186
  0
LINE
  8
0
 10
21.9
 20
186
 11
21.9
 21
184.5
  0
LINE
  8
0
 10
21.9
 20
184.5
 11
22
 21
184.4
  0
LINE
  8
0
 10
22
 20
184.4
 11
22.9
 21
184.4
  0
LINE
  8
0
 10
22.9
 20
184.4
 11
22.9
 21
182.5
  0
LINE
  8
0
 10
22.9
 20
182.5
 11
23
 21
182.4
  0
LINE
  8
0
 10
23
 20
182.4
 11
27
 21
182.4
  0
LINE
  8
0
 10
27
 20
182.4
 11
27.1
 21
182.5
  0
LINE
  8
0
 10
27.1
 20
182.5
 11
27.1
 21
193
  0
LINE
  8
0
 10
27.1
 20
193
 11
27
 21
193.1
  0
LINE
  8
0
 10
27
 20
193.1
 11
5
 21
193.1
  0
LINE
  8
0
 10
5
 20
193.1
 11
4.89999
 21
193
  0
LINE
  8
0
 10
4.89999
 20
193
 11
4.89999
 21
175
  0
LINE
  8
0
 10
4.89999
 20
175
 11
5
 21
174.9
  0
LINE
  8
0
 10
5
 20
174.9
 11
27
 21
174.9
  0
LINE
  8
0
 10
27
 20
174.9
 11
27.1
 21
175
  0
LINE
  8
0
 10
8.56895
 20
180.173
 11
7.87154
 21
180.68
  0
LINE
  8
0
 10
7.87154
 20
180.68
 11
7.60515
 21
181.5
  0
LINE
  8
0
 10
7.60515
 20
181.5
 11
7.87154
 21
182.32
  0
LINE
  8
0
 10
7.87154
 20
182.32
 11
8.56895
 21
182.827
  0
LINE
  8
0
 10
8.56895
 20
182.827
 11
9.43103
 21
182.827
  0
LINE
  8
0
 10
9.43103
 20
182.827
 11
10.1284
 21
182.32
  0
LINE
  8
0
 10
10.1284
 20
182.32
 11
10.3949
 21
181.5
  0
LINE
  8
0
 10
10.3949
 20
181.5
 11
10.1284
 21
180.68
  0
LINE
  8
0
 10
10.1284
 20
180.68
 11
9.43103
 21
180.173
  0
LINE
  8
0
 10
9.43103
 20
180.173
 11
8.56895
 21
180.173
  0
LINE
  8
0
 10
80.0195
 20
179.902
 11
81.9329
 21
180.283
  0
LINE
  8
0
 10
81.9329
 20
180.283
 11
81.969
 21
180.297
  0
LINE
  8
0
 10
81.969
 20
180.297
 11
83.5911
 21
181.381
  0
LINE
  8
0
 10
83.5911
 20
181.381
 11
83.6187
 21
181.409
  0
LINE
  8
0
 10
83.6187
 20
181.409
 11
84.7025
 21
183.031
  0
LINE
  8
0
 10
84.7025
 20
183.031
 11
84.7175
 21
183.067
  0
LINE
  8
0
 10
84.7175
 20
183.067
 11
85.0981
 21
184.98
  0
LINE
  8
0
 10
85.0981
 20
184.98
 11
85.0981
 21
185.02
  0
LINE
  8
0
 10
85.0981
 20
185.02
 11
84.7175
 21
186.933
  0
LINE
  8
0
 10
84.7175
 20
186.933
 11
84.7025
 21
186.969
  0
LINE
  8
0
 10
84.7025
 20
186.969
 11
83.6187
 21
188.591
  0
LINE
  8
0
 10
83.6187
 20
188.591
 11
83.5911
 21
188.619
  0
LINE
  8
0
 10
83.5911
 20
188.619
 11
81.969
 21
189.703
  0
LINE
  8
0
 10
81.969
 20
189.703
 11
81.9329
 21
189.717
  0
LINE
  8
0
 10
81.9329
 20
189.717
 11
80.0195
 21
190.098
  0
LINE
  8
0
 10
80.0195
 20
190.098
 11
80
 21
190.1
  0
LINE
  8
0
 10
80
 20
190.1
 11
45
 21
190.1
  0
LINE
  8
0
 10
45
 20
190.1
 11
44.9805
 21
190.098
  0
LINE
  8
0
 10
44.9805
 20
190.098
 11
43.0671
 21
189.717
  0
LINE
  8
0
 10
43.0671
 20
189.717
 11
43.031
 21
189.703
  0
LINE
  8
0
 10
43.031
 20
189.703
 11
41.4089
 21
188.619
  0
LINE
  8
0
 10
41.4089
 20
188.619
 11
41.3813
 21
188.591
  0
LINE
  8
0
 10
41.3813
 20
188.591
 11
40.2975
 21
186.969
  0
LINE
  8
0
 10
40.2975
 20
186.969
 11
40.2825
 21
186.933
  0
LINE
  8
0
 10
40.2825
 20
186.933
 11
39.9019
 21
185.02
  0
LINE
  8
0
 10
39.9019
 20
185.02
 11
39.9019
 21
184.98
  0
LINE
  8
0
 10
39.9019
 20
184.98
 11
40.2825
 21
183.067
  0
LINE
  8
0
 10
40.2825
 20
183.067
 11
40.2975
 21
183.031
  0
LINE
  8
0
 10
40.2975
 20
183.031
 11
41.3813
 21
181.409
  0
LINE
  8
0
 10
41.3813
 20
181.409
 11
41.4089
 21
181.381
  0
LINE
  8
0
 10
41.4089
 20
181.381
 11
43.031
 21
180.297
  0
LINE
  8
0
 10
43.031
 20
180.297
 11
43.0671
 21
180.283
  0
LINE
  8
0
 10
43.0671
 20
180.283
 11
44.9805
 21
179.902
  0
LINE
  8
0
 10
44.9805
 20
179.902
 11
45
 21
179.9
  0
LINE
  8
0
 10
45
 20
179.9
 11
80
 21
179.9
  0
LINE
  8
0
 10
80
 20
179.9
 11
80.0195
 21
179.902
  0
LINE
  8
0
 10
43.8865
 20
184.191
 11
43.8865
 21
185.809
  0
LINE
  8
0
 10
43.8865
 20
185.809
 11
45.4253
 21
186.309
  0
LINE
  8
0
 10
45.4253
 20
186.309
 11
46.3764
 21
185
  0
LINE
  8
0
 10
46.3764
 20
185
 11
45.4253
 21
183.691
  0
LINE
  8
0
 10
45.4253
 20
183.691
 11
43.8865
 21
184.191
  0
LINE
  8
0
 10
78.8865
 20
184.191
 11
78.8865
 21
185.809
  0
LINE
  8
0
 10
78.8865
 20
185.809
 11
80.4253
 21
186.309
  0
LINE
  8
0
 10
80.4253
 20
186.309
 11
81.3764
 21
185
  0
LINE
  8
0
 10
81.3764
 20
185
 11
80.4253
 21
183.691
  0
LINE
  8
0
 10
80.4253
 20
183.691
 11
78.8865
 21
184.191
  0
LINE
  8
0
 10
210.1
 20
167
 11
210.1
 21
169.9
  0
LINE
  8
0
 10
210.1
 20
169.9
 11
220
 21
169.9
  0
LINE
  8
0
 10
220
 20
169.9
 11
220.095
 21
169.969
  0
LINE
  8
0
 10
220.095
 20
169.969
 11
220.045
 21
170.089
  0
LINE
  8
0
 10
220.045
 20
170.089
 11
210.045
 21
175.089
  0
LINE
  8
0
 10
210.045
 20
175.089
 11
210
 21
175.1
  0
LINE
  8
0
 10
210
 20
175.1
 11
200
 21
175.1
  0
LINE
  8
0
 10
200
 20
175.1
 11
199.929
 21
175.071
  0
LINE
  8
0
 10
199.929
 20
175.071
 11
194.929
 21
170.071
  0
LINE
  8
0
 10
194.929
 20
170.071
 11
194.911
 21
169.955
  0
LINE
  8
0
 10
194.911
 20
169.955
 11
195
 21
169.9
  0
LINE
  8
0
 10
195
 20
169.9
 11
199.9
 21
169.9
  0
LINE
  8
0
 10
199.9
 20
169.9
 11
199.9
 21
167
  0
LINE
  8
0
 10
199.9
 20
167
 11
200
 21
166.9
  0
LINE
  8
0
 10
200
 20
166.9
 11
210
 21
166.9
  0
LINE
  8
0
 10
210
 20
166.9
 11
210.1
 21
167
  0
LINE
  8
0
 10
7
 20
130
 11
7
 21
132.9
  0
LINE
  8
0
 10
7
 20
132.9
 11
12.2
 21
132.9
  0
LINE
  8
0
 10
12.2
 20
132.9
 11
12.2
 21
130
  0
LINE
  8
0
 10
12.2
 20
130
 11
12.3
 21
129.9
  0
LINE
  8
0
 10
12.3
 20
129.9
 11
94.3
 21
129.9
  0
LINE
  8
0
 10
94.3
 20
129.9
 11
94.4
 21
130
  0
LINE
  8
0
 10
94.4
 20
130
 11
94.4
 21
132.9
  0
LINE
  8
0
 10
94.4
 20
132.9
 11
99.6
 21
132.9
  0
LINE
  8
0
 10
99.6
 20
132.9
 11
99.6
 21
130
  0
LINE
  8
0
 10
99.6
 20
130
 11
99.7
 21
129.9
  0
LINE
  8
0
 10
99.7
 20
129.9
 11
181.7
 21
129.9
  0
LINE
  8
0
 10
181.7
 20
129.9
 11
181.8
 21
130
  0
LINE
  8
0
 10
181.8
 20
130
 11
181.8
 21
132.9
  0
LINE
  8
0
 10
181.8
 20
132.9
 11
187
 21
132.9
  0
LINE
  8
0
 10
187
 20
132.9
 11
187
 21
130
  0
LINE
  8
0
 10
187
 20
130
 11
187.1
 21
129.9
  0
LINE
  8
0
 10
187.1
 20
129.9
 11
189
 21
129.9
  0
LINE
  8
0
 10
189
 20
129.9
 11
189.1
 21
130
  0
LINE
  8
0
 10
189.1
 20
130
 11
189.1
 21
140
  0
LINE
  8
0
 10
189.1
 20
140
 11
189
 21
140.1
  0
LINE
  8
0
 10
189
 20
140.1
 11
186.1
 21
140.1
  0
LINE
  8
0
 10
186.1
 20
140.1
 11
186.1
 21
144.9
  0
LINE
  8
0
 10
186.1
 20
144.9
 11
189
 21
144.9
  0
LINE
  8
0
 10
189
 20
144.9
 11
189.1
 21
145
  0
LINE
  8
0
 10
189.1
 20
145
 11
189.1
 21
155
  0
LINE
  8
0
 10
189.1
 20
155
 11
189
 21
155.1
  0
LINE
  8
0
 10
189
 20
155.1
 11
186.1
 21
155.1
  0
LINE
  8
0
 10
186.1
 20
155.1
 11
186.1
 21
159.9
  0
LINE
  8
0
 10
186.1
 20
159.9
 11
189
 21
159.9
  0
LINE
  8
0
 10
189
 20
159.9
 11
189.1
 21
160
  0
LINE
  8
0
 10
189.1
 20
160
 11
189.1
 21
167
  0
LINE
  8
0
 10
189.1
 20
167
 11
189
 21
167.1
  0
LINE
  8
0
 10
189
 20
167.1
 11
187.1
 21
167.1
  0
LINE
  8
0
 10
187.1
 20
167.1
 11
187
 21
167
  0
LINE
  8
0
 10
187
 20
167
 11
187
 21
164.1
  0
LINE
  8
0
 10
187
 20
164.1
 11
181.8
 21
164.1
  0
LINE
  8
0
 10
181.8
 20
164.1
 11
181.8
 21
167
  0
LINE
  8
0
 10
181.8
 20
167
 11
181.7
 21
167.1
  0
LINE
  8
0
 10
181.7
 20
167.1
 11
99.7
 21
167.1
  0
LINE
  8
0
 10
99.7
 20
167.1
 11
99.6
 21
167
  0
LINE
  8
0
 10
99.6
 20
167
 11
99.6
 21
164.1
  0
LINE
  8
0
 10
99.6
 20
164.1
 11
94.4
 21
164.1
  0
LINE
  8
0
 10
94.4
 20
164.1
 11
94.4
 21
167
  0
LINE
  8
0
 10
94.4
 20
167
 11
94.3
 21
167.1
  0
LINE
  8
0
 10
94.3
 20
167.1
 11
12.3
 21
167.1
  0
LINE
  8
0
 10
12.3
 20
167.1
 11
12.2
 21
167
  0
LINE
  8
0
 10
12.2
 20
167
 11
12.2
 21
164.1
  0
LINE
  8
0
 10
12.2
 20
164.1
 11
7
 21
164.1
  0
LINE
  8
0
 10
7
 20
164.1
 11
7
 21
167
  0
LINE
  8
0
 10
7
 20
167
 11
6.89999
 21
167.1
  0
LINE
  8
0
 10
6.89999
 20
167.1
 11
5
 21
167.1
  0
LINE
  8
0
 10
5
 20
167.1
 11
4.89999
 21
167
  0
LINE
  8
0
 10
4.89999
 20
167
 11
4.89999
 21
160
  0
LINE
  8
0
 10
4.89999
 20
160
 11
5
 21
159.9
  0
LINE
  8
0
 10
5
 20
159.9
 11
7.89999
 21
159.9
  0
LINE
  8
0
 10
7.89999
 20
159.9
 11
7.89999
 21
155.1
  0
LINE
  8
0
 10
7.89999
 20
155.1
 11
5
 21
155.1
  0
LINE
  8
0
 10
5
 20
155.1
 11
4.89999
 21
155
  0
LINE
  8
0
 10
4.89999
 20
155
 11
4.89999
 21
145
  0
LINE
  8
0
 10
4.89999
 20
145
 11
5
 21
144.9
  0
LINE
  8
0
 10
5
 20
144.9
 11
7.89999
 21
144.9
  0
LINE
  8
0
 10
7.89999
 20
144.9
 11
7.89999
 21
140.1
  0
LINE
  8
0
 10
7.89999
 20
140.1
 11
5
 21
140.1
  0
LINE
  8
0
 10
5
 20
140.1
 11
4.89999
 21
140
  0
LINE
  8
0
 10
4.89999
 20
140
 11
4.89999
 21
130
  0
LINE
  8
0
 10
4.89999
 20
130
 11
5
 21
129.9
  0
LINE
  8
0
 10
5
 20
129.9
 11
6.89999
 21
129.9
  0
LINE
  8
0
 10
6.89999
 20
129.9
 11
7
 21
130
  0
LINE
  8
0
 10
14.9862
 20
145.341
 11
13.6206
 21
146.037
  0
LINE
  8
0
 10
13.6206
 20
146.037
 11
12.5368
 21
147.121
  0
LINE
  8
0
 10
12.5368
 20
147.121
 11
11.841
 21
148.486
  0
LINE
  8
0
 10
11.841
 20
148.486
 11
11.6012
 21
150
  0
LINE
  8
0
 10
11.6012
 20
150
 11
11.8418
 21
151.519
  0
LINE
  8
0
 10
11.8418
 20
151.519
 11
13.5717
 21
155.94
  0
LINE
  8
0
 10
13.5717
 20
155.94
 11
14.0133
 21
156.807
  0
LINE
  8
0
 10
14.0133
 20
156.807
 11
14.6933
 21
157.487
  0
LINE
  8
0
 10
14.6933
 20
157.487
 11
15.5501
 21
157.923
  0
LINE
  8
0
 10
15.5501
 20
157.923
 11
16.5
 21
158.074
  0
LINE
  8
0
 10
16.5
 20
158.074
 11
17.4499
 21
157.923
  0
LINE
  8
0
 10
17.4499
 20
157.923
 11
18.3067
 21
157.487
  0
LINE
  8
0
 10
18.3067
 20
157.487
 11
18.9867
 21
156.807
  0
LINE
  8
0
 10
18.9867
 20
156.807
 11
19.4282
 21
155.94
  0
LINE
  8
0
 10
19.4282
 20
155.94
 11
21.1582
 21
151.519
  0
LINE
  8
0
 10
21.1582
 20
151.519
 11
21.3988
 21
150
  0
LINE
  8
0
 10
21.3988
 20
150
 11
21.159
 21
148.486
  0
LINE
  8
0
 10
21.159
 20
148.486
 11
20.4632
 21
147.121
  0
LINE
  8
0
 10
20.4632
 20
147.121
 11
19.3794
 21
146.037
  0
LINE
  8
0
 10
19.3794
 20
146.037
 11
18.0138
 21
145.341
  0
LINE
  8
0
 10
18.0138
 20
145.341
 11
16.5
 21
145.101
  0
LINE
  8
0
 10
16.5
 20
145.101
 11
14.9862
 21
145.341
  0
LINE
  8
0
 10
37.9862
 20
145.341
 11
36.6206
 21
146.037
  0
LINE
  8
0
 10
36.6206
 20
146.037
 11
35.5368
 21
147.121
  0
LINE
  8
0
 10
35.5368
 20
147.121
 11
34.841
 21
148.486
  0
LINE
  8
0
 10
34.841
 20
148.486
 11
34.6012
 21
150
  0
LINE
  8
0
 10
34.6012
 20
150
 11
34.8418
 21
151.519
  0
LINE
  8
0
 10
34.8418
 20
151.519
 11
36.5717
 21
155.94
  0
LINE
  8
0
 10
36.5717
 20
155.94
 11
37.0133
 21
156.807
  0
LINE
  8
0
 10
37.0133
 20
156.807
 11
37.6933
 21
157.487
  0
LINE
  8
0
 10
37.6933
 20
157.487
 11
38.5501
 21
157.923
  0
LINE
  8
0
 10
38.5501
 20
157.923
 11
39.5
 21
158.074
  0
LINE
  8
0
 10
39.5
 20
158.074
 11
40.4499
 21
157.923
  0
LINE
  8
0
 10
40.4499
 20
157.923
 11
41.3067
 21
157.487
  0
LINE
  8
0
 10
41.3067
 20
157.487
 11
41.9867
 21
156.807
  0
LINE
  8
0
 10
41.9867
 20
156.807
 11
42.4282
 21
155.94
  0
LINE
  8
0
 10
42.4282
 20
155.94
 11
44.1582
 21
151.519
  0
LINE
  8
0
 10
44.1582
 20
151.519
 11
44.3988
 21
150
  0
LINE
  8
0
 10
44.3988
 20
150
 11
44.159
 21
148.486
  0
LINE
  8
0
 10
44.159
 20
148.486
 11
43.4632
 21
147.121
  0
LINE
  8
0
 10
43.4632
 20
147.121
 11
42.3794
 21
146.037
  0
LINE
  8
0
 10
42.3794
 20
146.037
 11
41.0138
 21
145.341
  0
LINE
  8
0
 10
41.0138
 20
145.341
 11
39.5
 21
145.101
  0
LINE
  8
0
 10
39.5
 20
145.101
 11
37.9862
 21
145.341
  0
LINE
  8
0
 10
60.9862
 20
145.341
 11
59.6206
 21
146.037
  0
LINE
  8
0
 10
59.6206
 20
146.037
 11
58.5368
 21
147.121
  0
LINE
  8
0
 10
58.5368
 20
147.121
 11
57.841
 21
148.486
  0
LINE
  8
0
 10
57.841
 20
148.486
 11
57.6012
 21
150
  0
LINE
  8
0
 10
57.6012
 20
150
 11
57.8418
 21
151.519
  0
LINE
  8
0
 10
57.8418
 20
151.519
 11
59.5717
 21
155.94
  0
LINE
  8
0
 10
59.5717
 20
155.94
 11
60.0133
 21
156.807
  0
LINE
  8
0
 10
60.0133
 20
156.807
 11
60.6933
 21
157.487
  0
LINE
  8
0
 10
60.6933
 20
157.487
 11
61.5501
 21
157.923
  0
LINE
  8
0
 10
61.5501
 20
157.923
 11
62.5
 21
158.074
  0
LINE
  8
0
 10
62.5
 20
158.074
 11
63.4499
 21
157.923
  0
LINE
  8
0
 10
63.4499
 20
157.923
 11
64.3067
 21
157.487
  0
LINE
  8
0
 10
64.3067
 20
157.487
 11
64.9867
 21
156.807
  0
LINE
  8
0
 10
64.9867
 20
156.807
 11
65.4282
 21
155.94
  0
LINE
  8
0
 10
65.4282
 20
155.94
 11
67.1582
 21
151.519
  0
LINE
  8
0
 10
67.1582
 20
151.519
 11
67.3988
 21
150
  0
LINE
  8
0
 10
67.3988
 20
150
 11
67.159
 21
148.486
  0
LINE
  8
0
 10
67.159
 20
148.486
 11
66.4632
 21
147.121
  0
LINE
  8
0
 10
66.4632
 20
147.121
 11
65.3794
 21
146.037
  0
LINE
  8
0
 10
65.3794
 20
146.037
 11
64.0138
 21
145.341
  0
LINE
  8
0
 10
64.0138
 20
145.341
 11
62.5
 21
145.101
  0
LINE
  8
0
 10
62.5
 20
145.101
 11
60.9862
 21
145.341
  0
LINE
  8
0
 10
83.9862
 20
145.341
 11
82.6206
 21
146.037
  0
LINE
  8
0
 10
82.6206
 20
146.037
 11
81.5368
 21
147.121
  0
LINE
  8
0
 10
81.5368
 20
147.121
 11
80.841
 21
148.486
  0
LINE
  8
0
 10
80.841
 20
148.486
 11
80.6012
 21
150
  0
LINE
  8
0
 10
80.6012
 20
150
 11
80.8418
 21
151.519
  0
LINE
  8
0
 10
80.8418
 20
151.519
 11
82.5717
 21
155.94
  0
LINE
  8
0
 10
82.5717
 20
155.94
 11
83.0133
 21
156.807
  0
LINE
  8
0
 10
83.0133
 20
156.807
 11
83.6933
 21
157.487
  0
LINE
  8
0
 10
83.6933
 20
157.487
 11
84.5501
 21
157.923
  0
LINE
  8
0
 10
84.5501
 20
157.923
 11
85.5
 21
158.074
  0
LINE
  8
0
 10
85.5
 20
158.074
 11
86.4499
 21
157.923
  0
LINE
  8
0
 10
86.4499
 20
157.923
 11
87.3067
 21
157.487
  0
LINE
  8
0
 10
87.3067
 20
157.487
 11
87.9867
 21
156.807
  0
LINE
  8
0
 10
87.9867
 20
156.807
 11
88.4282
 21
155.94
  0
LINE
  8
0
 10
88.4282
 20
155.94
 11
90.1582
 21
151.519
  0
LINE
  8
0
 10
90.1582
 20
151.519
 11
90.3988
 21
150
  0
LINE
  8
0
 10
90.3988
 20
150
 11
90.159
 21
148.486
  0
LINE
  8
0
 10
90.159
 20
148.486
 11
89.4632
 21
147.121
  0
LINE
  8
0
 10
89.4632
 20
147.121
 11
88.3794
 21
146.037
  0
LINE
  8
0
 10
88.3794
 20
146.037
 11
87.0138
 21
145.341
  0
LINE
  8
0
 10
87.0138
 20
145.341
 11
85.5
 21
145.101
  0
LINE
  8
0
 10
85.5
 20
145.101
 11
83.9862
 21
145.341
  0
LINE
  8
0
 10
106.986
 20
145.341
 11
105.621
 21
146.037
  0
LINE
  8
0
 10
105.621
 20
146.037
 11
104.537
 21
147.121
  0
LINE
  8
0
 10
104.537
 20
147.121
 11
103.841
 21
148.486
  0
LINE
  8
0
 10
103.841
 20
148.486
 11
103.601
 21
150
  0
LINE
  8
0
 10
103.601
 20
150
 11
103.842
 21
151.519
  0
LINE
  8
0
 10
103.842
 20
151.519
 11
105.572
 21
155.94
  0
LINE
  8
0
 10
105.572
 20
155.94
 11
106.013
 21
156.807
  0
LINE
  8
0
 10
106.013
 20
156.807
 11
106.693
 21
157.487
  0
LINE
  8
0
 10
106.693
 20
157.487
 11
107.55
 21
157.923
  0
LINE
  8
0
 10
107.55
 20
157.923
 11
108.5
 21
158.074
  0
LINE
  8
0
 10
108.5
 20
158.074
 11
109.45
 21
157.923
  0
LINE
  8
0
 10
109.45
 20
157.923
 11
110.307
 21
157.487
  0
LINE
  8
0
 10
110.307
 20
157.487
 11
110.987
 21
156.807
  0
LINE
  8
0
 10
110.987
 20
156.807
 11
111.428
 21
155.94
  0
LINE
  8
0
 10
111.428
 20
155.94
 11
113.158
 21
151.519
  0
LINE
  8
0
 10
113.158
 20
151.519
 11
113.399
 21
150
  0
LINE
  8
0
 10
113.399
 20
150
 11
113.159
 21
148.486
  0
LINE
  8
0
 10
113.159
 20
148.486
 11
112.463
 21
147.121
  0
LINE
  8
0
 10
112.463
 20
147.121
 11
111.379
 21
146.037
  0
LINE
  8
0
 10
111.379
 20
146.037
 11
110.014
 21
145.341
  0
LINE
  8
0
 10
110.014
 20
145.341
 11
108.5
 21
145.101
  0
LINE
  8
0
 10
108.5
 20
145.101
 11
106.986
 21
145.341
  0
LINE
  8
0
 10
129.986
 20
145.341
 11
128.621
 21
146.037
  0
LINE
  8
0
 10
128.621
 20
146.037
 11
127.537
 21
147.121
  0
LINE
  8
0
 10
127.537
 20
147.121
 11
126.841
 21
148.486
  0
LINE
  8
0
 10
126.841
 20
148.486
 11
126.601
 21
150
  0
LINE
  8
0
 10
126.601
 20
150
 11
126.842
 21
151.519
  0
LINE
  8
0
 10
126.842
 20
151.519
 11
128.572
 21
155.94
  0
LINE
  8
0
 10
128.572
 20
155.94
 11
129.013
 21
156.807
  0
LINE
  8
0
 10
129.013
 20
156.807
 11
129.693
 21
157.487
  0
LINE
  8
0
 10
129.693
 20
157.487
 11
130.55
 21
157.923
  0
LINE
  8
0
 10
130.55
 20
157.923
 11
131.5
 21
158.074
  0
LINE
  8
0
 10
131.5
 20
158.074
 11
132.45
 21
157.923
  0
LINE
  8
0
 10
132.45
 20
157.923
 11
133.307
 21
157.487
  0
LINE
  8
0
 10
133.307
 20
157.487
 11
133.987
 21
156.807
  0
LINE
  8
0
 10
133.987
 20
156.807
 11
134.428
 21
155.94
  0
LINE
  8
0
 10
134.428
 20
155.94
 11
136.158
 21
151.519
  0
LINE
  8
0
 10
136.158
 20
151.519
 11
136.399
 21
150
  0
LINE
  8
0
 10
136.399
 20
150
 11
136.159
 21
148.486
  0
LINE
  8
0
 10
136.159
 20
148.486
 11
135.463
 21
147.121
  0
LINE
  8
0
 10
135.463
 20
147.121
 11
134.379
 21
146.037
  0
LINE
  8
0
 10
134.379
 20
146.037
 11
133.014
 21
145.341
  0
LINE
  8
0
 10
133.014
 20
145.341
 11
131.5
 21
145.101
  0
LINE
  8
0
 10
131.5
 20
145.101
 11
129.986
 21
145.341
  0
LINE
  8
0
 10
152.986
 20
145.341
 11
151.621
 21
146.037
  0
LINE
  8
0
 10
151.621
 20
146.037
 11
150.537
 21
147.121
  0
LINE
  8
0
 10
150.537
 20
147.121
 11
149.841
 21
148.486
  0
LINE
  8
0
 10
149.841
 20
148.486
 11
149.601
 21
150
  0
LINE
  8
0
 10
149.601
 20
150
 11
149.842
 21
151.519
  0
LINE
  8
0
 10
149.842
 20
151.519
 11
151.572
 21
155.94
  0
LINE
  8
0
 10
151.572
 20
155.94
 11
152.013
 21
156.807
  0
LINE
  8
0
 10
152.013
 20
156.807
 11
152.693
 21
157.487
  0
LINE
  8
0
 10
152.693
 20
157.487
 11
153.55
 21
157.923
  0
LINE
  8
0
 10
153.55
 20
157.923
 11
154.5
 21
158.074
  0
LINE
  8
0
 10
154.5
 20
158.074
 11
155.45
 21
157.923
  0
LINE
  8
0
 10
155.45
 20
157.923
 11
156.307
 21
157.487
  0
LINE
  8
0
 10
156.307
 20
157.487
 11
156.987
 21
156.807
  0
LINE
  8
0
 10
156.987
 20
156.807
 11
157.428
 21
155.94
  0
LINE
  8
0
 10
157.428
 20
155.94
 11
159.158
 21
151.519
  0
LINE
  8
0
 10
159.158
 20
151.519
 11
159.399
 21
150
  0
LINE
  8
0
 10
159.399
 20
150
 11
159.159
 21
148.486
  0
LINE
  8
0
 10
159.159
 20
148.486
 11
158.463
 21
147.121
  0
LINE
  8
0
 10
158.463
 20
147.121
 11
157.379
 21
146.037
  0
LINE
  8
0
 10
157.379
 20
146.037
 11
156.014
 21
145.341
  0
LINE
  8
0
 10
156.014
 20
145.341
 11
154.5
 21
145.101
  0
LINE
  8
0
 10
154.5
 20
145.101
 11
152.986
 21
145.341
  0
LINE
  8
0
 10
175.986
 20
145.341
 11
174.621
 21
146.037
  0
LINE
  8
0
 10
174.621
 20
146.037
 11
173.537
 21
147.121
  0
LINE
  8
0
 10
173.537
 20
147.121
 11
172.841
 21
148.486
  0
LINE
  8
0
 10
172.841
 20
148.486
 11
172.601
 21
150
  0
LINE
  8
0
 10
172.601
 20
150
 11
172.842
 21
151.519
  0
LINE
  8
0
 10
172.842
 20
151.519
 11
174.572
 21
155.94
  0
LINE
  8
0
 10
174.572
 20
155.94
 11
175.013
 21
156.807
  0
LINE
  8
0
 10
175.013
 20
156.807
 11
175.693
 21
157.487
  0
LINE
  8
0
 10
175.693
 20
157.487
 11
176.55
 21
157.923
  0
LINE
  8
0
 10
176.55
 20
157.923
 11
177.5
 21
158.074
  0
LINE
  8
0
 10
177.5
 20
158.074
 11
178.45
 21
157.923
  0
LINE
  8
0
 10
178.45
 20
157.923
 11
179.307
 21
157.487
  0
LINE
  8
0
 10
179.307
 20
157.487
 11
179.987
 21
156.807
  0
LINE
  8
0
 10
179.987
 20
156.807
 11
180.428
 21
155.94
  0
LINE
  8
0
 10
180.428
 20
155.94
 11
182.158
 21
151.519
  0
LINE
  8
0
 10
182.158
 20
151.519
 11
182.399
 21
150
  0
LINE
  8
0
 10
182.399
 20
150
 11
182.159
 21
148.486
  0
LINE
  8
0
 10
182.159
 20
148.486
 11
181.463
 21
147.121
  0
LINE
  8
0
 10
181.463
 20
147.121
 11
180.379
 21
146.037
  0
LINE
  8
0
 10
180.379
 20
146.037
 11
179.014
 21
145.341
  0
LINE
  8
0
 10
179.014
 20
145.341
 11
177.5
 21
145.101
  0
LINE
  8
0
 10
177.5
 20
145.101
 11
175.986
 21
145.341
  0
LINE
  8
0
 10
210.1
 20
157
 11
210.1
 21
159.9
  0
LINE
  8
0
 10
210.1
 20
159.9
 11
220
 21
159.9
  0
LINE
  8
0
 10
220
 20
159.9
 11
220.095
 21
159.969
  0
LINE
  8
0
 10
220.095
 20
159.969
 11
220.045
 21
160.089
  0
LINE
  8
0
 10
220.045
 20
160.089
 11
210.045
 21
165.089
  0
LINE
  8
0
 10
210.045
 20
165.089
 11
210
 21
165.1
  0
LINE
  8
0
 10
210
 20
165.1
 11
200
 21
165.1
  0
LINE
  8
0
 10
200
 20
165.1
 11
199.929
 21
165.071
  0
LINE
  8
0
 10
199.929
 20
165.071
 11
194.929
 21
160.071
  0
LINE
  8
0
 10
194.929
 20
160.071
 11
194.911
 21
159.955
  0
LINE
  8
0
 10
194.911
 20
159.955
 11
195
 21
159.9
  0
LINE
  8
0
 10
195
 20
159.9
 11
199.9
 21
159.9
  0
LINE
  8
0
 10
199.9
 20
159.9
 11
199.9
 21
157
  0
LINE
  8
0
 10
199.9
 20
157
 11
200
 21
156.9
  0
LINE
  8
0
 10
200
 20
156.9
 11
210
 21
156.9
  0
LINE
  8
0
 10
210
 20
156.9
 11
210.1
 21
157
  0
LINE
  8
0
 10
210.1
 20
147
 11
210.1
 21
149.9
  0
LINE
  8
0
 10
210.1
 20
149.9
 11
220
 21
149.9
  0
LINE
  8
0
 10
220
 20
149.9
 11
220.095
 21
149.969
  0
LINE
  8
0
 10
220.095
 20
149.969
 11
220.045
 21
150.089
  0
LINE
  8
0
 10
220.045
 20
150.089
 11
210.045
 21
155.089
  0
LINE
  8
0
 10
210.045
 20
155.089
 11
210
 21
155.1
  0
LINE
  8
0
 10
210
 20
155.1
 11
200
 21
155.1
  0
LINE
  8
0
 10
200
 20
155.1
 11
199.929
 21
155.071
  0
LINE
  8
0
 10
199.929
 20
155.071
 11
194.929
 21
150.071
  0
LINE
  8
0
 10
194.929
 20
150.071
 11
194.911
 21
149.955
  0
LINE
  8
0
 10
194.911
 20
149.955
 11
195
 21
149.9
  0
LINE
  8
0
 10
195
 20
149.9
 11
199.9
 21
149.9
  0
LINE
  8
0
 10
199.9
 20
149.9
 11
199.9
 21
147
  0
LINE
  8
0
 10
199.9
 20
147
 11
200
 21
146.9
  0
LINE
  8
0
 10
200
 20
146.9
 11
210
 21
146.9
  0
LINE
  8
0
 10
210
 20
146.9
 11
210.1
 21
147
  0
LINE
  8
0
 10
210.1
 20
137
 11
210.1
 21
139.9
  0
LINE
  8
0
 10
210.1
 20
139.9
 11
220
 21
139.9
  0
LINE
  8
0
 10
220
 20
139.9
 11
220.095
 21
139.969
  0
LINE
  8
0
 10
220.095
 20
139.969
 11
220.045
 21
140.089
  0
LINE
  8
0
 10
220.045
 20
140.089
 11
210.045
 21
145.089
  0
LINE
  8
0
 10
210.045
 20
145.089
 11
210
 21
145.1
  0
LINE
  8
0
 10
210
 20
145.1
 11
200
 21
145.1
  0
LINE
  8
0
 10
200
 20
145.1
 11
199.929
 21
145.071
  0
LINE
  8
0
 10
199.929
 20
145.071
 11
194.929
 21
140.071
  0
LINE
  8
0
 10
194.929
 20
140.071
 11
194.911
 21
139.955
  0
LINE
  8
0
 10
194.911
 20
139.955
 11
195
 21
139.9
  0
LINE
  8
0
 10
195
 20
139.9
 11
199.9
 21
139.9
  0
LINE
  8
0
 10
199.9
 20
139.9
 11
199.9
 21
137
  0
LINE
  8
0
 10
199.9
 20
137
 11
200
 21
136.9
  0
LINE
  8
0
 10
200
 20
136.9
 11
210
 21
136.9
  0
LINE
  8
0
 10
210
 20
136.9
 11
210.1
 21
137
  0
LINE
  8
0
 10
210.1
 20
127
 11
210.1
 21
129.9
  0
LINE
  8
0
 10
210.1
 20
129.9
 11
220
 21
129.9
  0
LINE
  8
0
 10
220
 20
129.9
 11
220.095
 21
129.969
  0
LINE
  8
0
 10
220.095
 20
129.969
 11
220.045
 21
130.089
  0
LINE
  8
0
 10
220.045
 20
130.089
 11
210.045
 21
135.089
  0
LINE
  8
0
 10
210.045
 20
135.089
 11
210
 21
135.1
  0
LINE
  8
0
 10
210
 20
135.1
 11
200
 21
135.1
  0
LINE
  8
0
 10
200
 20
135.1
 11
199.929
 21
135.071
  0
LINE
  8
0
 10
199.929
 20
135.071
 11
194.929
 21
130.071
  0
LINE
  8
0
 10
194.929
 20
130.071
 11
194.911
 21
129.955
  0
LINE
  8
0
 10
194.911
 20
129.955
 11
195
 21
129.9
  0
LINE
  8
0
 10
195
 20
129.9
 11
199.9
 21
129.9
  0
LINE
  8
0
 10
199.9
 20
129.9
 11
199.9
 21
127
  0
LINE
  8
0
 10
199.9
 20
127
 11
200
 21
126.9
  0
LINE
  8
0
 10
200
 20
126.9
 11
210
 21
126.9
  0
LINE
  8
0
 10
210
 20
126.9
 11
210.1
 21
127
  0
LINE
  8
0
 10
210.1
 20
117
 11
210.1
 21
119.9
  0
LINE
  8
0
 10
210.1
 20
119.9
 11
220
 21
119.9
  0
LINE
  8
0
 10
220
 20
119.9
 11
220.095
 21
119.969
  0
LINE
  8
0
 10
220.095
 20
119.969
 11
220.045
 21
120.089
  0
LINE
  8
0
 10
220.045
 20
120.089
 11
210.045
 21
125.089
  0
LINE
  8
0
 10
210.045
 20
125.089
 11
210
 21
125.1
  0
LINE
  8
0
 10
210
 20
125.1
 11
200
 21
125.1
  0
LINE
  8
0
 10
200
 20
125.1
 11
199.929
 21
125.071
  0
LINE
  8
0
 10
199.929
 20
125.071
 11
194.929
 21
120.071
  0
LINE
  8
0
 10
194.929
 20
120.071
 11
194.911
 21
119.955
  0
LINE
  8
0
 10
194.911
 20
119.955
 11
195
 21
119.9
  0
LINE
  8
0
 10
195
 20
119.9
 11
199.9
 21
119.9
  0
LINE
  8
0
 10
199.9
 20
119.9
 11
199.9
 21
117
  0
LINE
  8
0
 10
199.9
 20
117
 11
200
 21
116.9
  0
LINE
  8
0
 10
200
 20
116.9
 11
210
 21
116.9
  0
LINE
  8
0
 10
210
 20
116.9
 11
210.1
 21
117
  0
LINE
  8
0
 10
185.1
 20
90
 11
185.1
 21
100
  0
LINE
  8
0
 10
185.1
 20
100
 11
185
 21
100.1
  0
LINE
  8
0
 10
185
 20
100.1
 11
182.6
 21
100.1
  0
LINE
  8
0
 10
182.6
 20
100.1
 11
182.6
 21
109.9
  0
LINE
  8
0
 10
182.6
 20
109.9
 11
185
 21
109.9
  0
LINE
  8
0
 10
185
 20
109.9
 11
185.1
 21
110
  0
LINE
  8
0
 10
185.1
 20
110
 11
185.1
 21
120
  0
LINE
  8
0
 10
185.1
 20
120
 11
185
 21
120.1
  0
LINE
  8
0
 10
185
 20
120.1
 11
9
 21
120.1
  0
LINE
  8
0
 10
9
 20
120.1
 11
8.89999
 21
120
  0
LINE
  8
0
 10
8.89999
 20
120
 11
8.89999
 21
110
  0
LINE
  8
0
 10
8.89999
 20
110
 11
9
 21
109.9
  0
LINE
  8
0
 10
9
 20
109.9
 11
11.4
 21
109.9
  0
LINE
  8
0
 10
11.4
 20
109.9
 11
11.4
 21
100.1
  0
LINE
  8
0
 10
11.4
 20
100.1
 11
9
 21
100.1
  0
LINE
  8
0
 10
9
 20
100.1
 11
8.89999
 21
100
  0
LINE
  8
0
 10
8.89999
 20
100
 11
8.89999
 21
90
  0
LINE
  8
0
 10
8.89999
 20
90
 11
9
 21
89.9
  0
LINE
  8
0
 10
9
 20
89.9
 11
185
 21
89.9
  0
LINE
  8
0
 10
185
 20
89.9
 11
185.1
 21
90
  0
LINE
  8
0
 10
176.1
 20
107.1
 11
176.1
 21
109.9
  0
LINE
  8
0
 10
176.1
 20
109.9
 11
178.9
 21
109.9
  0
LINE
  8
0
 10
178.9
 20
109.9
 11
178.9
 21
107.1
  0
LINE
  8
0
 10
178.9
 20
107.1
 11
176.1
 21
107.1
  0
LINE
  8
0
 10
169.6
 20
100.1
 11
169.6
 21
109.9
  0
LINE
  8
0
 10
169.6
 20
109.9
 11
172.4
 21
109.9
  0
LINE
  8
0
 10
172.4
 20
109.9
 11
172.4
 21
100.1
  0
LINE
  8
0
 10
172.4
 20
100.1
 11
169.6
 21
100.1
  0
LINE
  8
0
 10
159.6
 20
100.1
 11
159.6
 21
109.9
  0
LINE
  8
0
 10
159.6
 20
109.9
 11
162.4
 21
109.9
  0
LINE
  8
0
 10
162.4
 20
109.9
 11
162.4
 21
100.1
  0
LINE
  8
0
 10
162.4
 20
100.1
 11
159.6
 21
100.1
  0
LINE
  8
0
 10
146.6
 20
100.1
 11
146.6
 21
109.9
  0
LINE
  8
0
 10
146.6
 20
109.9
 11
149.4
 21
109.9
  0
LINE
  8
0
 10
149.4
 20
109.9
 11
149.4
 21
100.1
  0
LINE
  8
0
 10
149.4
 20
100.1
 11
146.6
 21
100.1
  0
LINE
  8
0
 10
136.6
 20
100.1
 11
136.6
 21
109.9
  0
LINE
  8
0
 10
136.6
 20
109.9
 11
139.4
 21
109.9
  0
LINE
  8
0
 10
139.4
 20
109.9
 11
139.4
 21
100.1
  0
LINE
  8
0
 10
139.4
 20
100.1
 11
136.6
 21
100.1
  0
LINE
  8
0
 10
123.6
 20
100.1
 11
123.6
 21
109.9
  0
LINE
  8
0
 10
123.6
 20
109.9
 11
126.4
 21
109.9
  0
LINE
  8
0
 10
126.4
 20
109.9
 11
126.4
 21
100.1
  0
LINE
  8
0
 10
126.4
 20
100.1
 11
123.6
 21
100.1
  0
LINE
  8
0
 10
113.6
 20
100.1
 11
113.6
 21
109.9
  0
LINE
  8
0
 10
113.6
 20
109.9
 11
116.4
 21
109.9
  0
LINE
  8
0
 10
116.4
 20
109.9
 11
116.4
 21
100.1
  0
LINE
  8
0
 10
116.4
 20
100.1
 11
113.6
 21
100.1
  0
LINE
  8
0
 10
100.6
 20
100.1
 11
100.6
 21
109.9
  0
LINE
  8
0
 10
100.6
 20
109.9
 11
103.4
 21
109.9
  0
LINE
  8
0
 10
103.4
 20
109.9
 11
103.4
 21
100.1
  0
LINE
  8
0
 10
103.4
 20
100.1
 11
100.6
 21
100.1
  0
LINE
  8
0
 10
90.6
 20
100.1
 11
90.6
 21
109.9
  0
LINE
  8
0
 10
90.6
 20
109.9
 11
93.4
 21
109.9
  0
LINE
  8
0
 10
93.4
 20
109.9
 11
93.4
 21
100.1
  0
LINE
  8
0
 10
93.4
 20
100.1
 11
90.6
 21
100.1
  0
LINE
  8
0
 10
77.6
 20
100.1
 11
77.6
 21
109.9
  0
LINE
  8
0
 10
77.6
 20
109.9
 11
80.4
 21
109.9
  0
LINE
  8
0
 10
80.4
 20
109.9
 11
80.4
 21
100.1
  0
LINE
  8
0
 10
80.4
 20
100.1
 11
77.6
 21
100.1
  0
LINE
  8
0
 10
67.6
 20
100.1
 11
67.6
 21
109.9
  0
LINE
  8
0
 10
67.6
 20
109.9
 11
70.4
 21
109.9
  0
LINE
  8
0
 10
70.4
 20
109.9
 11
70.4
 21
100.1
  0
LINE
  8
0
 10
70.4
 20
100.1
 11
67.6
 21
100.1
  0
LINE
  8
0
 10
54.6
 20
100.1
 11
54.6
 21
109.9
  0
LINE
  8
0
 10
54.6
 20
109.9
 11
57.4
 21
109.9
  0
LINE
  8
0
 10
57.4
 20
109.9
 11
57.4
 21
100.1
  0
LINE
  8
0
 10
57.4
 20
100.1
 11
54.6
 21
100.1
  0
LINE
  8
0
 10
44.6
 20
100.1
 11
44.6
 21
109.9
  0
LINE
  8
0
 10
44.6
 20
109.9
 11
47.4
 21
109.9
  0
LINE
  8
0
 10
47.4
 20
109.9
 11
47.4
 21
100.1
  0
LINE
  8
0
 10
47.4
 20
100.1
 11
44.6
 21
100.1
  0
LINE
  8
0
 10
31.6
 20
100.1
 11
31.6
 21
109.9
  0
LINE
  8
0
 10
31.6
 20
109.9
 11
34.4
 21
109.9
  0
LINE
  8
0
 10
34.4
 20
109.9
 11
34.4
 21
100.1
  0
LINE
  8
0
 10
34.4
 20
100.1
 11
31.6
 21
100.1
  0
LINE
  8
0
 10
21.6
 20
100.1
 11
21.6
 21
109.9
  0
LINE
  8
0
 10
21.6
 20
109.9
 11
24.4
 21
109.9
  0
LINE
  8
0
 10
24.4
 20
109.9
 11
24.4
 21
100.1
  0
LINE
  8
0
 10
24.4
 20
100.1
 11
21.6
 21
100.1
  0
LINE
  8
0
 10
15.1
 20
107.1
 11
15.1
 21
109.9
  0
LINE
  8
0
 10
15.1
 20
109.9
 11
17.9
 21
109.9
  0
LINE
  8
0
 10
17.9
 20
109.9
 11
17.9
 21
107.1
  0
LINE
  8
0
 10
17.9
 20
107.1
 11
15.1
 21
107.1
  0
LINE
  8
0
 10
176.1
 20
100.1
 11
176.1
 21
102.9
  0
LINE
  8
0
 10
176.1
 20
102.9
 11
178.9
 21
102.9
  0
LINE
  8
0
 10
178.9
 20
102.9
 11
178.9
 21
100.1
  0
LINE
  8
0
 10
178.9
 20
100.1
 11
176.1
 21
100.1
  0
LINE
  8
0
 10
15.1
 20
100.1
 11
15.1
 21
102.9
  0
LINE
  8
0
 10
15.1
 20
102.9
 11
17.9
 21
102.9
  0
LINE
  8
0
 10
17.9
 20
102.9
 11
17.9
 21
100.1
  0
LINE
  8
0
 10
17.9
 20
100.1
 11
15.1
 21
100.1
  0
LINE
  8
0
 10
210.1
 20
107
 11
210.1
 21
109.9
  0
LINE
  8
0
 10
210.1
 20
109.9
 11
220
 21
109.9
  0
LINE
  8
0
 10
220
 20
109.9
 11
220.095
 21
109.969
  0
LINE
  8
0
 10
220.095
 20
109.969
 11
220.045
 21
110.089
  0
LINE
  8
0
 10
220.045
 20
110.089
 11
210.045
 21
115.089
  0
LINE
  8
0
 10
210.045
 20
115.089
 11
210
 21
115.1
  0
LINE
  8
0
 10
210
 20
115.1
 11
200
 21
115.1
  0
LINE
  8
0
 10
200
 20
115.1
 11
199.929
 21
115.071
  0
LINE
  8
0
 10
199.929
 20
115.071
 11
194.929
 21
110.071
  0
LINE
  8
0
 10
194.929
 20
110.071
 11
194.911
 21
109.955
  0
LINE
  8
0
 10
194.911
 20
109.955
 11
195
 21
109.9
  0
LINE
  8
0
 10
195
 20
109.9
 11
199.9
 21
109.9
  0
LINE
  8
0
 10
199.9
 20
109.9
 11
199.9
 21
107
  0
LINE
  8
0
 10
199.9
 20
107
 11
200
 21
106.9
  0
LINE
  8
0
 10
200
 20
106.9
 11
210
 21
106.9
  0
LINE
  8
0
 10
210
 20
106.9
 11
210.1
 21
107
  0
LINE
  8
0
 10
210.1
 20
97
 11
210.1
 21
99.9
  0
LINE
  8
0
 10
210.1
 20
99.9
 11
220
 21
99.9
  0
LINE
  8
0
 10
220
 20
99.9
 11
220.095
 21
99.9691
  0
LINE
  8
0
 10
220.095
 20
99.9691
 11
220.045
 21
100.089
  0
LINE
  8
0
 10
220.045
 20
100.089
 11
210.045
 21
105.089
  0
LINE
  8
0
 10
210.045
 20
105.089
 11
210
 21
105.1
  0
LINE
  8
0
 10
210
 20
105.1
 11
200
 21
105.1
  0
LINE
  8
0
 10
200
 20
105.1
 11
199.929
 21
105.071
  0
LINE
  8
0
 10
199.929
 20
105.071
 11
194.929
 21
100.071
  0
LINE
  8
0
 10
194.929
 20
100.071
 11
194.911
 21
99.9546
  0
LINE
  8
0
 10
194.911
 20
99.9546
 11
195
 21
99.9
  0
LINE
  8
0
 10
195
 20
99.9
 11
199.9
 21
99.9
  0
LINE
  8
0
 10
199.9
 20
99.9
 11
199.9
 21
97
  0
LINE
  8
0
 10
199.9
 20
97
 11
200
 21
96.9
  0
LINE
  8
0
 10
200
 20
96.9
 11
210
 21
96.9
  0
LINE
  8
0
 10
210
 20
96.9
 11
210.1
 21
97
  0
LINE
  8
0
 10
210.1
 20
87
 11
210.1
 21
89.9
  0
LINE
  8
0
 10
210.1
 20
89.9
 11
220
 21
89.9
  0
LINE
  8
0
 10
220
 20
89.9
 11
220.095
 21
89.9691
  0
LINE
  8
0
 10
220.095
 20
89.9691
 11
220.045
 21
90.0894
  0
LINE
  8
0
 10
220.045
 20
90.0894
 11
210.045
 21
95.0894
  0
LINE
  8
0
 10
210.045
 20
95.0894
 11
210
 21
95.1
  0
LINE
  8
0
 10
210
 20
95.1
 11
200
 21
95.1
  0
LINE
  8
0
 10
200
 20
95.1
 11
199.929
 21
95.0707
  0
LINE
  8
0
 10
199.929
 20
95.0707
 11
194.929
 21
90.0707
  0
LINE
  8
0
 10
194.929
 20
90.0707
 11
194.911
 21
89.9546
  0
LINE
  8
0
 10
194.911
 20
89.9546
 11
195
 21
89.9
  0
LINE
  8
0
 10
195
 20
89.9
 11
199.9
 21
89.9
  0
LINE
  8
0
 10
199.9
 20
89.9
 11
199.9
 21
87
  0
LINE
  8
0
 10
199.9
 20
87
 11
200
 21
86.9
  0
LINE
  8
0
 10
200
 20
86.9
 11
210
 21
86.9
  0
LINE
  8
0
 10
210
 20
86.9
 11
210.1
 21
87
  0
LINE
  8
0
 10
210.1
 20
77
 11
210.1
 21
79.9
  0
LINE
  8
0
 10
210.1
 20
79.9
 11
220
 21
79.9
  0
LINE
  8
0
 10
220
 20
79.9
 11
220.095
 21
79.9691
  0
LINE
  8
0
 10
220.095
 20
79.9691
 11
220.045
 21
80.0894
  0
LINE
  8
0
 10
220.045
 20
80.0894
 11
210.045
 21
85.0894
  0
LINE
  8
0
 10
210.045
 20
85.0894
 11
210
 21
85.1
  0
LINE
  8
0
 10
210
 20
85.1
 11
200
 21
85.1
  0
LINE
  8
0
 10
200
 20
85.1
 11
199.929
 21
85.0707
  0
LINE
  8
0
 10
199.929
 20
85.0707
 11
194.929
 21
80.0707
  0
LINE
  8
0
 10
194.929
 20
80.0707
 11
194.911
 21
79.9546
  0
LINE
  8
0
 10
194.911
 20
79.9546
 11
195
 21
79.9
  0
LINE
  8
0
 10
195
 20
79.9
 11
199.9
 21
79.9
  0
LINE
  8
0
 10
199.9
 20
79.9
 11
199.9
 21
77
  0
LINE
  8
0
 10
199.9
 20
77
 11
200
 21
76.9
  0
LINE
  8
0
 10
200
 20
76.9
 11
210
 21
76.9
  0
LINE
  8
0
 10
210
 20
76.9
 11
210.1
 21
77
  0
LINE
  8
0
 10
172.1
 20
55
 11
172.1
 21
64.75
  0
LINE
  8
0
 10
172.1
 20
64.75
 11
172
 21
64.85
  0
LINE
  8
0
 10
172
 20
64.85
 11
167.1
 21
64.85
  0
LINE
  8
0
 10
167.1
 20
64.85
 11
167.1
 21
65.5
  0
LINE
  8
0
 10
167.1
 20
65.5
 11
167
 21
65.6
  0
LINE
  8
0
 10
167
 20
65.6
 11
162
 21
65.6
  0
LINE
  8
0
 10
162
 20
65.6
 11
161.9
 21
65.5
  0
LINE
  8
0
 10
161.9
 20
65.5
 11
161.9
 21
60.1
  0
LINE
  8
0
 10
161.9
 20
60.1
 11
130.1
 21
60.1
  0
LINE
  8
0
 10
130.1
 20
60.1
 11
130.1
 21
77.9
  0
LINE
  8
0
 10
130.1
 20
77.9
 11
161.9
 21
77.9
  0
LINE
  8
0
 10
161.9
 20
77.9
 11
161.9
 21
67.5
  0
LINE
  8
0
 10
161.9
 20
67.5
 11
162
 21
67.4
  0
LINE
  8
0
 10
162
 20
67.4
 11
167
 21
67.4
  0
LINE
  8
0
 10
167
 20
67.4
 11
167.1
 21
67.5
  0
LINE
  8
0
 10
167.1
 20
67.5
 11
167.1
 21
68.15
  0
LINE
  8
0
 10
167.1
 20
68.15
 11
172
 21
68.15
  0
LINE
  8
0
 10
172
 20
68.15
 11
172.1
 21
68.25
  0
LINE
  8
0
 10
172.1
 20
68.25
 11
172.1
 21
83
  0
LINE
  8
0
 10
172.1
 20
83
 11
172
 21
83.1
  0
LINE
  8
0
 10
172
 20
83.1
 11
120
 21
83.1
  0
LINE
  8
0
 10
120
 20
83.1
 11
119.9
 21
83
  0
LINE
  8
0
 10
119.9
 20
83
 11
119.9
 21
55
  0
LINE
  8
0
 10
119.9
 20
55
 11
120
 21
54.9
  0
LINE
  8
0
 10
120
 20
54.9
 11
172
 21
54.9
  0
LINE
  8
0
 10
172
 20
54.9
 11
172.1
 21
55
  0
LINE
  8
0
 10
166.569
 20
76.6734
 11
165.872
 21
77.1801
  0
LINE
  8
0
 10
165.872
 20
77.1801
 11
165.605
 21
78
  0
LINE
  8
0
 10
165.605
 20
78
 11
165.872
 21
78.8199
  0
LINE
  8
0
 10
165.872
 20
78.8199
 11
166.569
 21
79.3266
  0
LINE
  8
0
 10
166.569
 20
79.3266
 11
167.431
 21
79.3266
  0
LINE
  8
0
 10
167.431
 20
79.3266
 11
168.128
 21
78.8199
  0
LINE
  8
0
 10
168.128
 20
78.8199
 11
168.395
 21
78
  0
LINE
  8
0
 10
168.395
 20
78
 11
168.128
 21
77.1801
  0
LINE
  8
0
 10
168.128
 20
77.1801
 11
167.431
 21
76.6734
  0
LINE
  8
0
 10
167.431
 20
76.6734
 11
166.569
 21
76.6734
  0
LINE
  8
0
 10
124.569
 20
76.6734
 11
123.872
 21
77.1801
  0
LINE
  8
0
 10
123.872
 20
77.1801
 11
123.605
 21
78
  0
LINE
  8
0
 10
123.605
 20
78
 11
123.872
 21
78.8199
  0
LINE
  8
0
 10
123.872
 20
78.8199
 11
124.569
 21
79.3266
  0
LINE
  8
0
 10
124.569
 20
79.3266
 11
125.431
 21
79.3266
  0
LINE
  8
0
 10
125.431
 20
79.3266
 11
126.128
 21
78.8199
  0
LINE
  8
0
 10
126.128
 20
78.8199
 11
126.395
 21
78
  0
LINE
  8
0
 10
126.395
 20
78
 11
126.128
 21
77.1801
  0
LINE
  8
0
 10
126.128
 20
77.1801
 11
125.431
 21
76.6734
  0
LINE
  8
0
 10
125.431
 20
76.6734
 11
124.569
 21
76.6734
  0
LINE
  8
0
 10
166.569
 20
58.6734
 11
165.872
 21
59.1801
  0
LINE
  8
0
 10
165.872
 20
59.1801
 11
165.605
 21
60
  0
LINE
  8
0
 10
165.605
 20
60
 11
165.872
 21
60.8199
  0
LINE
  8
0
 10
165.872
 20
60.8199
 11
166.569
 21
61.3266
  0
LINE
  8
0
 10
166.569
 20
61.3266
 11
167.431
 21
61.3266
  0
LINE
  8
0
 10
167.431
 20
61.3266
 11
168.128
 21
60.8199
  0
LINE
  8
0
 10
168.128
 20
60.8199
 11
168.395
 21
60
  0
LINE
  8
0
 10
168.395
 20
60
 11
168.128
 21
59.1801
  0
LINE
  8
0
 10
168.128
 20
59.1801
 11
167.431
 21
58.6734
  0
LINE
  8
0
 10
167.431
 20
58.6734
 11
166.569
 21
58.6734
  0
LINE
  8
0
 10
124.569
 20
58.6734
 11
123.872
 21
59.1801
  0
LINE
  8
0
 10
123.872
 20
59.1801
 11
123.605
 21
60
  0
LINE
  8
0
 10
123.605
 20
60
 11
123.872
 21
60.8199
  0
LINE
  8
0
 10
123.872
 20
60.8199
 11
124.569
 21
61.3266
  0
LINE
  8
0
 10
124.569
 20
61.3266
 11
125.431
 21
61.3266
  0
LINE
  8
0
 10
125.431
 20
61.3266
 11
126.128
 21
60.8199
  0
LINE
  8
0
 10
126.128
 20
60.8199
 11
126.395
 21
60
  0
LINE
  8
0
 10
126.395
 20
60
 11
126.128
 21
59.1801
  0
LINE
  8
0
 10
126.128
 20
59.1801
 11
125.431
 21
58.6734
  0
LINE
  8
0
 10
125.431
 20
58.6734
 11
124.569
 21
58.6734
  0
LINE
  8
0
 10
190.1
 20
55
 11
190.1
 21
83
  0
LINE
  8
0
 10
190.1
 20
83
 11
190
 21
83.1
  0
LINE
  8
0
 10
190
 20
83.1
 11
180
 21
83.1
  0
LINE
  8
0
 10
180
 20
83.1
 11
179.9
 21
83
  0
LINE
  8
0
 10
179.9
 20
83
 11
179.9
 21
55
  0
LINE
  8
0
 10
179.9
 20
55
 11
180
 21
54.9
  0
LINE
  8
0
 10
180
 20
54.9
 11
190
 21
54.9
  0
LINE
  8
0
 10
190
 20
54.9
 11
190.1
 21
55
  0
LINE
  8
0
 10
184.569
 20
76.6734
 11
183.872
 21
77.1801
  0
LINE
  8
0
 10
183.872
 20
77.1801
 11
183.605
 21
78
  0
LINE
  8
0
 10
183.605
 20
78
 11
183.872
 21
78.8199
  0
LINE
  8
0
 10
183.872
 20
78.8199
 11
184.569
 21
79.3266
  0
LINE
  8
0
 10
184.569
 20
79.3266
 11
185.431
 21
79.3266
  0
LINE
  8
0
 10
185.431
 20
79.3266
 11
186.128
 21
78.8199
  0
LINE
  8
0
 10
186.128
 20
78.8199
 11
186.395
 21
78
  0
LINE
  8
0
 10
186.395
 20
78
 11
186.128
 21
77.1801
  0
LINE
  8
0
 10
186.128
 20
77.1801
 11
185.431
 21
76.6734
  0
LINE
  8
0
 10
185.431
 20
76.6734
 11
184.569
 21
76.6734
  0
LINE
  8
0
 10
184.569
 20
58.6734
 11
183.872
 21
59.1801
  0
LINE
  8
0
 10
183.872
 20
59.1801
 11
183.605
 21
60
  0
LINE
  8
0
 10
183.605
 20
60
 11
183.872
 21
60.8199
  0
LINE
  8
0
 10
183.872
 20
60.8199
 11
184.569
 21
61.3266
  0
LINE
  8
0
 10
184.569
 20
61.3266
 11
185.431
 21
61.3266
  0
LINE
  8
0
 10
185.431
 20
61.3266
 11
186.128
 21
60.8199
  0
LINE
  8
0
 10
186.128
 20
60.8199
 11
186.395
 21
60
  0
LINE
  8
0
 10
186.395
 20
60
 11
186.128
 21
59.1801
  0
LINE
  8
0
 10
186.128
 20
59.1801
 11
185.431
 21
58.6734
  0
LINE
  8
0
 10
185.431
 20
58.6734
 11
184.569
 21
58.6734
  0
LINE
  8
0
 10
113.1
 20
55
 11
113.1
 21
58
  0
LINE
  8
0
 10
113.1
 20
58
 11
113
 21
58.1
  0
LINE
  8
0
 10
113
 20
58.1
 11
110.1
 21
58.1
  0
LINE
  8
0
 10
110.1
 20
58.1
 11
110.1
 21
61.9
  0
LINE
  8
0
 10
110.1
 20
61.9
 11
113
 21
61.9
  0
LINE
  8
0
 10
113
 20
61.9
 11
113.1
 21
62
  0
LINE
  8
0
 10
113.1
 20
62
 11
113.1
 21
65
  0
LINE
  8
0
 10
113.1
 20
65
 11
113
 21
65.1
  0
LINE
  8
0
 10
113
 20
65.1
 11
105.1
 21
65.1
  0
LINE
  8
0
 10
105.1
 20
65.1
 11
105.1
 21
75
  0
LINE
  8
0
 10
105.1
 20
75
 11
105
 21
75.1
  0
LINE
  8
0
 10
105
 20
75.1
 11
65
 21
75.1
  0
LINE
  8
0
 10
65
 20
75.1
 11
64.9
 21
75
  0
LINE
  8
0
 10
64.9
 20
75
 11
64.9
 21
55
  0
LINE
  8
0
 10
64.9
 20
55
 11
65
 21
54.9
  0
LINE
  8
0
 10
65
 20
54.9
 11
113
 21
54.9
  0
LINE
  8
0
 10
113
 20
54.9
 11
113.1
 21
55
  0
LINE
  8
0
 10
89.5677
 20
68.6697
 11
89.1779
 21
68.8684
  0
LINE
  8
0
 10
89.1779
 20
68.8684
 11
88.8684
 21
69.1779
  0
LINE
  8
0
 10
88.8684
 20
69.1779
 11
88.6697
 21
69.5677
  0
LINE
  8
0
 10
88.6697
 20
69.5677
 11
88.6012
 21
70
  0
LINE
  8
0
 10
88.6012
 20
70
 11
88.6697
 21
70.4323
  0
LINE
  8
0
 10
88.6697
 20
70.4323
 11
88.8684
 21
70.8221
  0
LINE
  8
0
 10
88.8684
 20
70.8221
 11
89.1779
 21
71.1316
  0
LINE
  8
0
 10
89.1779
 20
71.1316
 11
89.5677
 21
71.3303
  0
LINE
  8
0
 10
89.5677
 20
71.3303
 11
90
 21
71.3988
  0
LINE
  8
0
 10
90
 20
71.3988
 11
90.4323
 21
71.3303
  0
LINE
  8
0
 10
90.4323
 20
71.3303
 11
90.8222
 21
71.1316
  0
LINE
  8
0
 10
90.8222
 20
71.1316
 11
91.1316
 21
70.8221
  0
LINE
  8
0
 10
91.1316
 20
70.8221
 11
91.3303
 21
70.4323
  0
LINE
  8
0
 10
91.3303
 20
70.4323
 11
91.3988
 21
70
  0
LINE
  8
0
 10
91.3988
 20
70
 11
91.3303
 21
69.5677
  0
LINE
  8
0
 10
91.3303
 20
69.5677
 11
91.1316
 21
69.1779
  0
LINE
  8
0
 10
91.1316
 20
69.1779
 11
90.8222
 21
68.8684
  0
LINE
  8
0
 10
90.8222
 20
68.8684
 11
90.4323
 21
68.6697
  0
LINE
  8
0
 10
90.4323
 20
68.6697
 11
90
 21
68.6012
  0
LINE
  8
0
 10
90
 20
68.6012
 11
89.5677
 21
68.6697
  0
LINE
  8
0
 10
99.5677
 20
68.6697
 11
99.1779
 21
68.8684
  0
LINE
  8
0
 10
99.1779
 20
68.8684
 11
98.8684
 21
69.1779
  0
LINE
  8
0
 10
98.8684
 20
69.1779
 11
98.6697
 21
69.5677
  0
LINE
  8
0
 10
98.6697
 20
69.5677
 11
98.6012
 21
70
  0
LINE
  8
0
 10
98.6012
 20
70
 11
98.6697
 21
70.4323
  0
LINE
  8
0
 10
98.6697
 20
70.4323
 11
98.8684
 21
70.8221
  0
LINE
  8
0
 10
98.8684
 20
70.8221
 11
99.1779
 21
71.1316
  0
LINE
  8
0
 10
99.1779
 20
71.1316
 11
99.5677
 21
71.3303
  0
LINE
  8
0
 10
99.5677
 20
71.3303
 11
100
 21
71.3988
  0
LINE
  8
0
 10
100
 20
71.3988
 11
100.432
 21
71.3303
  0
LINE
  8
0
 10
100.432
 20
71.3303
 11
100.822
 21
71.1316
  0
LINE
  8
0
 10
100.822
 20
71.1316
 11
101.132
 21
70.8221
  0
LINE
  8
0
 10
101.132
 20
70.8221
 11
101.33
 21
70.4323
  0
LINE
  8
0
 10
101.33
 20
70.4323
 11
101.399
 21
70
  0
LINE
  8
0
 10
101.399
 20
70
 11
101.33
 21
69.5677
  0
LINE
  8
0
 10
101.33
 20
69.5677
 11
101.132
 21
69.1779
  0
LINE
  8
0
 10
101.132
 20
69.1779
 11
100.822
 21
68.8684
  0
LINE
  8
0
 10
100.822
 20
68.8684
 11
100.432
 21
68.6697
  0
LINE
  8
0
 10
100.432
 20
68.6697
 11
100
 21
68.6012
  0
LINE
  8
0
 10
100
 20
68.6012
 11
99.5677
 21
68.6697
  0
LINE
  8
0
 10
58.1
 20
55
 11
58.1
 21
58
  0
LINE
  8
0
 10
58.1
 20
58
 11
58
 21
58.1
  0
LINE
  8
0
 10
58
 20
58.1
 11
55.1
 21
58.1
  0
LINE
  8
0
 10
55.1
 20
58.1
 11
55.1
 21
61.9
  0
LINE
  8
0
 10
55.1
 20
61.9
 11
58
 21
61.9
  0
LINE
  8
0
 10
58
 20
61.9
 11
58.1
 21
62
  0
LINE
  8
0
 10
58.1
 20
62
 11
58.1
 21
65
  0
LINE
  8
0
 10
58.1
 20
65
 11
58
 21
65.1
  0
LINE
  8
0
 10
58
 20
65.1
 11
50.1
 21
65.1
  0
LINE
  8
0
 10
50.1
 20
65.1
 11
50.1
 21
75
  0
LINE
  8
0
 10
50.1
 20
75
 11
50
 21
75.1
  0
LINE
  8
0
 10
50
 20
75.1
 11
10
 21
75.1
  0
LINE
  8
0
 10
10
 20
75.1
 11
9.89999
 21
75
  0
LINE
  8
0
 10
9.89999
 20
75
 11
9.89999
 21
55
  0
LINE
  8
0
 10
9.89999
 20
55
 11
10
 21
54.9
  0
LINE
  8
0
 10
10
 20
54.9
 11
58
 21
54.9
  0
LINE
  8
0
 10
58
 20
54.9
 11
58.1
 21
55
  0
LINE
  8
0
 10
34.5677
 20
68.6697
 11
34.1779
 21
68.8684
  0
LINE
  8
0
 10
34.1779
 20
68.8684
 11
33.8684
 21
69.1779
  0
LINE
  8
0
 10
33.8684
 20
69.1779
 11
33.6697
 21
69.5677
  0
LINE
  8
0
 10
33.6697
 20
69.5677
 11
33.6012
 21
70
  0
LINE
  8
0
 10
33.6012
 20
70
 11
33.6697
 21
70.4323
  0
LINE
  8
0
 10
33.6697
 20
70.4323
 11
33.8684
 21
70.8221
  0
LINE
  8
0
 10
33.8684
 20
70.8221
 11
34.1779
 21
71.1316
  0
LINE
  8
0
 10
34.1779
 20
71.1316
 11
34.5677
 21
71.3303
  0
LINE
  8
0
 10
34.5677
 20
71.3303
 11
35
 21
71.3988
  0
LINE
  8
0
 10
35
 20
71.3988
 11
35.4323
 21
71.3303
  0
LINE
  8
0
 10
35.4323
 20
71.3303
 11
35.8222
 21
71.1316
  0
LINE
  8
0
 10
35.8222
 20
71.1316
 11
36.1316
 21
70.8221
  0
LINE
  8
0
 10
36.1316
 20
70.8221
 11
36.3303
 21
70.4323
  0
LINE
  8
0
 10
36.3303
 20
70.4323
 11
36.3988
 21
70
  0
LINE
  8
0
 10
36.3988
 20
70
 11
36.3303
 21
69.5677
  0
LINE
  8
0
 10
36.3303
 20
69.5677
 11
36.1316
 21
69.1779
  0
LINE
  8
0
 10
36.1316
 20
69.1779
 11
35.8222
 21
68.8684
  0
LINE
  8
0
 10
35.8222
 20
68.8684
 11
35.4323
 21
68.6697
  0
LINE
  8
0
 10
35.4323
 20
68.6697
 11
35
 21
68.6012
  0
LINE
  8
0
 10
35
 20
68.6012
 11
34.5677
 21
68.6697
  0
LINE
  8
0
 10
44.5677
 20
68.6697
 11
44.1779
 21
68.8684
  0
LINE
  8
0
 10
44.1779
 20
68.8684
 11
43.8684
 21
69.1779
  0
LINE
  8
0
 10
43.8684
 20
69.1779
 11
43.6697
 21
69.5677
  0
LINE
  8
0
 10
43.6697
 20
69.5677
 11
43.6012
 21
70
  0
LINE
  8
0
 10
43.6012
 20
70
 11
43.6697
 21
70.4323
  0
LINE
  8
0
 10
43.6697
 20
70.4323
 11
43.8684
 21
70.8221
  0
LINE
  8
0
 10
43.8684
 20
70.8221
 11
44.1779
 21
71.1316
  0
LINE
  8
0
 10
44.1779
 20
71.1316
 11
44.5677
 21
71.3303
  0
LINE
  8
0
 10
44.5677
 20
71.3303
 11
45
 21
71.3988
  0
LINE
  8
0
 10
45
 20
71.3988
 11
45.4323
 21
71.3303
  0
LINE
  8
0
 10
45.4323
 20
71.3303
 11
45.8221
 21
71.1316
  0
LINE
  8
0
 10
45.8221
 20
71.1316
 11
46.1316
 21
70.8221
  0
LINE
  8
0
 10
46.1316
 20
70.8221
 11
46.3303
 21
70.4323
  0
LINE
  8
0
 10
46.3303
 20
70.4323
 11
46.3988
 21
70
  0
LINE
  8
0
 10
46.3988
 20
70
 11
46.3303
 21
69.5677
  0
LINE
  8
0
 10
46.3303
 20
69.5677
 11
46.1316
 21
69.1779
  0
LINE
  8
0
 10
46.1316
 20
69.1779
 11
45.8221
 21
68.8684
  0
LINE
  8
0
 10
45.8221
 20
68.8684
 11
45.4323
 21
68.6697
  0
LINE
  8
0
 10
45.4323
 20
68.6697
 11
45
 21
68.6012
  0
LINE
  8
0
 10
45
 20
68.6012
 11
44.5677
 21
68.6697
  0
LINE
  8
0
 10
210.1
 20
67
 11
210.1
 21
69.9
  0
LINE
  8
0
 10
210.1
 20
69.9
 11
220
 21
69.9
  0
LINE
  8
0
 10
220
 20
69.9
 11
220.095
 21
69.9691
  0
LINE
  8
0
 10
220.095
 20
69.9691
 11
220.045
 21
70.0894
  0
LINE
  8
0
 10
220.045
 20
70.0894
 11
210.045
 21
75.0894
  0
LINE
  8
0
 10
210.045
 20
75.0894
 11
210
 21
75.1
  0
LINE
  8
0
 10
210
 20
75.1
 11
200
 21
75.1
  0
LINE
  8
0
 10
200
 20
75.1
 11
199.929
 21
75.0707
  0
LINE
  8
0
 10
199.929
 20
75.0707
 11
194.929
 21
70.0707
  0
LINE
  8
0
 10
194.929
 20
70.0707
 11
194.911
 21
69.9546
  0
LINE
  8
0
 10
194.911
 20
69.9546
 11
195
 21
69.9
  0
LINE
  8
0
 10
195
 20
69.9
 11
199.9
 21
69.9
  0
LINE
  8
0
 10
199.9
 20
69.9
 11
199.9
 21
67
  0
LINE
  8
0
 10
199.9
 20
67
 11
200
 21
66.9
  0
LINE
  8
0
 10
200
 20
66.9
 11
210
 21
66.9
  0
LINE
  8
0
 10
210
 20
66.9
 11
210.1
 21
67
  0
LINE
  8
0
 10
210.1
 20
57
 11
210.1
 21
59.9
  0
LINE
  8
0
 10
210.1
 20
59.9
 11
220
 21
59.9
  0
LINE
  8
0
 10
220
 20
59.9
 11
220.095
 21
59.9691
  0
LINE
  8
0
 10
220.095
 20
59.9691
 11
220.045
 21
60.0894
  0
LINE
  8
0
 10
220.045
 20
60.0894
 11
210.045
 21
65.0894
  0
LINE
  8
0
 10
210.045
 20
65.0894
 11
210
 21
65.1
  0
LINE
  8
0
 10
210
 20
65.1
 11
200
 21
65.1
  0
LINE
  8
0
 10
200
 20
65.1
 11
199.929
 21
65.0707
  0
LINE
  8
0
 10
199.929
 20
65.0707
 11
194.929
 21
60.0707
  0
LINE
  8
0
 10
194.929
 20
60.0707
 11
194.911
 21
59.9546
  0
LINE
  8
0
 10
194.911
 20
59.9546
 11
195
 21
59.9
  0
LINE
  8
0
 10
195
 20
59.9
 11
199.9
 21
59.9
  0
LINE
  8
0
 10
199.9
 20
59.9
 11
199.9
 21
57
  0
LINE
  8
0
 10
199.9
 20
57
 11
200
 21
56.9
  0
LINE
  8
0
 10
200
 20
56.9
 11
210
 21
56.9
  0
LINE
  8
0
 10
210
 20
56.9
 11
210.1
 21
57
  0
LINE
  8
0
 10
277.6
 20
17
 11
277.6
 21
19.9
  0
LINE
  8
0
 10
277.6
 20
19.9
 11
282
 21
19.9
  0
LINE
  8
0
 10
282
 20
19.9
 11
282.1
 21
20
  0
LINE
  8
0
 10
282.1
 20
20
 11
282.1
 21
29.9
  0
LINE
  8
0
 10
282.1
 20
29.9
 11
285
 21
29.9
  0
LINE
  8
0
 10
285
 20
29.9
 11
285.1
 21
30
  0
LINE
  8
0
 10
285.1
 20
30
 11
285.1
 21
35
  0
LINE
  8
0
 10
285.1
 20
35
 11
285
 21
35.1
  0
LINE
  8
0
 10
285
 20
35.1
 11
282.1
 21
35.1
  0
LINE
  8
0
 10
282.1
 20
35.1
 11
282.1
 21
44.9
  0
LINE
  8
0
 10
282.1
 20
44.9
 11
285
 21
44.9
  0
LINE
  8
0
 10
285
 20
44.9
 11
285.1
 21
45
  0
LINE
  8
0
 10
285.1
 20
45
 11
285.1
 21
50
  0
LINE
  8
0
 10
285.1
 20
50
 11
285
 21
50.1
  0
LINE
  8
0
 10
285
 20
50.1
 11
282.1
 21
50.1
  0
LINE
  8
0
 10
282.1
 20
50.1
 11
282.1
 21
57
  0
LINE
  8
0
 10
282.1
 20
57
 11
282
 21
57.1
  0
LINE
  8
0
 10
282
 20
57.1
 11
277.6
 21
57.1
  0
LINE
  8
0
 10
277.6
 20
57.1
 11
277.6
 21
60
  0
LINE
  8
0
 10
277.6
 20
60
 11
277.5
 21
60.1
  0
LINE
  8
0
 10
277.5
 20
60.1
 11
272.5
 21
60.1
  0
LINE
  8
0
 10
272.5
 20
60.1
 11
272.4
 21
60
  0
LINE
  8
0
 10
272.4
 20
60
 11
272.4
 21
57.1
  0
LINE
  8
0
 10
272.4
 20
57.1
 11
265
 21
57.1
  0
LINE
  8
0
 10
265
 20
57.1
 11
264.9
 21
57
  0
LINE
  8
0
 10
264.9
 20
57
 11
264.9
 21
50.1
  0
LINE
  8
0
 10
264.9
 20
50.1
 11
250
 21
50.1
  0
LINE
  8
0
 10
250
 20
50.1
 11
249.9
 21
50
  0
LINE
  8
0
 10
249.9
 20
50
 11
249.9
 21
40
  0
LINE
  8
0
 10
249.9
 20
40
 11
250
 21
39.9
  0
LINE
  8
0
 10
250
 20
39.9
 11
264.9
 21
39.9
  0
LINE
  8
0
 10
264.9
 20
39.9
 11
264.9
 21
20
  0
LINE
  8
0
 10
264.9
 20
20
 11
265
 21
19.9
  0
LINE
  8
0
 10
265
 20
19.9
 11
272.4
 21
19.9
  0
LINE
  8
0
 10
272.4
 20
19.9
 11
272.4
 21
17
  0
LINE
  8
0
 10
272.4
 20
17
 11
272.5
 21
16.9
  0
LINE
  8
0
 10
272.5
 20
16.9
 11
277.5
 21
16.9
  0
LINE
  8
0
 10
277.5
 20
16.9
 11
277.6
 21
17
  0
LINE
  8
0
 10
254.568
 20
44.6697
 11
254.178
 21
44.8684
  0
LINE
  8
0
 10
254.178
 20
44.8684
 11
253.868
 21
45.1778
  0
LINE
  8
0
 10
253.868
 20
45.1778
 11
253.67
 21
45.5677
  0
LINE
  8
0
 10
253.67
 20
45.5677
 11
253.601
 21
46
  0
LINE
  8
0
 10
253.601
 20
46
 11
253.67
 21
46.4323
  0
LINE
  8
0
 10
253.67
 20
46.4323
 11
253.868
 21
46.8221
  0
LINE
  8
0
 10
253.868
 20
46.8221
 11
254.178
 21
47.1316
  0
LINE
  8
0
 10
254.178
 20
47.1316
 11
254.568
 21
47.3303
  0
LINE
  8
0
 10
254.568
 20
47.3303
 11
255
 21
47.3988
  0
LINE
  8
0
 10
255
 20
47.3988
 11
255.432
 21
47.3303
  0
LINE
  8
0
 10
255.432
 20
47.3303
 11
255.822
 21
47.1316
  0
LINE
  8
0
 10
255.822
 20
47.1316
 11
256.132
 21
46.8221
  0
LINE
  8
0
 10
256.132
 20
46.8221
 11
256.33
 21
46.4323
  0
LINE
  8
0
 10
256.33
 20
46.4323
 11
256.399
 21
46
  0
LINE
  8
0
 10
256.399
 20
46
 11
256.33
 21
45.5677
  0
LINE
  8
0
 10
256.33
 20
45.5677
 11
256.132
 21
45.1778
  0
LINE
  8
0
 10
256.132
 20
45.1778
 11
255.822
 21
44.8684
  0
LINE
  8
0
 10
255.822
 20
44.8684
 11
255.432
 21
44.6697
  0
LINE
  8
0
 10
255.432
 20
44.6697
 11
255
 21
44.6012
  0
LINE
  8
0
 10
255
 20
44.6012
 11
254.568
 21
44.6697
  0
LINE
  8
0
 10
210.1
 20
47
 11
210.1
 21
49.9
  0
LINE
  8
0
 10
210.1
 20
49.9
 11
220
 21
49.9
  0
LINE
  8
0
 10
220
 20
49.9
 11
220.095
 21
49.9691
  0
LINE
  8
0
 10
220.095
 20
49.9691
 11
220.045
 21
50.0894
  0
LINE
  8
0
 10
220.045
 20
50.0894
 11
210.045
 21
55.0894
  0
LINE
  8
0
 10
210.045
 20
55.0894
 11
210
 21
55.1
  0
LINE
  8
0
 10
210
 20
55.1
 11
200
 21
55.1
  0
LINE
  8
0
 10
200
 20
55.1
 11
199.929
 21
55.0707
  0
LINE
  8
0
 10
199.929
 20
55.0707
 11
194.929
 21
50.0707
  0
LINE
  8
0
 10
194.929
 20
50.0707
 11
194.911
 21
49.9546
  0
LINE
  8
0
 10
194.911
 20
49.9546
 11
195
 21
49.9
  0
LINE
  8
0
 10
195
 20
49.9
 11
199.9
 21
49.9
  0
LINE
  8
0
 10
199.9
 20
49.9
 11
199.9
 21
47
  0
LINE
  8
0
 10
199.9
 20
47
 11
200
 21
46.9
  0
LINE
  8
0
 10
200
 20
46.9
 11
210
 21
46.9
  0
LINE
  8
0
 10
210
 20
46.9
 11
210.1
 21
47
  0
LINE
  8
0
 10
237.6
 20
10
 11
237.6
 21
12.9
  0
LINE
  8
0
 10
237.6
 20
12.9
 11
245
 21
12.9
  0
LINE
  8
0
 10
245
 20
12.9
 11
245.1
 21
13
  0
LINE
  8
0
 10
245.1
 20
13
 11
245.1
 21
19.9
  0
LINE
  8
0
 10
245.1
 20
19.9
 11
260
 21
19.9
  0
LINE
  8
0
 10
260
 20
19.9
 11
260.1
 21
20
  0
LINE
  8
0
 10
260.1
 20
20
 11
260.1
 21
30
  0
LINE
  8
0
 10
260.1
 20
30
 11
260
 21
30.1
  0
LINE
  8
0
 10
260
 20
30.1
 11
245.1
 21
30.1
  0
LINE
  8
0
 10
245.1
 20
30.1
 11
245.1
 21
50
  0
LINE
  8
0
 10
245.1
 20
50
 11
245
 21
50.1
  0
LINE
  8
0
 10
245
 20
50.1
 11
237.6
 21
50.1
  0
LINE
  8
0
 10
237.6
 20
50.1
 11
237.6
 21
53
  0
LINE
  8
0
 10
237.6
 20
53
 11
237.5
 21
53.1
  0
LINE
  8
0
 10
237.5
 20
53.1
 11
232.5
 21
53.1
  0
LINE
  8
0
 10
232.5
 20
53.1
 11
232.4
 21
53
  0
LINE
  8
0
 10
232.4
 20
53
 11
232.4
 21
50.1
  0
LINE
  8
0
 10
232.4
 20
50.1
 11
228
 21
50.1
  0
LINE
  8
0
 10
228
 20
50.1
 11
227.9
 21
50
  0
LINE
  8
0
 10
227.9
 20
50
 11
227.9
 21
40.1
  0
LINE
  8
0
 10
227.9
 20
40.1
 11
225
 21
40.1
  0
LINE
  8
0
 10
225
 20
40.1
 11
224.9
 21
40
  0
LINE
  8
0
 10
224.9
 20
40
 11
224.9
 21
35
  0
LINE
  8
0
 10
224.9
 20
35
 11
225
 21
34.9
  0
LINE
  8
0
 10
225
 20
34.9
 11
227.9
 21
34.9
  0
LINE
  8
0
 10
227.9
 20
34.9
 11
227.9
 21
25.1
  0
LINE
  8
0
 10
227.9
 20
25.1
 11
225
 21
25.1
  0
LINE
  8
0
 10
225
 20
25.1
 11
224.9
 21
25
  0
LINE
  8
0
 10
224.9
 20
25
 11
224.9
 21
20
  0
LINE
  8
0
 10
224.9
 20
20
 11
225
 21
19.9
  0
LINE
  8
0
 10
225
 20
19.9
 11
227.9
 21
19.9
  0
LINE
  8
0
 10
227.9
 20
19.9
 11
227.9
 21
13
  0
LINE
  8
0
 10
227.9
 20
13
 11
228
 21
12.9
  0
LINE
  8
0
 10
228
 20
12.9
 11
232.4
 21
12.9
  0
LINE
  8
0
 10
232.4
 20
12.9
 11
232.4
 21
10
  0
LINE
  8
0
 10
232.4
 20
10
 11
232.5
 21
9.89999
  0
LINE
  8
0
 10
232.5
 20
9.89999
 11
237.5
 21
9.89999
  0
LINE
  8
0
 10
237.5
 20
9.89999
 11
237.6
 21
10
  0
LINE
  8
0
 10
254.568
 20
22.6697
 11
254.178
 21
22.8684
  0
LINE
  8
0
 10
254.178
 20
22.8684
 11
253.868
 21
23.1779
  0
LINE
  8
0
 10
253.868
 20
23.1779
 11
253.67
 21
23.5677
  0
LINE
  8
0
 10
253.67
 20
23.5677
 11
253.601
 21
24
  0
LINE
  8
0
 10
253.601
 20
24
 11
253.67
 21
24.4323
  0
LINE
  8
0
 10
253.67
 20
24.4323
 11
253.868
 21
24.8222
  0
LINE
  8
0
 10
253.868
 20
24.8222
 11
254.178
 21
25.1316
  0
LINE
  8
0
 10
254.178
 20
25.1316
 11
254.568
 21
25.3303
  0
LINE
  8
0
 10
254.568
 20
25.3303
 11
255
 21
25.3988
  0
LINE
  8
0
 10
255
 20
25.3988
 11
255.432
 21
25.3303
  0
LINE
  8
0
 10
255.432
 20
25.3303
 11
255.822
 21
25.1316
  0
LINE
  8
0
 10
255.822
 20
25.1316
 11
256.132
 21
24.8222
  0
LINE
  8
0
 10
256.132
 20
24.8222
 11
256.33
 21
24.4323
  0
LINE
  8
0
 10
256.33
 20
24.4323
 11
256.399
 21
24
  0
LINE
  8
0
 10
256.399
 20
24
 11
256.33
 21
23.5677
  0
LINE
  8
0
 10
256.33
 20
23.5677
 11
256.132
 21
23.1779
  0
LINE
  8
0
 10
256.132
 20
23.1779
 11
255.822
 21
22.8684
  0
LINE
  8
0
 10
255.822
 20
22.8684
 11
255.432
 21
22.6697
  0
LINE
  8
0
 10
255.432
 20
22.6697
 11
255
 21
22.6012
  0
LINE
  8
0
 10
255
 20
22.6012
 11
254.568
 21
22.6697
  0
LINE
  8
0
 10
189.1
 20
30
 11
189.1
 21
37.5
  0
LINE
  8
0
 10
189.1
 20
37.5
 11
189
 21
37.6
  0
LINE
  8
0
 10
189
 20
37.6
 11
186.1
 21
37.6
  0
LINE
  8
0
 10
186.1
 20
37.6
 11
186.1
 21
42.4
  0
LINE
  8
0
 10
186.1
 20
42.4
 11
189
 21
42.4
  0
LINE
  8
0
 10
189
 20
42.4
 11
189.1
 21
42.5
  0
LINE
  8
0
 10
189.1
 20
42.5
 11
189.1
 21
50
  0
LINE
  8
0
 10
189.1
 20
50
 11
189
 21
50.1
  0
LINE
  8
0
 10
189
 20
50.1
 11
5
 21
50.1
  0
LINE
  8
0
 10
5
 20
50.1
 11
4.89999
 21
50
  0
LINE
  8
0
 10
4.89999
 20
50
 11
4.89999
 21
42.5
  0
LINE
  8
0
 10
4.89999
 20
42.5
 11
5
 21
42.4
  0
LINE
  8
0
 10
5
 20
42.4
 11
7.89999
 21
42.4
  0
LINE
  8
0
 10
7.89999
 20
42.4
 11
7.89999
 21
37.6
  0
LINE
  8
0
 10
7.89999
 20
37.6
 11
5
 21
37.6
  0
LINE
  8
0
 10
5
 20
37.6
 11
4.89999
 21
37.5
  0
LINE
  8
0
 10
4.89999
 20
37.5
 11
4.89999
 21
30
  0
LINE
  8
0
 10
4.89999
 20
30
 11
5
 21
29.9
  0
LINE
  8
0
 10
5
 20
29.9
 11
189
 21
29.9
  0
LINE
  8
0
 10
189
 20
29.9
 11
189.1
 21
30
  0
LINE
  8
0
 10
183.969
 20
44.6734
 11
183.272
 21
45.1801
  0
LINE
  8
0
 10
183.272
 20
45.1801
 11
183.005
 21
46
  0
LINE
  8
0
 10
183.005
 20
46
 11
183.272
 21
46.8199
  0
LINE
  8
0
 10
183.272
 20
46.8199
 11
183.969
 21
47.3266
  0
LINE
  8
0
 10
183.969
 20
47.3266
 11
184.831
 21
47.3266
  0
LINE
  8
0
 10
184.831
 20
47.3266
 11
185.528
 21
46.8199
  0
LINE
  8
0
 10
185.528
 20
46.8199
 11
185.795
 21
46
  0
LINE
  8
0
 10
185.795
 20
46
 11
185.528
 21
45.1801
  0
LINE
  8
0
 10
185.528
 20
45.1801
 11
184.831
 21
44.6734
  0
LINE
  8
0
 10
184.831
 20
44.6734
 11
183.969
 21
44.6734
  0
LINE
  8
0
 10
96.569
 20
44.6734
 11
95.8715
 21
45.1801
  0
LINE
  8
0
 10
95.8715
 20
45.1801
 11
95.6051
 21
46
  0
LINE
  8
0
 10
95.6051
 20
46
 11
95.8715
 21
46.8199
  0
LINE
  8
0
 10
95.8715
 20
46.8199
 11
96.569
 21
47.3266
  0
LINE
  8
0
 10
96.569
 20
47.3266
 11
97.431
 21
47.3266
  0
LINE
  8
0
 10
97.431
 20
47.3266
 11
98.1284
 21
46.8199
  0
LINE
  8
0
 10
98.1284
 20
46.8199
 11
98.3949
 21
46
  0
LINE
  8
0
 10
98.3949
 20
46
 11
98.1284
 21
45.1801
  0
LINE
  8
0
 10
98.1284
 20
45.1801
 11
97.431
 21
44.6734
  0
LINE
  8
0
 10
97.431
 20
44.6734
 11
96.569
 21
44.6734
  0
LINE
  8
0
 10
9.16895
 20
44.6734
 11
8.47153
 21
45.1801
  0
LINE
  8
0
 10
8.47153
 20
45.1801
 11
8.20514
 21
46
  0
LINE
  8
0
 10
8.20514
 20
46
 11
8.47153
 21
46.8199
  0
LINE
  8
0
 10
8.47153
 20
46.8199
 11
9.16895
 21
47.3266
  0
LINE
  8
0
 10
9.16895
 20
47.3266
 11
10.031
 21
47.3266
  0
LINE
  8
0
 10
10.031
 20
47.3266
 11
10.7285
 21
46.8199
  0
LINE
  8
0
 10
10.7285
 20
46.8199
 11
10.9948
 21
46
  0
LINE
  8
0
 10
10.9948
 20
46
 11
10.7285
 21
45.1801
  0
LINE
  8
0
 10
10.7285
 20
45.1801
 11
10.031
 21
44.6734
  0
LINE
  8
0
 10
10.031
 20
44.6734
 11
9.16895
 21
44.6734
  0
LINE
  8
0
 10
14.8317
 20
34.8655
 11
13.3267
 21
35.6323
  0
LINE
  8
0
 10
13.3267
 20
35.6323
 11
12.1323
 21
36.8267
  0
LINE
  8
0
 10
12.1323
 20
36.8267
 11
11.3655
 21
38.3317
  0
LINE
  8
0
 10
11.3655
 20
38.3317
 11
11.1012
 21
40
  0
LINE
  8
0
 10
11.1012
 20
40
 11
11.3655
 21
41.6683
  0
LINE
  8
0
 10
11.3655
 20
41.6683
 11
12.1323
 21
43.1733
  0
LINE
  8
0
 10
12.1323
 20
43.1733
 11
13.3267
 21
44.3677
  0
LINE
  8
0
 10
13.3267
 20
44.3677
 11
14.8317
 21
45.1345
  0
LINE
  8
0
 10
14.8317
 20
45.1345
 11
16.5
 21
45.3988
  0
LINE
  8
0
 10
16.5
 20
45.3988
 11
18.1683
 21
45.1345
  0
LINE
  8
0
 10
18.1683
 20
45.1345
 11
19.6733
 21
44.3677
  0
LINE
  8
0
 10
19.6733
 20
44.3677
 11
20.8677
 21
43.1733
  0
LINE
  8
0
 10
20.8677
 20
43.1733
 11
21.6345
 21
41.6683
  0
LINE
  8
0
 10
21.6345
 20
41.6683
 11
21.8988
 21
40
  0
LINE
  8
0
 10
21.8988
 20
40
 11
21.6345
 21
38.3317
  0
LINE
  8
0
 10
21.6345
 20
38.3317
 11
20.8677
 21
36.8267
  0
LINE
  8
0
 10
20.8677
 20
36.8267
 11
19.6733
 21
35.6323
  0
LINE
  8
0
 10
19.6733
 20
35.6323
 11
18.1683
 21
34.8655
  0
LINE
  8
0
 10
18.1683
 20
34.8655
 11
16.5
 21
34.6012
  0
LINE
  8
0
 10
16.5
 20
34.6012
 11
14.8317
 21
34.8655
  0
LINE
  8
0
 10
37.8317
 20
34.8655
 11
36.3267
 21
35.6323
  0
LINE
  8
0
 10
36.3267
 20
35.6323
 11
35.1323
 21
36.8267
  0
LINE
  8
0
 10
35.1323
 20
36.8267
 11
34.3655
 21
38.3317
  0
LINE
  8
0
 10
34.3655
 20
38.3317
 11
34.1012
 21
40
  0
LINE
  8
0
 10
34.1012
 20
40
 11
34.3655
 21
41.6683
  0
LINE
  8
0
 10
34.3655
 20
41.6683
 11
35.1323
 21
43.1733
  0
LINE
  8
0
 10
35.1323
 20
43.1733
 11
36.3267
 21
44.3677
  0
LINE
  8
0
 10
36.3267
 20
44.3677
 11
37.8317
 21
45.1345
  0
LINE
  8
0
 10
37.8317
 20
45.1345
 11
39.5
 21
45.3988
  0
LINE
  8
0
 10
39.5
 20
45.3988
 11
41.1683
 21
45.1345
  0
LINE
  8
0
 10
41.1683
 20
45.1345
 11
42.6733
 21
44.3677
  0
LINE
  8
0
 10
42.6733
 20
44.3677
 11
43.8677
 21
43.1733
  0
LINE
  8
0
 10
43.8677
 20
43.1733
 11
44.6345
 21
41.6683
  0
LINE
  8
0
 10
44.6345
 20
41.6683
 11
44.8988
 21
40
  0
LINE
  8
0
 10
44.8988
 20
40
 11
44.6345
 21
38.3317
  0
LINE
  8
0
 10
44.6345
 20
38.3317
 11
43.8677
 21
36.8267
  0
LINE
  8
0
 10
43.8677
 20
36.8267
 11
42.6733
 21
35.6323
  0
LINE
  8
0
 10
42.6733
 20
35.6323
 11
41.1683
 21
34.8655
  0
LINE
  8
0
 10
41.1683
 20
34.8655
 11
39.5
 21
34.6012
  0
LINE
  8
0
 10
39.5
 20
34.6012
 11
37.8317
 21
34.8655
  0
LINE
  8
0
 10
60.8317
 20
34.8655
 11
59.3267
 21
35.6323
  0
LINE
  8
0
 10
59.3267
 20
35.6323
 11
58.1323
 21
36.8267
  0
LINE
  8
0
 10
58.1323
 20
36.8267
 11
57.3655
 21
38.3317
  0
LINE
  8
0
 10
57.3655
 20
38.3317
 11
57.1012
 21
40
  0
LINE
  8
0
 10
57.1012
 20
40
 11
57.3655
 21
41.6683
  0
LINE
  8
0
 10
57.3655
 20
41.6683
 11
58.1323
 21
43.1733
  0
LINE
  8
0
 10
58.1323
 20
43.1733
 11
59.3267
 21
44.3677
  0
LINE
  8
0
 10
59.3267
 20
44.3677
 11
60.8317
 21
45.1345
  0
LINE
  8
0
 10
60.8317
 20
45.1345
 11
62.5
 21
45.3988
  0
LINE
  8
0
 10
62.5
 20
45.3988
 11
64.1683
 21
45.1345
  0
LINE
  8
0
 10
64.1683
 20
45.1345
 11
65.6733
 21
44.3677
  0
LINE
  8
0
 10
65.6733
 20
44.3677
 11
66.8677
 21
43.1733
  0
LINE
  8
0
 10
66.8677
 20
43.1733
 11
67.6345
 21
41.6683
  0
LINE
  8
0
 10
67.6345
 20
41.6683
 11
67.8988
 21
40
  0
LINE
  8
0
 10
67.8988
 20
40
 11
67.6345
 21
38.3317
  0
LINE
  8
0
 10
67.6345
 20
38.3317
 11
66.8677
 21
36.8267
  0
LINE
  8
0
 10
66.8677
 20
36.8267
 11
65.6733
 21
35.6323
  0
LINE
  8
0
 10
65.6733
 20
35.6323
 11
64.1683
 21
34.8655
  0
LINE
  8
0
 10
64.1683
 20
34.8655
 11
62.5
 21
34.6012
  0
LINE
  8
0
 10
62.5
 20
34.6012
 11
60.8317
 21
34.8655
  0
LINE
  8
0
 10
83.8317
 20
34.8655
 11
82.3267
 21
35.6323
  0
LINE
  8
0
 10
82.3267
 20
35.6323
 11
81.1323
 21
36.8267
  0
LINE
  8
0
 10
81.1323
 20
36.8267
 11
80.3655
 21
38.3317
  0
LINE
  8
0
 10
80.3655
 20
38.3317
 11
80.1012
 21
40
  0
LINE
  8
0
 10
80.1012
 20
40
 11
80.3655
 21
41.6683
  0
LINE
  8
0
 10
80.3655
 20
41.6683
 11
81.1323
 21
43.1733
  0
LINE
  8
0
 10
81.1323
 20
43.1733
 11
82.3267
 21
44.3677
  0
LINE
  8
0
 10
82.3267
 20
44.3677
 11
83.8317
 21
45.1345
  0
LINE
  8
0
 10
83.8317
 20
45.1345
 11
85.5
 21
45.3988
  0
LINE
  8
0
 10
85.5
 20
45.3988
 11
87.1683
 21
45.1345
  0
LINE
  8
0
 10
87.1683
 20
45.1345
 11
88.6733
 21
44.3677
  0
LINE
  8
0
 10
88.6733
 20
44.3677
 11
89.8677
 21
43.1733
  0
LINE
  8
0
 10
89.8677
 20
43.1733
 11
90.6345
 21
41.6683
  0
LINE
  8
0
 10
90.6345
 20
41.6683
 11
90.8988
 21
40
  0
LINE
  8
0
 10
90.8988
 20
40
 11
90.6345
 21
38.3317
  0
LINE
  8
0
 10
90.6345
 20
38.3317
 11
89.8677
 21
36.8267
  0
LINE
  8
0
 10
89.8677
 20
36.8267
 11
88.6733
 21
35.6323
  0
LINE
  8
0
 10
88.6733
 20
35.6323
 11
87.1683
 21
34.8655
  0
LINE
  8
0
 10
87.1683
 20
34.8655
 11
85.5
 21
34.6012
  0
LINE
  8
0
 10
85.5
 20
34.6012
 11
83.8317
 21
34.8655
  0
LINE
  8
0
 10
106.832
 20
34.8655
 11
105.327
 21
35.6323
  0
LINE
  8
0
 10
105.327
 20
35.6323
 11
104.132
 21
36.8267
  0
LINE
  8
0
 10
104.132
 20
36.8267
 11
103.365
 21
38.3317
  0
LINE
  8
0
 10
103.365
 20
38.3317
 11
103.101
 21
40
  0
LINE
  8
0
 10
103.101
 20
40
 11
103.365
 21
41.6683
  0
LINE
  8
0
 10
103.365
 20
41.6683
 11
104.132
 21
43.1733
  0
LINE
  8
0
 10
104.132
 20
43.1733
 11
105.327
 21
44.3677
  0
LINE
  8
0
 10
105.327
 20
44.3677
 11
106.832
 21
45.1345
  0
LINE
  8
0
 10
106.832
 20
45.1345
 11
108.5
 21
45.3988
  0
LINE
  8
0
 10
108.5
 20
45.3988
 11
110.168
 21
45.1345
  0
LINE
  8
0
 10
110.168
 20
45.1345
 11
111.673
 21
44.3677
  0
LINE
  8
0
 10
111.673
 20
44.3677
 11
112.868
 21
43.1733
  0
LINE
  8
0
 10
112.868
 20
43.1733
 11
113.635
 21
41.6683
  0
LINE
  8
0
 10
113.635
 20
41.6683
 11
113.899
 21
40
  0
LINE
  8
0
 10
113.899
 20
40
 11
113.635
 21
38.3317
  0
LINE
  8
0
 10
113.635
 20
38.3317
 11
112.868
 21
36.8267
  0
LINE
  8
0
 10
112.868
 20
36.8267
 11
111.673
 21
35.6323
  0
LINE
  8
0
 10
111.673
 20
35.6323
 11
110.168
 21
34.8655
  0
LINE
  8
0
 10
110.168
 20
34.8655
 11
108.5
 21
34.6012
  0
LINE
  8
0
 10
108.5
 20
34.6012
 11
106.832
 21
34.8655
  0
LINE
  8
0
 10
129.832
 20
34.8655
 11
128.327
 21
35.6323
  0
LINE
  8
0
 10
128.327
 20
35.6323
 11
127.132
 21
36.8267
  0
LINE
  8
0
 10
127.132
 20
36.8267
 11
126.365
 21
38.3317
  0
LINE
  8
0
 10
126.365
 20
38.3317
 11
126.101
 21
40
  0
LINE
  8
0
 10
126.101
 20
40
 11
126.365
 21
41.6683
  0
LINE
  8
0
 10
126.365
 20
41.6683
 11
127.132
 21
43.1733
  0
LINE
  8
0
 10
127.132
 20
43.1733
 11
128.327
 21
44.3677
  0
LINE
  8
0
 10
128.327
 20
44.3677
 11
129.832
 21
45.1345
  0
LINE
  8
0
 10
129.832
 20
45.1345
 11
131.5
 21
45.3988
  0
LINE
  8
0
 10
131.5
 20
45.3988
 11
133.168
 21
45.1345
  0
LINE
  8
0
 10
133.168
 20
45.1345
 11
134.673
 21
44.3677
  0
LINE
  8
0
 10
134.673
 20
44.3677
 11
135.868
 21
43.1733
  0
LINE
  8
0
 10
135.868
 20
43.1733
 11
136.635
 21
41.6683
  0
LINE
  8
0
 10
136.635
 20
41.6683
 11
136.899
 21
40
  0
LINE
  8
0
 10
136.899
 20
40
 11
136.635
 21
38.3317
  0
LINE
  8
0
 10
136.635
 20
38.3317
 11
135.868
 21
36.8267
  0
LINE
  8
0
 10
135.868
 20
36.8267
 11
134.673
 21
35.6323
  0
LINE
  8
0
 10
134.673
 20
35.6323
 11
133.168
 21
34.8655
  0
LINE
  8
0
 10
133.168
 20
34.8655
 11
131.5
 21
34.6012
  0
LINE
  8
0
 10
131.5
 20
34.6012
 11
129.832
 21
34.8655
  0
LINE
  8
0
 10
152.832
 20
34.8655
 11
151.327
 21
35.6323
  0
LINE
  8
0
 10
151.327
 20
35.6323
 11
150.132
 21
36.8267
  0
LINE
  8
0
 10
150.132
 20
36.8267
 11
149.365
 21
38.3317
  0
LINE
  8
0
 10
149.365
 20
38.3317
 11
149.101
 21
40
  0
LINE
  8
0
 10
149.101
 20
40
 11
149.365
 21
41.6683
  0
LINE
  8
0
 10
149.365
 20
41.6683
 11
150.132
 21
43.1733
  0
LINE
  8
0
 10
150.132
 20
43.1733
 11
151.327
 21
44.3677
  0
LINE
  8
0
 10
151.327
 20
44.3677
 11
152.832
 21
45.1345
  0
LINE
  8
0
 10
152.832
 20
45.1345
 11
154.5
 21
45.3988
  0
LINE
  8
0
 10
154.5
 20
45.3988
 11
156.168
 21
45.1345
  0
LINE
  8
0
 10
156.168
 20
45.1345
 11
157.673
 21
44.3677
  0
LINE
  8
0
 10
157.673
 20
44.3677
 11
158.868
 21
43.1733
  0
LINE
  8
0
 10
158.868
 20
43.1733
 11
159.635
 21
41.6683
  0
LINE
  8
0
 10
159.635
 20
41.6683
 11
159.899
 21
40
  0
LINE
  8
0
 10
159.899
 20
40
 11
159.635
 21
38.3317
  0
LINE
  8
0
 10
159.635
 20
38.3317
 11
158.868
 21
36.8267
  0
LINE
  8
0
 10
158.868
 20
36.8267
 11
157.673
 21
35.6323
  0
LINE
  8
0
 10
157.673
 20
35.6323
 11
156.168
 21
34.8655
  0
LINE
  8
0
 10
156.168
 20
34.8655
 11
154.5
 21
34.6012
  0
LINE
  8
0
 10
154.5
 20
34.6012
 11
152.832
 21
34.8655
  0
LINE
  8
0
 10
175.832
 20
34.8655
 11
174.327
 21
35.6323
  0
LINE
  8
0
 10
174.327
 20
35.6323
 11
173.132
 21
36.8267
  0
LINE
  8
0
 10
173.132
 20
36.8267
 11
172.365
 21
38.3317
  0
LINE
  8
0
 10
172.365
 20
38.3317
 11
172.101
 21
40
  0
LINE
  8
0
 10
172.101
 20
40
 11
172.365
 21
41.6683
  0
LINE
  8
0
 10
172.365
 20
41.6683
 11
173.132
 21
43.1733
  0
LINE
  8
0
 10
173.132
 20
43.1733
 11
174.327
 21
44.3677
  0
LINE
  8
0
 10
174.327
 20
44.3677
 11
175.832
 21
45.1345
  0
LINE
  8
0
 10
175.832
 20
45.1345
 11
177.5
 21
45.3988
  0
LINE
  8
0
 10
177.5
 20
45.3988
 11
179.168
 21
45.1345
  0
LINE
  8
0
 10
179.168
 20
45.1345
 11
180.673
 21
44.3677
  0
LINE
  8
0
 10
180.673
 20
44.3677
 11
181.868
 21
43.1733
  0
LINE
  8
0
 10
181.868
 20
43.1733
 11
182.635
 21
41.6683
  0
LINE
  8
0
 10
182.635
 20
41.6683
 11
182.899
 21
40
  0
LINE
  8
0
 10
182.899
 20
40
 11
182.635
 21
38.3317
  0
LINE
  8
0
 10
182.635
 20
38.3317
 11
181.868
 21
36.8267
  0
LINE
  8
0
 10
181.868
 20
36.8267
 11
180.673
 21
35.6323
  0
LINE
  8
0
 10
180.673
 20
35.6323
 11
179.168
 21
34.8655
  0
LINE
  8
0
 10
179.168
 20
34.8655
 11
177.5
 21
34.6012
  0
LINE
  8
0
 10
177.5
 20
34.6012
 11
175.832
 21
34.8655
  0
LINE
  8
0
 10
183.969
 20
32.6734
 11
183.272
 21
33.1801
  0
LINE
  8
0
 10
183.272
 20
33.1801
 11
183.005
 21
34
  0
LINE
  8
0
 10
183.005
 20
34
 11
183.272
 21
34.8199
  0
LINE
  8
0
 10
183.272
 20
34.8199
 11
183.969
 21
35.3266
  0
LINE
  8
0
 10
183.969
 20
35.3266
 11
184.831
 21
35.3266
  0
LINE
  8
0
 10
184.831
 20
35.3266
 11
185.528
 21
34.8199
  0
LINE
  8
0
 10
185.528
 20
34.8199
 11
185.795
 21
34
  0
LINE
  8
0
 10
185.795
 20
34
 11
185.528
 21
33.1801
  0
LINE
  8
0
 10
185.528
 20
33.1801
 11
184.831
 21
32.6734
  0
LINE
  8
0
 10
184.831
 20
32.6734
 11
183.969
 21
32.6734
  0
LINE
  8
0
 10
96.569
 20
32.6734
 11
95.8715
 21
33.1801
  0
LINE
  8
0
 10
95.8715
 20
33.1801
 11
95.6051
 21
34
  0
LINE
  8
0
 10
95.6051
 20
34
 11
95.8715
 21
34.8199
  0
LINE
  8
0
 10
95.8715
 20
34.8199
 11
96.569
 21
35.3266
  0
LINE
  8
0
 10
96.569
 20
35.3266
 11
97.431
 21
35.3266
  0
LINE
  8
0
 10
97.431
 20
35.3266
 11
98.1284
 21
34.8199
  0
LINE
  8
0
 10
98.1284
 20
34.8199
 11
98.3949
 21
34
  0
LINE
  8
0
 10
98.3949
 20
34
 11
98.1284
 21
33.1801
  0
LINE
  8
0
 10
98.1284
 20
33.1801
 11
97.431
 21
32.6734
  0
LINE
  8
0
 10
97.431
 20
32.6734
 11
96.569
 21
32.6734
  0
LINE
  8
0
 10
9.16895
 20
32.6734
 11
8.47153
 21
33.1801
  0
LINE
  8
0
 10
8.47153
 20
33.1801
 11
8.20514
 21
34
  0
LINE
  8
0
 10
8.20514
 20
34
 11
8.47153
 21
34.8199
  0
LINE
  8
0
 10
8.47153
 20
34.8199
 11
9.16895
 21
35.3266
  0
LINE
  8
0
 10
9.16895
 20
35.3266
 11
10.031
 21
35.3266
  0
LINE
  8
0
 10
10.031
 20
35.3266
 11
10.7285
 21
34.8199
  0
LINE
  8
0
 10
10.7285
 20
34.8199
 11
10.9948
 21
34
  0
LINE
  8
0
 10
10.9948
 20
34
 11
10.7285
 21
33.1801
  0
LINE
  8
0
 10
10.7285
 20
33.1801
 11
10.031
 21
32.6734
  0
LINE
  8
0
 10
10.031
 20
32.6734
 11
9.16895
 21
32.6734
  0
LINE
  8
0
 10
210.1
 20
37
 11
210.1
 21
39.9
  0
LINE
  8
0
 10
210.1
 20
39.9
 11
220
 21
39.9
  0
LINE
  8
0
 10
220
 20
39.9
 11
220.095
 21
39.9691
  0
LINE
  8
0
 10
220.095
 20
39.9691
 11
220.045
 21
40.0894
  0
LINE
  8
0
 10
220.045
 20
40.0894
 11
210.045
 21
45.0894
  0
LINE
  8
0
 10
210.045
 20
45.0894
 11
210
 21
45.1
  0
LINE
  8
0
 10
210
 20
45.1
 11
200
 21
45.1
  0
LINE
  8
0
 10
200
 20
45.1
 11
199.929
 21
45.0707
  0
LINE
  8
0
 10
199.929
 20
45.0707
 11
194.929
 21
40.0707
  0
LINE
  8
0
 10
194.929
 20
40.0707
 11
194.911
 21
39.9546
  0
LINE
  8
0
 10
194.911
 20
39.9546
 11
195
 21
39.9
  0
LINE
  8
0
 10
195
 20
39.9
 11
199.9
 21
39.9
  0
LINE
  8
0
 10
199.9
 20
39.9
 11
199.9
 21
37
  0
LINE
  8
0
 10
199.9
 20
37
 11
200
 21
36.9
  0
LINE
  8
0
 10
200
 20
36.9
 11
210
 21
36.9
  0
LINE
  8
0
 10
210
 20
36.9
 11
210.1
 21
37
  0
LINE
  8
0
 10
210.1
 20
27
 11
210.1
 21
29.9
  0
LINE
  8
0
 10
210.1
 20
29.9
 11
220
 21
29.9
  0
LINE
  8
0
 10
220
 20
29.9
 11
220.095
 21
29.9691
  0
LINE
  8
0
 10
220.095
 20
29.9691
 11
220.045
 21
30.0894
  0
LINE
  8
0
 10
220.045
 20
30.0894
 11
210.045
 21
35.0894
  0
LINE
  8
0
 10
210.045
 20
35.0894
 11
210
 21
35.1
  0
LINE
  8
0
 10
210
 20
35.1
 11
200
 21
35.1
  0
LINE
  8
0
 10
200
 20
35.1
 11
199.929
 21
35.0707
  0
LINE
  8
0
 10
199.929
 20
35.0707
 11
194.929
 21
30.0707
  0
LINE
  8
0
 10
194.929
 20
30.0707
 11
194.911
 21
29.9546
  0
LINE
  8
0
 10
194.911
 20
29.9546
 11
195
 21
29.9
  0
LINE
  8
0
 10
195
 20
29.9
 11
199.9
 21
29.9
  0
LINE
  8
0
 10
199.9
 20
29.9
 11
199.9
 21
27
  0
LINE
  8
0
 10
199.9
 20
27
 11
200
 21
26.9
  0
LINE
  8
0
 10
200
 20
26.9
 11
210
 21
26.9
  0
LINE
  8
0
 10
210
 20
26.9
 11
210.1
 21
27
  0
LINE
  8
0
 10
210.1
 20
17
 11
210.1
 21
19.9
  0
LINE
  8
0
 10
210.1
 20
19.9
 11
220
 21
19.9
  0
LINE
  8
0
 10
220
 20
19.9
 11
220.095
 21
19.9691
  0
LINE
  8
0
 10
220.095
 20
19.9691
 11
220.045
 21
20.0894
  0
LINE
  8
0
 10
220.045
 20
20.0894
 11
210.045
 21
25.0894
  0
LINE
  8
0
 10
210.045
 20
25.0894
 11
210
 21
25.1
  0
LINE
  8
0
 10
210
 20
25.1
 11
200
 21
25.1
  0
LINE
  8
0
 10
200
 20
25.1
 11
199.929
 21
25.0707
  0
LINE
  8
0
 10
199.929
 20
25.0707
 11
194.929
 21
20.0707
  0
LINE
  8
0
 10
194.929
 20
20.0707
 11
194.911
 21
19.9546
  0
LINE
  8
0
 10
194.911
 20
19.9546
 11
195
 21
19.9
  0
LINE
  8
0
 10
195
 20
19.9
 11
199.9
 21
19.9
  0
LINE
  8
0
 10
199.9
 20
19.9
 11
199.9
 21
17
  0
LINE
  8
0
 10
199.9
 20
17
 11
200
 21
16.9
  0
LINE
  8
0
 10
200
 20
16.9
 11
210
 21
16.9
  0
LINE
  8
0
 10
210
 20
16.9
 11
210.1
 21
17
  0
LINE
  8
0
 10
189.1
 20
5
 11
189.1
 21
12.5
  0
LINE
  8
0
 10
189.1
 20
12.5
 11
189
 21
12.6
  0
LINE
  8
0
 10
189
 20
12.6
 11
186.1
 21
12.6
  0
LINE
  8
0
 10
186.1
 20
12.6
 11
186.1
 21
17.4
  0
LINE
  8
0
 10
186.1
 20
17.4
 11
189
 21
17.4
  0
LINE
  8
0
 10
189
 20
17.4
 11
189.1
 21
17.5
  0
LINE
  8
0
 10
189.1
 20
17.5
 11
189.1
 21
25
  0
LINE
  8
0
 10
189.1
 20
25
 11
189
 21
25.1
  0
LINE
  8
0
 10
189
 20
25.1
 11
5
 21
25.1
  0
LINE
  8
0
 10
5
 20
25.1
 11
4.89999
 21
25
  0
LINE
  8
0
 10
4.89999
 20
25
 11
4.89999
 21
17.5
  0
LINE
  8
0
 10
4.89999
 20
17.5
 11
5
 21
17.4
  0
LINE
  8
0
 10
5
 20
17.4
 11
7.89999
 21
17.4
  0
LINE
  8
0
 10
7.89999
 20
17.4
 11
7.89999
 21
12.6
  0
LINE
  8
0
 10
7.89999
 20
12.6
 11
5
 21
12.6
  0
LINE
  8
0
 10
5
 20
12.6
 11
4.89999
 21
12.5
  0
LINE
  8
0
 10
4.89999
 20
12.5
 11
4.89999
 21
5
  0
LINE
  8
0
 10
4.89999
 20
5
 11
5
 21
4.89999
  0
LINE
  8
0
 10
5
 20
4.89999
 11
189
 21
4.89999
  0
LINE
  8
0
 10
189
 20
4.89999
 11
189.1
 21
5
  0
LINE
  8
0
 10
183.969
 20
19.6734
 11
183.272
 21
20.1801
  0
LINE
  8
0
 10
183.272
 20
20.1801
 11
183.005
 21
21
  0
LINE
  8
0
 10
183.005
 20
21
 11
183.272
 21
21.8199
  0
LINE
  8
0
 10
183.272
 20
21.8199
 11
183.969
 21
22.3266
  0
LINE
  8
0
 10
183.969
 20
22.3266
 11
184.831
 21
22.3266
  0
LINE
  8
0
 10
184.831
 20
22.3266
 11
185.528
 21
21.8199
  0
LINE
  8
0
 10
185.528
 20
21.8199
 11
185.795
 21
21
  0
LINE
  8
0
 10
185.795
 20
21
 11
185.528
 21
20.1801
  0
LINE
  8
0
 10
185.528
 20
20.1801
 11
184.831
 21
19.6734
  0
LINE
  8
0
 10
184.831
 20
19.6734
 11
183.969
 21
19.6734
  0
LINE
  8
0
 10
96.569
 20
19.6734
 11
95.8715
 21
20.1801
  0
LINE
  8
0
 10
95.8715
 20
20.1801
 11
95.6051
 21
21
  0
LINE
  8
0
 10
95.6051
 20
21
 11
95.8715
 21
21.8199
  0
LINE
  8
0
 10
95.8715
 20
21.8199
 11
96.569
 21
22.3266
  0
LINE
  8
0
 10
96.569
 20
22.3266
 11
97.431
 21
22.3266
  0
LINE
  8
0
 10
97.431
 20
22.3266
 11
98.1284
 21
21.8199
  0
LINE
  8
0
 10
98.1284
 20
21.8199
 11
98.3949
 21
21
  0
LINE
  8
0
 10
98.3949
 20
21
 11
98.1284
 21
20.1801
  0
LINE
  8
0
 10
98.1284
 20
20.1801
 11
97.431
 21
19.6734
  0
LINE
  8
0
 10
97.431
 20
19.6734
 11
96.569
 21
19.6734
  0
LINE
  8
0
 10
9.16895
 20
19.6734
 11
8.47153
 21
20.1801
  0
LINE
  8
0
 10
8.47153
 20
20.1801
 11
8.20514
 21
21
  0
LINE
  8
0
 10
8.20514
 20
21
 11
8.47153
 21
21.8199
  0
LINE
  8
0
 10
8.47153
 20
21.8199
 11
9.16895
 21
22.3266
  0
LINE
  8
0
 10
9.16895
 20
22.3266
 11
10.031
 21
22.3266
  0
LINE
  8
0
 10
10.031
 20
22.3266
 11
10.7285
 21
21.8199
  0
LINE
  8
0
 10
10.7285
 20
21.8199
 11
10.9948
 21
21
  0
LINE
  8
0
 10
10.9948
 20
21
 11
10.7285
 21
20.1801
  0
LINE
  8
0
 10
10.7285
 20
20.1801
 11
10.031
 21
19.6734
  0
LINE
  8
0
 10
10.031
 20
19.6734
 11
9.16895
 21
19.6734
  0
LINE
  8
0
 10
14.8317
 20
9.86548
 11
13.3267
 21
10.6323
  0
LINE
  8
0
 10
13.3267
 20
10.6323
 11
12.1323
 21
11.8267
  0
LINE
  8
0
 10
12.1323
 20
11.8267
 11
11.3655
 21
13.3317
  0
LINE
  8
0
 10
11.3655
 20
13.3317
 11
11.1012
 21
15
  0
LINE
  8
0
 10
11.1012
 20
15
 11
11.3655
 21
16.6683
  0
LINE
  8
0
 10
11.3655
 20
16.6683
 11
12.1323
 21
18.1733
  0
LINE
  8
0
 10
12.1323
 20
18.1733
 11
13.3267
 21
19.3677
  0
LINE
  8
0
 10
13.3267
 20
19.3677
 11
14.8317
 21
20.1345
  0
LINE
  8
0
 10
14.8317
 20
20.1345
 11
16.5
 21
20.3988
  0
LINE
  8
0
 10
16.5
 20
20.3988
 11
18.1683
 21
20.1345
  0
LINE
  8
0
 10
18.1683
 20
20.1345
 11
19.6733
 21
19.3677
  0
LINE
  8
0
 10
19.6733
 20
19.3677
 11
20.8677
 21
18.1733
  0
LINE
  8
0
 10
20.8677
 20
18.1733
 11
21.6345
 21
16.6683
  0
LINE
  8
0
 10
21.6345
 20
16.6683
 11
21.8988
 21
15
  0
LINE
  8
0
 10
21.8988
 20
15
 11
21.6345
 21
13.3317
  0
LINE
  8
0
 10
21.6345
 20
13.3317
 11
20.8677
 21
11.8267
  0
LINE
  8
0
 10
20.8677
 20
11.8267
 11
19.6733
 21
10.6323
  0
LINE
  8
0
 10
19.6733
 20
10.6323
 11
18.1683
 21
9.86548
  0
LINE
  8
0
 10
18.1683
 20
9.86548
 11
16.5
 21
9.60124
  0
LINE
  8
0
 10
16.5
 20
9.60124
 11
14.8317
 21
9.86548
  0
LINE
  8
0
 10
37.8317
 20
9.86548
 11
36.3267
 21
10.6323
  0
LINE
  8
0
 10
36.3267
 20
10.6323
 11
35.1323
 21
11.8267
  0
LINE
  8
0
 10
35.1323
 20
11.8267
 11
34.3655
 21
13.3317
  0
LINE
  8
0
 10
34.3655
 20
13.3317
 11
34.1012
 21
15
  0
LINE
  8
0
 10
34.1012
 20
15
 11
34.3655
 21
16.6683
  0
LINE
  8
0
 10
34.3655
 20
16.6683
 11
35.1323
 21
18.1733
  0
LINE
  8
0
 10
35.1323
 20
18.1733
 11
36.3267
 21
19.3677
  0
LINE
  8
0
 10
36.3267
 20
19.3677
 11
37.8317
 21
20.1345
  0
LINE
  8
0
 10
37.8317
 20
20.1345
 11
39.5
 21
20.3988
  0
LINE
  8
0
 10
39.5
 20
20.3988
 11
41.1683
 21
20.1345
  0
LINE
  8
0
 10
41.1683
 20
20.1345
 11
42.6733
 21
19.3677
  0
LINE
  8
0
 10
42.6733
 20
19.3677
 11
43.8677
 21
18.1733
  0
LINE
  8
0
 10
43.8677
 20
18.1733
 11
44.6345
 21
16.6683
  0
LINE
  8
0
 10
44.6345
 20
16.6683
 11
44.8988
 21
15
  0
LINE
  8
0
 10
44.8988
 20
15
 11
44.6345
 21
13.3317
  0
LINE
  8
0
 10
44.6345
 20
13.3317
 11
43.8677
 21
11.8267
  0
LINE
  8
0
 10
43.8677
 20
11.8267
 11
42.6733
 21
10.6323
  0
LINE
  8
0
 10
42.6733
 20
10.6323
 11
41.1683
 21
9.86548
  0
LINE
  8
0
 10
41.1683
 20
9.86548
 11
39.5
 21
9.60124
  0
LINE
  8
0
 10
39.5
 20
9.60124
 11
37.8317
 21
9.86548
  0
LINE
  8
0
 10
60.8317
 20
9.86548
 11
59.3267
 21
10.6323
  0
LINE
  8
0
 10
59.3267
 20
10.6323
 11
58.1323
 21
11.8267
  0
LINE
  8
0
 10
58.1323
 20
11.8267
 11
57.3655
 21
13.3317
  0
LINE
  8
0
 10
57.3655
 20
13.3317
 11
57.1012
 21
15
  0
LINE
  8
0
 10
57.1012
 20
15
 11
57.3655
 21
16.6683
  0
LINE
  8
0
 10
57.3655
 20
16.6683
 11
58.1323
 21
18.1733
  0
LINE
  8
0
 10
58.1323
 20
18.1733
 11
59.3267
 21
19.3677
  0
LINE
  8
0
 10
59.3267
 20
19.3677
 11
60.8317
 21
20.1345
  0
LINE
  8
0
 10
60.8317
 20
20.1345
 11
62.5
 21
20.3988
  0
LINE
  8
0
 10
62.5
 20
20.3988
 11
64.1683
 21
20.1345
  0
LINE
  8
0
 10
64.1683
 20
20.1345
 11
65.6733
 21
19.3677
  0
LINE
  8
0
 10
65.6733
 20
19.3677
 11
66.8677
 21
18.1733
  0
LINE
  8
0
 10
66.8677
 20
18.1733
 11
67.6345
 21
16.6683
  0
LINE
  8
0
 10
67.6345
 20
16.6683
 11
67.8988
 21
15
  0
LINE
  8
0
 10
67.8988
 20
15
 11
67.6345
 21
13.3317
  0
LINE
  8
0
 10
67.6345
 20
13.3317
 11
66.8677
 21
11.8267
  0
LINE
  8
0
 10
66.8677
 20
11.8267
 11
65.6733
 21
10.6323
  0
LINE
  8
0
 10
65.6733
 20
10.6323
 11
64.1683
 21
9.86548
  0
LINE
  8
0
 10
64.1683
 20
9.86548
 11
62.5
 21
9.60124
  0
LINE
  8
0
 10
62.5
 20
9.60124
 11
60.8317
 21
9.86548
  0
LINE
  8
0
 10
83.8317
 20
9.86548
 11
82.3267
 21
10.6323
  0
LINE
  8
0
 10
82.3267
 20
10.6323
 11
81.1323
 21
11.8267
  0
LINE
  8
0
 10
81.1323
 20
11.8267
 11
80.3655
 21
13.3317
  0
LINE
  8
0
 10
80.3655
 20
13.3317
 11
80.1012
 21
15
  0
LINE
  8
0
 10
80.1012
 20
15
 11
80.3655
 21
16.6683
  0
LINE
  8
0
 10
80.3655
 20
16.6683
 11
81.1323
 21
18.1733
  0
LINE
  8
0
 10
81.1323
 20
18.1733
 11
82.3267
 21
19.3677
  0
LINE
  8
0
 10
82.3267
 20
19.3677
 11
83.8317
 21
20.1345
  0
LINE
  8
0
 10
83.8317
 20
20.1345
 11
85.5
 21
20.3988
  0
LINE
  8
0
 10
85.5
 20
20.3988
 11
87.1683
 21
20.1345
  0
LINE
  8
0
 10
87.1683
 20
20.1345
 11
88.6733
 21
19.3677
  0
LINE
  8
0
 10
88.6733
 20
19.3677
 11
89.8677
 21
18.1733
  0
LINE
  8
0
 10
89.8677
 20
18.1733
 11
90.6345
 21
16.6683
  0
LINE
  8
0
 10
90.6345
 20
16.6683
 11
90.8988
 21
15
  0
LINE
  8
0
 10
90.8988
 20
15
 11
90.6345
 21
13.3317
  0
LINE
  8
0
 10
90.6345
 20
13.3317
 11
89.8677
 21
11.8267
  0
LINE
  8
0
 10
89.8677
 20
11.8267
 11
88.6733
 21
10.6323
  0
LINE
  8
0
 10
88.6733
 20
10.6323
 11
87.1683
 21
9.86548
  0
LINE
  8
0
 10
87.1683
 20
9.86548
 11
85.5
 21
9.60124
  0
LINE
  8
0
 10
85.5
 20
9.60124
 11
83.8317
 21
9.86548
  0
LINE
  8
0
 10
106.832
 20
9.86548
 11
105.327
 21
10.6323
  0
LINE
  8
0
 10
105.327
 20
10.6323
 11
104.132
 21
11.8267
  0
LINE
  8
0
 10
104.132
 20
11.8267
 11
103.365
 21
13.3317
  0
LINE
  8
0
 10
103.365
 20
13.3317
 11
103.101
 21
15
  0
LINE
  8
0
 10
103.101
 20
15
 11
103.365
 21
16.6683
  0
LINE
  8
0
 10
103.365
 20
16.6683
 11
104.132
 21
18.1733
  0
LINE
  8
0
 10
104.132
 20
18.1733
 11
105.327
 21
19.3677
  0
LINE
  8
0
 10
105.327
 20
19.3677
 11
106.832
 21
20.1345
  0
LINE
  8
0
 10
106.832
 20
20.1345
 11
108.5
 21
20.3988
  0
LINE
  8
0
 10
108.5
 20
20.3988
 11
110.168
 21
20.1345
  0
LINE
  8
0
 10
110.168
 20
20.1345
 11
111.673
 21
19.3677
  0
LINE
  8
0
 10
111.673
 20
19.3677
 11
112.868
 21
18.1733
  0
LINE
  8
0
 10
112.868
 20
18.1733
 11
113.635
 21
16.6683
  0
LINE
  8
0
 10
113.635
 20
16.6683
 11
113.899
 21
15
  0
LINE
  8
0
 10
113.899
 20
15
 11
113.635
 21
13.3317
  0
LINE
  8
0
 10
113.635
 20
13.3317
 11
112.868
 21
11.8267
  0
LINE
  8
0
 10
112.868
 20
11.8267
 11
111.673
 21
10.6323
  0
LINE
  8
0
 10
111.673
 20
10.6323
 11
110.168
 21
9.86548
  0
LINE
  8
0
 10
110.168
 20
9.86548
 11
108.5
 21
9.60124
  0
LINE
  8
0
 10
108.5
 20
9.60124
 11
106.832
 21
9.86548
  0
LINE
  8
0
 10
129.832
 20
9.86548
 11
128.327
 21
10.6323
  0
LINE
  8
0
 10
128.327
 20
10.6323
 11
127.132
 21
11.8267
  0
LINE
  8
0
 10
127.132
 20
11.8267
 11
126.365
 21
13.3317
  0
LINE
  8
0
 10
126.365
 20
13.3317
 11
126.101
 21
15
  0
LINE
  8
0
 10
126.101
 20
15
 11
126.365
 21
16.6683
  0
LINE
  8
0
 10
126.365
 20
16.6683
 11
127.132
 21
18.1733
  0
LINE
  8
0
 10
127.132
 20
18.1733
 11
128.327
 21
19.3677
  0
LINE
  8
0
 10
128.327
 20
19.3677
 11
129.832
 21
20.1345
  0
LINE
  8
0
 10
129.832
 20
20.1345
 11
131.5
 21
20.3988
  0
LINE
  8
0
 10
131.5
 20
20.3988
 11
133.168
 21
20.1345
  0
LINE
  8
0
 10
133.168
 20
20.1345
 11
134.673
 21
19.3677
  0
LINE
  8
0
 10
134.673
 20
19.3677
 11
135.868
 21
18.1733
  0
LINE
  8
0
 10
135.868
 20
18.1733
 11
136.635
 21
16.6683
  0
LINE
  8
0
 10
136.635
 20
16.6683
 11
136.899
 21
15
  0
LINE
  8
0
 10
136.899
 20
15
 11
136.635
 21
13.3317
  0
LINE
  8
0
 10
136.635
 20
13.3317
 11
135.868
 21
11.8267
  0
LINE
  8
0
 10
135.868
 20
11.8267
 11
134.673
 21
10.6323
  0
LINE
  8
0
 10
134.673
 20
10.6323
 11
133.168
 21
9.86548
  0
LINE
  8
0
 10
133.168
 20
9.86548
 11
131.5
 21
9.60124
  0
LINE
  8
0
 10
131.5
 20
9.60124
 11
129.832
 21
9.86548
  0
LINE
  8
0
 10
152.832
 20
9.86548
 11
151.327
 21
10.6323
  0
LINE
  8
0
 10
151.327
 20
10.6323
 11
150.132
 21
11.8267
  0
LINE
  8
0
 10
150.132
 20
11.8267
 11
149.365
 21
13.3317
  0
LINE
  8
0
 10
149.365
 20
13.3317
 11
149.101
 21
15
  0
LINE
  8
0
 10
149.101
 20
15
 11
149.365
 21
16.6683
  0
LINE
  8
0
 10
149.365
 20
16.6683
 11
150.132
 21
18.1733
  0
LINE
  8
0
 10
150.132
 20
18.1733
 11
151.327
 21
19.3677
  0
LINE
  8
0
 10
151.327
 20
19.3677
 11
152.832
 21
20.1345
  0
LINE
  8
0
 10
152.832
 20
20.1345
 11
154.5
 21
20.3988
  0
LINE
  8
0
 10
154.5
 20
20.3988
 11
156.168
 21
20.1345
  0
LINE
  8
0
 10
156.168
 20
20.1345
 11
157.673
 21
19.3677
  0
LINE
  8
0
 10
157.673
 20
19.3677
 11
158.868
 21
18.1733
  0
LINE
  8
0
 10
158.868
 20
18.1733
 11
159.635
 21
16.6683
  0
LINE
  8
0
 10
159.635
 20
16.6683
 11
159.899
 21
15
  0
LINE
  8
0
 10
159.899
 20
15
 11
159.635
 21
13.3317
  0
LINE
  8
0
 10
159.635
 20
13.3317
 11
158.868
 21
11.8267
  0
LINE
  8
0
 10
158.868
 20
11.8267
 11
157.673
 21
10.6323
  0
LINE
  8
0
 10
157.673
 20
10.6323
 11
156.168
 21
9.86548
  0
LINE
  8
0
 10
156.168
 20
9.86548
 11
154.5
 21
9.60124
  0
LINE
  8
0
 10
154.5
 20
9.60124
 11
152.832
 21
9.86548
  0
LINE
  8
0
 10
175.832
 20
9.86548
 11
174.327
 21
10.6323
  0
LINE
  8
0
 10
174.327
 20
10.6323
 11
173.132
 21
11.8267
  0
LINE
  8
0
 10
173.132
 20
11.8267
 11
172.365
 21
13.3317
  0
LINE
  8
0
 10
172.365
 20
13.3317
 11
172.101
 21
15
  0
LINE
  8
0
 10
172.101
 20
15
 11
172.365
 21
16.6683
  0
LINE
  8
0
 10
172.365
 20
16.6683
 11
173.132
 21
18.1733
  0
LINE
  8
0
 10
173.132
 20
18.1733
 11
174.327
 21
19.3677
  0
LINE
  8
0
 10
174.327
 20
19.3677
 11
175.832
 21
20.1345
  0
LINE
  8
0
 10
175.832
 20
20.1345
 11
177.5
 21
20.3988
  0
LINE
  8
0
 10
177.5
 20
20.3988
 11
179.168
 21
20.1345
  0
LINE
  8
0
 10
179.168
 20
20.1345
 11
180.673
 21
19.3677
  0
LINE
  8
0
 10
180.673
 20
19.3677
 11
181.868
 21
18.1733
  0
LINE
  8
0
 10
181.868
 20
18.1733
 11
182.635
 21
16.6683
  0
LINE
  8
0
 10
182.635
 20
16.6683
 11
182.899
 21
15
  0
LINE
  8
0
 10
182.899
 20
15
 11
182.635
 21
13.3317
  0
LINE
  8
0
 10
182.635
 20
13.3317
 11
181.868
 21
11.8267
  0
LINE
  8
0
 10
181.868
 20
11.8267
 11
180.673
 21
10.6323
  0
LINE
  8
0
 10
180.673
 20
10.6323
 11
179.168
 21
9.86548
  0
LINE
  8
0
 10
179.168
 20
9.86548
 11
177.5
 21
9.60124
  0
LINE
  8
0
 10
177.5
 20
9.60124
 11
175.832
 21
9.86548
  0
LINE
  8
0
 10
183.969
 20
7.67342
 11
183.272
 21
8.18011
  0
LINE
  8
0
 10
183.272
 20
8.18011
 11
183.005
 21
9
  0
LINE
  8
0
 10
183.005
 20
9
 11
183.272
 21
9.81987
  0
LINE
  8
0
 10
183.272
 20
9.81987
 11
183.969
 21
10.3266
  0
LINE
  8
0
 10
183.969
 20
10.3266
 11
184.831
 21
10.3266
  0
LINE
  8
0
 10
184.831
 20
10.3266
 11
185.528
 21
9.81987
  0
LINE
  8
0
 10
185.528
 20
9.81987
 11
185.795
 21
9
  0
LINE
  8
0
 10
185.795
 20
9
 11
185.528
 21
8.18011
  0
LINE
  8
0
 10
185.528
 20
8.18011
 11
184.831
 21
7.67342
  0
LINE
  8
0
 10
184.831
 20
7.67342
 11
183.969
 21
7.67342
  0
LINE
  8
0
 10
96.569
 20
7.67342
 11
95.8715
 21
8.18011
  0
LINE
  8
0
 10
95.8715
 20
8.18011
 11
95.6051
 21
9
  0
LINE
  8
0
 10
95.6051
 20
9
 11
95.8715
 21
9.81987
  0
LINE
  8
0
 10
95.8715
 20
9.81987
 11
96.569
 21
10.3266
  0
LINE
  8
0
 10
96.569
 20
10.3266
 11
97.431
 21
10.3266
  0
LINE
  8
0
 10
97.431
 20
10.3266
 11
98.1284
 21
9.81987
  0
LINE
  8
0
 10
98.1284
 20
9.81987
 11
98.3949
 21
9
  0
LINE
  8
0
 10
98.3949
 20
9
 11
98.1284
 21
8.18011
  0
LINE
  8
0
 10
98.1284
 20
8.18011
 11
97.431
 21
7.67342
  0
LINE
  8
0
 10
97.431
 20
7.67342
 11
96.569
 21
7.67342
  0
LINE
  8
0
 10
9.16895
 20
7.67342
 11
8.47153
 21
8.18011
  0
LINE
  8
0
 10
8.47153
 20
8.18011
 11
8.20514
 21
9
  0
LINE
  8
0
 10
8.20514
 20
9
 11
8.47153
 21
9.81987
  0
LINE
  8
0
 10
8.47153
 20
9.81987
 11
9.16895
 21
10.3266
  0
LINE
  8
0
 10
9.16895
 20
10.3266
 11
10.031
 21
10.3266
  0
LINE
  8
0
 10
10.031
 20
10.3266
 11
10.7285
 21
9.81987
  0
LINE
  8
0
 10
10.7285
 20
9.81987
 11
10.9948
 21
9
  0
LINE
  8
0
 10
10.9948
 20
9
 11
10.7285
 21
8.18011
  0
LINE
  8
0
 10
10.7285
 20
8.18011
 11
10.031
 21
7.67342
  0
LINE
  8
0
 10
10.031
 20
7.67342
 11
9.16895
 21
7.67342
  0
LINE
  8
0
 10
210.1
 20
7
 11
210.1
 21
9.89999
  0
LINE
  8
0
 10
210.1
 20
9.89999
 11
220
 21
9.89999
  0
LINE
  8
0
 10
220
 20
9.89999
 11
220.095
 21
9.9691
  0
LINE
  8
0
 10
220.095
 20
9.9691
 11
220.045
 21
10.0894
  0
LINE
  8
0
 10
220.045
 20
10.0894
 11
210.045
 21
15.0894
  0
LINE
  8
0
 10
210.045
 20
15.0894
 11
210
 21
15.1
  0
LINE
  8
0
 10
210
 20
15.1
 11
200
 21
15.1
  0
LINE
  8
0
 10
200
 20
15.1
 11
199.929
 21
15.0707
  0
LINE
  8
0
 10
199.929
 20
15.0707
 11
194.929
 21
10.0707
  0
LINE
  8
0
 10
194.929
 20
10.0707
 11
194.911
 21
9.95461
  0
LINE
  8
0
 10
194.911
 20
9.95461
 11
195
 21
9.89999
  0
LINE
  8
0
 10
195
 20
9.89999
 11
199.9
 21
9.89999
  0
LINE
  8
0
 10
199.9
 20
9.89999
 11
199.9
 21
7
  0
LINE
  8
0
 10
199.9
 20
7
 11
200
 21
6.89999
  0
LINE
  8
0
 10
200
 20
6.89999
 11
210
 21
6.89999
  0
LINE
  8
0
 10
210
 20
6.89999
 11
210.1
 21
7
  0
ENDSEC
  0
SECTION
  2
OBJECTS
  0
DICTIONARY
  0
ENDSEC
  0
EOF
