  0
SECTION
  2
BLOCKS
  0
ENDSEC
  0
SECTION
  2
ENTITIES
  0
LINE
  8
0
 10
225.1
 20
204.959
 11
225.1
 21
285.041
  0
LINE
  8
0
 10
225.1
 20
285.041
 11
225.041
 21
285.1
  0
LINE
  8
0
 10
225.041
 20
285.1
 11
4.95857
 21
285.1
  0
LINE
  8
0
 10
4.95857
 20
285.1
 11
4.89999
 21
285.041
  0
LINE
  8
0
 10
4.89999
 20
285.041
 11
4.89999
 21
204.959
  0
LINE
  8
0
 10
4.89999
 20
204.959
 11
4.95857
 21
204.9
  0
LINE
  8
0
 10
4.95857
 20
204.9
 11
225.041
 21
204.9
  0
LINE
  8
0
 10
225.041
 20
204.9
 11
225.1
 21
204.959
  0
LINE
  8
0
 10
211.1
 20
265.1
 11
211.1
 21
279.9
  0
LINE
  8
0
 10
211.1
 20
279.9
 11
213.9
 21
279.9
  0
LINE
  8
0
 10
213.9
 20
279.9
 11
213.9
 21
265.1
  0
LINE
  8
0
 10
213.9
 20
265.1
 11
211.1
 21
265.1
  0
LINE
  8
0
 10
12.1
 20
265.1
 11
12.1
 21
279.9
  0
LINE
  8
0
 10
12.1
 20
279.9
 11
14.9
 21
279.9
  0
LINE
  8
0
 10
14.9
 20
279.9
 11
14.9
 21
265.1
  0
LINE
  8
0
 10
14.9
 20
265.1
 11
12.1
 21
265.1
  0
LINE
  8
0
 10
44.1042
 20
247.243
 11
43.2962
 21
247.655
  0
LINE
  8
0
 10
43.2962
 20
247.655
 11
42.6548
 21
248.296
  0
LINE
  8
0
 10
42.6548
 20
248.296
 11
42.2431
 21
249.104
  0
LINE
  8
0
 10
42.2431
 20
249.104
 11
42.1012
 21
250
  0
LINE
  8
0
 10
42.1012
 20
250
 11
42.2431
 21
250.896
  0
LINE
  8
0
 10
42.2431
 20
250.896
 11
42.6548
 21
251.704
  0
LINE
  8
0
 10
42.6548
 20
251.704
 11
43.2962
 21
252.345
  0
LINE
  8
0
 10
43.2962
 20
252.345
 11
44.1042
 21
252.757
  0
LINE
  8
0
 10
44.1042
 20
252.757
 11
45
 21
252.899
  0
LINE
  8
0
 10
45
 20
252.899
 11
45.8958
 21
252.757
  0
LINE
  8
0
 10
45.8958
 20
252.757
 11
46.7038
 21
252.345
  0
LINE
  8
0
 10
46.7038
 20
252.345
 11
47.3452
 21
251.704
  0
LINE
  8
0
 10
47.3452
 20
251.704
 11
47.7569
 21
250.896
  0
LINE
  8
0
 10
47.7569
 20
250.896
 11
47.8988
 21
250
  0
LINE
  8
0
 10
47.8988
 20
250
 11
47.7569
 21
249.104
  0
LINE
  8
0
 10
47.7569
 20
249.104
 11
47.3452
 21
248.296
  0
LINE
  8
0
 10
47.3452
 20
248.296
 11
46.7038
 21
247.655
  0
LINE
  8
0
 10
46.7038
 20
247.655
 11
45.8958
 21
247.243
  0
LINE
  8
0
 10
45.8958
 20
247.243
 11
45
 21
247.101
  0
LINE
  8
0
 10
45
 20
247.101
 11
44.1042
 21
247.243
  0
LINE
  8
0
 10
144.104
 20
247.243
 11
143.296
 21
247.655
  0
LINE
  8
0
 10
143.296
 20
247.655
 11
142.655
 21
248.296
  0
LINE
  8
0
 10
142.655
 20
248.296
 11
142.243
 21
249.104
  0
LINE
  8
0
 10
142.243
 20
249.104
 11
142.101
 21
250
  0
LINE
  8
0
 10
142.101
 20
250
 11
142.243
 21
250.896
  0
LINE
  8
0
 10
142.243
 20
250.896
 11
142.655
 21
251.704
  0
LINE
  8
0
 10
142.655
 20
251.704
 11
143.296
 21
252.345
  0
LINE
  8
0
 10
143.296
 20
252.345
 11
144.104
 21
252.757
  0
LINE
  8
0
 10
144.104
 20
252.757
 11
145
 21
252.899
  0
LINE
  8
0
 10
145
 20
252.899
 11
145.896
 21
252.757
  0
LINE
  8
0
 10
145.896
 20
252.757
 11
146.704
 21
252.345
  0
LINE
  8
0
 10
146.704
 20
252.345
 11
147.345
 21
251.704
  0
LINE
  8
0
 10
147.345
 20
251.704
 11
147.757
 21
250.896
  0
LINE
  8
0
 10
147.757
 20
250.896
 11
147.899
 21
250
  0
LINE
  8
0
 10
147.899
 20
250
 11
147.757
 21
249.104
  0
LINE
  8
0
 10
147.757
 20
249.104
 11
147.345
 21
248.296
  0
LINE
  8
0
 10
147.345
 20
248.296
 11
146.704
 21
247.655
  0
LINE
  8
0
 10
146.704
 20
247.655
 11
145.896
 21
247.243
  0
LINE
  8
0
 10
145.896
 20
247.243
 11
145
 21
247.101
  0
LINE
  8
0
 10
145
 20
247.101
 11
144.104
 21
247.243
  0
LINE
  8
0
 10
211.1
 20
235.1
 11
211.1
 21
249.9
  0
LINE
  8
0
 10
211.1
 20
249.9
 11
213.9
 21
249.9
  0
LINE
  8
0
 10
213.9
 20
249.9
 11
213.9
 21
235.1
  0
LINE
  8
0
 10
213.9
 20
235.1
 11
211.1
 21
235.1
  0
LINE
  8
0
 10
12.1
 20
235.1
 11
12.1
 21
249.9
  0
LINE
  8
0
 10
12.1
 20
249.9
 11
14.9
 21
249.9
  0
LINE
  8
0
 10
14.9
 20
249.9
 11
14.9
 21
235.1
  0
LINE
  8
0
 10
14.9
 20
235.1
 11
12.1
 21
235.1
  0
LINE
  8
0
 10
375.104
 20
199.965
 11
370.11
 21
254.9
  0
LINE
  8
0
 10
370.11
 20
254.9
 11
373.041
 21
254.9
  0
LINE
  8
0
 10
373.041
 20
254.9
 11
373.1
 21
254.959
  0
LINE
  8
0
 10
373.1
 20
254.959
 11
373.1
 21
260.9
  0
LINE
  8
0
 10
373.1
 20
260.9
 11
375.9
 21
260.9
  0
LINE
  8
0
 10
375.9
 20
260.9
 11
375.9
 21
254.959
  0
LINE
  8
0
 10
375.9
 20
254.959
 11
375.959
 21
254.9
  0
LINE
  8
0
 10
375.959
 20
254.9
 11
400.047
 21
254.9
  0
LINE
  8
0
 10
400.047
 20
254.9
 11
400.107
 21
254.973
  0
LINE
  8
0
 10
400.107
 20
254.973
 11
398.091
 21
265.055
  0
LINE
  8
0
 10
398.091
 20
265.055
 11
398.036
 21
265.1
  0
LINE
  8
0
 10
398.036
 20
265.1
 11
380.062
 21
265.1
  0
LINE
  8
0
 10
380.062
 20
265.1
 11
375.077
 21
275.07
  0
LINE
  8
0
 10
375.077
 20
275.07
 11
375.028
 21
275.1
  0
LINE
  8
0
 10
375.028
 20
275.1
 11
370.1
 21
275.1
  0
LINE
  8
0
 10
370.1
 20
275.1
 11
370.1
 21
278.041
  0
LINE
  8
0
 10
370.1
 20
278.041
 11
370.041
 21
278.1
  0
LINE
  8
0
 10
370.041
 20
278.1
 11
354.959
 21
278.1
  0
LINE
  8
0
 10
354.959
 20
278.1
 11
354.9
 21
278.041
  0
LINE
  8
0
 10
354.9
 20
278.041
 11
354.9
 21
275.1
  0
LINE
  8
0
 10
354.9
 20
275.1
 11
340.1
 21
275.1
  0
LINE
  8
0
 10
340.1
 20
275.1
 11
340.1
 21
278.041
  0
LINE
  8
0
 10
340.1
 20
278.041
 11
340.041
 21
278.1
  0
LINE
  8
0
 10
340.041
 20
278.1
 11
324.959
 21
278.1
  0
LINE
  8
0
 10
324.959
 20
278.1
 11
324.9
 21
278.041
  0
LINE
  8
0
 10
324.9
 20
278.041
 11
324.9
 21
275.1
  0
LINE
  8
0
 10
324.9
 20
275.1
 11
309.959
 21
275.1
  0
LINE
  8
0
 10
309.959
 20
275.1
 11
309.9
 21
275.041
  0
LINE
  8
0
 10
309.9
 20
275.041
 11
309.9
 21
264.982
  0
LINE
  8
0
 10
309.9
 20
264.982
 11
309.912
 21
264.949
  0
LINE
  8
0
 10
309.912
 20
264.949
 11
331.092
 21
239.919
  0
LINE
  8
0
 10
331.092
 20
239.919
 11
331.132
 21
239.9
  0
LINE
  8
0
 10
331.132
 20
239.9
 11
344.9
 21
239.9
  0
LINE
  8
0
 10
344.9
 20
239.9
 11
344.9
 21
237.1
  0
LINE
  8
0
 10
344.9
 20
237.1
 11
333.628
 21
237.1
  0
LINE
  8
0
 10
333.628
 20
237.1
 11
333.575
 21
236.984
  0
LINE
  8
0
 10
333.575
 20
236.984
 11
364.938
 21
199.919
  0
LINE
  8
0
 10
364.938
 20
199.919
 11
364.978
 21
199.9
  0
LINE
  8
0
 10
364.978
 20
199.9
 11
375.044
 21
199.9
  0
LINE
  8
0
 10
375.044
 20
199.9
 11
375.104
 21
199.965
  0
LINE
  8
0
 10
369.568
 20
203.67
 11
369.178
 21
203.868
  0
LINE
  8
0
 10
369.178
 20
203.868
 11
368.868
 21
204.178
  0
LINE
  8
0
 10
368.868
 20
204.178
 11
368.67
 21
204.568
  0
LINE
  8
0
 10
368.67
 20
204.568
 11
368.601
 21
205
  0
LINE
  8
0
 10
368.601
 20
205
 11
368.67
 21
205.432
  0
LINE
  8
0
 10
368.67
 20
205.432
 11
368.868
 21
205.822
  0
LINE
  8
0
 10
368.868
 20
205.822
 11
369.178
 21
206.132
  0
LINE
  8
0
 10
369.178
 20
206.132
 11
369.568
 21
206.33
  0
LINE
  8
0
 10
369.568
 20
206.33
 11
370
 21
206.399
  0
LINE
  8
0
 10
370
 20
206.399
 11
370.432
 21
206.33
  0
LINE
  8
0
 10
370.432
 20
206.33
 11
370.822
 21
206.132
  0
LINE
  8
0
 10
370.822
 20
206.132
 11
371.132
 21
205.822
  0
LINE
  8
0
 10
371.132
 20
205.822
 11
371.33
 21
205.432
  0
LINE
  8
0
 10
371.33
 20
205.432
 11
371.399
 21
205
  0
LINE
  8
0
 10
371.399
 20
205
 11
371.33
 21
204.568
  0
LINE
  8
0
 10
371.33
 20
204.568
 11
371.132
 21
204.178
  0
LINE
  8
0
 10
371.132
 20
204.178
 11
370.822
 21
203.868
  0
LINE
  8
0
 10
370.822
 20
203.868
 11
370.432
 21
203.67
  0
LINE
  8
0
 10
370.432
 20
203.67
 11
370
 21
203.601
  0
LINE
  8
0
 10
370
 20
203.601
 11
369.568
 21
203.67
  0
LINE
  8
0
 10
275.1
 20
196.959
 11
275.1
 21
199.9
  0
LINE
  8
0
 10
275.1
 20
199.9
 11
289.9
 21
199.9
  0
LINE
  8
0
 10
289.9
 20
199.9
 11
289.9
 21
196.959
  0
LINE
  8
0
 10
289.9
 20
196.959
 11
289.959
 21
196.9
  0
LINE
  8
0
 10
289.959
 20
196.9
 11
305.041
 21
196.9
  0
LINE
  8
0
 10
305.041
 20
196.9
 11
305.1
 21
196.959
  0
LINE
  8
0
 10
305.1
 20
196.959
 11
305.1
 21
199.9
  0
LINE
  8
0
 10
305.1
 20
199.9
 11
320.041
 21
199.9
  0
LINE
  8
0
 10
320.041
 20
199.9
 11
320.1
 21
199.959
  0
LINE
  8
0
 10
320.1
 20
199.959
 11
320.1
 21
210.018
  0
LINE
  8
0
 10
320.1
 20
210.018
 11
320.088
 21
210.051
  0
LINE
  8
0
 10
320.088
 20
210.051
 11
298.908
 21
235.081
  0
LINE
  8
0
 10
298.908
 20
235.081
 11
298.868
 21
235.1
  0
LINE
  8
0
 10
298.868
 20
235.1
 11
285.1
 21
235.1
  0
LINE
  8
0
 10
285.1
 20
235.1
 11
285.1
 21
237.9
  0
LINE
  8
0
 10
285.1
 20
237.9
 11
296.372
 21
237.9
  0
LINE
  8
0
 10
296.372
 20
237.9
 11
296.425
 21
238.016
  0
LINE
  8
0
 10
296.425
 20
238.016
 11
265.062
 21
275.081
  0
LINE
  8
0
 10
265.062
 20
275.081
 11
265.022
 21
275.1
  0
LINE
  8
0
 10
265.022
 20
275.1
 11
254.956
 21
275.1
  0
LINE
  8
0
 10
254.956
 20
275.1
 11
254.896
 21
275.035
  0
LINE
  8
0
 10
254.896
 20
275.035
 11
259.89
 21
220.1
  0
LINE
  8
0
 10
259.89
 20
220.1
 11
256.959
 21
220.1
  0
LINE
  8
0
 10
256.959
 20
220.1
 11
256.9
 21
220.041
  0
LINE
  8
0
 10
256.9
 20
220.041
 11
256.9
 21
214.1
  0
LINE
  8
0
 10
256.9
 20
214.1
 11
254.1
 21
214.1
  0
LINE
  8
0
 10
254.1
 20
214.1
 11
254.1
 21
220.041
  0
LINE
  8
0
 10
254.1
 20
220.041
 11
254.041
 21
220.1
  0
LINE
  8
0
 10
254.041
 20
220.1
 11
229.953
 21
220.1
  0
LINE
  8
0
 10
229.953
 20
220.1
 11
229.893
 21
220.027
  0
LINE
  8
0
 10
229.893
 20
220.027
 11
231.909
 21
209.945
  0
LINE
  8
0
 10
231.909
 20
209.945
 11
231.964
 21
209.9
  0
LINE
  8
0
 10
231.964
 20
209.9
 11
249.938
 21
209.9
  0
LINE
  8
0
 10
249.938
 20
209.9
 11
254.923
 21
199.93
  0
LINE
  8
0
 10
254.923
 20
199.93
 11
254.972
 21
199.9
  0
LINE
  8
0
 10
254.972
 20
199.9
 11
259.9
 21
199.9
  0
LINE
  8
0
 10
259.9
 20
199.9
 11
259.9
 21
196.959
  0
LINE
  8
0
 10
259.9
 20
196.959
 11
259.959
 21
196.9
  0
LINE
  8
0
 10
259.959
 20
196.9
 11
275.041
 21
196.9
  0
LINE
  8
0
 10
275.041
 20
196.9
 11
275.1
 21
196.959
  0
LINE
  8
0
 10
259.568
 20
268.67
 11
259.178
 21
268.868
  0
LINE
  8
0
 10
259.178
 20
268.868
 11
258.868
 21
269.178
  0
LINE
  8
0
 10
258.868
 20
269.178
 11
258.67
 21
269.568
  0
LINE
  8
0
 10
258.67
 20
269.568
 11
258.601
 21
270
  0
LINE
  8
0
 10
258.601
 20
270
 11
258.67
 21
270.432
  0
LINE
  8
0
 10
258.67
 20
270.432
 11
258.868
 21
270.822
  0
LINE
  8
0
 10
258.868
 20
270.822
 11
259.178
 21
271.132
  0
LINE
  8
0
 10
259.178
 20
271.132
 11
259.568
 21
271.33
  0
LINE
  8
0
 10
259.568
 20
271.33
 11
260
 21
271.399
  0
LINE
  8
0
 10
260
 20
271.399
 11
260.432
 21
271.33
  0
LINE
  8
0
 10
260.432
 20
271.33
 11
260.822
 21
271.132
  0
LINE
  8
0
 10
260.822
 20
271.132
 11
261.132
 21
270.822
  0
LINE
  8
0
 10
261.132
 20
270.822
 11
261.33
 21
270.432
  0
LINE
  8
0
 10
261.33
 20
270.432
 11
261.399
 21
270
  0
LINE
  8
0
 10
261.399
 20
270
 11
261.33
 21
269.568
  0
LINE
  8
0
 10
261.33
 20
269.568
 11
261.132
 21
269.178
  0
LINE
  8
0
 10
261.132
 20
269.178
 11
260.822
 21
268.868
  0
LINE
  8
0
 10
260.822
 20
268.868
 11
260.432
 21
268.67
  0
LINE
  8
0
 10
260.432
 20
268.67
 11
260
 21
268.601
  0
LINE
  8
0
 10
260
 20
268.601
 11
259.568
 21
268.67
  0
LINE
  8
0
 10
415.1
 20
94.9586
 11
415.1
 21
250.041
  0
LINE
  8
0
 10
415.1
 20
250.041
 11
415.041
 21
250.1
  0
LINE
  8
0
 10
415.041
 20
250.1
 11
404.959
 21
250.1
  0
LINE
  8
0
 10
404.959
 20
250.1
 11
404.9
 21
250.041
  0
LINE
  8
0
 10
404.9
 20
250.041
 11
404.9
 21
195.1
  0
LINE
  8
0
 10
404.9
 20
195.1
 11
364.959
 21
195.1
  0
LINE
  8
0
 10
364.959
 20
195.1
 11
364.9
 21
195.041
  0
LINE
  8
0
 10
364.9
 20
195.041
 11
364.9
 21
184.959
  0
LINE
  8
0
 10
364.9
 20
184.959
 11
364.959
 21
184.9
  0
LINE
  8
0
 10
364.959
 20
184.9
 11
404.9
 21
184.9
  0
LINE
  8
0
 10
404.9
 20
184.9
 11
404.9
 21
94.9586
  0
LINE
  8
0
 10
404.9
 20
94.9586
 11
404.959
 21
94.9
  0
LINE
  8
0
 10
404.959
 20
94.9
 11
415.041
 21
94.9
  0
LINE
  8
0
 10
415.041
 20
94.9
 11
415.1
 21
94.9586
  0
LINE
  8
0
 10
409.568
 20
243.67
 11
409.178
 21
243.868
  0
LINE
  8
0
 10
409.178
 20
243.868
 11
408.868
 21
244.178
  0
LINE
  8
0
 10
408.868
 20
244.178
 11
408.67
 21
244.568
  0
LINE
  8
0
 10
408.67
 20
244.568
 11
408.601
 21
245
  0
LINE
  8
0
 10
408.601
 20
245
 11
408.67
 21
245.432
  0
LINE
  8
0
 10
408.67
 20
245.432
 11
408.868
 21
245.822
  0
LINE
  8
0
 10
408.868
 20
245.822
 11
409.178
 21
246.132
  0
LINE
  8
0
 10
409.178
 20
246.132
 11
409.568
 21
246.33
  0
LINE
  8
0
 10
409.568
 20
246.33
 11
410
 21
246.399
  0
LINE
  8
0
 10
410
 20
246.399
 11
410.432
 21
246.33
  0
LINE
  8
0
 10
410.432
 20
246.33
 11
410.822
 21
246.132
  0
LINE
  8
0
 10
410.822
 20
246.132
 11
411.132
 21
245.822
  0
LINE
  8
0
 10
411.132
 20
245.822
 11
411.33
 21
245.432
  0
LINE
  8
0
 10
411.33
 20
245.432
 11
411.399
 21
245
  0
LINE
  8
0
 10
411.399
 20
245
 11
411.33
 21
244.568
  0
LINE
  8
0
 10
411.33
 20
244.568
 11
411.132
 21
244.178
  0
LINE
  8
0
 10
411.132
 20
244.178
 11
410.822
 21
243.868
  0
LINE
  8
0
 10
410.822
 20
243.868
 11
410.432
 21
243.67
  0
LINE
  8
0
 10
410.432
 20
243.67
 11
410
 21
243.601
  0
LINE
  8
0
 10
410
 20
243.601
 11
409.568
 21
243.67
  0
LINE
  8
0
 10
409.568
 20
188.67
 11
409.178
 21
188.868
  0
LINE
  8
0
 10
409.178
 20
188.868
 11
408.868
 21
189.178
  0
LINE
  8
0
 10
408.868
 20
189.178
 11
408.67
 21
189.568
  0
LINE
  8
0
 10
408.67
 20
189.568
 11
408.601
 21
190
  0
LINE
  8
0
 10
408.601
 20
190
 11
408.67
 21
190.432
  0
LINE
  8
0
 10
408.67
 20
190.432
 11
408.868
 21
190.822
  0
LINE
  8
0
 10
408.868
 20
190.822
 11
409.178
 21
191.132
  0
LINE
  8
0
 10
409.178
 20
191.132
 11
409.568
 21
191.33
  0
LINE
  8
0
 10
409.568
 20
191.33
 11
410
 21
191.399
  0
LINE
  8
0
 10
410
 20
191.399
 11
410.432
 21
191.33
  0
LINE
  8
0
 10
410.432
 20
191.33
 11
410.822
 21
191.132
  0
LINE
  8
0
 10
410.822
 20
191.132
 11
411.132
 21
190.822
  0
LINE
  8
0
 10
411.132
 20
190.822
 11
411.33
 21
190.432
  0
LINE
  8
0
 10
411.33
 20
190.432
 11
411.399
 21
190
  0
LINE
  8
0
 10
411.399
 20
190
 11
411.33
 21
189.568
  0
LINE
  8
0
 10
411.33
 20
189.568
 11
411.132
 21
189.178
  0
LINE
  8
0
 10
411.132
 20
189.178
 11
410.822
 21
188.868
  0
LINE
  8
0
 10
410.822
 20
188.868
 11
410.432
 21
188.67
  0
LINE
  8
0
 10
410.432
 20
188.67
 11
410
 21
188.601
  0
LINE
  8
0
 10
410
 20
188.601
 11
409.568
 21
188.67
  0
LINE
  8
0
 10
409.568
 20
118.67
 11
409.178
 21
118.868
  0
LINE
  8
0
 10
409.178
 20
118.868
 11
408.868
 21
119.178
  0
LINE
  8
0
 10
408.868
 20
119.178
 11
408.67
 21
119.568
  0
LINE
  8
0
 10
408.67
 20
119.568
 11
408.601
 21
120
  0
LINE
  8
0
 10
408.601
 20
120
 11
408.67
 21
120.432
  0
LINE
  8
0
 10
408.67
 20
120.432
 11
408.868
 21
120.822
  0
LINE
  8
0
 10
408.868
 20
120.822
 11
409.178
 21
121.132
  0
LINE
  8
0
 10
409.178
 20
121.132
 11
409.568
 21
121.33
  0
LINE
  8
0
 10
409.568
 20
121.33
 11
410
 21
121.399
  0
LINE
  8
0
 10
410
 20
121.399
 11
410.432
 21
121.33
  0
LINE
  8
0
 10
410.432
 20
121.33
 11
410.822
 21
121.132
  0
LINE
  8
0
 10
410.822
 20
121.132
 11
411.132
 21
120.822
  0
LINE
  8
0
 10
411.132
 20
120.822
 11
411.33
 21
120.432
  0
LINE
  8
0
 10
411.33
 20
120.432
 11
411.399
 21
120
  0
LINE
  8
0
 10
411.399
 20
120
 11
411.33
 21
119.568
  0
LINE
  8
0
 10
411.33
 20
119.568
 11
411.132
 21
119.178
  0
LINE
  8
0
 10
411.132
 20
119.178
 11
410.822
 21
118.868
  0
LINE
  8
0
 10
410.822
 20
118.868
 11
410.432
 21
118.67
  0
LINE
  8
0
 10
410.432
 20
118.67
 11
410
 21
118.601
  0
LINE
  8
0
 10
410
 20
118.601
 11
409.568
 21
118.67
  0
LINE
  8
0
 10
409.568
 20
98.6697
 11
409.178
 21
98.8684
  0
LINE
  8
0
 10
409.178
 20
98.8684
 11
408.868
 21
99.1779
  0
LINE
  8
0
 10
408.868
 20
99.1779
 11
408.67
 21
99.5677
  0
LINE
  8
0
 10
408.67
 20
99.5677
 11
408.601
 21
100
  0
LINE
  8
0
 10
408.601
 20
100
 11
408.67
 21
100.432
  0
LINE
  8
0
 10
408.67
 20
100.432
 11
408.868
 21
100.822
  0
LINE
  8
0
 10
408.868
 20
100.822
 11
409.178
 21
101.132
  0
LINE
  8
0
 10
409.178
 20
101.132
 11
409.568
 21
101.33
  0
LINE
  8
0
 10
409.568
 20
101.33
 11
410
 21
101.399
  0
LINE
  8
0
 10
410
 20
101.399
 11
410.432
 21
101.33
  0
LINE
  8
0
 10
410.432
 20
101.33
 11
410.822
 21
101.132
  0
LINE
  8
0
 10
410.822
 20
101.132
 11
411.132
 21
100.822
  0
LINE
  8
0
 10
411.132
 20
100.822
 11
411.33
 21
100.432
  0
LINE
  8
0
 10
411.33
 20
100.432
 11
411.399
 21
100
  0
LINE
  8
0
 10
411.399
 20
100
 11
411.33
 21
99.5677
  0
LINE
  8
0
 10
411.33
 20
99.5677
 11
411.132
 21
99.1779
  0
LINE
  8
0
 10
411.132
 20
99.1779
 11
410.822
 21
98.8684
  0
LINE
  8
0
 10
410.822
 20
98.8684
 11
410.432
 21
98.6697
  0
LINE
  8
0
 10
410.432
 20
98.6697
 11
410
 21
98.6012
  0
LINE
  8
0
 10
410
 20
98.6012
 11
409.568
 21
98.6697
  0
LINE
  8
0
 10
390.1
 20
164.959
 11
390.1
 21
175.041
  0
LINE
  8
0
 10
390.1
 20
175.041
 11
390.041
 21
175.1
  0
LINE
  8
0
 10
390.041
 20
175.1
 11
335.1
 21
175.1
  0
LINE
  8
0
 10
335.1
 20
175.1
 11
335.1
 21
215.041
  0
LINE
  8
0
 10
335.1
 20
215.041
 11
335.041
 21
215.1
  0
LINE
  8
0
 10
335.041
 20
215.1
 11
324.959
 21
215.1
  0
LINE
  8
0
 10
324.959
 20
215.1
 11
324.9
 21
215.041
  0
LINE
  8
0
 10
324.9
 20
215.041
 11
324.9
 21
175.1
  0
LINE
  8
0
 10
324.9
 20
175.1
 11
234.959
 21
175.1
  0
LINE
  8
0
 10
234.959
 20
175.1
 11
234.9
 21
175.041
  0
LINE
  8
0
 10
234.9
 20
175.041
 11
234.9
 21
164.959
  0
LINE
  8
0
 10
234.9
 20
164.959
 11
234.959
 21
164.9
  0
LINE
  8
0
 10
234.959
 20
164.9
 11
390.041
 21
164.9
  0
LINE
  8
0
 10
390.041
 20
164.9
 11
390.1
 21
164.959
  0
LINE
  8
0
 10
239.568
 20
168.67
 11
239.178
 21
168.868
  0
LINE
  8
0
 10
239.178
 20
168.868
 11
238.868
 21
169.178
  0
LINE
  8
0
 10
238.868
 20
169.178
 11
238.67
 21
169.568
  0
LINE
  8
0
 10
238.67
 20
169.568
 11
238.601
 21
170
  0
LINE
  8
0
 10
238.601
 20
170
 11
238.67
 21
170.432
  0
LINE
  8
0
 10
238.67
 20
170.432
 11
238.868
 21
170.822
  0
LINE
  8
0
 10
238.868
 20
170.822
 11
239.178
 21
171.132
  0
LINE
  8
0
 10
239.178
 20
171.132
 11
239.568
 21
171.33
  0
LINE
  8
0
 10
239.568
 20
171.33
 11
240
 21
171.399
  0
LINE
  8
0
 10
240
 20
171.399
 11
240.432
 21
171.33
  0
LINE
  8
0
 10
240.432
 20
171.33
 11
240.822
 21
171.132
  0
LINE
  8
0
 10
240.822
 20
171.132
 11
241.132
 21
170.822
  0
LINE
  8
0
 10
241.132
 20
170.822
 11
241.33
 21
170.432
  0
LINE
  8
0
 10
241.33
 20
170.432
 11
241.399
 21
170
  0
LINE
  8
0
 10
241.399
 20
170
 11
241.33
 21
169.568
  0
LINE
  8
0
 10
241.33
 20
169.568
 11
241.132
 21
169.178
  0
LINE
  8
0
 10
241.132
 20
169.178
 11
240.822
 21
168.868
  0
LINE
  8
0
 10
240.822
 20
168.868
 11
240.432
 21
168.67
  0
LINE
  8
0
 10
240.432
 20
168.67
 11
240
 21
168.601
  0
LINE
  8
0
 10
240
 20
168.601
 11
239.568
 21
168.67
  0
LINE
  8
0
 10
259.568
 20
168.67
 11
259.178
 21
168.868
  0
LINE
  8
0
 10
259.178
 20
168.868
 11
258.868
 21
169.178
  0
LINE
  8
0
 10
258.868
 20
169.178
 11
258.67
 21
169.568
  0
LINE
  8
0
 10
258.67
 20
169.568
 11
258.601
 21
170
  0
LINE
  8
0
 10
258.601
 20
170
 11
258.67
 21
170.432
  0
LINE
  8
0
 10
258.67
 20
170.432
 11
258.868
 21
170.822
  0
LINE
  8
0
 10
258.868
 20
170.822
 11
259.178
 21
171.132
  0
LINE
  8
0
 10
259.178
 20
171.132
 11
259.568
 21
171.33
  0
LINE
  8
0
 10
259.568
 20
171.33
 11
260
 21
171.399
  0
LINE
  8
0
 10
260
 20
171.399
 11
260.432
 21
171.33
  0
LINE
  8
0
 10
260.432
 20
171.33
 11
260.822
 21
171.132
  0
LINE
  8
0
 10
260.822
 20
171.132
 11
261.132
 21
170.822
  0
LINE
  8
0
 10
261.132
 20
170.822
 11
261.33
 21
170.432
  0
LINE
  8
0
 10
261.33
 20
170.432
 11
261.399
 21
170
  0
LINE
  8
0
 10
261.399
 20
170
 11
261.33
 21
169.568
  0
LINE
  8
0
 10
261.33
 20
169.568
 11
261.132
 21
169.178
  0
LINE
  8
0
 10
261.132
 20
169.178
 11
260.822
 21
168.868
  0
LINE
  8
0
 10
260.822
 20
168.868
 11
260.432
 21
168.67
  0
LINE
  8
0
 10
260.432
 20
168.67
 11
260
 21
168.601
  0
LINE
  8
0
 10
260
 20
168.601
 11
259.568
 21
168.67
  0
LINE
  8
0
 10
329.568
 20
168.67
 11
329.178
 21
168.868
  0
LINE
  8
0
 10
329.178
 20
168.868
 11
328.868
 21
169.178
  0
LINE
  8
0
 10
328.868
 20
169.178
 11
328.67
 21
169.568
  0
LINE
  8
0
 10
328.67
 20
169.568
 11
328.601
 21
170
  0
LINE
  8
0
 10
328.601
 20
170
 11
328.67
 21
170.432
  0
LINE
  8
0
 10
328.67
 20
170.432
 11
328.868
 21
170.822
  0
LINE
  8
0
 10
328.868
 20
170.822
 11
329.178
 21
171.132
  0
LINE
  8
0
 10
329.178
 20
171.132
 11
329.568
 21
171.33
  0
LINE
  8
0
 10
329.568
 20
171.33
 11
330
 21
171.399
  0
LINE
  8
0
 10
330
 20
171.399
 11
330.432
 21
171.33
  0
LINE
  8
0
 10
330.432
 20
171.33
 11
330.822
 21
171.132
  0
LINE
  8
0
 10
330.822
 20
171.132
 11
331.132
 21
170.822
  0
LINE
  8
0
 10
331.132
 20
170.822
 11
331.33
 21
170.432
  0
LINE
  8
0
 10
331.33
 20
170.432
 11
331.399
 21
170
  0
LINE
  8
0
 10
331.399
 20
170
 11
331.33
 21
169.568
  0
LINE
  8
0
 10
331.33
 20
169.568
 11
331.132
 21
169.178
  0
LINE
  8
0
 10
331.132
 20
169.178
 11
330.822
 21
168.868
  0
LINE
  8
0
 10
330.822
 20
168.868
 11
330.432
 21
168.67
  0
LINE
  8
0
 10
330.432
 20
168.67
 11
330
 21
168.601
  0
LINE
  8
0
 10
330
 20
168.601
 11
329.568
 21
168.67
  0
LINE
  8
0
 10
384.568
 20
168.67
 11
384.178
 21
168.868
  0
LINE
  8
0
 10
384.178
 20
168.868
 11
383.868
 21
169.178
  0
LINE
  8
0
 10
383.868
 20
169.178
 11
383.67
 21
169.568
  0
LINE
  8
0
 10
383.67
 20
169.568
 11
383.601
 21
170
  0
LINE
  8
0
 10
383.601
 20
170
 11
383.67
 21
170.432
  0
LINE
  8
0
 10
383.67
 20
170.432
 11
383.868
 21
170.822
  0
LINE
  8
0
 10
383.868
 20
170.822
 11
384.178
 21
171.132
  0
LINE
  8
0
 10
384.178
 20
171.132
 11
384.568
 21
171.33
  0
LINE
  8
0
 10
384.568
 20
171.33
 11
385
 21
171.399
  0
LINE
  8
0
 10
385
 20
171.399
 11
385.432
 21
171.33
  0
LINE
  8
0
 10
385.432
 20
171.33
 11
385.822
 21
171.132
  0
LINE
  8
0
 10
385.822
 20
171.132
 11
386.132
 21
170.822
  0
LINE
  8
0
 10
386.132
 20
170.822
 11
386.33
 21
170.432
  0
LINE
  8
0
 10
386.33
 20
170.432
 11
386.399
 21
170
  0
LINE
  8
0
 10
386.399
 20
170
 11
386.33
 21
169.568
  0
LINE
  8
0
 10
386.33
 20
169.568
 11
386.132
 21
169.178
  0
LINE
  8
0
 10
386.132
 20
169.178
 11
385.822
 21
168.868
  0
LINE
  8
0
 10
385.822
 20
168.868
 11
385.432
 21
168.67
  0
LINE
  8
0
 10
385.432
 20
168.67
 11
385
 21
168.601
  0
LINE
  8
0
 10
385
 20
168.601
 11
384.568
 21
168.67
  0
LINE
  8
0
 10
19.4129
 20
179.959
 11
19.4129
 21
188.9
  0
LINE
  8
0
 10
19.4129
 20
188.9
 11
27.5871
 21
188.9
  0
LINE
  8
0
 10
27.5871
 20
188.9
 11
27.5871
 21
179.959
  0
LINE
  8
0
 10
27.5871
 20
179.959
 11
27.6456
 21
179.9
  0
LINE
  8
0
 10
27.6456
 20
179.9
 11
37.3544
 21
179.9
  0
LINE
  8
0
 10
37.3544
 20
179.9
 11
37.4129
 21
179.959
  0
LINE
  8
0
 10
37.4129
 20
179.959
 11
37.4129
 21
188.9
  0
LINE
  8
0
 10
37.4129
 20
188.9
 11
45.5871
 21
188.9
  0
LINE
  8
0
 10
45.5871
 20
188.9
 11
45.5871
 21
179.959
  0
LINE
  8
0
 10
45.5871
 20
179.959
 11
45.6456
 21
179.9
  0
LINE
  8
0
 10
45.6456
 20
179.9
 11
55.3544
 21
179.9
  0
LINE
  8
0
 10
55.3544
 20
179.9
 11
55.4129
 21
179.959
  0
LINE
  8
0
 10
55.4129
 20
179.959
 11
55.4129
 21
188.9
  0
LINE
  8
0
 10
55.4129
 20
188.9
 11
63.5871
 21
188.9
  0
LINE
  8
0
 10
63.5871
 20
188.9
 11
63.5871
 21
179.959
  0
LINE
  8
0
 10
63.5871
 20
179.959
 11
63.6456
 21
179.9
  0
LINE
  8
0
 10
63.6456
 20
179.9
 11
73.3544
 21
179.9
  0
LINE
  8
0
 10
73.3544
 20
179.9
 11
73.4129
 21
179.959
  0
LINE
  8
0
 10
73.4129
 20
179.959
 11
73.4129
 21
188.9
  0
LINE
  8
0
 10
73.4129
 20
188.9
 11
81.5871
 21
188.9
  0
LINE
  8
0
 10
81.5871
 20
188.9
 11
81.5871
 21
179.959
  0
LINE
  8
0
 10
81.5871
 20
179.959
 11
81.6456
 21
179.9
  0
LINE
  8
0
 10
81.6456
 20
179.9
 11
91.3544
 21
179.9
  0
LINE
  8
0
 10
91.3544
 20
179.9
 11
91.4129
 21
179.959
  0
LINE
  8
0
 10
91.4129
 20
179.959
 11
91.4129
 21
188.9
  0
LINE
  8
0
 10
91.4129
 20
188.9
 11
99.5871
 21
188.9
  0
LINE
  8
0
 10
99.5871
 20
188.9
 11
99.5871
 21
179.959
  0
LINE
  8
0
 10
99.5871
 20
179.959
 11
99.6456
 21
179.9
  0
LINE
  8
0
 10
99.6456
 20
179.9
 11
109.354
 21
179.9
  0
LINE
  8
0
 10
109.354
 20
179.9
 11
109.413
 21
179.959
  0
LINE
  8
0
 10
109.413
 20
179.959
 11
109.413
 21
188.9
  0
LINE
  8
0
 10
109.413
 20
188.9
 11
117.587
 21
188.9
  0
LINE
  8
0
 10
117.587
 20
188.9
 11
117.587
 21
179.959
  0
LINE
  8
0
 10
117.587
 20
179.959
 11
117.646
 21
179.9
  0
LINE
  8
0
 10
117.646
 20
179.9
 11
127.354
 21
179.9
  0
LINE
  8
0
 10
127.354
 20
179.9
 11
127.413
 21
179.959
  0
LINE
  8
0
 10
127.413
 20
179.959
 11
127.413
 21
188.9
  0
LINE
  8
0
 10
127.413
 20
188.9
 11
135.587
 21
188.9
  0
LINE
  8
0
 10
135.587
 20
188.9
 11
135.587
 21
179.959
  0
LINE
  8
0
 10
135.587
 20
179.959
 11
135.646
 21
179.9
  0
LINE
  8
0
 10
135.646
 20
179.9
 11
145.354
 21
179.9
  0
LINE
  8
0
 10
145.354
 20
179.9
 11
145.413
 21
179.959
  0
LINE
  8
0
 10
145.413
 20
179.959
 11
145.413
 21
188.9
  0
LINE
  8
0
 10
145.413
 20
188.9
 11
153.587
 21
188.9
  0
LINE
  8
0
 10
153.587
 20
188.9
 11
153.587
 21
179.959
  0
LINE
  8
0
 10
153.587
 20
179.959
 11
153.646
 21
179.9
  0
LINE
  8
0
 10
153.646
 20
179.9
 11
163.354
 21
179.9
  0
LINE
  8
0
 10
163.354
 20
179.9
 11
163.413
 21
179.959
  0
LINE
  8
0
 10
163.413
 20
179.959
 11
163.413
 21
188.9
  0
LINE
  8
0
 10
163.413
 20
188.9
 11
171.587
 21
188.9
  0
LINE
  8
0
 10
171.587
 20
188.9
 11
171.587
 21
179.959
  0
LINE
  8
0
 10
171.587
 20
179.959
 11
171.646
 21
179.9
  0
LINE
  8
0
 10
171.646
 20
179.9
 11
181.354
 21
179.9
  0
LINE
  8
0
 10
181.354
 20
179.9
 11
181.413
 21
179.959
  0
LINE
  8
0
 10
181.413
 20
179.959
 11
181.413
 21
188.9
  0
LINE
  8
0
 10
181.413
 20
188.9
 11
189.587
 21
188.9
  0
LINE
  8
0
 10
189.587
 20
188.9
 11
189.587
 21
179.959
  0
LINE
  8
0
 10
189.587
 20
179.959
 11
189.646
 21
179.9
  0
LINE
  8
0
 10
189.646
 20
179.9
 11
199.354
 21
179.9
  0
LINE
  8
0
 10
199.354
 20
179.9
 11
199.413
 21
179.959
  0
LINE
  8
0
 10
199.413
 20
179.959
 11
199.413
 21
188.9
  0
LINE
  8
0
 10
199.413
 20
188.9
 11
207.587
 21
188.9
  0
LINE
  8
0
 10
207.587
 20
188.9
 11
207.587
 21
179.959
  0
LINE
  8
0
 10
207.587
 20
179.959
 11
207.646
 21
179.9
  0
LINE
  8
0
 10
207.646
 20
179.9
 11
217.354
 21
179.9
  0
LINE
  8
0
 10
217.354
 20
179.9
 11
217.413
 21
179.959
  0
LINE
  8
0
 10
217.413
 20
179.959
 11
217.413
 21
188.9
  0
LINE
  8
0
 10
217.413
 20
188.9
 11
225.041
 21
188.9
  0
LINE
  8
0
 10
225.041
 20
188.9
 11
225.1
 21
188.959
  0
LINE
  8
0
 10
225.1
 20
188.959
 11
225.1
 21
200.041
  0
LINE
  8
0
 10
225.1
 20
200.041
 11
225.041
 21
200.1
  0
LINE
  8
0
 10
225.041
 20
200.1
 11
4.95857
 21
200.1
  0
LINE
  8
0
 10
4.95857
 20
200.1
 11
4.89999
 21
200.041
  0
LINE
  8
0
 10
4.89999
 20
200.041
 11
4.89999
 21
179.959
  0
LINE
  8
0
 10
4.89999
 20
179.959
 11
4.95857
 21
179.9
  0
LINE
  8
0
 10
4.95857
 20
179.9
 11
19.3544
 21
179.9
  0
LINE
  8
0
 10
19.3544
 20
179.9
 11
19.4129
 21
179.959
  0
LINE
  8
0
 10
211.1
 20
186.1
 11
211.1
 21
195.9
  0
LINE
  8
0
 10
211.1
 20
195.9
 11
213.9
 21
195.9
  0
LINE
  8
0
 10
213.9
 20
195.9
 11
213.9
 21
186.1
  0
LINE
  8
0
 10
213.9
 20
186.1
 11
211.1
 21
186.1
  0
LINE
  8
0
 10
12.1
 20
186.1
 11
12.1
 21
195.9
  0
LINE
  8
0
 10
12.1
 20
195.9
 11
14.9
 21
195.9
  0
LINE
  8
0
 10
14.9
 20
195.9
 11
14.9
 21
186.1
  0
LINE
  8
0
 10
14.9
 20
186.1
 11
12.1
 21
186.1
  0
LINE
  8
0
 10
19.4129
 20
149.959
 11
19.4129
 21
158.9
  0
LINE
  8
0
 10
19.4129
 20
158.9
 11
27.5871
 21
158.9
  0
LINE
  8
0
 10
27.5871
 20
158.9
 11
27.5871
 21
149.959
  0
LINE
  8
0
 10
27.5871
 20
149.959
 11
27.6456
 21
149.9
  0
LINE
  8
0
 10
27.6456
 20
149.9
 11
37.3544
 21
149.9
  0
LINE
  8
0
 10
37.3544
 20
149.9
 11
37.4129
 21
149.959
  0
LINE
  8
0
 10
37.4129
 20
149.959
 11
37.4129
 21
158.9
  0
LINE
  8
0
 10
37.4129
 20
158.9
 11
45.5871
 21
158.9
  0
LINE
  8
0
 10
45.5871
 20
158.9
 11
45.5871
 21
149.959
  0
LINE
  8
0
 10
45.5871
 20
149.959
 11
45.6456
 21
149.9
  0
LINE
  8
0
 10
45.6456
 20
149.9
 11
55.3544
 21
149.9
  0
LINE
  8
0
 10
55.3544
 20
149.9
 11
55.4129
 21
149.959
  0
LINE
  8
0
 10
55.4129
 20
149.959
 11
55.4129
 21
158.9
  0
LINE
  8
0
 10
55.4129
 20
158.9
 11
63.5871
 21
158.9
  0
LINE
  8
0
 10
63.5871
 20
158.9
 11
63.5871
 21
149.959
  0
LINE
  8
0
 10
63.5871
 20
149.959
 11
63.6456
 21
149.9
  0
LINE
  8
0
 10
63.6456
 20
149.9
 11
73.3544
 21
149.9
  0
LINE
  8
0
 10
73.3544
 20
149.9
 11
73.4129
 21
149.959
  0
LINE
  8
0
 10
73.4129
 20
149.959
 11
73.4129
 21
158.9
  0
LINE
  8
0
 10
73.4129
 20
158.9
 11
81.5871
 21
158.9
  0
LINE
  8
0
 10
81.5871
 20
158.9
 11
81.5871
 21
149.959
  0
LINE
  8
0
 10
81.5871
 20
149.959
 11
81.6456
 21
149.9
  0
LINE
  8
0
 10
81.6456
 20
149.9
 11
91.3544
 21
149.9
  0
LINE
  8
0
 10
91.3544
 20
149.9
 11
91.4129
 21
149.959
  0
LINE
  8
0
 10
91.4129
 20
149.959
 11
91.4129
 21
158.9
  0
LINE
  8
0
 10
91.4129
 20
158.9
 11
99.5871
 21
158.9
  0
LINE
  8
0
 10
99.5871
 20
158.9
 11
99.5871
 21
149.959
  0
LINE
  8
0
 10
99.5871
 20
149.959
 11
99.6456
 21
149.9
  0
LINE
  8
0
 10
99.6456
 20
149.9
 11
109.354
 21
149.9
  0
LINE
  8
0
 10
109.354
 20
149.9
 11
109.413
 21
149.959
  0
LINE
  8
0
 10
109.413
 20
149.959
 11
109.413
 21
158.9
  0
LINE
  8
0
 10
109.413
 20
158.9
 11
117.587
 21
158.9
  0
LINE
  8
0
 10
117.587
 20
158.9
 11
117.587
 21
149.959
  0
LINE
  8
0
 10
117.587
 20
149.959
 11
117.646
 21
149.9
  0
LINE
  8
0
 10
117.646
 20
149.9
 11
127.354
 21
149.9
  0
LINE
  8
0
 10
127.354
 20
149.9
 11
127.413
 21
149.959
  0
LINE
  8
0
 10
127.413
 20
149.959
 11
127.413
 21
158.9
  0
LINE
  8
0
 10
127.413
 20
158.9
 11
135.587
 21
158.9
  0
LINE
  8
0
 10
135.587
 20
158.9
 11
135.587
 21
149.959
  0
LINE
  8
0
 10
135.587
 20
149.959
 11
135.646
 21
149.9
  0
LINE
  8
0
 10
135.646
 20
149.9
 11
145.354
 21
149.9
  0
LINE
  8
0
 10
145.354
 20
149.9
 11
145.413
 21
149.959
  0
LINE
  8
0
 10
145.413
 20
149.959
 11
145.413
 21
158.9
  0
LINE
  8
0
 10
145.413
 20
158.9
 11
153.587
 21
158.9
  0
LINE
  8
0
 10
153.587
 20
158.9
 11
153.587
 21
149.959
  0
LINE
  8
0
 10
153.587
 20
149.959
 11
153.646
 21
149.9
  0
LINE
  8
0
 10
153.646
 20
149.9
 11
163.354
 21
149.9
  0
LINE
  8
0
 10
163.354
 20
149.9
 11
163.413
 21
149.959
  0
LINE
  8
0
 10
163.413
 20
149.959
 11
163.413
 21
158.9
  0
LINE
  8
0
 10
163.413
 20
158.9
 11
171.587
 21
158.9
  0
LINE
  8
0
 10
171.587
 20
158.9
 11
171.587
 21
149.959
  0
LINE
  8
0
 10
171.587
 20
149.959
 11
171.646
 21
149.9
  0
LINE
  8
0
 10
171.646
 20
149.9
 11
181.354
 21
149.9
  0
LINE
  8
0
 10
181.354
 20
149.9
 11
181.413
 21
149.959
  0
LINE
  8
0
 10
181.413
 20
149.959
 11
181.413
 21
158.9
  0
LINE
  8
0
 10
181.413
 20
158.9
 11
189.587
 21
158.9
  0
LINE
  8
0
 10
189.587
 20
158.9
 11
189.587
 21
149.959
  0
LINE
  8
0
 10
189.587
 20
149.959
 11
189.646
 21
149.9
  0
LINE
  8
0
 10
189.646
 20
149.9
 11
199.354
 21
149.9
  0
LINE
  8
0
 10
199.354
 20
149.9
 11
199.413
 21
149.959
  0
LINE
  8
0
 10
199.413
 20
149.959
 11
199.413
 21
158.9
  0
LINE
  8
0
 10
199.413
 20
158.9
 11
207.587
 21
158.9
  0
LINE
  8
0
 10
207.587
 20
158.9
 11
207.587
 21
149.959
  0
LINE
  8
0
 10
207.587
 20
149.959
 11
207.646
 21
149.9
  0
LINE
  8
0
 10
207.646
 20
149.9
 11
217.354
 21
149.9
  0
LINE
  8
0
 10
217.354
 20
149.9
 11
217.413
 21
149.959
  0
LINE
  8
0
 10
217.413
 20
149.959
 11
217.413
 21
158.9
  0
LINE
  8
0
 10
217.413
 20
158.9
 11
225.041
 21
158.9
  0
LINE
  8
0
 10
225.041
 20
158.9
 11
225.1
 21
158.959
  0
LINE
  8
0
 10
225.1
 20
158.959
 11
225.1
 21
170.041
  0
LINE
  8
0
 10
225.1
 20
170.041
 11
225.041
 21
170.1
  0
LINE
  8
0
 10
225.041
 20
170.1
 11
4.95857
 21
170.1
  0
LINE
  8
0
 10
4.95857
 20
170.1
 11
4.89999
 21
170.041
  0
LINE
  8
0
 10
4.89999
 20
170.041
 11
4.89999
 21
149.959
  0
LINE
  8
0
 10
4.89999
 20
149.959
 11
4.95857
 21
149.9
  0
LINE
  8
0
 10
4.95857
 20
149.9
 11
19.3544
 21
149.9
  0
LINE
  8
0
 10
19.3544
 20
149.9
 11
19.4129
 21
149.959
  0
LINE
  8
0
 10
211.1
 20
156.1
 11
211.1
 21
165.9
  0
LINE
  8
0
 10
211.1
 20
165.9
 11
213.9
 21
165.9
  0
LINE
  8
0
 10
213.9
 20
165.9
 11
213.9
 21
156.1
  0
LINE
  8
0
 10
213.9
 20
156.1
 11
211.1
 21
156.1
  0
LINE
  8
0
 10
12.1
 20
156.1
 11
12.1
 21
165.9
  0
LINE
  8
0
 10
12.1
 20
165.9
 11
14.9
 21
165.9
  0
LINE
  8
0
 10
14.9
 20
165.9
 11
14.9
 21
156.1
  0
LINE
  8
0
 10
14.9
 20
156.1
 11
12.1
 21
156.1
  0
LINE
  8
0
 10
310.1
 20
104.959
 11
310.1
 21
144.9
  0
LINE
  8
0
 10
310.1
 20
144.9
 11
400.041
 21
144.9
  0
LINE
  8
0
 10
400.041
 20
144.9
 11
400.1
 21
144.959
  0
LINE
  8
0
 10
400.1
 20
144.959
 11
400.1
 21
155.041
  0
LINE
  8
0
 10
400.1
 20
155.041
 11
400.041
 21
155.1
  0
LINE
  8
0
 10
400.041
 20
155.1
 11
244.959
 21
155.1
  0
LINE
  8
0
 10
244.959
 20
155.1
 11
244.9
 21
155.041
  0
LINE
  8
0
 10
244.9
 20
155.041
 11
244.9
 21
144.959
  0
LINE
  8
0
 10
244.9
 20
144.959
 11
244.959
 21
144.9
  0
LINE
  8
0
 10
244.959
 20
144.9
 11
299.9
 21
144.9
  0
LINE
  8
0
 10
299.9
 20
144.9
 11
299.9
 21
104.959
  0
LINE
  8
0
 10
299.9
 20
104.959
 11
299.959
 21
104.9
  0
LINE
  8
0
 10
299.959
 20
104.9
 11
310.041
 21
104.9
  0
LINE
  8
0
 10
310.041
 20
104.9
 11
310.1
 21
104.959
  0
LINE
  8
0
 10
249.568
 20
148.67
 11
249.178
 21
148.868
  0
LINE
  8
0
 10
249.178
 20
148.868
 11
248.868
 21
149.178
  0
LINE
  8
0
 10
248.868
 20
149.178
 11
248.67
 21
149.568
  0
LINE
  8
0
 10
248.67
 20
149.568
 11
248.601
 21
150
  0
LINE
  8
0
 10
248.601
 20
150
 11
248.67
 21
150.432
  0
LINE
  8
0
 10
248.67
 20
150.432
 11
248.868
 21
150.822
  0
LINE
  8
0
 10
248.868
 20
150.822
 11
249.178
 21
151.132
  0
LINE
  8
0
 10
249.178
 20
151.132
 11
249.568
 21
151.33
  0
LINE
  8
0
 10
249.568
 20
151.33
 11
250
 21
151.399
  0
LINE
  8
0
 10
250
 20
151.399
 11
250.432
 21
151.33
  0
LINE
  8
0
 10
250.432
 20
151.33
 11
250.822
 21
151.132
  0
LINE
  8
0
 10
250.822
 20
151.132
 11
251.132
 21
150.822
  0
LINE
  8
0
 10
251.132
 20
150.822
 11
251.33
 21
150.432
  0
LINE
  8
0
 10
251.33
 20
150.432
 11
251.399
 21
150
  0
LINE
  8
0
 10
251.399
 20
150
 11
251.33
 21
149.568
  0
LINE
  8
0
 10
251.33
 20
149.568
 11
251.132
 21
149.178
  0
LINE
  8
0
 10
251.132
 20
149.178
 11
250.822
 21
148.868
  0
LINE
  8
0
 10
250.822
 20
148.868
 11
250.432
 21
148.67
  0
LINE
  8
0
 10
250.432
 20
148.67
 11
250
 21
148.601
  0
LINE
  8
0
 10
250
 20
148.601
 11
249.568
 21
148.67
  0
LINE
  8
0
 10
304.568
 20
148.67
 11
304.178
 21
148.868
  0
LINE
  8
0
 10
304.178
 20
148.868
 11
303.868
 21
149.178
  0
LINE
  8
0
 10
303.868
 20
149.178
 11
303.67
 21
149.568
  0
LINE
  8
0
 10
303.67
 20
149.568
 11
303.601
 21
150
  0
LINE
  8
0
 10
303.601
 20
150
 11
303.67
 21
150.432
  0
LINE
  8
0
 10
303.67
 20
150.432
 11
303.868
 21
150.822
  0
LINE
  8
0
 10
303.868
 20
150.822
 11
304.178
 21
151.132
  0
LINE
  8
0
 10
304.178
 20
151.132
 11
304.568
 21
151.33
  0
LINE
  8
0
 10
304.568
 20
151.33
 11
305
 21
151.399
  0
LINE
  8
0
 10
305
 20
151.399
 11
305.432
 21
151.33
  0
LINE
  8
0
 10
305.432
 20
151.33
 11
305.822
 21
151.132
  0
LINE
  8
0
 10
305.822
 20
151.132
 11
306.132
 21
150.822
  0
LINE
  8
0
 10
306.132
 20
150.822
 11
306.33
 21
150.432
  0
LINE
  8
0
 10
306.33
 20
150.432
 11
306.399
 21
150
  0
LINE
  8
0
 10
306.399
 20
150
 11
306.33
 21
149.568
  0
LINE
  8
0
 10
306.33
 20
149.568
 11
306.132
 21
149.178
  0
LINE
  8
0
 10
306.132
 20
149.178
 11
305.822
 21
148.868
  0
LINE
  8
0
 10
305.822
 20
148.868
 11
305.432
 21
148.67
  0
LINE
  8
0
 10
305.432
 20
148.67
 11
305
 21
148.601
  0
LINE
  8
0
 10
305
 20
148.601
 11
304.568
 21
148.67
  0
LINE
  8
0
 10
374.568
 20
148.67
 11
374.178
 21
148.868
  0
LINE
  8
0
 10
374.178
 20
148.868
 11
373.868
 21
149.178
  0
LINE
  8
0
 10
373.868
 20
149.178
 11
373.67
 21
149.568
  0
LINE
  8
0
 10
373.67
 20
149.568
 11
373.601
 21
150
  0
LINE
  8
0
 10
373.601
 20
150
 11
373.67
 21
150.432
  0
LINE
  8
0
 10
373.67
 20
150.432
 11
373.868
 21
150.822
  0
LINE
  8
0
 10
373.868
 20
150.822
 11
374.178
 21
151.132
  0
LINE
  8
0
 10
374.178
 20
151.132
 11
374.568
 21
151.33
  0
LINE
  8
0
 10
374.568
 20
151.33
 11
375
 21
151.399
  0
LINE
  8
0
 10
375
 20
151.399
 11
375.432
 21
151.33
  0
LINE
  8
0
 10
375.432
 20
151.33
 11
375.822
 21
151.132
  0
LINE
  8
0
 10
375.822
 20
151.132
 11
376.132
 21
150.822
  0
LINE
  8
0
 10
376.132
 20
150.822
 11
376.33
 21
150.432
  0
LINE
  8
0
 10
376.33
 20
150.432
 11
376.399
 21
150
  0
LINE
  8
0
 10
376.399
 20
150
 11
376.33
 21
149.568
  0
LINE
  8
0
 10
376.33
 20
149.568
 11
376.132
 21
149.178
  0
LINE
  8
0
 10
376.132
 20
149.178
 11
375.822
 21
148.868
  0
LINE
  8
0
 10
375.822
 20
148.868
 11
375.432
 21
148.67
  0
LINE
  8
0
 10
375.432
 20
148.67
 11
375
 21
148.601
  0
LINE
  8
0
 10
375
 20
148.601
 11
374.568
 21
148.67
  0
LINE
  8
0
 10
394.568
 20
148.67
 11
394.178
 21
148.868
  0
LINE
  8
0
 10
394.178
 20
148.868
 11
393.868
 21
149.178
  0
LINE
  8
0
 10
393.868
 20
149.178
 11
393.67
 21
149.568
  0
LINE
  8
0
 10
393.67
 20
149.568
 11
393.601
 21
150
  0
LINE
  8
0
 10
393.601
 20
150
 11
393.67
 21
150.432
  0
LINE
  8
0
 10
393.67
 20
150.432
 11
393.868
 21
150.822
  0
LINE
  8
0
 10
393.868
 20
150.822
 11
394.178
 21
151.132
  0
LINE
  8
0
 10
394.178
 20
151.132
 11
394.568
 21
151.33
  0
LINE
  8
0
 10
394.568
 20
151.33
 11
395
 21
151.399
  0
LINE
  8
0
 10
395
 20
151.399
 11
395.432
 21
151.33
  0
LINE
  8
0
 10
395.432
 20
151.33
 11
395.822
 21
151.132
  0
LINE
  8
0
 10
395.822
 20
151.132
 11
396.132
 21
150.822
  0
LINE
  8
0
 10
396.132
 20
150.822
 11
396.33
 21
150.432
  0
LINE
  8
0
 10
396.33
 20
150.432
 11
396.399
 21
150
  0
LINE
  8
0
 10
396.399
 20
150
 11
396.33
 21
149.568
  0
LINE
  8
0
 10
396.33
 20
149.568
 11
396.132
 21
149.178
  0
LINE
  8
0
 10
396.132
 20
149.178
 11
395.822
 21
148.868
  0
LINE
  8
0
 10
395.822
 20
148.868
 11
395.432
 21
148.67
  0
LINE
  8
0
 10
395.432
 20
148.67
 11
395
 21
148.601
  0
LINE
  8
0
 10
395
 20
148.601
 11
394.568
 21
148.67
  0
LINE
  8
0
 10
225.1
 20
89.9586
 11
225.1
 21
140.041
  0
LINE
  8
0
 10
225.1
 20
140.041
 11
225.041
 21
140.1
  0
LINE
  8
0
 10
225.041
 20
140.1
 11
223.209
 21
140.1
  0
LINE
  8
0
 10
223.209
 20
140.1
 11
223.15
 21
140.041
  0
LINE
  8
0
 10
223.15
 20
140.041
 11
223.15
 21
121.1
  0
LINE
  8
0
 10
223.15
 20
121.1
 11
219.85
 21
121.1
  0
LINE
  8
0
 10
219.85
 20
121.1
 11
219.85
 21
140.041
  0
LINE
  8
0
 10
219.85
 20
140.041
 11
219.791
 21
140.1
  0
LINE
  8
0
 10
219.791
 20
140.1
 11
213.959
 21
140.1
  0
LINE
  8
0
 10
213.959
 20
140.1
 11
213.9
 21
140.041
  0
LINE
  8
0
 10
213.9
 20
140.041
 11
213.9
 21
101.1
  0
LINE
  8
0
 10
213.9
 20
101.1
 11
211.1
 21
101.1
  0
LINE
  8
0
 10
211.1
 20
101.1
 11
211.1
 21
140.041
  0
LINE
  8
0
 10
211.1
 20
140.041
 11
211.041
 21
140.1
  0
LINE
  8
0
 10
211.041
 20
140.1
 11
205.209
 21
140.1
  0
LINE
  8
0
 10
205.209
 20
140.1
 11
205.15
 21
140.041
  0
LINE
  8
0
 10
205.15
 20
140.041
 11
205.15
 21
121.1
  0
LINE
  8
0
 10
205.15
 20
121.1
 11
201.85
 21
121.1
  0
LINE
  8
0
 10
201.85
 20
121.1
 11
201.85
 21
140.041
  0
LINE
  8
0
 10
201.85
 20
140.041
 11
201.791
 21
140.1
  0
LINE
  8
0
 10
201.791
 20
140.1
 11
187.209
 21
140.1
  0
LINE
  8
0
 10
187.209
 20
140.1
 11
187.15
 21
140.041
  0
LINE
  8
0
 10
187.15
 20
140.041
 11
187.15
 21
121.1
  0
LINE
  8
0
 10
187.15
 20
121.1
 11
183.85
 21
121.1
  0
LINE
  8
0
 10
183.85
 20
121.1
 11
183.85
 21
140.041
  0
LINE
  8
0
 10
183.85
 20
140.041
 11
183.791
 21
140.1
  0
LINE
  8
0
 10
183.791
 20
140.1
 11
169.209
 21
140.1
  0
LINE
  8
0
 10
169.209
 20
140.1
 11
169.15
 21
140.041
  0
LINE
  8
0
 10
169.15
 20
140.041
 11
169.15
 21
121.1
  0
LINE
  8
0
 10
169.15
 20
121.1
 11
165.85
 21
121.1
  0
LINE
  8
0
 10
165.85
 20
121.1
 11
165.85
 21
140.041
  0
LINE
  8
0
 10
165.85
 20
140.041
 11
165.791
 21
140.1
  0
LINE
  8
0
 10
165.791
 20
140.1
 11
151.209
 21
140.1
  0
LINE
  8
0
 10
151.209
 20
140.1
 11
151.15
 21
140.041
  0
LINE
  8
0
 10
151.15
 20
140.041
 11
151.15
 21
121.1
  0
LINE
  8
0
 10
151.15
 20
121.1
 11
147.85
 21
121.1
  0
LINE
  8
0
 10
147.85
 20
121.1
 11
147.85
 21
140.041
  0
LINE
  8
0
 10
147.85
 20
140.041
 11
147.791
 21
140.1
  0
LINE
  8
0
 10
147.791
 20
140.1
 11
133.209
 21
140.1
  0
LINE
  8
0
 10
133.209
 20
140.1
 11
133.15
 21
140.041
  0
LINE
  8
0
 10
133.15
 20
140.041
 11
133.15
 21
121.1
  0
LINE
  8
0
 10
133.15
 20
121.1
 11
129.85
 21
121.1
  0
LINE
  8
0
 10
129.85
 20
121.1
 11
129.85
 21
140.041
  0
LINE
  8
0
 10
129.85
 20
140.041
 11
129.791
 21
140.1
  0
LINE
  8
0
 10
129.791
 20
140.1
 11
115.209
 21
140.1
  0
LINE
  8
0
 10
115.209
 20
140.1
 11
115.15
 21
140.041
  0
LINE
  8
0
 10
115.15
 20
140.041
 11
115.15
 21
121.1
  0
LINE
  8
0
 10
115.15
 20
121.1
 11
111.85
 21
121.1
  0
LINE
  8
0
 10
111.85
 20
121.1
 11
111.85
 21
140.041
  0
LINE
  8
0
 10
111.85
 20
140.041
 11
111.791
 21
140.1
  0
LINE
  8
0
 10
111.791
 20
140.1
 11
97.2086
 21
140.1
  0
LINE
  8
0
 10
97.2086
 20
140.1
 11
97.15
 21
140.041
  0
LINE
  8
0
 10
97.15
 20
140.041
 11
97.15
 21
121.1
  0
LINE
  8
0
 10
97.15
 20
121.1
 11
93.85
 21
121.1
  0
LINE
  8
0
 10
93.85
 20
121.1
 11
93.85
 21
140.041
  0
LINE
  8
0
 10
93.85
 20
140.041
 11
93.7914
 21
140.1
  0
LINE
  8
0
 10
93.7914
 20
140.1
 11
79.2086
 21
140.1
  0
LINE
  8
0
 10
79.2086
 20
140.1
 11
79.15
 21
140.041
  0
LINE
  8
0
 10
79.15
 20
140.041
 11
79.15
 21
121.1
  0
LINE
  8
0
 10
79.15
 20
121.1
 11
75.85
 21
121.1
  0
LINE
  8
0
 10
75.85
 20
121.1
 11
75.85
 21
140.041
  0
LINE
  8
0
 10
75.85
 20
140.041
 11
75.7914
 21
140.1
  0
LINE
  8
0
 10
75.7914
 20
140.1
 11
61.2086
 21
140.1
  0
LINE
  8
0
 10
61.2086
 20
140.1
 11
61.15
 21
140.041
  0
LINE
  8
0
 10
61.15
 20
140.041
 11
61.15
 21
121.1
  0
LINE
  8
0
 10
61.15
 20
121.1
 11
57.85
 21
121.1
  0
LINE
  8
0
 10
57.85
 20
121.1
 11
57.85
 21
140.041
  0
LINE
  8
0
 10
57.85
 20
140.041
 11
57.7914
 21
140.1
  0
LINE
  8
0
 10
57.7914
 20
140.1
 11
43.2086
 21
140.1
  0
LINE
  8
0
 10
43.2086
 20
140.1
 11
43.15
 21
140.041
  0
LINE
  8
0
 10
43.15
 20
140.041
 11
43.15
 21
121.1
  0
LINE
  8
0
 10
43.15
 20
121.1
 11
39.85
 21
121.1
  0
LINE
  8
0
 10
39.85
 20
121.1
 11
39.85
 21
140.041
  0
LINE
  8
0
 10
39.85
 20
140.041
 11
39.7914
 21
140.1
  0
LINE
  8
0
 10
39.7914
 20
140.1
 11
25.2086
 21
140.1
  0
LINE
  8
0
 10
25.2086
 20
140.1
 11
25.15
 21
140.041
  0
LINE
  8
0
 10
25.15
 20
140.041
 11
25.15
 21
121.1
  0
LINE
  8
0
 10
25.15
 20
121.1
 11
21.85
 21
121.1
  0
LINE
  8
0
 10
21.85
 20
121.1
 11
21.85
 21
140.041
  0
LINE
  8
0
 10
21.85
 20
140.041
 11
21.7914
 21
140.1
  0
LINE
  8
0
 10
21.7914
 20
140.1
 11
14.9586
 21
140.1
  0
LINE
  8
0
 10
14.9586
 20
140.1
 11
14.9
 21
140.041
  0
LINE
  8
0
 10
14.9
 20
140.041
 11
14.9
 21
101.1
  0
LINE
  8
0
 10
14.9
 20
101.1
 11
12.1
 21
101.1
  0
LINE
  8
0
 10
12.1
 20
101.1
 11
12.1
 21
140.041
  0
LINE
  8
0
 10
12.1
 20
140.041
 11
12.0414
 21
140.1
  0
LINE
  8
0
 10
12.0414
 20
140.1
 11
4.95857
 21
140.1
  0
LINE
  8
0
 10
4.95857
 20
140.1
 11
4.89999
 21
140.041
  0
LINE
  8
0
 10
4.89999
 20
140.041
 11
4.89999
 21
89.9586
  0
LINE
  8
0
 10
4.89999
 20
89.9586
 11
4.95857
 21
89.9
  0
LINE
  8
0
 10
4.95857
 20
89.9
 11
225.041
 21
89.9
  0
LINE
  8
0
 10
225.041
 20
89.9
 11
225.1
 21
89.9586
  0
LINE
  8
0
 10
400.1
 20
89.9586
 11
400.1
 21
100.041
  0
LINE
  8
0
 10
400.1
 20
100.041
 11
400.041
 21
100.1
  0
LINE
  8
0
 10
400.041
 20
100.1
 11
345.1
 21
100.1
  0
LINE
  8
0
 10
345.1
 20
100.1
 11
345.1
 21
140.041
  0
LINE
  8
0
 10
345.1
 20
140.041
 11
345.041
 21
140.1
  0
LINE
  8
0
 10
345.041
 20
140.1
 11
334.959
 21
140.1
  0
LINE
  8
0
 10
334.959
 20
140.1
 11
334.9
 21
140.041
  0
LINE
  8
0
 10
334.9
 20
140.041
 11
334.9
 21
100.1
  0
LINE
  8
0
 10
334.9
 20
100.1
 11
244.959
 21
100.1
  0
LINE
  8
0
 10
244.959
 20
100.1
 11
244.9
 21
100.041
  0
LINE
  8
0
 10
244.9
 20
100.041
 11
244.9
 21
89.9586
  0
LINE
  8
0
 10
244.9
 20
89.9586
 11
244.959
 21
89.9
  0
LINE
  8
0
 10
244.959
 20
89.9
 11
400.041
 21
89.9
  0
LINE
  8
0
 10
400.041
 20
89.9
 11
400.1
 21
89.9586
  0
LINE
  8
0
 10
249.568
 20
93.6697
 11
249.178
 21
93.8684
  0
LINE
  8
0
 10
249.178
 20
93.8684
 11
248.868
 21
94.1779
  0
LINE
  8
0
 10
248.868
 20
94.1779
 11
248.67
 21
94.5678
  0
LINE
  8
0
 10
248.67
 20
94.5678
 11
248.601
 21
95
  0
LINE
  8
0
 10
248.601
 20
95
 11
248.67
 21
95.4323
  0
LINE
  8
0
 10
248.67
 20
95.4323
 11
248.868
 21
95.8221
  0
LINE
  8
0
 10
248.868
 20
95.8221
 11
249.178
 21
96.1316
  0
LINE
  8
0
 10
249.178
 20
96.1316
 11
249.568
 21
96.3303
  0
LINE
  8
0
 10
249.568
 20
96.3303
 11
250
 21
96.3988
  0
LINE
  8
0
 10
250
 20
96.3988
 11
250.432
 21
96.3303
  0
LINE
  8
0
 10
250.432
 20
96.3303
 11
250.822
 21
96.1316
  0
LINE
  8
0
 10
250.822
 20
96.1316
 11
251.132
 21
95.8221
  0
LINE
  8
0
 10
251.132
 20
95.8221
 11
251.33
 21
95.4323
  0
LINE
  8
0
 10
251.33
 20
95.4323
 11
251.399
 21
95
  0
LINE
  8
0
 10
251.399
 20
95
 11
251.33
 21
94.5678
  0
LINE
  8
0
 10
251.33
 20
94.5678
 11
251.132
 21
94.1779
  0
LINE
  8
0
 10
251.132
 20
94.1779
 11
250.822
 21
93.8684
  0
LINE
  8
0
 10
250.822
 20
93.8684
 11
250.432
 21
93.6697
  0
LINE
  8
0
 10
250.432
 20
93.6697
 11
250
 21
93.6013
  0
LINE
  8
0
 10
250
 20
93.6013
 11
249.568
 21
93.6697
  0
LINE
  8
0
 10
269.568
 20
93.6697
 11
269.178
 21
93.8684
  0
LINE
  8
0
 10
269.178
 20
93.8684
 11
268.868
 21
94.1779
  0
LINE
  8
0
 10
268.868
 20
94.1779
 11
268.67
 21
94.5678
  0
LINE
  8
0
 10
268.67
 20
94.5678
 11
268.601
 21
95
  0
LINE
  8
0
 10
268.601
 20
95
 11
268.67
 21
95.4323
  0
LINE
  8
0
 10
268.67
 20
95.4323
 11
268.868
 21
95.8221
  0
LINE
  8
0
 10
268.868
 20
95.8221
 11
269.178
 21
96.1316
  0
LINE
  8
0
 10
269.178
 20
96.1316
 11
269.568
 21
96.3303
  0
LINE
  8
0
 10
269.568
 20
96.3303
 11
270
 21
96.3988
  0
LINE
  8
0
 10
270
 20
96.3988
 11
270.432
 21
96.3303
  0
LINE
  8
0
 10
270.432
 20
96.3303
 11
270.822
 21
96.1316
  0
LINE
  8
0
 10
270.822
 20
96.1316
 11
271.132
 21
95.8221
  0
LINE
  8
0
 10
271.132
 20
95.8221
 11
271.33
 21
95.4323
  0
LINE
  8
0
 10
271.33
 20
95.4323
 11
271.399
 21
95
  0
LINE
  8
0
 10
271.399
 20
95
 11
271.33
 21
94.5678
  0
LINE
  8
0
 10
271.33
 20
94.5678
 11
271.132
 21
94.1779
  0
LINE
  8
0
 10
271.132
 20
94.1779
 11
270.822
 21
93.8684
  0
LINE
  8
0
 10
270.822
 20
93.8684
 11
270.432
 21
93.6697
  0
LINE
  8
0
 10
270.432
 20
93.6697
 11
270
 21
93.6013
  0
LINE
  8
0
 10
270
 20
93.6013
 11
269.568
 21
93.6697
  0
LINE
  8
0
 10
339.568
 20
93.6697
 11
339.178
 21
93.8684
  0
LINE
  8
0
 10
339.178
 20
93.8684
 11
338.868
 21
94.1779
  0
LINE
  8
0
 10
338.868
 20
94.1779
 11
338.67
 21
94.5678
  0
LINE
  8
0
 10
338.67
 20
94.5678
 11
338.601
 21
95
  0
LINE
  8
0
 10
338.601
 20
95
 11
338.67
 21
95.4323
  0
LINE
  8
0
 10
338.67
 20
95.4323
 11
338.868
 21
95.8221
  0
LINE
  8
0
 10
338.868
 20
95.8221
 11
339.178
 21
96.1316
  0
LINE
  8
0
 10
339.178
 20
96.1316
 11
339.568
 21
96.3303
  0
LINE
  8
0
 10
339.568
 20
96.3303
 11
340
 21
96.3988
  0
LINE
  8
0
 10
340
 20
96.3988
 11
340.432
 21
96.3303
  0
LINE
  8
0
 10
340.432
 20
96.3303
 11
340.822
 21
96.1316
  0
LINE
  8
0
 10
340.822
 20
96.1316
 11
341.132
 21
95.8221
  0
LINE
  8
0
 10
341.132
 20
95.8221
 11
341.33
 21
95.4322
  0
LINE
  8
0
 10
341.33
 20
95.4322
 11
341.399
 21
95
  0
LINE
  8
0
 10
341.399
 20
95
 11
341.33
 21
94.5677
  0
LINE
  8
0
 10
341.33
 20
94.5677
 11
341.132
 21
94.1779
  0
LINE
  8
0
 10
341.132
 20
94.1779
 11
340.822
 21
93.8684
  0
LINE
  8
0
 10
340.822
 20
93.8684
 11
340.432
 21
93.6697
  0
LINE
  8
0
 10
340.432
 20
93.6697
 11
340
 21
93.6012
  0
LINE
  8
0
 10
340
 20
93.6012
 11
339.568
 21
93.6697
  0
LINE
  8
0
 10
394.568
 20
93.6697
 11
394.178
 21
93.8684
  0
LINE
  8
0
 10
394.178
 20
93.8684
 11
393.868
 21
94.1779
  0
LINE
  8
0
 10
393.868
 20
94.1779
 11
393.67
 21
94.5677
  0
LINE
  8
0
 10
393.67
 20
94.5677
 11
393.601
 21
95
  0
LINE
  8
0
 10
393.601
 20
95
 11
393.67
 21
95.4322
  0
LINE
  8
0
 10
393.67
 20
95.4322
 11
393.868
 21
95.8221
  0
LINE
  8
0
 10
393.868
 20
95.8221
 11
394.178
 21
96.1316
  0
LINE
  8
0
 10
394.178
 20
96.1316
 11
394.568
 21
96.3303
  0
LINE
  8
0
 10
394.568
 20
96.3303
 11
395
 21
96.3987
  0
LINE
  8
0
 10
395
 20
96.3987
 11
395.432
 21
96.3303
  0
LINE
  8
0
 10
395.432
 20
96.3303
 11
395.822
 21
96.1316
  0
LINE
  8
0
 10
395.822
 20
96.1316
 11
396.132
 21
95.8221
  0
LINE
  8
0
 10
396.132
 20
95.8221
 11
396.33
 21
95.4322
  0
LINE
  8
0
 10
396.33
 20
95.4322
 11
396.399
 21
95
  0
LINE
  8
0
 10
396.399
 20
95
 11
396.33
 21
94.5677
  0
LINE
  8
0
 10
396.33
 20
94.5677
 11
396.132
 21
94.1779
  0
LINE
  8
0
 10
396.132
 20
94.1779
 11
395.822
 21
93.8684
  0
LINE
  8
0
 10
395.822
 20
93.8684
 11
395.432
 21
93.6697
  0
LINE
  8
0
 10
395.432
 20
93.6697
 11
395
 21
93.6012
  0
LINE
  8
0
 10
395
 20
93.6012
 11
394.568
 21
93.6697
  0
LINE
  8
0
 10
295.1
 20
59.9586
 11
295.1
 21
70.0414
  0
LINE
  8
0
 10
295.1
 20
70.0414
 11
295.041
 21
70.1
  0
LINE
  8
0
 10
295.041
 20
70.1
 11
240.1
 21
70.1
  0
LINE
  8
0
 10
240.1
 20
70.1
 11
240.1
 21
110.041
  0
LINE
  8
0
 10
240.1
 20
110.041
 11
240.041
 21
110.1
  0
LINE
  8
0
 10
240.041
 20
110.1
 11
229.959
 21
110.1
  0
LINE
  8
0
 10
229.959
 20
110.1
 11
229.9
 21
110.041
  0
LINE
  8
0
 10
229.9
 20
110.041
 11
229.9
 21
70.1
  0
LINE
  8
0
 10
229.9
 20
70.1
 11
139.959
 21
70.1
  0
LINE
  8
0
 10
139.959
 20
70.1
 11
139.9
 21
70.0414
  0
LINE
  8
0
 10
139.9
 20
70.0414
 11
139.9
 21
59.9586
  0
LINE
  8
0
 10
139.9
 20
59.9586
 11
139.959
 21
59.9
  0
LINE
  8
0
 10
139.959
 20
59.9
 11
295.041
 21
59.9
  0
LINE
  8
0
 10
295.041
 20
59.9
 11
295.1
 21
59.9586
  0
LINE
  8
0
 10
144.568
 20
63.6697
 11
144.178
 21
63.8684
  0
LINE
  8
0
 10
144.178
 20
63.8684
 11
143.868
 21
64.1779
  0
LINE
  8
0
 10
143.868
 20
64.1779
 11
143.67
 21
64.5677
  0
LINE
  8
0
 10
143.67
 20
64.5677
 11
143.601
 21
65
  0
LINE
  8
0
 10
143.601
 20
65
 11
143.67
 21
65.4323
  0
LINE
  8
0
 10
143.67
 20
65.4323
 11
143.868
 21
65.8221
  0
LINE
  8
0
 10
143.868
 20
65.8221
 11
144.178
 21
66.1316
  0
LINE
  8
0
 10
144.178
 20
66.1316
 11
144.568
 21
66.3303
  0
LINE
  8
0
 10
144.568
 20
66.3303
 11
145
 21
66.3988
  0
LINE
  8
0
 10
145
 20
66.3988
 11
145.432
 21
66.3303
  0
LINE
  8
0
 10
145.432
 20
66.3303
 11
145.822
 21
66.1316
  0
LINE
  8
0
 10
145.822
 20
66.1316
 11
146.132
 21
65.8221
  0
LINE
  8
0
 10
146.132
 20
65.8221
 11
146.33
 21
65.4323
  0
LINE
  8
0
 10
146.33
 20
65.4323
 11
146.399
 21
65
  0
LINE
  8
0
 10
146.399
 20
65
 11
146.33
 21
64.5677
  0
LINE
  8
0
 10
146.33
 20
64.5677
 11
146.132
 21
64.1779
  0
LINE
  8
0
 10
146.132
 20
64.1779
 11
145.822
 21
63.8684
  0
LINE
  8
0
 10
145.822
 20
63.8684
 11
145.432
 21
63.6697
  0
LINE
  8
0
 10
145.432
 20
63.6697
 11
145
 21
63.6012
  0
LINE
  8
0
 10
145
 20
63.6012
 11
144.568
 21
63.6697
  0
LINE
  8
0
 10
164.568
 20
63.6697
 11
164.178
 21
63.8684
  0
LINE
  8
0
 10
164.178
 20
63.8684
 11
163.868
 21
64.1779
  0
LINE
  8
0
 10
163.868
 20
64.1779
 11
163.67
 21
64.5677
  0
LINE
  8
0
 10
163.67
 20
64.5677
 11
163.601
 21
65
  0
LINE
  8
0
 10
163.601
 20
65
 11
163.67
 21
65.4323
  0
LINE
  8
0
 10
163.67
 20
65.4323
 11
163.868
 21
65.8221
  0
LINE
  8
0
 10
163.868
 20
65.8221
 11
164.178
 21
66.1316
  0
LINE
  8
0
 10
164.178
 20
66.1316
 11
164.568
 21
66.3303
  0
LINE
  8
0
 10
164.568
 20
66.3303
 11
165
 21
66.3988
  0
LINE
  8
0
 10
165
 20
66.3988
 11
165.432
 21
66.3303
  0
LINE
  8
0
 10
165.432
 20
66.3303
 11
165.822
 21
66.1316
  0
LINE
  8
0
 10
165.822
 20
66.1316
 11
166.132
 21
65.8221
  0
LINE
  8
0
 10
166.132
 20
65.8221
 11
166.33
 21
65.4323
  0
LINE
  8
0
 10
166.33
 20
65.4323
 11
166.399
 21
65
  0
LINE
  8
0
 10
166.399
 20
65
 11
166.33
 21
64.5677
  0
LINE
  8
0
 10
166.33
 20
64.5677
 11
166.132
 21
64.1779
  0
LINE
  8
0
 10
166.132
 20
64.1779
 11
165.822
 21
63.8684
  0
LINE
  8
0
 10
165.822
 20
63.8684
 11
165.432
 21
63.6697
  0
LINE
  8
0
 10
165.432
 20
63.6697
 11
165
 21
63.6012
  0
LINE
  8
0
 10
165
 20
63.6012
 11
164.568
 21
63.6697
  0
LINE
  8
0
 10
234.568
 20
63.6697
 11
234.178
 21
63.8684
  0
LINE
  8
0
 10
234.178
 20
63.8684
 11
233.868
 21
64.1779
  0
LINE
  8
0
 10
233.868
 20
64.1779
 11
233.67
 21
64.5677
  0
LINE
  8
0
 10
233.67
 20
64.5677
 11
233.601
 21
65
  0
LINE
  8
0
 10
233.601
 20
65
 11
233.67
 21
65.4323
  0
LINE
  8
0
 10
233.67
 20
65.4323
 11
233.868
 21
65.8221
  0
LINE
  8
0
 10
233.868
 20
65.8221
 11
234.178
 21
66.1316
  0
LINE
  8
0
 10
234.178
 20
66.1316
 11
234.568
 21
66.3303
  0
LINE
  8
0
 10
234.568
 20
66.3303
 11
235
 21
66.3988
  0
LINE
  8
0
 10
235
 20
66.3988
 11
235.432
 21
66.3303
  0
LINE
  8
0
 10
235.432
 20
66.3303
 11
235.822
 21
66.1316
  0
LINE
  8
0
 10
235.822
 20
66.1316
 11
236.132
 21
65.8221
  0
LINE
  8
0
 10
236.132
 20
65.8221
 11
236.33
 21
65.4323
  0
LINE
  8
0
 10
236.33
 20
65.4323
 11
236.399
 21
65
  0
LINE
  8
0
 10
236.399
 20
65
 11
236.33
 21
64.5677
  0
LINE
  8
0
 10
236.33
 20
64.5677
 11
236.132
 21
64.1779
  0
LINE
  8
0
 10
236.132
 20
64.1779
 11
235.822
 21
63.8684
  0
LINE
  8
0
 10
235.822
 20
63.8684
 11
235.432
 21
63.6697
  0
LINE
  8
0
 10
235.432
 20
63.6697
 11
235
 21
63.6012
  0
LINE
  8
0
 10
235
 20
63.6012
 11
234.568
 21
63.6697
  0
LINE
  8
0
 10
289.568
 20
63.6697
 11
289.178
 21
63.8684
  0
LINE
  8
0
 10
289.178
 20
63.8684
 11
288.868
 21
64.1778
  0
LINE
  8
0
 10
288.868
 20
64.1778
 11
288.67
 21
64.5677
  0
LINE
  8
0
 10
288.67
 20
64.5677
 11
288.601
 21
65
  0
LINE
  8
0
 10
288.601
 20
65
 11
288.67
 21
65.4322
  0
LINE
  8
0
 10
288.67
 20
65.4322
 11
288.868
 21
65.8221
  0
LINE
  8
0
 10
288.868
 20
65.8221
 11
289.178
 21
66.1316
  0
LINE
  8
0
 10
289.178
 20
66.1316
 11
289.568
 21
66.3303
  0
LINE
  8
0
 10
289.568
 20
66.3303
 11
290
 21
66.3987
  0
LINE
  8
0
 10
290
 20
66.3987
 11
290.432
 21
66.3303
  0
LINE
  8
0
 10
290.432
 20
66.3303
 11
290.822
 21
66.1316
  0
LINE
  8
0
 10
290.822
 20
66.1316
 11
291.132
 21
65.8221
  0
LINE
  8
0
 10
291.132
 20
65.8221
 11
291.33
 21
65.4322
  0
LINE
  8
0
 10
291.33
 20
65.4322
 11
291.399
 21
65
  0
LINE
  8
0
 10
291.399
 20
65
 11
291.33
 21
64.5677
  0
LINE
  8
0
 10
291.33
 20
64.5677
 11
291.132
 21
64.1778
  0
LINE
  8
0
 10
291.132
 20
64.1778
 11
290.822
 21
63.8684
  0
LINE
  8
0
 10
290.822
 20
63.8684
 11
290.432
 21
63.6697
  0
LINE
  8
0
 10
290.432
 20
63.6697
 11
290
 21
63.6012
  0
LINE
  8
0
 10
290
 20
63.6012
 11
289.568
 21
63.6697
  0
LINE
  8
0
 10
80.1
 20
34.9586
 11
80.1
 21
74.9
  0
LINE
  8
0
 10
80.1
 20
74.9
 11
170.041
 21
74.9
  0
LINE
  8
0
 10
170.041
 20
74.9
 11
170.1
 21
74.9586
  0
LINE
  8
0
 10
170.1
 20
74.9586
 11
170.1
 21
85.0414
  0
LINE
  8
0
 10
170.1
 20
85.0414
 11
170.041
 21
85.1
  0
LINE
  8
0
 10
170.041
 20
85.1
 11
14.9586
 21
85.1
  0
LINE
  8
0
 10
14.9586
 20
85.1
 11
14.9
 21
85.0414
  0
LINE
  8
0
 10
14.9
 20
85.0414
 11
14.9
 21
74.9586
  0
LINE
  8
0
 10
14.9
 20
74.9586
 11
14.9586
 21
74.9
  0
LINE
  8
0
 10
14.9586
 20
74.9
 11
69.9
 21
74.9
  0
LINE
  8
0
 10
69.9
 20
74.9
 11
69.9
 21
34.9586
  0
LINE
  8
0
 10
69.9
 20
34.9586
 11
69.9586
 21
34.9
  0
LINE
  8
0
 10
69.9586
 20
34.9
 11
80.0414
 21
34.9
  0
LINE
  8
0
 10
80.0414
 20
34.9
 11
80.1
 21
34.9586
  0
LINE
  8
0
 10
19.5677
 20
78.6697
 11
19.1779
 21
78.8684
  0
LINE
  8
0
 10
19.1779
 20
78.8684
 11
18.8684
 21
79.1779
  0
LINE
  8
0
 10
18.8684
 20
79.1779
 11
18.6697
 21
79.5677
  0
LINE
  8
0
 10
18.6697
 20
79.5677
 11
18.6012
 21
80
  0
LINE
  8
0
 10
18.6012
 20
80
 11
18.6697
 21
80.4323
  0
LINE
  8
0
 10
18.6697
 20
80.4323
 11
18.8684
 21
80.8221
  0
LINE
  8
0
 10
18.8684
 20
80.8221
 11
19.1779
 21
81.1316
  0
LINE
  8
0
 10
19.1779
 20
81.1316
 11
19.5677
 21
81.3303
  0
LINE
  8
0
 10
19.5677
 20
81.3303
 11
20
 21
81.3988
  0
LINE
  8
0
 10
20
 20
81.3988
 11
20.4323
 21
81.3303
  0
LINE
  8
0
 10
20.4323
 20
81.3303
 11
20.8222
 21
81.1316
  0
LINE
  8
0
 10
20.8222
 20
81.1316
 11
21.1316
 21
80.8221
  0
LINE
  8
0
 10
21.1316
 20
80.8221
 11
21.3303
 21
80.4323
  0
LINE
  8
0
 10
21.3303
 20
80.4323
 11
21.3988
 21
80
  0
LINE
  8
0
 10
21.3988
 20
80
 11
21.3303
 21
79.5677
  0
LINE
  8
0
 10
21.3303
 20
79.5677
 11
21.1316
 21
79.1779
  0
LINE
  8
0
 10
21.1316
 20
79.1779
 11
20.8222
 21
78.8684
  0
LINE
  8
0
 10
20.8222
 20
78.8684
 11
20.4323
 21
78.6697
  0
LINE
  8
0
 10
20.4323
 20
78.6697
 11
20
 21
78.6012
  0
LINE
  8
0
 10
20
 20
78.6012
 11
19.5677
 21
78.6697
  0
LINE
  8
0
 10
74.5677
 20
78.6697
 11
74.1779
 21
78.8684
  0
LINE
  8
0
 10
74.1779
 20
78.8684
 11
73.8684
 21
79.1779
  0
LINE
  8
0
 10
73.8684
 20
79.1779
 11
73.6697
 21
79.5677
  0
LINE
  8
0
 10
73.6697
 20
79.5677
 11
73.6012
 21
80
  0
LINE
  8
0
 10
73.6012
 20
80
 11
73.6697
 21
80.4323
  0
LINE
  8
0
 10
73.6697
 20
80.4323
 11
73.8684
 21
80.8221
  0
LINE
  8
0
 10
73.8684
 20
80.8221
 11
74.1779
 21
81.1316
  0
LINE
  8
0
 10
74.1779
 20
81.1316
 11
74.5677
 21
81.3303
  0
LINE
  8
0
 10
74.5677
 20
81.3303
 11
75
 21
81.3988
  0
LINE
  8
0
 10
75
 20
81.3988
 11
75.4323
 21
81.3303
  0
LINE
  8
0
 10
75.4323
 20
81.3303
 11
75.8221
 21
81.1316
  0
LINE
  8
0
 10
75.8221
 20
81.1316
 11
76.1316
 21
80.8221
  0
LINE
  8
0
 10
76.1316
 20
80.8221
 11
76.3303
 21
80.4323
  0
LINE
  8
0
 10
76.3303
 20
80.4323
 11
76.3988
 21
80
  0
LINE
  8
0
 10
76.3988
 20
80
 11
76.3303
 21
79.5677
  0
LINE
  8
0
 10
76.3303
 20
79.5677
 11
76.1316
 21
79.1779
  0
LINE
  8
0
 10
76.1316
 20
79.1779
 11
75.8221
 21
78.8684
  0
LINE
  8
0
 10
75.8221
 20
78.8684
 11
75.4323
 21
78.6697
  0
LINE
  8
0
 10
75.4323
 20
78.6697
 11
75
 21
78.6012
  0
LINE
  8
0
 10
75
 20
78.6012
 11
74.5677
 21
78.6697
  0
LINE
  8
0
 10
144.568
 20
78.6697
 11
144.178
 21
78.8684
  0
LINE
  8
0
 10
144.178
 20
78.8684
 11
143.868
 21
79.1779
  0
LINE
  8
0
 10
143.868
 20
79.1779
 11
143.67
 21
79.5677
  0
LINE
  8
0
 10
143.67
 20
79.5677
 11
143.601
 21
80
  0
LINE
  8
0
 10
143.601
 20
80
 11
143.67
 21
80.4323
  0
LINE
  8
0
 10
143.67
 20
80.4323
 11
143.868
 21
80.8221
  0
LINE
  8
0
 10
143.868
 20
80.8221
 11
144.178
 21
81.1316
  0
LINE
  8
0
 10
144.178
 20
81.1316
 11
144.568
 21
81.3303
  0
LINE
  8
0
 10
144.568
 20
81.3303
 11
145
 21
81.3988
  0
LINE
  8
0
 10
145
 20
81.3988
 11
145.432
 21
81.3303
  0
LINE
  8
0
 10
145.432
 20
81.3303
 11
145.822
 21
81.1316
  0
LINE
  8
0
 10
145.822
 20
81.1316
 11
146.132
 21
80.8221
  0
LINE
  8
0
 10
146.132
 20
80.8221
 11
146.33
 21
80.4323
  0
LINE
  8
0
 10
146.33
 20
80.4323
 11
146.399
 21
80
  0
LINE
  8
0
 10
146.399
 20
80
 11
146.33
 21
79.5677
  0
LINE
  8
0
 10
146.33
 20
79.5677
 11
146.132
 21
79.1779
  0
LINE
  8
0
 10
146.132
 20
79.1779
 11
145.822
 21
78.8684
  0
LINE
  8
0
 10
145.822
 20
78.8684
 11
145.432
 21
78.6697
  0
LINE
  8
0
 10
145.432
 20
78.6697
 11
145
 21
78.6012
  0
LINE
  8
0
 10
145
 20
78.6012
 11
144.568
 21
78.6697
  0
LINE
  8
0
 10
164.568
 20
78.6697
 11
164.178
 21
78.8684
  0
LINE
  8
0
 10
164.178
 20
78.8684
 11
163.868
 21
79.1779
  0
LINE
  8
0
 10
163.868
 20
79.1779
 11
163.67
 21
79.5677
  0
LINE
  8
0
 10
163.67
 20
79.5677
 11
163.601
 21
80
  0
LINE
  8
0
 10
163.601
 20
80
 11
163.67
 21
80.4323
  0
LINE
  8
0
 10
163.67
 20
80.4323
 11
163.868
 21
80.8221
  0
LINE
  8
0
 10
163.868
 20
80.8221
 11
164.178
 21
81.1316
  0
LINE
  8
0
 10
164.178
 20
81.1316
 11
164.568
 21
81.3303
  0
LINE
  8
0
 10
164.568
 20
81.3303
 11
165
 21
81.3988
  0
LINE
  8
0
 10
165
 20
81.3988
 11
165.432
 21
81.3303
  0
LINE
  8
0
 10
165.432
 20
81.3303
 11
165.822
 21
81.1316
  0
LINE
  8
0
 10
165.822
 20
81.1316
 11
166.132
 21
80.8221
  0
LINE
  8
0
 10
166.132
 20
80.8221
 11
166.33
 21
80.4323
  0
LINE
  8
0
 10
166.33
 20
80.4323
 11
166.399
 21
80
  0
LINE
  8
0
 10
166.399
 20
80
 11
166.33
 21
79.5677
  0
LINE
  8
0
 10
166.33
 20
79.5677
 11
166.132
 21
79.1779
  0
LINE
  8
0
 10
166.132
 20
79.1779
 11
165.822
 21
78.8684
  0
LINE
  8
0
 10
165.822
 20
78.8684
 11
165.432
 21
78.6697
  0
LINE
  8
0
 10
165.432
 20
78.6697
 11
165
 21
78.6012
  0
LINE
  8
0
 10
165
 20
78.6012
 11
164.568
 21
78.6697
  0
LINE
  8
0
 10
310.1
 20
34.9586
 11
310.1
 21
74.9
  0
LINE
  8
0
 10
310.1
 20
74.9
 11
400.041
 21
74.9
  0
LINE
  8
0
 10
400.041
 20
74.9
 11
400.1
 21
74.9586
  0
LINE
  8
0
 10
400.1
 20
74.9586
 11
400.1
 21
85.0414
  0
LINE
  8
0
 10
400.1
 20
85.0414
 11
400.041
 21
85.1
  0
LINE
  8
0
 10
400.041
 20
85.1
 11
244.959
 21
85.1
  0
LINE
  8
0
 10
244.959
 20
85.1
 11
244.9
 21
85.0414
  0
LINE
  8
0
 10
244.9
 20
85.0414
 11
244.9
 21
74.9586
  0
LINE
  8
0
 10
244.9
 20
74.9586
 11
244.959
 21
74.9
  0
LINE
  8
0
 10
244.959
 20
74.9
 11
299.9
 21
74.9
  0
LINE
  8
0
 10
299.9
 20
74.9
 11
299.9
 21
34.9586
  0
LINE
  8
0
 10
299.9
 20
34.9586
 11
299.959
 21
34.9
  0
LINE
  8
0
 10
299.959
 20
34.9
 11
310.041
 21
34.9
  0
LINE
  8
0
 10
310.041
 20
34.9
 11
310.1
 21
34.9586
  0
LINE
  8
0
 10
249.568
 20
78.6697
 11
249.178
 21
78.8684
  0
LINE
  8
0
 10
249.178
 20
78.8684
 11
248.868
 21
79.1779
  0
LINE
  8
0
 10
248.868
 20
79.1779
 11
248.67
 21
79.5677
  0
LINE
  8
0
 10
248.67
 20
79.5677
 11
248.601
 21
80
  0
LINE
  8
0
 10
248.601
 20
80
 11
248.67
 21
80.4323
  0
LINE
  8
0
 10
248.67
 20
80.4323
 11
248.868
 21
80.8221
  0
LINE
  8
0
 10
248.868
 20
80.8221
 11
249.178
 21
81.1316
  0
LINE
  8
0
 10
249.178
 20
81.1316
 11
249.568
 21
81.3303
  0
LINE
  8
0
 10
249.568
 20
81.3303
 11
250
 21
81.3988
  0
LINE
  8
0
 10
250
 20
81.3988
 11
250.432
 21
81.3303
  0
LINE
  8
0
 10
250.432
 20
81.3303
 11
250.822
 21
81.1316
  0
LINE
  8
0
 10
250.822
 20
81.1316
 11
251.132
 21
80.8221
  0
LINE
  8
0
 10
251.132
 20
80.8221
 11
251.33
 21
80.4323
  0
LINE
  8
0
 10
251.33
 20
80.4323
 11
251.399
 21
80
  0
LINE
  8
0
 10
251.399
 20
80
 11
251.33
 21
79.5677
  0
LINE
  8
0
 10
251.33
 20
79.5677
 11
251.132
 21
79.1779
  0
LINE
  8
0
 10
251.132
 20
79.1779
 11
250.822
 21
78.8684
  0
LINE
  8
0
 10
250.822
 20
78.8684
 11
250.432
 21
78.6697
  0
LINE
  8
0
 10
250.432
 20
78.6697
 11
250
 21
78.6012
  0
LINE
  8
0
 10
250
 20
78.6012
 11
249.568
 21
78.6697
  0
LINE
  8
0
 10
304.568
 20
78.6697
 11
304.178
 21
78.8684
  0
LINE
  8
0
 10
304.178
 20
78.8684
 11
303.868
 21
79.1779
  0
LINE
  8
0
 10
303.868
 20
79.1779
 11
303.67
 21
79.5677
  0
LINE
  8
0
 10
303.67
 20
79.5677
 11
303.601
 21
80
  0
LINE
  8
0
 10
303.601
 20
80
 11
303.67
 21
80.4323
  0
LINE
  8
0
 10
303.67
 20
80.4323
 11
303.868
 21
80.8221
  0
LINE
  8
0
 10
303.868
 20
80.8221
 11
304.178
 21
81.1316
  0
LINE
  8
0
 10
304.178
 20
81.1316
 11
304.568
 21
81.3303
  0
LINE
  8
0
 10
304.568
 20
81.3303
 11
305
 21
81.3988
  0
LINE
  8
0
 10
305
 20
81.3988
 11
305.432
 21
81.3303
  0
LINE
  8
0
 10
305.432
 20
81.3303
 11
305.822
 21
81.1316
  0
LINE
  8
0
 10
305.822
 20
81.1316
 11
306.132
 21
80.8221
  0
LINE
  8
0
 10
306.132
 20
80.8221
 11
306.33
 21
80.4323
  0
LINE
  8
0
 10
306.33
 20
80.4323
 11
306.399
 21
80
  0
LINE
  8
0
 10
306.399
 20
80
 11
306.33
 21
79.5677
  0
LINE
  8
0
 10
306.33
 20
79.5677
 11
306.132
 21
79.1779
  0
LINE
  8
0
 10
306.132
 20
79.1779
 11
305.822
 21
78.8684
  0
LINE
  8
0
 10
305.822
 20
78.8684
 11
305.432
 21
78.6697
  0
LINE
  8
0
 10
305.432
 20
78.6697
 11
305
 21
78.6012
  0
LINE
  8
0
 10
305
 20
78.6012
 11
304.568
 21
78.6697
  0
LINE
  8
0
 10
374.568
 20
78.6697
 11
374.178
 21
78.8684
  0
LINE
  8
0
 10
374.178
 20
78.8684
 11
373.868
 21
79.1779
  0
LINE
  8
0
 10
373.868
 20
79.1779
 11
373.67
 21
79.5677
  0
LINE
  8
0
 10
373.67
 20
79.5677
 11
373.601
 21
80
  0
LINE
  8
0
 10
373.601
 20
80
 11
373.67
 21
80.4323
  0
LINE
  8
0
 10
373.67
 20
80.4323
 11
373.868
 21
80.8221
  0
LINE
  8
0
 10
373.868
 20
80.8221
 11
374.178
 21
81.1316
  0
LINE
  8
0
 10
374.178
 20
81.1316
 11
374.568
 21
81.3303
  0
LINE
  8
0
 10
374.568
 20
81.3303
 11
375
 21
81.3988
  0
LINE
  8
0
 10
375
 20
81.3988
 11
375.432
 21
81.3303
  0
LINE
  8
0
 10
375.432
 20
81.3303
 11
375.822
 21
81.1316
  0
LINE
  8
0
 10
375.822
 20
81.1316
 11
376.132
 21
80.8221
  0
LINE
  8
0
 10
376.132
 20
80.8221
 11
376.33
 21
80.4323
  0
LINE
  8
0
 10
376.33
 20
80.4323
 11
376.399
 21
80
  0
LINE
  8
0
 10
376.399
 20
80
 11
376.33
 21
79.5677
  0
LINE
  8
0
 10
376.33
 20
79.5677
 11
376.132
 21
79.1779
  0
LINE
  8
0
 10
376.132
 20
79.1779
 11
375.822
 21
78.8684
  0
LINE
  8
0
 10
375.822
 20
78.8684
 11
375.432
 21
78.6697
  0
LINE
  8
0
 10
375.432
 20
78.6697
 11
375
 21
78.6012
  0
LINE
  8
0
 10
375
 20
78.6012
 11
374.568
 21
78.6697
  0
LINE
  8
0
 10
394.568
 20
78.6697
 11
394.178
 21
78.8684
  0
LINE
  8
0
 10
394.178
 20
78.8684
 11
393.868
 21
79.1779
  0
LINE
  8
0
 10
393.868
 20
79.1779
 11
393.67
 21
79.5677
  0
LINE
  8
0
 10
393.67
 20
79.5677
 11
393.601
 21
80
  0
LINE
  8
0
 10
393.601
 20
80
 11
393.67
 21
80.4323
  0
LINE
  8
0
 10
393.67
 20
80.4323
 11
393.868
 21
80.8221
  0
LINE
  8
0
 10
393.868
 20
80.8221
 11
394.178
 21
81.1316
  0
LINE
  8
0
 10
394.178
 20
81.1316
 11
394.568
 21
81.3303
  0
LINE
  8
0
 10
394.568
 20
81.3303
 11
395
 21
81.3988
  0
LINE
  8
0
 10
395
 20
81.3988
 11
395.432
 21
81.3303
  0
LINE
  8
0
 10
395.432
 20
81.3303
 11
395.822
 21
81.1316
  0
LINE
  8
0
 10
395.822
 20
81.1316
 11
396.132
 21
80.8221
  0
LINE
  8
0
 10
396.132
 20
80.8221
 11
396.33
 21
80.4323
  0
LINE
  8
0
 10
396.33
 20
80.4323
 11
396.399
 21
80
  0
LINE
  8
0
 10
396.399
 20
80
 11
396.33
 21
79.5677
  0
LINE
  8
0
 10
396.33
 20
79.5677
 11
396.132
 21
79.1779
  0
LINE
  8
0
 10
396.132
 20
79.1779
 11
395.822
 21
78.8684
  0
LINE
  8
0
 10
395.822
 20
78.8684
 11
395.432
 21
78.6697
  0
LINE
  8
0
 10
395.432
 20
78.6697
 11
395
 21
78.6012
  0
LINE
  8
0
 10
395
 20
78.6012
 11
394.568
 21
78.6697
  0
LINE
  8
0
 10
390.1
 20
19.9586
 11
390.1
 21
30.0414
  0
LINE
  8
0
 10
390.1
 20
30.0414
 11
390.041
 21
30.1
  0
LINE
  8
0
 10
390.041
 20
30.1
 11
335.1
 21
30.1
  0
LINE
  8
0
 10
335.1
 20
30.1
 11
335.1
 21
70.0414
  0
LINE
  8
0
 10
335.1
 20
70.0414
 11
335.041
 21
70.1
  0
LINE
  8
0
 10
335.041
 20
70.1
 11
324.959
 21
70.1
  0
LINE
  8
0
 10
324.959
 20
70.1
 11
324.9
 21
70.0414
  0
LINE
  8
0
 10
324.9
 20
70.0414
 11
324.9
 21
30.1
  0
LINE
  8
0
 10
324.9
 20
30.1
 11
234.959
 21
30.1
  0
LINE
  8
0
 10
234.959
 20
30.1
 11
234.9
 21
30.0414
  0
LINE
  8
0
 10
234.9
 20
30.0414
 11
234.9
 21
19.9586
  0
LINE
  8
0
 10
234.9
 20
19.9586
 11
234.959
 21
19.9
  0
LINE
  8
0
 10
234.959
 20
19.9
 11
390.041
 21
19.9
  0
LINE
  8
0
 10
390.041
 20
19.9
 11
390.1
 21
19.9586
  0
LINE
  8
0
 10
239.568
 20
23.6697
 11
239.178
 21
23.8684
  0
LINE
  8
0
 10
239.178
 20
23.8684
 11
238.868
 21
24.1779
  0
LINE
  8
0
 10
238.868
 20
24.1779
 11
238.67
 21
24.5678
  0
LINE
  8
0
 10
238.67
 20
24.5678
 11
238.601
 21
25
  0
LINE
  8
0
 10
238.601
 20
25
 11
238.67
 21
25.4323
  0
LINE
  8
0
 10
238.67
 20
25.4323
 11
238.868
 21
25.8221
  0
LINE
  8
0
 10
238.868
 20
25.8221
 11
239.178
 21
26.1316
  0
LINE
  8
0
 10
239.178
 20
26.1316
 11
239.568
 21
26.3303
  0
LINE
  8
0
 10
239.568
 20
26.3303
 11
240
 21
26.3988
  0
LINE
  8
0
 10
240
 20
26.3988
 11
240.432
 21
26.3303
  0
LINE
  8
0
 10
240.432
 20
26.3303
 11
240.822
 21
26.1316
  0
LINE
  8
0
 10
240.822
 20
26.1316
 11
241.132
 21
25.8221
  0
LINE
  8
0
 10
241.132
 20
25.8221
 11
241.33
 21
25.4323
  0
LINE
  8
0
 10
241.33
 20
25.4323
 11
241.399
 21
25
  0
LINE
  8
0
 10
241.399
 20
25
 11
241.33
 21
24.5678
  0
LINE
  8
0
 10
241.33
 20
24.5678
 11
241.132
 21
24.1779
  0
LINE
  8
0
 10
241.132
 20
24.1779
 11
240.822
 21
23.8684
  0
LINE
  8
0
 10
240.822
 20
23.8684
 11
240.432
 21
23.6697
  0
LINE
  8
0
 10
240.432
 20
23.6697
 11
240
 21
23.6013
  0
LINE
  8
0
 10
240
 20
23.6013
 11
239.568
 21
23.6697
  0
LINE
  8
0
 10
259.568
 20
23.6697
 11
259.178
 21
23.8684
  0
LINE
  8
0
 10
259.178
 20
23.8684
 11
258.868
 21
24.1779
  0
LINE
  8
0
 10
258.868
 20
24.1779
 11
258.67
 21
24.5678
  0
LINE
  8
0
 10
258.67
 20
24.5678
 11
258.601
 21
25
  0
LINE
  8
0
 10
258.601
 20
25
 11
258.67
 21
25.4323
  0
LINE
  8
0
 10
258.67
 20
25.4323
 11
258.868
 21
25.8221
  0
LINE
  8
0
 10
258.868
 20
25.8221
 11
259.178
 21
26.1316
  0
LINE
  8
0
 10
259.178
 20
26.1316
 11
259.568
 21
26.3303
  0
LINE
  8
0
 10
259.568
 20
26.3303
 11
260
 21
26.3988
  0
LINE
  8
0
 10
260
 20
26.3988
 11
260.432
 21
26.3303
  0
LINE
  8
0
 10
260.432
 20
26.3303
 11
260.822
 21
26.1316
  0
LINE
  8
0
 10
260.822
 20
26.1316
 11
261.132
 21
25.8221
  0
LINE
  8
0
 10
261.132
 20
25.8221
 11
261.33
 21
25.4323
  0
LINE
  8
0
 10
261.33
 20
25.4323
 11
261.399
 21
25
  0
LINE
  8
0
 10
261.399
 20
25
 11
261.33
 21
24.5678
  0
LINE
  8
0
 10
261.33
 20
24.5678
 11
261.132
 21
24.1779
  0
LINE
  8
0
 10
261.132
 20
24.1779
 11
260.822
 21
23.8684
  0
LINE
  8
0
 10
260.822
 20
23.8684
 11
260.432
 21
23.6697
  0
LINE
  8
0
 10
260.432
 20
23.6697
 11
260
 21
23.6013
  0
LINE
  8
0
 10
260
 20
23.6013
 11
259.568
 21
23.6697
  0
LINE
  8
0
 10
329.568
 20
23.6697
 11
329.178
 21
23.8684
  0
LINE
  8
0
 10
329.178
 20
23.8684
 11
328.868
 21
24.1779
  0
LINE
  8
0
 10
328.868
 20
24.1779
 11
328.67
 21
24.5678
  0
LINE
  8
0
 10
328.67
 20
24.5678
 11
328.601
 21
25
  0
LINE
  8
0
 10
328.601
 20
25
 11
328.67
 21
25.4323
  0
LINE
  8
0
 10
328.67
 20
25.4323
 11
328.868
 21
25.8221
  0
LINE
  8
0
 10
328.868
 20
25.8221
 11
329.178
 21
26.1316
  0
LINE
  8
0
 10
329.178
 20
26.1316
 11
329.568
 21
26.3303
  0
LINE
  8
0
 10
329.568
 20
26.3303
 11
330
 21
26.3988
  0
LINE
  8
0
 10
330
 20
26.3988
 11
330.432
 21
26.3303
  0
LINE
  8
0
 10
330.432
 20
26.3303
 11
330.822
 21
26.1316
  0
LINE
  8
0
 10
330.822
 20
26.1316
 11
331.132
 21
25.8221
  0
LINE
  8
0
 10
331.132
 20
25.8221
 11
331.33
 21
25.4322
  0
LINE
  8
0
 10
331.33
 20
25.4322
 11
331.399
 21
25
  0
LINE
  8
0
 10
331.399
 20
25
 11
331.33
 21
24.5677
  0
LINE
  8
0
 10
331.33
 20
24.5677
 11
331.132
 21
24.1779
  0
LINE
  8
0
 10
331.132
 20
24.1779
 11
330.822
 21
23.8684
  0
LINE
  8
0
 10
330.822
 20
23.8684
 11
330.432
 21
23.6697
  0
LINE
  8
0
 10
330.432
 20
23.6697
 11
330
 21
23.6012
  0
LINE
  8
0
 10
330
 20
23.6012
 11
329.568
 21
23.6697
  0
LINE
  8
0
 10
384.568
 20
23.6697
 11
384.178
 21
23.8684
  0
LINE
  8
0
 10
384.178
 20
23.8684
 11
383.868
 21
24.1779
  0
LINE
  8
0
 10
383.868
 20
24.1779
 11
383.67
 21
24.5677
  0
LINE
  8
0
 10
383.67
 20
24.5677
 11
383.601
 21
25
  0
LINE
  8
0
 10
383.601
 20
25
 11
383.67
 21
25.4322
  0
LINE
  8
0
 10
383.67
 20
25.4322
 11
383.868
 21
25.8221
  0
LINE
  8
0
 10
383.868
 20
25.8221
 11
384.178
 21
26.1316
  0
LINE
  8
0
 10
384.178
 20
26.1316
 11
384.568
 21
26.3303
  0
LINE
  8
0
 10
384.568
 20
26.3303
 11
385
 21
26.3987
  0
LINE
  8
0
 10
385
 20
26.3987
 11
385.432
 21
26.3303
  0
LINE
  8
0
 10
385.432
 20
26.3303
 11
385.822
 21
26.1316
  0
LINE
  8
0
 10
385.822
 20
26.1316
 11
386.132
 21
25.8221
  0
LINE
  8
0
 10
386.132
 20
25.8221
 11
386.33
 21
25.4322
  0
LINE
  8
0
 10
386.33
 20
25.4322
 11
386.399
 21
25
  0
LINE
  8
0
 10
386.399
 20
25
 11
386.33
 21
24.5677
  0
LINE
  8
0
 10
386.33
 20
24.5677
 11
386.132
 21
24.1779
  0
LINE
  8
0
 10
386.132
 20
24.1779
 11
385.822
 21
23.8684
  0
LINE
  8
0
 10
385.822
 20
23.8684
 11
385.432
 21
23.6697
  0
LINE
  8
0
 10
385.432
 20
23.6697
 11
385
 21
23.6012
  0
LINE
  8
0
 10
385
 20
23.6012
 11
384.568
 21
23.6697
  0
LINE
  8
0
 10
160.1
 20
19.9586
 11
160.1
 21
30.0414
  0
LINE
  8
0
 10
160.1
 20
30.0414
 11
160.041
 21
30.1
  0
LINE
  8
0
 10
160.041
 20
30.1
 11
105.1
 21
30.1
  0
LINE
  8
0
 10
105.1
 20
30.1
 11
105.1
 21
70.0414
  0
LINE
  8
0
 10
105.1
 20
70.0414
 11
105.041
 21
70.1
  0
LINE
  8
0
 10
105.041
 20
70.1
 11
94.9586
 21
70.1
  0
LINE
  8
0
 10
94.9586
 20
70.1
 11
94.9
 21
70.0414
  0
LINE
  8
0
 10
94.9
 20
70.0414
 11
94.9
 21
30.1
  0
LINE
  8
0
 10
94.9
 20
30.1
 11
4.95857
 21
30.1
  0
LINE
  8
0
 10
4.95857
 20
30.1
 11
4.89999
 21
30.0414
  0
LINE
  8
0
 10
4.89999
 20
30.0414
 11
4.89999
 21
19.9586
  0
LINE
  8
0
 10
4.89999
 20
19.9586
 11
4.95857
 21
19.9
  0
LINE
  8
0
 10
4.95857
 20
19.9
 11
160.041
 21
19.9
  0
LINE
  8
0
 10
160.041
 20
19.9
 11
160.1
 21
19.9586
  0
LINE
  8
0
 10
9.56775
 20
23.6697
 11
9.17786
 21
23.8684
  0
LINE
  8
0
 10
9.17786
 20
23.8684
 11
8.86838
 21
24.1779
  0
LINE
  8
0
 10
8.86838
 20
24.1779
 11
8.66972
 21
24.5678
  0
LINE
  8
0
 10
8.66972
 20
24.5678
 11
8.60124
 21
25
  0
LINE
  8
0
 10
8.60124
 20
25
 11
8.66972
 21
25.4323
  0
LINE
  8
0
 10
8.66972
 20
25.4323
 11
8.86838
 21
25.8221
  0
LINE
  8
0
 10
8.86838
 20
25.8221
 11
9.17786
 21
26.1316
  0
LINE
  8
0
 10
9.17786
 20
26.1316
 11
9.56775
 21
26.3303
  0
LINE
  8
0
 10
9.56775
 20
26.3303
 11
10
 21
26.3988
  0
LINE
  8
0
 10
10
 20
26.3988
 11
10.4323
 21
26.3303
  0
LINE
  8
0
 10
10.4323
 20
26.3303
 11
10.8222
 21
26.1316
  0
LINE
  8
0
 10
10.8222
 20
26.1316
 11
11.1316
 21
25.8221
  0
LINE
  8
0
 10
11.1316
 20
25.8221
 11
11.3303
 21
25.4323
  0
LINE
  8
0
 10
11.3303
 20
25.4323
 11
11.3988
 21
25
  0
LINE
  8
0
 10
11.3988
 20
25
 11
11.3303
 21
24.5678
  0
LINE
  8
0
 10
11.3303
 20
24.5678
 11
11.1316
 21
24.1779
  0
LINE
  8
0
 10
11.1316
 20
24.1779
 11
10.8222
 21
23.8684
  0
LINE
  8
0
 10
10.8222
 20
23.8684
 11
10.4323
 21
23.6697
  0
LINE
  8
0
 10
10.4323
 20
23.6697
 11
10
 21
23.6013
  0
LINE
  8
0
 10
10
 20
23.6013
 11
9.56775
 21
23.6697
  0
LINE
  8
0
 10
29.5677
 20
23.6697
 11
29.1779
 21
23.8684
  0
LINE
  8
0
 10
29.1779
 20
23.8684
 11
28.8684
 21
24.1779
  0
LINE
  8
0
 10
28.8684
 20
24.1779
 11
28.6697
 21
24.5678
  0
LINE
  8
0
 10
28.6697
 20
24.5678
 11
28.6012
 21
25
  0
LINE
  8
0
 10
28.6012
 20
25
 11
28.6697
 21
25.4323
  0
LINE
  8
0
 10
28.6697
 20
25.4323
 11
28.8684
 21
25.8221
  0
LINE
  8
0
 10
28.8684
 20
25.8221
 11
29.1779
 21
26.1316
  0
LINE
  8
0
 10
29.1779
 20
26.1316
 11
29.5677
 21
26.3303
  0
LINE
  8
0
 10
29.5677
 20
26.3303
 11
30
 21
26.3988
  0
LINE
  8
0
 10
30
 20
26.3988
 11
30.4323
 21
26.3303
  0
LINE
  8
0
 10
30.4323
 20
26.3303
 11
30.8222
 21
26.1316
  0
LINE
  8
0
 10
30.8222
 20
26.1316
 11
31.1316
 21
25.8221
  0
LINE
  8
0
 10
31.1316
 20
25.8221
 11
31.3303
 21
25.4323
  0
LINE
  8
0
 10
31.3303
 20
25.4323
 11
31.3988
 21
25
  0
LINE
  8
0
 10
31.3988
 20
25
 11
31.3303
 21
24.5678
  0
LINE
  8
0
 10
31.3303
 20
24.5678
 11
31.1316
 21
24.1779
  0
LINE
  8
0
 10
31.1316
 20
24.1779
 11
30.8222
 21
23.8684
  0
LINE
  8
0
 10
30.8222
 20
23.8684
 11
30.4323
 21
23.6697
  0
LINE
  8
0
 10
30.4323
 20
23.6697
 11
30
 21
23.6013
  0
LINE
  8
0
 10
30
 20
23.6013
 11
29.5677
 21
23.6697
  0
LINE
  8
0
 10
99.5677
 20
23.6697
 11
99.1779
 21
23.8684
  0
LINE
  8
0
 10
99.1779
 20
23.8684
 11
98.8684
 21
24.1779
  0
LINE
  8
0
 10
98.8684
 20
24.1779
 11
98.6697
 21
24.5678
  0
LINE
  8
0
 10
98.6697
 20
24.5678
 11
98.6012
 21
25
  0
LINE
  8
0
 10
98.6012
 20
25
 11
98.6697
 21
25.4323
  0
LINE
  8
0
 10
98.6697
 20
25.4323
 11
98.8684
 21
25.8221
  0
LINE
  8
0
 10
98.8684
 20
25.8221
 11
99.1779
 21
26.1316
  0
LINE
  8
0
 10
99.1779
 20
26.1316
 11
99.5678
 21
26.3303
  0
LINE
  8
0
 10
99.5678
 20
26.3303
 11
100
 21
26.3988
  0
LINE
  8
0
 10
100
 20
26.3988
 11
100.432
 21
26.3303
  0
LINE
  8
0
 10
100.432
 20
26.3303
 11
100.822
 21
26.1316
  0
LINE
  8
0
 10
100.822
 20
26.1316
 11
101.132
 21
25.8221
  0
LINE
  8
0
 10
101.132
 20
25.8221
 11
101.33
 21
25.4322
  0
LINE
  8
0
 10
101.33
 20
25.4322
 11
101.399
 21
25
  0
LINE
  8
0
 10
101.399
 20
25
 11
101.33
 21
24.5677
  0
LINE
  8
0
 10
101.33
 20
24.5677
 11
101.132
 21
24.1779
  0
LINE
  8
0
 10
101.132
 20
24.1779
 11
100.822
 21
23.8684
  0
LINE
  8
0
 10
100.822
 20
23.8684
 11
100.432
 21
23.6697
  0
LINE
  8
0
 10
100.432
 20
23.6697
 11
100
 21
23.6012
  0
LINE
  8
0
 10
100
 20
23.6012
 11
99.5677
 21
23.6697
  0
LINE
  8
0
 10
154.568
 20
23.6697
 11
154.178
 21
23.8684
  0
LINE
  8
0
 10
154.178
 20
23.8684
 11
153.868
 21
24.1779
  0
LINE
  8
0
 10
153.868
 20
24.1779
 11
153.67
 21
24.5677
  0
LINE
  8
0
 10
153.67
 20
24.5677
 11
153.601
 21
25
  0
LINE
  8
0
 10
153.601
 20
25
 11
153.67
 21
25.4322
  0
LINE
  8
0
 10
153.67
 20
25.4322
 11
153.868
 21
25.8221
  0
LINE
  8
0
 10
153.868
 20
25.8221
 11
154.178
 21
26.1316
  0
LINE
  8
0
 10
154.178
 20
26.1316
 11
154.568
 21
26.3303
  0
LINE
  8
0
 10
154.568
 20
26.3303
 11
155
 21
26.3987
  0
LINE
  8
0
 10
155
 20
26.3987
 11
155.432
 21
26.3303
  0
LINE
  8
0
 10
155.432
 20
26.3303
 11
155.822
 21
26.1316
  0
LINE
  8
0
 10
155.822
 20
26.1316
 11
156.132
 21
25.8221
  0
LINE
  8
0
 10
156.132
 20
25.8221
 11
156.33
 21
25.4322
  0
LINE
  8
0
 10
156.33
 20
25.4322
 11
156.399
 21
25
  0
LINE
  8
0
 10
156.399
 20
25
 11
156.33
 21
24.5677
  0
LINE
  8
0
 10
156.33
 20
24.5677
 11
156.132
 21
24.1779
  0
LINE
  8
0
 10
156.132
 20
24.1779
 11
155.822
 21
23.8684
  0
LINE
  8
0
 10
155.822
 20
23.8684
 11
155.432
 21
23.6697
  0
LINE
  8
0
 10
155.432
 20
23.6697
 11
155
 21
23.6012
  0
LINE
  8
0
 10
155
 20
23.6012
 11
154.568
 21
23.6697
  0
LINE
  8
0
 10
175.1
 20
4.95857
 11
175.1
 21
44.9
  0
LINE
  8
0
 10
175.1
 20
44.9
 11
265.041
 21
44.9
  0
LINE
  8
0
 10
265.041
 20
44.9
 11
265.1
 21
44.9586
  0
LINE
  8
0
 10
265.1
 20
44.9586
 11
265.1
 21
55.0414
  0
LINE
  8
0
 10
265.1
 20
55.0414
 11
265.041
 21
55.1
  0
LINE
  8
0
 10
265.041
 20
55.1
 11
109.959
 21
55.1
  0
LINE
  8
0
 10
109.959
 20
55.1
 11
109.9
 21
55.0414
  0
LINE
  8
0
 10
109.9
 20
55.0414
 11
109.9
 21
44.9586
  0
LINE
  8
0
 10
109.9
 20
44.9586
 11
109.959
 21
44.9
  0
LINE
  8
0
 10
109.959
 20
44.9
 11
164.9
 21
44.9
  0
LINE
  8
0
 10
164.9
 20
44.9
 11
164.9
 21
4.95857
  0
LINE
  8
0
 10
164.9
 20
4.95857
 11
164.959
 21
4.89999
  0
LINE
  8
0
 10
164.959
 20
4.89999
 11
175.041
 21
4.89999
  0
LINE
  8
0
 10
175.041
 20
4.89999
 11
175.1
 21
4.95857
  0
LINE
  8
0
 10
114.568
 20
48.6697
 11
114.178
 21
48.8684
  0
LINE
  8
0
 10
114.178
 20
48.8684
 11
113.868
 21
49.1779
  0
LINE
  8
0
 10
113.868
 20
49.1779
 11
113.67
 21
49.5677
  0
LINE
  8
0
 10
113.67
 20
49.5677
 11
113.601
 21
50
  0
LINE
  8
0
 10
113.601
 20
50
 11
113.67
 21
50.4323
  0
LINE
  8
0
 10
113.67
 20
50.4323
 11
113.868
 21
50.8221
  0
LINE
  8
0
 10
113.868
 20
50.8221
 11
114.178
 21
51.1316
  0
LINE
  8
0
 10
114.178
 20
51.1316
 11
114.568
 21
51.3303
  0
LINE
  8
0
 10
114.568
 20
51.3303
 11
115
 21
51.3988
  0
LINE
  8
0
 10
115
 20
51.3988
 11
115.432
 21
51.3303
  0
LINE
  8
0
 10
115.432
 20
51.3303
 11
115.822
 21
51.1316
  0
LINE
  8
0
 10
115.822
 20
51.1316
 11
116.132
 21
50.8221
  0
LINE
  8
0
 10
116.132
 20
50.8221
 11
116.33
 21
50.4323
  0
LINE
  8
0
 10
116.33
 20
50.4323
 11
116.399
 21
50
  0
LINE
  8
0
 10
116.399
 20
50
 11
116.33
 21
49.5677
  0
LINE
  8
0
 10
116.33
 20
49.5677
 11
116.132
 21
49.1779
  0
LINE
  8
0
 10
116.132
 20
49.1779
 11
115.822
 21
48.8684
  0
LINE
  8
0
 10
115.822
 20
48.8684
 11
115.432
 21
48.6697
  0
LINE
  8
0
 10
115.432
 20
48.6697
 11
115
 21
48.6012
  0
LINE
  8
0
 10
115
 20
48.6012
 11
114.568
 21
48.6697
  0
LINE
  8
0
 10
169.568
 20
48.6697
 11
169.178
 21
48.8684
  0
LINE
  8
0
 10
169.178
 20
48.8684
 11
168.868
 21
49.1779
  0
LINE
  8
0
 10
168.868
 20
49.1779
 11
168.67
 21
49.5677
  0
LINE
  8
0
 10
168.67
 20
49.5677
 11
168.601
 21
50
  0
LINE
  8
0
 10
168.601
 20
50
 11
168.67
 21
50.4323
  0
LINE
  8
0
 10
168.67
 20
50.4323
 11
168.868
 21
50.8221
  0
LINE
  8
0
 10
168.868
 20
50.8221
 11
169.178
 21
51.1316
  0
LINE
  8
0
 10
169.178
 20
51.1316
 11
169.568
 21
51.3303
  0
LINE
  8
0
 10
169.568
 20
51.3303
 11
170
 21
51.3988
  0
LINE
  8
0
 10
170
 20
51.3988
 11
170.432
 21
51.3303
  0
LINE
  8
0
 10
170.432
 20
51.3303
 11
170.822
 21
51.1316
  0
LINE
  8
0
 10
170.822
 20
51.1316
 11
171.132
 21
50.8221
  0
LINE
  8
0
 10
171.132
 20
50.8221
 11
171.33
 21
50.4323
  0
LINE
  8
0
 10
171.33
 20
50.4323
 11
171.399
 21
50
  0
LINE
  8
0
 10
171.399
 20
50
 11
171.33
 21
49.5677
  0
LINE
  8
0
 10
171.33
 20
49.5677
 11
171.132
 21
49.1779
  0
LINE
  8
0
 10
171.132
 20
49.1779
 11
170.822
 21
48.8684
  0
LINE
  8
0
 10
170.822
 20
48.8684
 11
170.432
 21
48.6697
  0
LINE
  8
0
 10
170.432
 20
48.6697
 11
170
 21
48.6012
  0
LINE
  8
0
 10
170
 20
48.6012
 11
169.568
 21
48.6697
  0
LINE
  8
0
 10
239.568
 20
48.6697
 11
239.178
 21
48.8684
  0
LINE
  8
0
 10
239.178
 20
48.8684
 11
238.868
 21
49.1779
  0
LINE
  8
0
 10
238.868
 20
49.1779
 11
238.67
 21
49.5677
  0
LINE
  8
0
 10
238.67
 20
49.5677
 11
238.601
 21
50
  0
LINE
  8
0
 10
238.601
 20
50
 11
238.67
 21
50.4323
  0
LINE
  8
0
 10
238.67
 20
50.4323
 11
238.868
 21
50.8221
  0
LINE
  8
0
 10
238.868
 20
50.8221
 11
239.178
 21
51.1316
  0
LINE
  8
0
 10
239.178
 20
51.1316
 11
239.568
 21
51.3303
  0
LINE
  8
0
 10
239.568
 20
51.3303
 11
240
 21
51.3988
  0
LINE
  8
0
 10
240
 20
51.3988
 11
240.432
 21
51.3303
  0
LINE
  8
0
 10
240.432
 20
51.3303
 11
240.822
 21
51.1316
  0
LINE
  8
0
 10
240.822
 20
51.1316
 11
241.132
 21
50.8221
  0
LINE
  8
0
 10
241.132
 20
50.8221
 11
241.33
 21
50.4323
  0
LINE
  8
0
 10
241.33
 20
50.4323
 11
241.399
 21
50
  0
LINE
  8
0
 10
241.399
 20
50
 11
241.33
 21
49.5677
  0
LINE
  8
0
 10
241.33
 20
49.5677
 11
241.132
 21
49.1779
  0
LINE
  8
0
 10
241.132
 20
49.1779
 11
240.822
 21
48.8684
  0
LINE
  8
0
 10
240.822
 20
48.8684
 11
240.432
 21
48.6697
  0
LINE
  8
0
 10
240.432
 20
48.6697
 11
240
 21
48.6012
  0
LINE
  8
0
 10
240
 20
48.6012
 11
239.568
 21
48.6697
  0
LINE
  8
0
 10
259.568
 20
48.6697
 11
259.178
 21
48.8684
  0
LINE
  8
0
 10
259.178
 20
48.8684
 11
258.868
 21
49.1779
  0
LINE
  8
0
 10
258.868
 20
49.1779
 11
258.67
 21
49.5677
  0
LINE
  8
0
 10
258.67
 20
49.5677
 11
258.601
 21
50
  0
LINE
  8
0
 10
258.601
 20
50
 11
258.67
 21
50.4323
  0
LINE
  8
0
 10
258.67
 20
50.4323
 11
258.868
 21
50.8221
  0
LINE
  8
0
 10
258.868
 20
50.8221
 11
259.178
 21
51.1316
  0
LINE
  8
0
 10
259.178
 20
51.1316
 11
259.568
 21
51.3303
  0
LINE
  8
0
 10
259.568
 20
51.3303
 11
260
 21
51.3988
  0
LINE
  8
0
 10
260
 20
51.3988
 11
260.432
 21
51.3303
  0
LINE
  8
0
 10
260.432
 20
51.3303
 11
260.822
 21
51.1316
  0
LINE
  8
0
 10
260.822
 20
51.1316
 11
261.132
 21
50.8221
  0
LINE
  8
0
 10
261.132
 20
50.8221
 11
261.33
 21
50.4323
  0
LINE
  8
0
 10
261.33
 20
50.4323
 11
261.399
 21
50
  0
LINE
  8
0
 10
261.399
 20
50
 11
261.33
 21
49.5677
  0
LINE
  8
0
 10
261.33
 20
49.5677
 11
261.132
 21
49.1779
  0
LINE
  8
0
 10
261.132
 20
49.1779
 11
260.822
 21
48.8684
  0
LINE
  8
0
 10
260.822
 20
48.8684
 11
260.432
 21
48.6697
  0
LINE
  8
0
 10
260.432
 20
48.6697
 11
260
 21
48.6012
  0
LINE
  8
0
 10
260
 20
48.6012
 11
259.568
 21
48.6697
  0
LINE
  8
0
 10
410.1
 20
4.95857
 11
410.1
 21
15.0414
  0
LINE
  8
0
 10
410.1
 20
15.0414
 11
410.041
 21
15.1
  0
LINE
  8
0
 10
410.041
 20
15.1
 11
189.959
 21
15.1
  0
LINE
  8
0
 10
189.959
 20
15.1
 11
189.9
 21
15.0414
  0
LINE
  8
0
 10
189.9
 20
15.0414
 11
189.9
 21
4.95857
  0
LINE
  8
0
 10
189.9
 20
4.95857
 11
189.959
 21
4.89999
  0
LINE
  8
0
 10
189.959
 20
4.89999
 11
410.041
 21
4.89999
  0
LINE
  8
0
 10
410.041
 20
4.89999
 11
410.1
 21
4.95857
  0
ENDSEC
  0
SECTION
  2
OBJECTS
  0
DICTIONARY
  0
ENDSEC
  0
EOF
