999
dxfrw 0.6.3
  0
SECTION
  2
HEADER
  9
$ACADVER
  1
AC1021
  9
$DWGCODEPAGE
  3
ANSI_1252
  9
$INSBASE
 10
0
 20
0
 30
0
  9
$EXTMIN
 10
-40.00000000000036
 20
-130
 30
0
  9
$EXTMAX
 10
286.0000000000004
 20
209.0000000000007
 30
0
  9
$LIMMIN
 10
0
 20
0
  9
$LIMMAX
 10
420
 20
297
  9
$ORTHOMODE
 70
    0
  9
$REGENMODE
 70
    1
  9
$FILLMODE
 70
    1
  9
$QTEXTMODE
 70
    0
  9
$MIRRTEXT
 70
    0
  9
$LTSCALE
 40
1
  9
$ATTMODE
 70
    0
  9
$TEXTSIZE
 40
2.5
  9
$TRACEWID
 40
15.68
  9
$TEXTSTYLE
  7
STANDARD
  9
$CLAYER
  8
Tie rods
  9
$CELTYPE
  6
BYLAYER
  9
$CECOLOR
 62
  256
  9
$CELTSCALE
 40
1
  9
$DISPSILH
 70
    0
  9
$DIMSCALE
 40
1
  9
$DIMASZ
 40
2.5
  9
$DIMEXO
 40
0.625
  9
$DIMDLI
 40
3.75
  9
$DIMRND
 40
0
  9
$DIMDLE
 40
0
  9
$DIMEXE
 40
1.25
  9
$DIMTP
 40
0
  9
$DIMTM
 40
0
  9
$DIMTXT
 40
2.5
  9
$DIMCEN
 40
2.5
  9
$DIMTSZ
 40
0
  9
$DIMTOL
 70
    0
  9
$DIMLIM
 70
    0
  9
$DIMTIH
 70
    0
  9
$DIMTOH
 70
    0
  9
$DIMSE1
 70
    0
  9
$DIMSE2
 70
    0
  9
$DIMTAD
 70
    1
  9
$DIMZIN
 70
    8
  9
$DIMBLK
  1

  9
$DIMASO
 70
    1
  9
$DIMSHO
 70
    1
  9
$DIMPOST
  1

  9
$DIMAPOST
  1

  9
$DIMALT
 70
    0
  9
$DIMALTD
 70
    3
  9
$DIMALTF
 40
0.03937
  9
$DIMLFAC
 40
1
  9
$DIMTOFL
 70
    1
  9
$DIMTVP
 40
0
  9
$DIMTIX
 70
    0
  9
$DIMSOXD
 70
    0
  9
$DIMSAH
 70
    0
  9
$DIMBLK1
  1

  9
$DIMBLK2
  1

  9
$DIMSTYLE
  2
STANDARD
  9
$DIMCLRD
 70
    0
  9
$DIMCLRE
 70
    0
  9
$DIMCLRT
 70
    0
  9
$DIMTFAC
 40
1
  9
$DIMGAP
 40
0.625
  9
$DIMJUST
 70
    0
  9
$DIMSD1
 70
    0
  9
$DIMSD2
 70
    0
  9
$DIMTOLJ
 70
    0
  9
$DIMTZIN
 70
    8
  9
$DIMALTZ
 70
    0
  9
$DIMALTTZ
 70
    0
  9
$DIMUPT
 70
    0
  9
$DIMDEC
 70
    2
  9
$DIMTDEC
 70
    2
  9
$DIMALTU
 70
    2
  9
$DIMALTTD
 70
    3
  9
$DIMTXSTY
  7
STANDARD
  9
$DIMAUNIT
 70
    0
  9
$DIMADEC
 70
    0
  9
$DIMALTRND
 40
0
  9
$DIMAZIN
 70
    0
  9
$DIMDSEP
 70
   44
  9
$DIMATFIT
 70
    3
  9
$DIMFRAC
 70
    0
  9
$DIMLDRBLK
  1
STANDARD
  9
$DIMLUNIT
 70
    2
  9
$DIMLWD
 70
   -2
  9
$DIMLWE
 70
   -2
  9
$DIMTMOVE
 70
    0
  9
$DIMFXL
 40
1
  9
$DIMFXLON
 70
    0
  9
$DIMJOGANG
 40
0.7854
  9
$DIMTFILL
 70
    0
  9
$DIMTFILLCLR
 70
    0
  9
$DIMARCSYM
 70
    0
  9
$DIMLTYPE
  6

  9
$DIMLTEX1
  6

  9
$DIMLTEX2
  6

  9
$LUNITS
 70
    2
  9
$LUPREC
 70
    4
  9
$SKETCHINC
 40
1
  9
$FILLETRAD
 40
0
  9
$AUNITS
 70
    0
  9
$AUPREC
 70
    2
  9
$MENU
  1
.
  9
$ELEVATION
 40
0
  9
$PELEVATION
 40
0
  9
$THICKNESS
 40
0
  9
$LIMCHECK
 70
    0
  9
$CHAMFERA
 40
0
  9
$CHAMFERB
 40
0
  9
$CHAMFERC
 40
0
  9
$CHAMFERD
 40
0
  9
$SKPOLY
 70
    0
  9
$USRTIMER
 70
    1
  9
$ANGBASE
 50
0
  9
$ANGDIR
 70
    0
  9
$PDMODE
 70
   34
  9
$PDSIZE
 40
0
  9
$PLINEWID
 40
0
  9
$SPLFRAME
 70
    0
  9
$SPLINETYPE
 70
    2
  9
$SPLINESEGS
 70
    8
  9
$HANDSEED
  5
20000
  9
$SURFTAB1
 70
    6
  9
$SURFTAB2
 70
    6
  9
$SURFTYPE
 70
    6
  9
$SURFU
 70
    6
  9
$SURFV
 70
    6
  9
$UCSBASE
  2

  9
$UCSNAME
  2

  9
$UCSORG
 10
0
 20
0
 30
0
  9
$UCSXDIR
 10
1
 20
0
 30
0
  9
$UCSYDIR
 10
0
 20
1
 30
0
  9
$UCSORTHOREF
  2

  9
$UCSORTHOVIEW
 70
    0
  9
$UCSORGTOP
 10
0
 20
0
 30
0
  9
$UCSORGBOTTOM
 10
0
 20
0
 30
0
  9
$UCSORGLEFT
 10
0
 20
0
 30
0
  9
$UCSORGRIGHT
 10
0
 20
0
 30
0
  9
$UCSORGFRONT
 10
0
 20
0
 30
0
  9
$UCSORGBACK
 10
0
 20
0
 30
0
  9
$PUCSBASE
  2

  9
$PUCSNAME
  2

  9
$PUCSORG
 10
0
 20
0
 30
0
  9
$PUCSXDIR
 10
1
 20
0
 30
0
  9
$PUCSYDIR
 10
0
 20
1
 30
0
  9
$PUCSORTHOREF
  2

  9
$PUCSORTHOVIEW
 70
    0
  9
$PUCSORGTOP
 10
0
 20
0
 30
0
  9
$PUCSORGBOTTOM
 10
0
 20
0
 30
0
  9
$PUCSORGLEFT
 10
0
 20
0
 30
0
  9
$PUCSORGRIGHT
 10
0
 20
0
 30
0
  9
$PUCSORGFRONT
 10
0
 20
0
 30
0
  9
$PUCSORGBACK
 10
0
 20
0
 30
0
  9
$USERI1
 70
    0
  9
$USERI2
 70
    0
  9
$USERI3
 70
    0
  9
$USERI4
 70
    0
  9
$USERI5
 70
    0
  9
$USERR1
 40
0
  9
$USERR2
 40
0
  9
$USERR3
 40
0
  9
$USERR4
 40
0
  9
$USERR5
 40
0
  9
$WORLDVIEW
 70
    1
  9
$SHADEDGE
 70
    3
  9
$SHADEDIF
 70
   70
  9
$TILEMODE
 70
    1
  9
$MAXACTVP
 70
   64
  9
$PINSBASE
 10
0
 20
0
 30
0
  9
$PLIMCHECK
 70
    0
  9
$PEXTMIN
 10
0
 20
0
 30
0
  9
$PEXTMAX
 10
0
 20
0
 30
0
  9
$GRIDMODE
 70
    1
  9
$SNAPSTYLE
 70
    0
  9
$PLIMMIN
 10
0
 20
0
  9
$PLIMMAX
 10
210
 20
297
  9
$UNITMODE
 70
    0
  9
$VISRETAIN
 70
    1
  9
$PLINEGEN
 70
    0
  9
$PSLTSCALE
 70
    1
  9
$TREEDEPTH
 70
 3020
  9
$CMLSTYLE
  2
Standard
  9
$CMLJUST
 70
    0
  9
$CMLSCALE
 40
20
  9
$PROXYGRAPHICS
 70
    1
  9
$MEASUREMENT
 70
    1
  9
$CELWEIGHT
370
   -1
  9
$ENDCAPS
280
    0
  9
$JOINSTYLE
280
    0
  9
$LWDISPLAY
290
    0
  9
$INSUNITS
 70
    4
  9
$HYPERLINKBASE
  1

  9
$STYLESHEET
  1

  9
$XEDIT
290
    1
  9
$CEPSNTYPE
380
    0
  9
$PSTYLEMODE
290
    1
  9
$EXTNAMES
290
    1
  9
$PSVPSCALE
 40
1
  9
$OLESTARTUP
290
    0
  9
$SORTENTS
280
  127
  9
$INDEXCTL
280
    0
  9
$HIDETEXT
280
    1
  9
$XCLIPFRAME
290
    0
  9
$HALOGAP
280
    0
  9
$OBSCOLOR
 70
  257
  9
$OBSLTYPE
280
    0
  9
$INTERSECTIONDISPLAY
280
    0
  9
$INTERSECTIONCOLOR
 70
  257
  9
$DIMASSOC
280
    1
  9
$PROJECTNAME
  1

  9
$CAMERADISPLAY
290
    0
  9
$LENSLENGTH
 40
50
  9
$CAMERAHEIGHT
 40
0
  9
$STEPSPERSEC
 40
2
  9
$STEPSIZE
 40
50
  9
$3DDWFPREC
 40
2
  9
$PSOLWIDTH
 40
5
  9
$PSOLHEIGHT
 40
80
  9
$LOFTANG1
 40
1.570796326794897
  9
$LOFTANG2
 40
1.570796326794897
  9
$LOFTMAG1
 40
0
  9
$LOFTMAG2
 40
0
  9
$LOFTPARAM
 70
    7
  9
$LOFTNORMALS
280
    1
  9
$LATITUDE
 40
1
  9
$LONGITUDE
 40
1
  9
$NORTHDIRECTION
 40
0
  9
$TIMEZONE
 70
-8000
  9
$LIGHTGLYPHDISPLAY
280
    1
  9
$TILEMODELIGHTSYNCH
280
    1
  9
$SOLIDHIST
280
    1
  9
$SHOWHIST
280
    1
  9
$DWFFRAME
280
    2
  9
$DGNFRAME
280
    0
  9
$REALWORLDSCALE
290
    1
  9
$INTERFERECOLOR
 62
    1
  9
$CSHADOW
280
    0
  9
$SHADOWPLANELOCATION
 40
0
  0
ENDSEC
  0
SECTION
  2
CLASSES
  0
ENDSEC
  0
SECTION
  2
TABLES
  0
TABLE
  2
VPORT
  5
8
330
0
100
AcDbSymbolTable
 70
    1
  0
VPORT
  5
31
330
2
100
AcDbSymbolTableRecord
100
AcDbViewportTableRecord
  2
*ACTIVE
 70
    0
 10
0
 20
0
 11
1
 21
1
 12
181.8359375000004
 22
114.6484375000003
 13
0
 23
0
 14
10
 24
10
 15
10
 25
10
 16
0
 26
0
 36
1
 17
0
 27
0
 37
0
 40
367.5781250000009
 41
1.38788522848034
 42
50
 43
0
 44
0
 50
0
 51
0
 71
    0
 72
  100
 73
    1
 74
    3
 75
    0
 76
    1
 77
    0
 78
    0
281
    0
 65
    1
110
0
120
0
130
0
111
1
121
0
131
0
112
0
122
1
132
0
 79
    0
146
0
348
10020
 60
    7
 61
    5
292
1
282
    1
141
0
142
0
 63
  250
421
3358443
  0
ENDTAB
  0
TABLE
  2
LTYPE
  5
5
330
0
100
AcDbSymbolTable
 70
    4
  0
LTYPE
  5
14
330
5
100
AcDbSymbolTableRecord
100
AcDbLinetypeTableRecord
  2
ByBlock
 70
    0
  3

 72
   65
 73
    0
 40
0
  0
LTYPE
  5
15
330
5
100
AcDbSymbolTableRecord
100
AcDbLinetypeTableRecord
  2
ByLayer
 70
    0
  3

 72
   65
 73
    0
 40
0
  0
LTYPE
  5
16
330
5
100
AcDbSymbolTableRecord
100
AcDbLinetypeTableRecord
  2
Continuous
 70
    0
  3
Solid line
 72
   65
 73
    0
 40
0
  0
LTYPE
  5
32
330
5
100
AcDbSymbolTableRecord
100
AcDbLinetypeTableRecord
  2
DOT
 70
    0
  3
Dot . . . . . . . . . . . . . . . . . . . . . .
 72
   65
 73
    2
 40
6.35
 49
0
 74
    0
 49
-6.35
 74
    0
  0
LTYPE
  5
33
330
5
100
AcDbSymbolTableRecord
100
AcDbLinetypeTableRecord
  2
DOTTINY
 70
    0
  3
Dot (.15x) .....................................
 72
   65
 73
    2
 40
0.9525
 49
0
 74
    0
 49
-0.9525
 74
    0
  0
LTYPE
  5
34
330
5
100
AcDbSymbolTableRecord
100
AcDbLinetypeTableRecord
  2
DOT2
 70
    0
  3
Dot (.5x) .....................................
 72
   65
 73
    2
 40
3.175
 49
0
 74
    0
 49
-3.175
 74
    0
  0
LTYPE
  5
35
330
5
100
AcDbSymbolTableRecord
100
AcDbLinetypeTableRecord
  2
DOTX2
 70
    0
  3
Dot (2x) .  .  .  .  .  .  .  .  .  .  .  .  .
 72
   65
 73
    2
 40
12.7
 49
0
 74
    0
 49
-12.7
 74
    0
  0
LTYPE
  5
36
330
5
100
AcDbSymbolTableRecord
100
AcDbLinetypeTableRecord
  2
DASHED
 70
    0
  3
Dashed _ _ _ _ _ _ _ _ _ _ _ _ _ _ _ _ _
 72
   65
 73
    2
 40
19.05
 49
12.7
 74
    0
 49
-6.35
 74
    0
  0
LTYPE
  5
37
330
5
100
AcDbSymbolTableRecord
100
AcDbLinetypeTableRecord
  2
DASHEDTINY
 70
    0
  3
Dashed (.15x) _ _ _ _ _ _ _ _ _ _ _ _ _ _ _ _ _
 72
   65
 73
    2
 40
2.8575
 49
1.905
 74
    0
 49
-0.9525
 74
    0
  0
LTYPE
  5
38
330
5
100
AcDbSymbolTableRecord
100
AcDbLinetypeTableRecord
  2
DASHED2
 70
    0
  3
Dashed (.5x) _ _ _ _ _ _ _ _ _ _ _ _ _ _ _ _ _
 72
   65
 73
    2
 40
9.524999999999999
 49
6.35
 74
    0
 49
-3.175
 74
    0
  0
LTYPE
  5
39
330
5
100
AcDbSymbolTableRecord
100
AcDbLinetypeTableRecord
  2
DASHEDX2
 70
    0
  3
Dashed (2x) ____  ____  ____  ____  ____  ___
 72
   65
 73
    2
 40
38.09999999999999
 49
25.4
 74
    0
 49
-12.7
 74
    0
  0
LTYPE
  5
3A
330
5
100
AcDbSymbolTableRecord
100
AcDbLinetypeTableRecord
  2
DASHDOT
 70
    0
  3
Dash dot __ . __ . __ . __ . __ . __ . __ . __
 72
   65
 73
    4
 40
25.4
 49
12.7
 74
    0
 49
-6.35
 74
    0
 49
0
 74
    0
 49
-6.35
 74
    0
  0
LTYPE
  5
3B
330
5
100
AcDbSymbolTableRecord
100
AcDbLinetypeTableRecord
  2
DASHDOTTINY
 70
    0
  3
Dash dot (.15x) _._._._._._._._._._._._._._._.
 72
   65
 73
    4
 40
3.81
 49
1.905
 74
    0
 49
-0.9525
 74
    0
 49
0
 74
    0
 49
-0.9525
 74
    0
  0
LTYPE
  5
3C
330
5
100
AcDbSymbolTableRecord
100
AcDbLinetypeTableRecord
  2
DASHDOT2
 70
    0
  3
Dash dot (.5x) _._._._._._._._._._._._._._._.
 72
   65
 73
    4
 40
12.7
 49
6.35
 74
    0
 49
-3.175
 74
    0
 49
0
 74
    0
 49
-3.175
 74
    0
  0
LTYPE
  5
3D
330
5
100
AcDbSymbolTableRecord
100
AcDbLinetypeTableRecord
  2
DASHDOTX2
 70
    0
  3
Dash dot (2x) ____  .  ____  .  ____  .  ___
 72
   65
 73
    4
 40
50.8
 49
25.4
 74
    0
 49
-12.7
 74
    0
 49
0
 74
    0
 49
-12.7
 74
    0
  0
LTYPE
  5
3E
330
5
100
AcDbSymbolTableRecord
100
AcDbLinetypeTableRecord
  2
DIVIDE
 70
    0
  3
Divide ____ . . ____ . . ____ . . ____ . . ____
 72
   65
 73
    6
 40
31.75
 49
12.7
 74
    0
 49
-6.35
 74
    0
 49
0
 74
    0
 49
-6.35
 74
    0
 49
0
 74
    0
 49
-6.35
 74
    0
  0
LTYPE
  5
3F
330
5
100
AcDbSymbolTableRecord
100
AcDbLinetypeTableRecord
  2
DIVIDETINY
 70
    0
  3
Divide (.15x) __..__..__..__..__..__..__..__.._
 72
   65
 73
    6
 40
4.7625
 49
1.905
 74
    0
 49
-0.9525
 74
    0
 49
0
 74
    0
 49
-0.9525
 74
    0
 49
0
 74
    0
 49
-0.9525
 74
    0
  0
LTYPE
  5
40
330
5
100
AcDbSymbolTableRecord
100
AcDbLinetypeTableRecord
  2
DIVIDE2
 70
    0
  3
Divide (.5x) __..__..__..__..__..__..__..__.._
 72
   65
 73
    6
 40
15.875
 49
6.35
 74
    0
 49
-3.175
 74
    0
 49
0
 74
    0
 49
-3.175
 74
    0
 49
0
 74
    0
 49
-3.175
 74
    0
  0
LTYPE
  5
41
330
5
100
AcDbSymbolTableRecord
100
AcDbLinetypeTableRecord
  2
DIVIDEX2
 70
    0
  3
Divide (2x) ________  .  .  ________  .  .  _
 72
   65
 73
    6
 40
63.5
 49
25.4
 74
    0
 49
-12.7
 74
    0
 49
0
 74
    0
 49
-12.7
 74
    0
 49
0
 74
    0
 49
-12.7
 74
    0
  0
LTYPE
  5
42
330
5
100
AcDbSymbolTableRecord
100
AcDbLinetypeTableRecord
  2
BORDER
 70
    0
  3
Border __ __ . __ __ . __ __ . __ __ . __ __ .
 72
   65
 73
    6
 40
44.45
 49
12.7
 74
    0
 49
-6.35
 74
    0
 49
12.7
 74
    0
 49
-6.35
 74
    0
 49
0
 74
    0
 49
-6.35
 74
    0
  0
LTYPE
  5
43
330
5
100
AcDbSymbolTableRecord
100
AcDbLinetypeTableRecord
  2
BORDERTINY
 70
    0
  3
Border (.15x) __.__.__.__.__.__.__.__.__.__.__.
 72
   65
 73
    6
 40
6.6675
 49
1.905
 74
    0
 49
-0.9525
 74
    0
 49
1.905
 74
    0
 49
-0.9525
 74
    0
 49
0
 74
    0
 49
-0.9525
 74
    0
  0
LTYPE
  5
44
330
5
100
AcDbSymbolTableRecord
100
AcDbLinetypeTableRecord
  2
BORDER2
 70
    0
  3
Border (.5x) __.__.__.__.__.__.__.__.__.__.__.
 72
   65
 73
    6
 40
22.225
 49
6.35
 74
    0
 49
-3.175
 74
    0
 49
6.35
 74
    0
 49
-3.175
 74
    0
 49
0
 74
    0
 49
-3.175
 74
    0
  0
LTYPE
  5
45
330
5
100
AcDbSymbolTableRecord
100
AcDbLinetypeTableRecord
  2
BORDERX2
 70
    0
  3
Border (2x) ____  ____  .  ____  ____  .  ___
 72
   65
 73
    6
 40
88.89999999999999
 49
25.4
 74
    0
 49
-12.7
 74
    0
 49
25.4
 74
    0
 49
-12.7
 74
    0
 49
0
 74
    0
 49
-12.7
 74
    0
  0
LTYPE
  5
46
330
5
100
AcDbSymbolTableRecord
100
AcDbLinetypeTableRecord
  2
CENTER
 70
    0
  3
Center ____ _ ____ _ ____ _ ____ _ ____ _ ____
 72
   65
 73
    4
 40
50.8
 49
31.75
 74
    0
 49
-6.35
 74
    0
 49
6.35
 74
    0
 49
-6.35
 74
    0
  0
LTYPE
  5
47
330
5
100
AcDbSymbolTableRecord
100
AcDbLinetypeTableRecord
  2
CENTERTINY
 70
    0
  3
Center (.15x) ___ _ ___ _ ___ _ ___ _ ___ _ ___
 72
   65
 73
    4
 40
7.619999999999999
 49
4.7625
 74
    0
 49
-0.9525
 74
    0
 49
0.9525
 74
    0
 49
-0.9525
 74
    0
  0
LTYPE
  5
48
330
5
100
AcDbSymbolTableRecord
100
AcDbLinetypeTableRecord
  2
CENTER2
 70
    0
  3
Center (.5x) ___ _ ___ _ ___ _ ___ _ ___ _ ___
 72
   65
 73
    4
 40
28.575
 49
19.05
 74
    0
 49
-3.175
 74
    0
 49
3.175
 74
    0
 49
-3.175
 74
    0
  0
LTYPE
  5
49
330
5
100
AcDbSymbolTableRecord
100
AcDbLinetypeTableRecord
  2
CENTERX2
 70
    0
  3
Center (2x) ________  __  ________  __  _____
 72
   65
 73
    4
 40
101.6
 49
63.5
 74
    0
 49
-12.7
 74
    0
 49
12.7
 74
    0
 49
-12.7
 74
    0
  0
ENDTAB
  0
TABLE
  2
LAYER
  5
2
330
0
100
AcDbSymbolTable
 70
    1
  0
LAYER
  5
10
330
2
100
AcDbSymbolTableRecord
100
AcDbLayerTableRecord
  2
0
 70
    0
 62
    7
  6
CONTINUOUS
370
    0
390
F
  0
LAYER
  5
4A
330
2
100
AcDbSymbolTableRecord
100
AcDbLayerTableRecord
  2
Cam holders
 70
    0
 62
    7
  6
CONTINUOUS
370
    0
390
F
  0
LAYER
  5
4B
330
2
100
AcDbSymbolTableRecord
100
AcDbLayerTableRecord
  2
Dimensions
 70
    0
 62
    7
  6
CONTINUOUS
370
    0
390
F
  0
LAYER
  5
4C
330
2
100
AcDbSymbolTableRecord
100
AcDbLayerTableRecord
  2
Labels
 70
    0
 62
    7
  6
CONTINUOUS
370
    0
390
F
  0
LAYER
  5
4D
330
2
100
AcDbSymbolTableRecord
100
AcDbLayerTableRecord
  2
Tie rods
 70
    0
 62
    7
  6
CONTINUOUS
370
    0
390
F
  0
LAYER
  5
4E
330
2
100
AcDbSymbolTableRecord
100
AcDbLayerTableRecord
  2
cam_profiles
 70
    0
 62
    7
  6
CONTINUOUS
370
    0
390
F
  0
LAYER
  5
4F
330
2
100
AcDbSymbolTableRecord
100
AcDbLayerTableRecord
  2
followers
 70
    0
 62
    7
  6
CONTINUOUS
370
    0
390
F
  0
ENDTAB
  0
TABLE
  2
STYLE
  5
3
330
0
100
AcDbSymbolTable
 70
    3
  0
STYLE
  5
50
330
2
100
AcDbSymbolTableRecord
100
AcDbTextStyleTableRecord
  2
STANDARD
 70
    0
 40
0
 41
1
 50
0
 71
    0
 42
1
  3
STANDARD
  4

  0
ENDTAB
  0
TABLE
  2
VIEW
  5
6
330
0
100
AcDbSymbolTable
 70
    0
  0
ENDTAB
  0
TABLE
  2
UCS
  5
7
330
0
100
AcDbSymbolTable
 70
    0
  0
ENDTAB
  0
TABLE
  2
APPID
  5
9
330
0
100
AcDbSymbolTable
 70
    1
  0
APPID
  5
12
330
9
100
AcDbSymbolTableRecord
100
AcDbRegAppTableRecord
  2
ACAD
 70
    0
  0
APPID
  5
51
330
9
100
AcDbSymbolTableRecord
100
AcDbRegAppTableRecord
  2
LibreCad
 70
    0
  0
ENDTAB
  0
TABLE
  2
DIMSTYLE
  5
A
330
0
100
AcDbSymbolTable
 70
    1
100
AcDbDimStyleTable
 71
    1
  0
DIMSTYLE
105
52
330
A
100
AcDbSymbolTableRecord
100
AcDbDimStyleTableRecord
  2
Standard
 70
    0
 40
1
 41
2.5
 42
0.625
 43
0.38
 44
1.25
 45
0
 46
0
 47
0
 48
0
 49
1
140
2.5
141
0.09
142
0
143
25.4
144
1
145
0
146
1
147
0.625
148
0
 71
    0
 72
    0
 73
    0
 74
    1
 75
    0
 76
    0
 77
    0
 78
    8
 79
    0
170
    0
171
    2
172
    0
173
    0
174
    0
175
    0
176
    0
177
    0
178
    0
179
    0
271
    2
272
    4
273
    2
274
    2
275
    0
276
    0
277
    2
278
   44
279
    0
280
    0
281
    0
282
    0
283
    1
284
    0
285
    0
286
    0
288
    0
289
    3
340
STANDARD
341

371
   -2
372
   -2
  0
ENDTAB
  0
TABLE
  2
BLOCK_RECORD
  5
1
330
0
100
AcDbSymbolTable
 70
    2
  0
BLOCK_RECORD
  5
1F
330
1
100
AcDbSymbolTableRecord
100
AcDbBlockTableRecord
  2
*Model_Space
 70
    0
280
    1
281
    0
  0
BLOCK_RECORD
  5
1E
330
1
100
AcDbSymbolTableRecord
100
AcDbBlockTableRecord
  2
*Paper_Space
 70
    0
280
    1
281
    0
  0
BLOCK_RECORD
  5
53
330
1
100
AcDbSymbolTableRecord
100
AcDbBlockTableRecord
  2
*D4
 70
    0
280
    1
281
    0
  0
BLOCK_RECORD
  5
56
330
1
100
AcDbSymbolTableRecord
100
AcDbBlockTableRecord
  2
*D20
 70
    0
280
    1
281
    0
  0
BLOCK_RECORD
  5
59
330
1
100
AcDbSymbolTableRecord
100
AcDbBlockTableRecord
  2
*D14
 70
    0
280
    1
281
    0
  0
BLOCK_RECORD
  5
5C
330
1
100
AcDbSymbolTableRecord
100
AcDbBlockTableRecord
  2
*D8
 70
    0
280
    1
281
    0
  0
BLOCK_RECORD
  5
5F
330
1
100
AcDbSymbolTableRecord
100
AcDbBlockTableRecord
  2
*D9
 70
    0
280
    1
281
    0
  0
BLOCK_RECORD
  5
62
330
1
100
AcDbSymbolTableRecord
100
AcDbBlockTableRecord
  2
*D13
 70
    0
280
    1
281
    0
  0
BLOCK_RECORD
  5
65
330
1
100
AcDbSymbolTableRecord
100
AcDbBlockTableRecord
  2
*D5
 70
    0
280
    1
281
    0
  0
BLOCK_RECORD
  5
68
330
1
100
AcDbSymbolTableRecord
100
AcDbBlockTableRecord
  2
*D7
 70
    0
280
    1
281
    0
  0
BLOCK_RECORD
  5
6B
330
1
100
AcDbSymbolTableRecord
100
AcDbBlockTableRecord
  2
*D17
 70
    0
280
    1
281
    0
  0
BLOCK_RECORD
  5
6E
330
1
100
AcDbSymbolTableRecord
100
AcDbBlockTableRecord
  2
*D2
 70
    0
280
    1
281
    0
  0
BLOCK_RECORD
  5
71
330
1
100
AcDbSymbolTableRecord
100
AcDbBlockTableRecord
  2
*D10
 70
    0
280
    1
281
    0
  0
BLOCK_RECORD
  5
74
330
1
100
AcDbSymbolTableRecord
100
AcDbBlockTableRecord
  2
*D3
 70
    0
280
    1
281
    0
  0
BLOCK_RECORD
  5
77
330
1
100
AcDbSymbolTableRecord
100
AcDbBlockTableRecord
  2
*D15
 70
    0
280
    1
281
    0
  0
BLOCK_RECORD
  5
7A
330
1
100
AcDbSymbolTableRecord
100
AcDbBlockTableRecord
  2
*D6
 70
    0
280
    1
281
    0
  0
BLOCK_RECORD
  5
7D
330
1
100
AcDbSymbolTableRecord
100
AcDbBlockTableRecord
  2
*D18
 70
    0
280
    1
281
    0
  0
BLOCK_RECORD
  5
80
330
1
100
AcDbSymbolTableRecord
100
AcDbBlockTableRecord
  2
*D1
 70
    0
280
    1
281
    0
  0
BLOCK_RECORD
  5
83
330
1
100
AcDbSymbolTableRecord
100
AcDbBlockTableRecord
  2
*D11
 70
    0
280
    1
281
    0
  0
BLOCK_RECORD
  5
86
330
1
100
AcDbSymbolTableRecord
100
AcDbBlockTableRecord
  2
*D16
 70
    0
280
    1
281
    0
  0
BLOCK_RECORD
  5
89
330
1
100
AcDbSymbolTableRecord
100
AcDbBlockTableRecord
  2
*D12
 70
    0
280
    1
281
    0
  0
BLOCK_RECORD
  5
8C
330
1
100
AcDbSymbolTableRecord
100
AcDbBlockTableRecord
  2
*D19
 70
    0
280
    1
281
    0
  0
ENDTAB
  0
ENDSEC
  0
SECTION
  2
BLOCKS
  0
BLOCK
  5
20
330
1F
100
AcDbEntity
  8
0
100
AcDbBlockBegin
  2
*Model_Space
 70
    0
 10
0
 20
0
 30
0
  3
*Model_Space
  1

  0
ENDBLK
  5
21
330
1F
100
AcDbEntity
  8
0
100
AcDbBlockEnd
  0
BLOCK
  5
1C
330
1B
100
AcDbEntity
  8
0
100
AcDbBlockBegin
  2
*Paper_Space
 70
    0
 10
0
 20
0
 30
0
  3
*Paper_Space
  1

  0
ENDBLK
  5
1D
330
1F
100
AcDbEntity
  8
0
100
AcDbBlockEnd
  0
BLOCK
  5
54
330
53
100
AcDbEntity
  8
0
100
AcDbBlockBegin
  2
*D4
 70
    1
 10
0
 20
0
  3
*D4
  1

  0
LINE
  5
8F
100
AcDbEntity
  8
Cam holders
  6
ByBlock
 62
    0
370
   -2
100
AcDbLine
 10
28
 20
-30
 11
55.99999999999999
 21
-30
  0
SOLID
  5
90
100
AcDbEntity
  8
Cam holders
  6
ByBlock
 62
    0
370
   -2
100
AcDbTrace
 10
28
 20
-30
 30
0
 11
30.5
 21
-29.58371534222716
 31
0
 12
30.5
 22
-30.41628465777284
 32
0
 13
30.5
 23
-30.41628465777284
 33
0
  0
SOLID
  5
91
100
AcDbEntity
  8
Cam holders
  6
ByBlock
 62
    0
370
   -2
100
AcDbTrace
 10
55.99999999999999
 20
-30
 30
0
 11
53.49999999999999
 21
-30.41628465777284
 31
0
 12
53.49999999999999
 22
-29.58371534222716
 32
0
 13
53.49999999999999
 23
-29.58371534222716
 33
0
  0
MTEXT
  5
92
100
AcDbEntity
  8
Cam holders
  6
CONTINUOUS
 62
    0
370
   -2
100
AcDbMText
 10
41.99999999999999
 20
-28.125
 30
0
 40
2.5
 41
3.055555555555556
 71
    5
 72
    1
  1
28
  7
STANDARD
210
0
220
0
230
1
 50
0
 73
    2
 44
1
  0
LINE
  5
93
100
AcDbEntity
  8
Cam holders
  6
ByBlock
 62
    0
370
   -2
100
AcDbLine
 10
28
 20
-20.625
 11
28
 21
-31.25
  0
LINE
  5
94
100
AcDbEntity
  8
Cam holders
  6
ByBlock
 62
    0
370
   -2
100
AcDbLine
 10
55.99999999999999
 20
-20.625
 11
55.99999999999999
 21
-31.25
  0
ENDBLK
  5
55
330
53
100
AcDbEntity
  8
0
100
AcDbBlockEnd
  0
BLOCK
  5
57
330
56
100
AcDbEntity
  8
0
100
AcDbBlockBegin
  2
*D20
 70
    1
 10
0
 20
0
  3
*D20
  1

  0
LINE
  5
95
100
AcDbEntity
  8
Tie rods
  6
ByBlock
 62
    0
370
   -2
100
AcDbLine
 10
-10.5
 20
50
 11
212.5
 21
50
  0
SOLID
  5
96
100
AcDbEntity
  8
Tie rods
  6
ByBlock
 62
    0
370
   -2
100
AcDbTrace
 10
-10.5
 20
50
 30
0
 11
-8
 21
50.41628465777284
 31
0
 12
-8
 22
49.58371534222716
 32
0
 13
-8
 23
49.58371534222716
 33
0
  0
SOLID
  5
97
100
AcDbEntity
  8
Tie rods
  6
ByBlock
 62
    0
370
   -2
100
AcDbTrace
 10
212.5
 20
50
 30
0
 11
210
 21
49.58371534222716
 31
0
 12
210
 22
50.41628465777284
 32
0
 13
210
 23
50.41628465777284
 33
0
  0
MTEXT
  5
98
100
AcDbEntity
  8
Tie rods
  6
CONTINUOUS
 62
    0
370
   -2
100
AcDbMText
 10
101
 20
51.875
 30
0
 40
2.5
 41
5.000000000000156
 71
    5
 72
    1
  1
223
  7
STANDARD
210
0
220
0
230
1
 50
0
 73
    2
 44
1
  0
LINE
  5
99
100
AcDbEntity
  8
Tie rods
  6
ByBlock
 62
    0
370
   -2
100
AcDbLine
 10
-10.5
 20
40.625
 11
-10.5
 21
51.25
  0
LINE
  5
9A
100
AcDbEntity
  8
Tie rods
  6
ByBlock
 62
    0
370
   -2
100
AcDbLine
 10
212.5
 20
40.625
 11
212.5
 21
51.25
  0
ENDBLK
  5
58
330
56
100
AcDbEntity
  8
0
100
AcDbBlockEnd
  0
BLOCK
  5
5A
330
59
100
AcDbEntity
  8
0
100
AcDbBlockBegin
  2
*D14
 70
    1
 10
0
 20
0
  3
*D14
  1

  0
LINE
  5
9B
100
AcDbEntity
  8
Dimensions
  6
ByBlock
 62
    0
370
   -2
100
AcDbLine
 10
20.5
 20
5.000000000000001
 11
35.5
 21
4.999999999999999
  0
SOLID
  5
9C
100
AcDbEntity
  8
Dimensions
  6
ByBlock
 62
    0
370
   -2
100
AcDbTrace
 10
25.5
 20
5
 30
0
 11
23
 21
4.583715342227159
 31
0
 12
23
 22
5.416284657772841
 32
0
 13
23
 23
5.416284657772841
 33
0
  0
SOLID
  5
9D
100
AcDbEntity
  8
Dimensions
  6
ByBlock
 62
    0
370
   -2
100
AcDbTrace
 10
30.5
 20
5
 30
0
 11
33
 21
5.41628465777284
 31
0
 12
33
 22
4.583715342227159
 32
0
 13
33
 23
4.583715342227159
 33
0
  0
MTEXT
  5
9E
100
AcDbEntity
  8
Dimensions
  6
CONTINUOUS
 62
    0
370
   -2
100
AcDbMText
 10
28
 20
6.875
 30
0
 40
2.5
 41
1.111111111111266
 71
    5
 72
    1
  1
5
  7
STANDARD
210
0
220
0
230
1
 50
0
 73
    2
 44
1
  0
LINE
  5
9F
100
AcDbEntity
  8
Dimensions
  6
ByBlock
 62
    0
370
   -2
100
AcDbLine
 10
25.5
 20
29.375
 11
25.5
 21
3.75
  0
LINE
  5
A0
100
AcDbEntity
  8
Dimensions
  6
ByBlock
 62
    0
370
   -2
100
AcDbLine
 10
30.5
 20
29.375
 11
30.5
 21
3.75
  0
ENDBLK
  5
5B
330
59
100
AcDbEntity
  8
0
100
AcDbBlockEnd
  0
BLOCK
  5
5D
330
5C
100
AcDbEntity
  8
0
100
AcDbBlockBegin
  2
*D8
 70
    1
 10
0
 20
0
  3
*D8
  1

  0
LINE
  5
A1
100
AcDbEntity
  8
Dimensions
  6
ByBlock
 62
    0
370
   -2
100
AcDbLine
 10
130
 20
-30
 11
153
 21
-30
  0
SOLID
  5
A2
100
AcDbEntity
  8
Dimensions
  6
ByBlock
 62
    0
370
   -2
100
AcDbTrace
 10
130
 20
-30
 30
0
 11
132.5
 21
-29.58371534222716
 31
0
 12
132.5
 22
-30.41628465777284
 32
0
 13
132.5
 23
-30.41628465777284
 33
0
  0
SOLID
  5
A3
100
AcDbEntity
  8
Dimensions
  6
ByBlock
 62
    0
370
   -2
100
AcDbTrace
 10
153
 20
-30
 30
0
 11
150.5
 21
-30.41628465777284
 31
0
 12
150.5
 22
-29.58371534222716
 32
0
 13
150.5
 23
-29.58371534222716
 33
0
  0
MTEXT
  5
A4
100
AcDbEntity
  8
Dimensions
  6
CONTINUOUS
 62
    0
370
   -2
100
AcDbMText
 10
141.5
 20
-28.125
 30
0
 40
2.5
 41
3.055555555555711
 71
    5
 72
    1
  1
23
  7
STANDARD
210
0
220
0
230
1
 50
0
 73
    2
 44
1
  0
LINE
  5
A5
100
AcDbEntity
  8
Dimensions
  6
ByBlock
 62
    0
370
   -2
100
AcDbLine
 10
130
 20
-20.62500000000001
 11
130
 21
-31.25
  0
LINE
  5
A6
100
AcDbEntity
  8
Dimensions
  6
ByBlock
 62
    0
370
   -2
100
AcDbLine
 10
153
 20
-20.62500000000001
 11
153
 21
-31.25
  0
ENDBLK
  5
5E
330
5C
100
AcDbEntity
  8
0
100
AcDbBlockEnd
  0
BLOCK
  5
60
330
5F
100
AcDbEntity
  8
0
100
AcDbBlockBegin
  2
*D9
 70
    1
 10
0
 20
0
  3
*D9
  1

  0
LINE
  5
A7
100
AcDbEntity
  8
Dimensions
  6
ByBlock
 62
    0
370
   -2
100
AcDbLine
 10
153
 20
-30
 11
176
 21
-30
  0
SOLID
  5
A8
100
AcDbEntity
  8
Dimensions
  6
ByBlock
 62
    0
370
   -2
100
AcDbTrace
 10
153
 20
-30
 30
0
 11
155.5
 21
-29.58371534222716
 31
0
 12
155.5
 22
-30.41628465777284
 32
0
 13
155.5
 23
-30.41628465777284
 33
0
  0
SOLID
  5
A9
100
AcDbEntity
  8
Dimensions
  6
ByBlock
 62
    0
370
   -2
100
AcDbTrace
 10
176
 20
-30
 30
0
 11
173.5
 21
-30.41628465777284
 31
0
 12
173.5
 22
-29.58371534222716
 32
0
 13
173.5
 23
-29.58371534222716
 33
0
  0
MTEXT
  5
AA
100
AcDbEntity
  8
Dimensions
  6
CONTINUOUS
 62
    0
370
   -2
100
AcDbMText
 10
164.5
 20
-28.125
 30
0
 40
2.5
 41
3.055555555555711
 71
    5
 72
    1
  1
23
  7
STANDARD
210
0
220
0
230
1
 50
0
 73
    2
 44
1
  0
LINE
  5
AB
100
AcDbEntity
  8
Dimensions
  6
ByBlock
 62
    0
370
   -2
100
AcDbLine
 10
153
 20
-20.62500000000001
 11
153
 21
-31.25
  0
LINE
  5
AC
100
AcDbEntity
  8
Dimensions
  6
ByBlock
 62
    0
370
   -2
100
AcDbLine
 10
176
 20
-20.62500000000001
 11
176
 21
-31.25
  0
ENDBLK
  5
61
330
5F
100
AcDbEntity
  8
0
100
AcDbBlockEnd
  0
BLOCK
  5
63
330
62
100
AcDbEntity
  8
0
100
AcDbBlockBegin
  2
*D13
 70
    1
 10
0
 20
0
  3
*D13
  1

  0
LINE
  5
AD
100
AcDbEntity
  8
Dimensions
  6
ByBlock
 62
    0
370
   -2
100
AcDbLine
 10
86.49999999999999
 20
-9.999999999999996
 11
104.5
 21
-9.999999999999996
  0
SOLID
  5
AE
100
AcDbEntity
  8
Dimensions
  6
ByBlock
 62
    0
370
   -2
100
AcDbTrace
 10
86.49999999999999
 20
-9.999999999999996
 30
0
 11
88.99999999999999
 21
-9.583715342227157
 31
0
 12
88.99999999999999
 22
-10.41628465777284
 32
0
 13
88.99999999999999
 23
-10.41628465777284
 33
0
  0
SOLID
  5
AF
100
AcDbEntity
  8
Dimensions
  6
ByBlock
 62
    0
370
   -2
100
AcDbTrace
 10
104.5
 20
-9.999999999999996
 30
0
 11
102
 21
-10.41628465777284
 31
0
 12
102
 22
-9.583715342227157
 32
0
 13
102
 23
-9.583715342227157
 33
0
  0
MTEXT
  5
B0
100
AcDbEntity
  8
Dimensions
  6
CONTINUOUS
 62
    0
370
   -2
100
AcDbMText
 10
95.49999999999999
 20
-8.124999999999996
 30
0
 40
2.5
 41
2.5
 71
    5
 72
    1
  1
18
  7
STANDARD
210
0
220
0
230
1
 50
0
 73
    2
 44
1
  0
LINE
  5
B1
100
AcDbEntity
  8
Dimensions
  6
ByBlock
 62
    0
370
   -2
100
AcDbLine
 10
86.49999999999999
 20
-29.375
 11
86.49999999999999
 21
-8.749999999999996
  0
LINE
  5
B2
100
AcDbEntity
  8
Dimensions
  6
ByBlock
 62
    0
370
   -2
100
AcDbLine
 10
104.5
 20
-29.375
 11
104.5
 21
-8.749999999999996
  0
ENDBLK
  5
64
330
62
100
AcDbEntity
  8
0
100
AcDbBlockEnd
  0
BLOCK
  5
66
330
65
100
AcDbEntity
  8
0
100
AcDbBlockBegin
  2
*D5
 70
    1
 10
0
 20
0
  3
*D5
  1

  0
LINE
  5
B3
100
AcDbEntity
  8
Dimensions
  6
ByBlock
 62
    0
370
   -2
100
AcDbLine
 10
56
 20
-30
 11
83.99999999999999
 21
-30
  0
SOLID
  5
B4
100
AcDbEntity
  8
Dimensions
  6
ByBlock
 62
    0
370
   -2
100
AcDbTrace
 10
56
 20
-30
 30
0
 11
58.5
 21
-29.58371534222716
 31
0
 12
58.5
 22
-30.41628465777284
 32
0
 13
58.5
 23
-30.41628465777284
 33
0
  0
SOLID
  5
B5
100
AcDbEntity
  8
Dimensions
  6
ByBlock
 62
    0
370
   -2
100
AcDbTrace
 10
83.99999999999999
 20
-30
 30
0
 11
81.49999999999999
 21
-30.41628465777284
 31
0
 12
81.49999999999999
 22
-29.58371534222716
 32
0
 13
81.49999999999999
 23
-29.58371534222716
 33
0
  0
MTEXT
  5
B6
100
AcDbEntity
  8
Dimensions
  6
CONTINUOUS
 62
    0
370
   -2
100
AcDbMText
 10
69.99999999999999
 20
-28.125
 30
0
 40
2.5
 41
3.055555555555556
 71
    5
 72
    1
  1
28
  7
STANDARD
210
0
220
0
230
1
 50
0
 73
    2
 44
1
  0
LINE
  5
B7
100
AcDbEntity
  8
Dimensions
  6
ByBlock
 62
    0
370
   -2
100
AcDbLine
 10
55.99999999999999
 20
-20.625
 11
56
 21
-31.25
  0
LINE
  5
B8
100
AcDbEntity
  8
Dimensions
  6
ByBlock
 62
    0
370
   -2
100
AcDbLine
 10
83.99999999999999
 20
-20.625
 11
83.99999999999999
 21
-31.25
  0
ENDBLK
  5
67
330
65
100
AcDbEntity
  8
0
100
AcDbBlockEnd
  0
BLOCK
  5
69
330
68
100
AcDbEntity
  8
0
100
AcDbBlockBegin
  2
*D7
 70
    1
 10
0
 20
0
  3
*D7
  1

  0
LINE
  5
B9
100
AcDbEntity
  8
Dimensions
  6
ByBlock
 62
    0
370
   -2
100
AcDbLine
 10
107
 20
-30
 11
130
 21
-30
  0
SOLID
  5
BA
100
AcDbEntity
  8
Dimensions
  6
ByBlock
 62
    0
370
   -2
100
AcDbTrace
 10
107
 20
-30
 30
0
 11
109.5
 21
-29.58371534222716
 31
0
 12
109.5
 22
-30.41628465777284
 32
0
 13
109.5
 23
-30.41628465777284
 33
0
  0
SOLID
  5
BB
100
AcDbEntity
  8
Dimensions
  6
ByBlock
 62
    0
370
   -2
100
AcDbTrace
 10
130
 20
-30
 30
0
 11
127.5
 21
-30.41628465777284
 31
0
 12
127.5
 22
-29.58371534222716
 32
0
 13
127.5
 23
-29.58371534222716
 33
0
  0
MTEXT
  5
BC
100
AcDbEntity
  8
Dimensions
  6
CONTINUOUS
 62
    0
370
   -2
100
AcDbMText
 10
118.5
 20
-28.125
 30
0
 40
2.5
 41
3.055555555555711
 71
    5
 72
    1
  1
23
  7
STANDARD
210
0
220
0
230
1
 50
0
 73
    2
 44
1
  0
LINE
  5
BD
100
AcDbEntity
  8
Dimensions
  6
ByBlock
 62
    0
370
   -2
100
AcDbLine
 10
107
 20
-20.625
 11
107
 21
-31.25
  0
LINE
  5
BE
100
AcDbEntity
  8
Dimensions
  6
ByBlock
 62
    0
370
   -2
100
AcDbLine
 10
130
 20
-20.62500000000001
 11
130
 21
-31.25
  0
ENDBLK
  5
6A
330
68
100
AcDbEntity
  8
0
100
AcDbBlockEnd
  0
BLOCK
  5
6C
330
6B
100
AcDbEntity
  8
0
100
AcDbBlockBegin
  2
*D17
 70
    1
 10
0
 20
0
  3
*D17
  1

  0
LINE
  5
BF
100
AcDbEntity
  8
Dimensions
  6
ByBlock
 62
    0
370
   -2
100
AcDbLine
 10
112.5
 20
0
 11
124.5
 21
0
  0
SOLID
  5
C0
100
AcDbEntity
  8
Dimensions
  6
ByBlock
 62
    0
370
   -2
100
AcDbTrace
 10
112.5
 20
0
 30
0
 11
115
 21
0.4162846577728402
 31
0
 12
115
 22
-0.4162846577728408
 32
0
 13
115
 23
-0.4162846577728408
 33
0
  0
SOLID
  5
C1
100
AcDbEntity
  8
Dimensions
  6
ByBlock
 62
    0
370
   -2
100
AcDbTrace
 10
124.5
 20
0
 30
0
 11
122
 21
-0.4162846577728404
 31
0
 12
122
 22
0.4162846577728404
 32
0
 13
122
 23
0.4162846577728404
 33
0
  0
MTEXT
  5
C2
100
AcDbEntity
  8
Dimensions
  6
CONTINUOUS
 62
    0
370
   -2
100
AcDbMText
 10
118.5
 20
1.875
 30
0
 40
2.5
 41
2.5
 71
    5
 72
    1
  1
12
  7
STANDARD
210
0
220
0
230
1
 50
0
 73
    2
 44
1
  0
LINE
  5
C3
100
AcDbEntity
  8
Dimensions
  6
ByBlock
 62
    0
370
   -2
100
AcDbLine
 10
112.5
 20
9.374999999999996
 11
112.5
 21
-1.25
  0
LINE
  5
C4
100
AcDbEntity
  8
Dimensions
  6
ByBlock
 62
    0
370
   -2
100
AcDbLine
 10
124.5
 20
9.374999999999993
 11
124.5
 21
-1.25
  0
ENDBLK
  5
6D
330
6B
100
AcDbEntity
  8
0
100
AcDbBlockEnd
  0
BLOCK
  5
6F
330
6E
100
AcDbEntity
  8
0
100
AcDbBlockBegin
  2
*D2
 70
    1
 10
0
 20
0
  3
*D2
  1

  0
LINE
  5
C5
100
AcDbEntity
  8
Dimensions
  6
ByBlock
 62
    0
370
   -2
100
AcDbLine
 10
17.5
 20
62
 11
30.5
 21
62
  0
SOLID
  5
C6
100
AcDbEntity
  8
Dimensions
  6
ByBlock
 62
    0
370
   -2
100
AcDbTrace
 10
22.5
 20
62
 30
0
 11
20
 21
61.58371534222716
 31
0
 12
20
 22
62.41628465777284
 32
0
 13
20
 23
62.41628465777284
 33
0
  0
SOLID
  5
C7
100
AcDbEntity
  8
Dimensions
  6
ByBlock
 62
    0
370
   -2
100
AcDbTrace
 10
25.5
 20
62
 30
0
 11
28
 21
62.41628465777284
 31
0
 12
28
 22
61.58371534222716
 32
0
 13
28
 23
61.58371534222716
 33
0
  0
MTEXT
  5
C8
100
AcDbEntity
  8
Dimensions
  6
CONTINUOUS
 62
    0
370
   -2
100
AcDbMText
 10
24
 20
63.875
 30
0
 40
2.5
 41
1.111111111111266
 71
    5
 72
    1
  1
3
  7
STANDARD
210
0
220
0
230
1
 50
0
 73
    2
 44
1
  0
LINE
  5
C9
100
AcDbEntity
  8
Dimensions
  6
ByBlock
 62
    0
370
   -2
100
AcDbLine
 10
22.5
 20
60.625
 11
22.5
 21
63.25
  0
LINE
  5
CA
100
AcDbEntity
  8
Dimensions
  6
ByBlock
 62
    0
370
   -2
100
AcDbLine
 10
25.5
 20
60.625
 11
25.5
 21
63.25
  0
ENDBLK
  5
70
330
6E
100
AcDbEntity
  8
0
100
AcDbBlockEnd
  0
BLOCK
  5
72
330
71
100
AcDbEntity
  8
0
100
AcDbBlockBegin
  2
*D10
 70
    1
 10
0
 20
0
  3
*D10
  1

  0
LINE
  5
CB
100
AcDbEntity
  8
Dimensions
  6
ByBlock
 62
    0
370
   -2
100
AcDbLine
 10
176
 20
-30
 11
199
 21
-30
  0
SOLID
  5
CC
100
AcDbEntity
  8
Dimensions
  6
ByBlock
 62
    0
370
   -2
100
AcDbTrace
 10
176
 20
-30
 30
0
 11
178.5
 21
-29.58371534222716
 31
0
 12
178.5
 22
-30.41628465777284
 32
0
 13
178.5
 23
-30.41628465777284
 33
0
  0
SOLID
  5
CD
100
AcDbEntity
  8
Dimensions
  6
ByBlock
 62
    0
370
   -2
100
AcDbTrace
 10
199
 20
-30
 30
0
 11
196.5
 21
-30.41628465777284
 31
0
 12
196.5
 22
-29.58371534222716
 32
0
 13
196.5
 23
-29.58371534222716
 33
0
  0
MTEXT
  5
CE
100
AcDbEntity
  8
Dimensions
  6
CONTINUOUS
 62
    0
370
   -2
100
AcDbMText
 10
187.5
 20
-28.125
 30
0
 40
2.5
 41
3.055555555555711
 71
    5
 72
    1
  1
23
  7
STANDARD
210
0
220
0
230
1
 50
0
 73
    2
 44
1
  0
LINE
  5
CF
100
AcDbEntity
  8
Dimensions
  6
ByBlock
 62
    0
370
   -2
100
AcDbLine
 10
176
 20
-20.62500000000001
 11
176
 21
-31.25
  0
LINE
  5
D0
100
AcDbEntity
  8
Dimensions
  6
ByBlock
 62
    0
370
   -2
100
AcDbLine
 10
199
 20
-20.62500000000002
 11
199
 21
-31.25
  0
ENDBLK
  5
73
330
71
100
AcDbEntity
  8
0
100
AcDbBlockEnd
  0
BLOCK
  5
75
330
74
100
AcDbEntity
  8
0
100
AcDbBlockBegin
  2
*D3
 70
    1
 10
0
 20
0
  3
*D3
  1

  0
LINE
  5
D1
100
AcDbEntity
  8
Dimensions
  6
ByBlock
 62
    0
370
   -2
100
AcDbLine
 10
21
 20
86
 11
35
 21
86
  0
SOLID
  5
D2
100
AcDbEntity
  8
Dimensions
  6
ByBlock
 62
    0
370
   -2
100
AcDbTrace
 10
21
 20
86
 30
0
 11
23.5
 21
86.41628465777283
 31
0
 12
23.5
 22
85.58371534222717
 32
0
 13
23.5
 23
85.58371534222717
 33
0
  0
SOLID
  5
D3
100
AcDbEntity
  8
Dimensions
  6
ByBlock
 62
    0
370
   -2
100
AcDbTrace
 10
35
 20
86
 30
0
 11
32.5
 21
85.58371534222717
 31
0
 12
32.5
 22
86.41628465777283
 32
0
 13
32.5
 23
86.41628465777283
 33
0
  0
MTEXT
  5
D4
100
AcDbEntity
  8
Dimensions
  6
CONTINUOUS
 62
    0
370
   -2
100
AcDbMText
 10
28
 20
87.875
 30
0
 40
2.5
 41
2.777777777777778
 71
    5
 72
    1
  1
14
  7
STANDARD
210
0
220
0
230
1
 50
0
 73
    2
 44
1
  0
LINE
  5
D5
100
AcDbEntity
  8
Dimensions
  6
ByBlock
 62
    0
370
   -2
100
AcDbLine
 10
21
 20
89.375
 11
21
 21
84.75
  0
LINE
  5
D6
100
AcDbEntity
  8
Dimensions
  6
ByBlock
 62
    0
370
   -2
100
AcDbLine
 10
35
 20
89.375
 11
35
 21
84.75
  0
ENDBLK
  5
76
330
74
100
AcDbEntity
  8
0
100
AcDbBlockEnd
  0
BLOCK
  5
78
330
77
100
AcDbEntity
  8
0
100
AcDbBlockBegin
  2
*D15
 70
    1
 10
0
 20
0
  3
*D15
  1

  0
LINE
  5
D7
100
AcDbEntity
  8
Dimensions
  6
ByBlock
 62
    0
370
   -2
100
AcDbLine
 10
2.500000000000007
 20
-7
 11
25.5
 21
-7
  0
SOLID
  5
D8
100
AcDbEntity
  8
Dimensions
  6
ByBlock
 62
    0
370
   -2
100
AcDbTrace
 10
2.500000000000007
 20
-7
 30
0
 11
5.000000000000007
 21
-6.58371534222716
 31
0
 12
5.000000000000007
 22
-7.416284657772841
 32
0
 13
5.000000000000007
 23
-7.416284657772841
 33
0
  0
SOLID
  5
D9
100
AcDbEntity
  8
Dimensions
  6
ByBlock
 62
    0
370
   -2
100
AcDbTrace
 10
25.5
 20
-7
 30
0
 11
23
 21
-7.416284657772841
 31
0
 12
23
 22
-6.583715342227159
 32
0
 13
23
 23
-6.583715342227159
 33
0
  0
MTEXT
  5
DA
100
AcDbEntity
  8
Dimensions
  6
CONTINUOUS
 62
    0
370
   -2
100
AcDbMText
 10
14
 20
-5.125
 30
0
 40
2.5
 41
3.055555555555711
 71
    5
 72
    1
  1
23
  7
STANDARD
210
0
220
0
230
1
 50
0
 73
    2
 44
1
  0
LINE
  5
DB
100
AcDbEntity
  8
Dimensions
  6
ByBlock
 62
    0
370
   -2
100
AcDbLine
 10
2.500000000000003
 20
9.375
 11
2.500000000000007
 21
-8.25
  0
LINE
  5
DC
100
AcDbEntity
  8
Dimensions
  6
ByBlock
 62
    0
370
   -2
100
AcDbLine
 10
25.5
 20
9.375
 11
25.5
 21
-8.25
  0
ENDBLK
  5
79
330
77
100
AcDbEntity
  8
0
100
AcDbBlockEnd
  0
BLOCK
  5
7B
330
7A
100
AcDbEntity
  8
0
100
AcDbBlockBegin
  2
*D6
 70
    1
 10
0
 20
0
  3
*D6
  1

  0
LINE
  5
DD
100
AcDbEntity
  8
Dimensions
  6
ByBlock
 62
    0
370
   -2
100
AcDbLine
 10
83.99999999999999
 20
-30
 11
107
 21
-30
  0
SOLID
  5
DE
100
AcDbEntity
  8
Dimensions
  6
ByBlock
 62
    0
370
   -2
100
AcDbTrace
 10
83.99999999999999
 20
-30
 30
0
 11
86.49999999999999
 21
-29.58371534222716
 31
0
 12
86.49999999999999
 22
-30.41628465777284
 32
0
 13
86.49999999999999
 23
-30.41628465777284
 33
0
  0
SOLID
  5
DF
100
AcDbEntity
  8
Dimensions
  6
ByBlock
 62
    0
370
   -2
100
AcDbTrace
 10
107
 20
-30
 30
0
 11
104.5
 21
-30.41628465777284
 31
0
 12
104.5
 22
-29.58371534222716
 32
0
 13
104.5
 23
-29.58371534222716
 33
0
  0
MTEXT
  5
E0
100
AcDbEntity
  8
Dimensions
  6
CONTINUOUS
 62
    0
370
   -2
100
AcDbMText
 10
95.49999999999999
 20
-28.125
 30
0
 40
2.5
 41
3.055555555555711
 71
    5
 72
    1
  1
23
  7
STANDARD
210
0
220
0
230
1
 50
0
 73
    2
 44
1
  0
LINE
  5
E1
100
AcDbEntity
  8
Dimensions
  6
ByBlock
 62
    0
370
   -2
100
AcDbLine
 10
83.99999999999999
 20
-20.625
 11
83.99999999999999
 21
-31.25
  0
LINE
  5
E2
100
AcDbEntity
  8
Dimensions
  6
ByBlock
 62
    0
370
   -2
100
AcDbLine
 10
107
 20
-20.625
 11
107
 21
-31.25
  0
ENDBLK
  5
7C
330
7A
100
AcDbEntity
  8
0
100
AcDbBlockEnd
  0
BLOCK
  5
7E
330
7D
100
AcDbEntity
  8
0
100
AcDbBlockBegin
  2
*D18
 70
    1
 10
0
 20
0
  3
*D18
  1

  0
LINE
  5
E3
100
AcDbEntity
  8
Dimensions
  6
ByBlock
 62
    0
370
   -2
100
AcDbLine
 10
61.5
 20
0
 11
78.49999999999999
 21
0
  0
SOLID
  5
E4
100
AcDbEntity
  8
Dimensions
  6
ByBlock
 62
    0
370
   -2
100
AcDbTrace
 10
61.5
 20
0
 30
0
 11
64
 21
0.4162846577728402
 31
0
 12
64
 22
-0.4162846577728408
 32
0
 13
64
 23
-0.4162846577728408
 33
0
  0
SOLID
  5
E5
100
AcDbEntity
  8
Dimensions
  6
ByBlock
 62
    0
370
   -2
100
AcDbTrace
 10
78.49999999999999
 20
0
 30
0
 11
75.99999999999999
 21
-0.4162846577728404
 31
0
 12
75.99999999999999
 22
0.4162846577728404
 32
0
 13
75.99999999999999
 23
0.4162846577728404
 33
0
  0
MTEXT
  5
E6
100
AcDbEntity
  8
Dimensions
  6
CONTINUOUS
 62
    0
370
   -2
100
AcDbMText
 10
70
 20
1.875
 30
0
 40
2.5
 41
2.5
 71
    5
 72
    1
  1
17
  7
STANDARD
210
0
220
0
230
1
 50
0
 73
    2
 44
1
  0
LINE
  5
E7
100
AcDbEntity
  8
Dimensions
  6
ByBlock
 62
    0
370
   -2
100
AcDbLine
 10
61.49999999999999
 20
9.375
 11
61.5
 21
-1.25
  0
LINE
  5
E8
100
AcDbEntity
  8
Dimensions
  6
ByBlock
 62
    0
370
   -2
100
AcDbLine
 10
78.49999999999999
 20
9.375
 11
78.49999999999999
 21
-1.25
  0
ENDBLK
  5
7F
330
7D
100
AcDbEntity
  8
0
100
AcDbBlockEnd
  0
BLOCK
  5
81
330
80
100
AcDbEntity
  8
0
100
AcDbBlockBegin
  2
*D1
 70
    1
 10
0
 20
0
  3
*D1
  1

  0
LINE
  5
E9
100
AcDbEntity
  8
Dimensions
  6
ByBlock
 62
    0
370
   -2
100
AcDbLine
 10
0
 20
-30
 11
28
 21
-30
  0
SOLID
  5
EA
100
AcDbEntity
  8
Dimensions
  6
ByBlock
 62
    0
370
   -2
100
AcDbTrace
 10
0
 20
-30
 30
0
 11
2.5
 21
-29.58371534222716
 31
0
 12
2.5
 22
-30.41628465777284
 32
0
 13
2.5
 23
-30.41628465777284
 33
0
  0
SOLID
  5
EB
100
AcDbEntity
  8
Dimensions
  6
ByBlock
 62
    0
370
   -2
100
AcDbTrace
 10
28
 20
-30
 30
0
 11
25.5
 21
-30.41628465777284
 31
0
 12
25.5
 22
-29.58371534222716
 32
0
 13
25.5
 23
-29.58371534222716
 33
0
  0
MTEXT
  5
EC
100
AcDbEntity
  8
Dimensions
  6
CONTINUOUS
 62
    0
370
   -2
100
AcDbMText
 10
14
 20
-28.125
 30
0
 40
2.5
 41
3.055555555555556
 71
    5
 72
    1
  1
28
  7
STANDARD
210
0
220
0
230
1
 50
0
 73
    2
 44
1
  0
LINE
  5
ED
100
AcDbEntity
  8
Dimensions
  6
ByBlock
 62
    0
370
   -2
100
AcDbLine
 10
-1.148106374200643e-16
 20
-20.625
 11
-2.296212748401287e-16
 21
-31.25
  0
LINE
  5
EE
100
AcDbEntity
  8
Dimensions
  6
ByBlock
 62
    0
370
   -2
100
AcDbLine
 10
28
 20
-20.625
 11
28
 21
-31.25
  0
ENDBLK
  5
82
330
80
100
AcDbEntity
  8
0
100
AcDbBlockEnd
  0
BLOCK
  5
84
330
83
100
AcDbEntity
  8
0
100
AcDbBlockBegin
  2
*D11
 70
    1
 10
0
 20
0
  3
*D11
  1

  0
LINE
  5
EF
100
AcDbEntity
  8
Dimensions
  6
ByBlock
 62
    0
370
   -2
100
AcDbLine
 10
-5.5
 20
70
 11
204.5
 21
70
  0
SOLID
  5
F0
100
AcDbEntity
  8
Dimensions
  6
ByBlock
 62
    0
370
   -2
100
AcDbTrace
 10
-5.5
 20
70
 30
0
 11
-3
 21
70.41628465777283
 31
0
 12
-3
 22
69.58371534222717
 32
0
 13
-3
 23
69.58371534222717
 33
0
  0
SOLID
  5
F1
100
AcDbEntity
  8
Dimensions
  6
ByBlock
 62
    0
370
   -2
100
AcDbTrace
 10
204.5
 20
70
 30
0
 11
202
 21
69.58371534222717
 31
0
 12
202
 22
70.41628465777283
 32
0
 13
202
 23
70.41628465777283
 33
0
  0
MTEXT
  5
F2
100
AcDbEntity
  8
Dimensions
  6
CONTINUOUS
 62
    0
370
   -2
100
AcDbMText
 10
99.5
 20
71.875
 30
0
 40
2.5
 41
4.444444444444445
 71
    5
 72
    1
  1
210
  7
STANDARD
210
0
220
0
230
1
 50
0
 73
    2
 44
1
  0
LINE
  5
F3
100
AcDbEntity
  8
Dimensions
  6
ByBlock
 62
    0
370
   -2
100
AcDbLine
 10
-5.499999999999995
 20
60.625
 11
-5.500000000000001
 21
71.25
  0
LINE
  5
F4
100
AcDbEntity
  8
Dimensions
  6
ByBlock
 62
    0
370
   -2
100
AcDbLine
 10
204.5
 20
60.62499999999999
 11
204.5
 21
71.25
  0
ENDBLK
  5
85
330
83
100
AcDbEntity
  8
0
100
AcDbBlockEnd
  0
BLOCK
  5
87
330
86
100
AcDbEntity
  8
0
100
AcDbBlockBegin
  2
*D16
 70
    1
 10
0
 20
0
  3
*D16
  1

  0
LINE
  5
F5
100
AcDbEntity
  8
Dimensions
  6
ByBlock
 62
    0
370
   -2
100
AcDbLine
 10
5.500000000000007
 20
7
 11
22.5
 21
7
  0
SOLID
  5
F6
100
AcDbEntity
  8
Dimensions
  6
ByBlock
 62
    0
370
   -2
100
AcDbTrace
 10
5.500000000000007
 20
7
 30
0
 11
8.000000000000007
 21
7.41628465777284
 31
0
 12
8.000000000000007
 22
6.583715342227159
 32
0
 13
8.000000000000007
 23
6.583715342227159
 33
0
  0
SOLID
  5
F7
100
AcDbEntity
  8
Dimensions
  6
ByBlock
 62
    0
370
   -2
100
AcDbTrace
 10
22.5
 20
7
 30
0
 11
20
 21
6.583715342227159
 31
0
 12
20
 22
7.416284657772841
 32
0
 13
20
 23
7.416284657772841
 33
0
  0
MTEXT
  5
F8
100
AcDbEntity
  8
Dimensions
  6
CONTINUOUS
 62
    0
370
   -2
100
AcDbMText
 10
14
 20
8.875
 30
0
 40
2.5
 41
2.5
 71
    5
 72
    1
  1
17
  7
STANDARD
210
0
220
0
230
1
 50
0
 73
    2
 44
1
  0
LINE
  5
F9
100
AcDbEntity
  8
Dimensions
  6
ByBlock
 62
    0
370
   -2
100
AcDbLine
 10
5.500000000000004
 20
9.375
 11
5.500000000000008
 21
5.75
  0
LINE
  5
FA
100
AcDbEntity
  8
Dimensions
  6
ByBlock
 62
    0
370
   -2
100
AcDbLine
 10
22.5
 20
9.375
 11
22.5
 21
5.75
  0
ENDBLK
  5
88
330
86
100
AcDbEntity
  8
0
100
AcDbBlockEnd
  0
BLOCK
  5
8A
330
89
100
AcDbEntity
  8
0
100
AcDbBlockBegin
  2
*D12
 70
    1
 10
0
 20
0
  3
*D12
  1

  0
LINE
  5
FB
100
AcDbEntity
  8
Labels
  6
ByBlock
 62
    0
370
   -2
100
AcDbLine
 10
-35.80000000000001
 20
-50
 11
279.8
 21
-50
  0
SOLID
  5
FC
100
AcDbEntity
  8
Labels
  6
ByBlock
 62
    0
370
   -2
100
AcDbTrace
 10
-35.80000000000001
 20
-50
 30
0
 11
-33.30000000000001
 21
-49.58371534222716
 31
0
 12
-33.30000000000001
 22
-50.41628465777284
 32
0
 13
-33.30000000000001
 23
-50.41628465777284
 33
0
  0
SOLID
  5
FD
100
AcDbEntity
  8
Labels
  6
ByBlock
 62
    0
370
   -2
100
AcDbTrace
 10
279.8
 20
-50
 30
0
 11
277.3
 21
-50.41628465777284
 31
0
 12
277.3
 22
-49.58371534222716
 32
0
 13
277.3
 23
-49.58371534222716
 33
0
  0
MTEXT
  5
FE
100
AcDbEntity
  8
Labels
  6
CONTINUOUS
 62
    0
370
   -2
100
AcDbMText
 10
122
 20
-48.125
 30
0
 40
2.5
 41
7.361111111111576
 71
    5
 72
    1
  1
315,6
  7
STANDARD
210
0
220
0
230
1
 50
0
 73
    2
 44
1
  0
LINE
  5
FF
100
AcDbEntity
  8
Labels
  6
ByBlock
 62
    0
370
   -2
100
AcDbLine
 10
-35.79999999999999
 20
59.375
 11
-35.80000000000001
 21
-51.25
  0
LINE
  5
100
100
AcDbEntity
  8
Labels
  6
ByBlock
 62
    0
370
   -2
100
AcDbLine
 10
279.8
 20
59.375
 11
279.8
 21
-51.25
  0
ENDBLK
  5
8B
330
89
100
AcDbEntity
  8
0
100
AcDbBlockEnd
  0
BLOCK
  5
8D
330
8C
100
AcDbEntity
  8
0
100
AcDbBlockBegin
  2
*D19
 70
    1
 10
0
 20
0
  3
*D19
  1

  0
LINE
  5
101
100
AcDbEntity
  8
Cam holders
  6
ByBlock
 62
    0
370
   -2
100
AcDbLine
 10
210
 20
-130
 11
210
 21
40
  0
SOLID
  5
102
100
AcDbEntity
  8
Cam holders
  6
ByBlock
 62
    0
370
   -2
100
AcDbTrace
 10
210
 20
-130
 30
0
 11
209.5837153422272
 21
-127.5
 31
0
 12
210.4162846577728
 22
-127.5
 32
0
 13
210.4162846577728
 23
-127.5
 33
0
  0
SOLID
  5
103
100
AcDbEntity
  8
Cam holders
  6
ByBlock
 62
    0
370
   -2
100
AcDbTrace
 10
210
 20
40
 30
0
 11
210.4162846577728
 21
37.5
 31
0
 12
209.5837153422272
 22
37.5
 32
0
 13
209.5837153422272
 23
37.5
 33
0
  0
MTEXT
  5
104
100
AcDbEntity
  8
Cam holders
  6
CONTINUOUS
 62
    0
370
   -2
100
AcDbMText
 10
208.125
 20
-45.00000000000003
 30
0
 40
2.5
 41
4.444444444444445
 71
    5
 72
    1
  1
170
  7
STANDARD
210
0
220
0
230
1
 50
90
 73
    2
 44
1
  0
LINE
  5
105
100
AcDbEntity
  8
Cam holders
  6
ByBlock
 62
    0
370
   -2
100
AcDbLine
 10
205.125
 20
-130
 11
211.25
 21
-130
  0
LINE
  5
106
100
AcDbEntity
  8
Cam holders
  6
ByBlock
 62
    0
370
   -2
100
AcDbLine
 10
205.125
 20
40
 11
211.25
 21
40
  0
ENDBLK
  5
8E
330
8C
100
AcDbEntity
  8
0
100
AcDbBlockEnd
  0
ENDSEC
  0
SECTION
  2
ENTITIES
  0
LINE
  5
107
100
AcDbEntity
  8
0
  6
CENTER
 62
  256
370
   -1
100
AcDbLine
 10
0
 20
-20
 11
9.797174393178826e-15
 21
140
  0
LINE
  5
108
100
AcDbEntity
  8
0
  6
CENTER
 62
  256
370
   -1
100
AcDbLine
 10
14
 20
-20
 11
14.00000000000001
 21
140
  0
LINE
  5
109
100
AcDbEntity
  8
0
  6
CENTER
 62
  256
370
   -1
100
AcDbLine
 10
28
 20
-20
 11
28.00000000000001
 21
140
  0
LINE
  5
10A
100
AcDbEntity
  8
0
  6
CENTER
 62
  256
370
   -1
100
AcDbLine
 10
41.99999999999999
 20
-20
 11
42
 21
140
  0
LINE
  5
10B
100
AcDbEntity
  8
followers
  6
ByLayer
 62
  256
370
   -1
100
AcDbLine
 10
-13.99999999999999
 20
90
 11
-13.99999999999999
 21
140
  0
LINE
  5
10C
100
AcDbEntity
  8
followers
  6
ByLayer
 62
  256
370
   -1
100
AcDbLine
 10
-8.499999999999993
 20
90
 11
-8.499999999999989
 21
140
  0
LINE
  5
10D
100
AcDbEntity
  8
followers
  6
ByLayer
 62
  256
370
   -1
100
AcDbLine
 10
-6.999999999999993
 20
90
 11
-6.99999999999999
 21
140
  0
LINE
  5
10E
100
AcDbEntity
  8
followers
  6
ByLayer
 62
  256
370
   -1
100
AcDbLine
 10
-5.499999999999993
 20
90
 11
-5.49999999999999
 21
140
  0
LINE
  5
10F
100
AcDbEntity
  8
followers
  6
ByLayer
 62
  256
370
   -1
100
AcDbLine
 10
5.500000000000007
 20
90
 11
5.50000000000001
 21
140
  0
LINE
  5
110
100
AcDbEntity
  8
followers
  6
ByLayer
 62
  256
370
   -1
100
AcDbLine
 10
8.500000000000007
 20
90
 11
8.500000000000011
 21
140
  0
LINE
  5
111
100
AcDbEntity
  8
followers
  6
ByLayer
 62
  256
370
   -1
100
AcDbLine
 10
7.000000000000007
 20
90
 11
7.00000000000001
 21
140
  0
LINE
  5
112
100
AcDbEntity
  8
followers
  6
ByLayer
 62
  256
370
   -1
100
AcDbLine
 10
14.00000000000001
 20
90
 11
14.00000000000001
 21
140
  0
LINE
  5
113
100
AcDbEntity
  8
followers
  6
ByLayer
 62
  256
370
   -1
100
AcDbLine
 10
19.5
 20
90
 11
19.5
 21
140
  0
LINE
  5
114
100
AcDbEntity
  8
followers
  6
ByLayer
 62
  256
370
   -1
100
AcDbLine
 10
22.5
 20
90
 11
22.5
 21
140
  0
LINE
  5
115
100
AcDbEntity
  8
followers
  6
ByLayer
 62
  256
370
   -1
100
AcDbLine
 10
33.5
 20
90
 11
33.5
 21
140
  0
LINE
  5
116
100
AcDbEntity
  8
followers
  6
ByLayer
 62
  256
370
   -1
100
AcDbLine
 10
36.5
 20
90
 11
36.5
 21
140
  0
LINE
  5
117
100
AcDbEntity
  8
followers
  6
ByLayer
 62
  256
370
   -1
100
AcDbLine
 10
47.49999999999999
 20
90
 11
47.5
 21
140
  0
LINE
  5
118
100
AcDbEntity
  8
followers
  6
ByLayer
 62
  256
370
   -1
100
AcDbLine
 10
50.49999999999999
 20
90
 11
50.49999999999999
 21
140
  0
LINE
  5
119
100
AcDbEntity
  8
followers
  6
ByLayer
 62
  256
370
   -1
100
AcDbLine
 10
61.49999999999999
 20
90
 11
61.49999999999999
 21
140
  0
LINE
  5
11A
100
AcDbEntity
  8
followers
  6
ByLayer
 62
  256
370
   -1
100
AcDbLine
 10
64.5
 20
90
 11
64.5
 21
140
  0
LINE
  5
11B
100
AcDbEntity
  8
0
  6
ByLayer
 62
  256
370
   -1
100
AcDbLine
 10
-8.499999999999993
 20
90
 11
-5.499999999999993
 21
90
  0
LINE
  5
11C
100
AcDbEntity
  8
followers
  6
ByLayer
 62
  256
370
   -1
100
AcDbLine
 10
19.5
 20
90
 11
22.5
 21
90
  0
LINE
  5
11D
100
AcDbEntity
  8
followers
  6
ByLayer
 62
  256
370
   -1
100
AcDbLine
 10
5.500000000000007
 20
90
 11
8.500000000000007
 21
90
  0
LINE
  5
11E
100
AcDbEntity
  8
followers
  6
ByLayer
 62
  256
370
   -1
100
AcDbLine
 10
33.5
 20
90
 11
36.5
 21
90
  0
LINE
  5
11F
100
AcDbEntity
  8
followers
  6
ByLayer
 62
  256
370
   -1
100
AcDbLine
 10
47.49999999999999
 20
90
 11
50.49999999999999
 21
90
  0
LINE
  5
120
100
AcDbEntity
  8
followers
  6
ByLayer
 62
  256
370
   -1
100
AcDbLine
 10
61.49999999999999
 20
90
 11
64.5
 21
90
  0
LINE
  5
121
100
AcDbEntity
  8
followers
  6
ByLayer
 62
  256
370
   -1
100
AcDbLine
 10
-20
 20
100
 11
140
 21
100
  0
LINE
  5
122
100
AcDbEntity
  8
followers
  6
ByLayer
 62
  256
370
   -1
100
AcDbLine
 10
-2.499999999999992
 20
95
 11
-2.499999999999992
 21
105
  0
LINE
  5
123
100
AcDbEntity
  8
followers
  6
ByLayer
 62
  256
370
   -1
100
AcDbLine
 10
-5.499999999999992
 20
105
 11
-2.499999999999992
 21
105
  0
LINE
  5
124
100
AcDbEntity
  8
followers
  6
ByLayer
 62
  256
370
   -1
100
AcDbLine
 10
-5.499999999999992
 20
95
 11
-2.499999999999993
 21
95
  0
LINE
  5
125
100
AcDbEntity
  8
followers
  6
ByLayer
 62
  256
370
   -1
100
AcDbLine
 10
2.500000000000007
 20
95
 11
2.500000000000008
 21
105
  0
LINE
  5
126
100
AcDbEntity
  8
followers
  6
ByLayer
 62
  256
370
   -1
100
AcDbLine
 10
2.500000000000008
 20
105
 11
5.500000000000008
 21
105
  0
LINE
  5
127
100
AcDbEntity
  8
followers
  6
ByLayer
 62
  256
370
   -1
100
AcDbLine
 10
2.500000000000007
 20
95
 11
5.500000000000008
 21
95
  0
LINE
  5
128
100
AcDbEntity
  8
followers
  6
ByLayer
 62
  256
370
   -1
100
AcDbLine
 10
25.5
 20
95
 11
25.5
 21
105
  0
LINE
  5
129
100
AcDbEntity
  8
followers
  6
ByLayer
 62
  256
370
   -1
100
AcDbLine
 10
22.5
 20
105
 11
25.5
 21
105
  0
LINE
  5
12A
100
AcDbEntity
  8
followers
  6
ByLayer
 62
  256
370
   -1
100
AcDbLine
 10
22.5
 20
95
 11
25.5
 21
95
  0
LINE
  5
12B
100
AcDbEntity
  8
followers
  6
ByLayer
 62
  256
370
   -1
100
AcDbLine
 10
30.5
 20
95
 11
30.5
 21
105
  0
LINE
  5
12C
100
AcDbEntity
  8
followers
  6
ByLayer
 62
  256
370
   -1
100
AcDbLine
 10
30.5
 20
105
 11
33.5
 21
105
  0
LINE
  5
12D
100
AcDbEntity
  8
followers
  6
ByLayer
 62
  256
370
   -1
100
AcDbLine
 10
30.5
 20
95
 11
33.5
 21
95
  0
LINE
  5
12E
100
AcDbEntity
  8
followers
  6
ByLayer
 62
  256
370
   -1
100
AcDbLine
 10
53.49999999999999
 20
95
 11
53.49999999999999
 21
105
  0
LINE
  5
12F
100
AcDbEntity
  8
followers
  6
ByLayer
 62
  256
370
   -1
100
AcDbLine
 10
50.49999999999999
 20
105
 11
53.49999999999999
 21
105
  0
LINE
  5
130
100
AcDbEntity
  8
followers
  6
ByLayer
 62
  256
370
   -1
100
AcDbLine
 10
50.49999999999999
 20
95
 11
53.49999999999999
 21
95
  0
LINE
  5
131
100
AcDbEntity
  8
followers
  6
ByLayer
 62
  256
370
   -1
100
AcDbLine
 10
58.49999999999999
 20
95
 11
58.49999999999999
 21
105
  0
LINE
  5
132
100
AcDbEntity
  8
followers
  6
ByLayer
 62
  256
370
   -1
100
AcDbLine
 10
58.49999999999999
 20
105
 11
61.49999999999999
 21
105
  0
LINE
  5
133
100
AcDbEntity
  8
followers
  6
ByLayer
 62
  256
370
   -1
100
AcDbLine
 10
58.49999999999999
 20
95
 11
61.49999999999999
 21
95
  0
DIMENSION
  5
134
100
AcDbEntity
  8
Dimensions
  6
ByLayer
 62
  256
370
   -1
100
AcDbDimension
  2
*D1
 10
28
 20
-30
 30
0
 11
14
 21
-28.125
 31
0
 70
   32
 71
    5
  3
Standard
 53
0
210
0
220
0
230
1
100
AcDbAlignedDimension
 13
0
 23
-20
 33
0
 14
28
 24
-20
 34
0
100
AcDbRotatedDimension
  0
DIMENSION
  5
135
100
AcDbEntity
  8
Dimensions
  6
ByLayer
 62
  256
370
   -1
100
AcDbDimension
  2
*D2
 10
25.5
 20
62
 30
0
 11
24
 21
63.875
 31
0
 70
   32
 71
    5
  3
Standard
 53
0
210
0
220
0
230
1
100
AcDbAlignedDimension
 13
22.5
 23
60
 33
0
 14
25.5
 24
60
 34
0
100
AcDbRotatedDimension
  0
DIMENSION
  5
136
100
AcDbEntity
  8
Dimensions
  6
ByLayer
 62
  256
370
   -1
100
AcDbDimension
  2
*D3
 10
35
 20
86
 30
0
 11
28
 21
87.875
 31
0
 70
   32
 71
    5
  3
Standard
 53
0
210
0
220
0
230
1
100
AcDbAlignedDimension
 13
21
 23
90
 33
0
 14
35
 24
90
 34
0
100
AcDbRotatedDimension
  0
LINE
  5
137
100
AcDbEntity
  8
0
  6
CENTER
 62
  256
370
   -1
100
AcDbLine
 10
55.99999999999999
 20
-20
 11
55.99999999999999
 21
140
  0
LINE
  5
138
100
AcDbEntity
  8
0
  6
CENTER
 62
  256
370
   -1
100
AcDbLine
 10
83.99999999999999
 20
-20
 11
84
 21
140
  0
LINE
  5
139
100
AcDbEntity
  8
followers
  6
ByLayer
 62
  256
370
   -1
100
AcDbLine
 10
75.49999999999999
 20
90
 11
75.5
 21
140
  0
LINE
  5
13A
100
AcDbEntity
  8
followers
  6
ByLayer
 62
  256
370
   -1
100
AcDbLine
 10
78.49999999999999
 20
90
 11
78.49999999999999
 21
140
  0
LINE
  5
13B
100
AcDbEntity
  8
followers
  6
ByLayer
 62
  256
370
   -1
100
AcDbLine
 10
89.49999999999999
 20
90
 11
89.49999999999999
 21
140
  0
LINE
  5
13C
100
AcDbEntity
  8
followers
  6
ByLayer
 62
  256
370
   -1
100
AcDbLine
 10
92.5
 20
90
 11
92.5
 21
140
  0
LINE
  5
13D
100
AcDbEntity
  8
followers
  6
ByLayer
 62
  256
370
   -1
100
AcDbLine
 10
75.49999999999999
 20
90
 11
78.49999999999999
 21
90
  0
LINE
  5
13E
100
AcDbEntity
  8
followers
  6
ByLayer
 62
  256
370
   -1
100
AcDbLine
 10
89.49999999999999
 20
90
 11
92.5
 21
90
  0
LINE
  5
13F
100
AcDbEntity
  8
followers
  6
ByLayer
 62
  256
370
   -1
100
AcDbLine
 10
81.49999999999999
 20
95
 11
81.49999999999999
 21
105
  0
LINE
  5
140
100
AcDbEntity
  8
followers
  6
ByLayer
 62
  256
370
   -1
100
AcDbLine
 10
78.49999999999999
 20
105
 11
81.49999999999999
 21
105
  0
LINE
  5
141
100
AcDbEntity
  8
followers
  6
ByLayer
 62
  256
370
   -1
100
AcDbLine
 10
78.49999999999999
 20
95
 11
81.49999999999999
 21
95
  0
LINE
  5
142
100
AcDbEntity
  8
followers
  6
ByLayer
 62
  256
370
   -1
100
AcDbLine
 10
86.49999999999999
 20
95
 11
86.49999999999999
 21
105
  0
LINE
  5
143
100
AcDbEntity
  8
followers
  6
ByLayer
 62
  256
370
   -1
100
AcDbLine
 10
86.49999999999999
 20
105
 11
89.49999999999999
 21
105
  0
LINE
  5
144
100
AcDbEntity
  8
followers
  6
ByLayer
 62
  256
370
   -1
100
AcDbLine
 10
86.49999999999999
 20
95
 11
89.49999999999999
 21
95
  0
LINE
  5
145
100
AcDbEntity
  8
Cam holders
  6
ByLayer
 62
  256
370
   -1
100
AcDbLine
 10
107
 20
-20
 11
107
 21
40
  0
LINE
  5
146
100
AcDbEntity
  8
Cam holders
  6
ByLayer
 62
  256
370
   -1
100
AcDbLine
 10
130
 20
-20.00000000000001
 11
130
 21
40
  0
LINE
  5
147
100
AcDbEntity
  8
Cam holders
  6
ByLayer
 62
  256
370
   -1
100
AcDbLine
 10
153
 20
-20.00000000000001
 11
153
 21
39.99999999999999
  0
LINE
  5
148
100
AcDbEntity
  8
Cam holders
  6
ByLayer
 62
  256
370
   -1
100
AcDbLine
 10
176
 20
-20.00000000000001
 11
176
 21
39.99999999999999
  0
LINE
  5
149
100
AcDbEntity
  8
Cam holders
  6
ByLayer
 62
  256
370
   -1
100
AcDbLine
 10
199
 20
-20.00000000000002
 11
199
 21
39.99999999999999
  0
DIMENSION
  5
14A
100
AcDbEntity
  8
Cam holders
  6
ByLayer
 62
  256
370
   -1
100
AcDbDimension
  2
*D4
 10
55.99999999999999
 20
-30
 30
0
 11
41.99999999999999
 21
-28.125
 31
0
 70
   32
 71
    5
 72
    0
  3
Standard
 53
0
210
0
220
0
230
1
100
AcDbAlignedDimension
 13
28
 23
-20
 33
0
 14
55.99999999999999
 24
-20
 34
0
100
AcDbRotatedDimension
  0
DIMENSION
  5
14B
100
AcDbEntity
  8
Dimensions
  6
ByLayer
 62
  256
370
   -1
100
AcDbDimension
  2
*D5
 10
83.99999999999999
 20
-30
 30
0
 11
69.99999999999999
 21
-28.125
 31
0
 70
   32
 71
    5
 72
    0
  3
Standard
 53
0
210
0
220
0
230
1
100
AcDbAlignedDimension
 13
55.99999999999999
 23
-20
 33
0
 14
83.99999999999999
 24
-20
 34
0
100
AcDbRotatedDimension
  0
DIMENSION
  5
14C
100
AcDbEntity
  8
Dimensions
  6
ByLayer
 62
  256
370
   -1
100
AcDbDimension
  2
*D6
 10
107
 20
-30
 30
0
 11
95.49999999999999
 21
-28.125
 31
0
 70
   32
 71
    5
 72
    0
  3
Standard
 53
0
210
0
220
0
230
1
100
AcDbAlignedDimension
 13
83.99999999999999
 23
-20
 33
0
 14
107
 24
-20
 34
0
100
AcDbRotatedDimension
  0
DIMENSION
  5
14D
100
AcDbEntity
  8
Dimensions
  6
ByLayer
 62
  256
370
   -1
100
AcDbDimension
  2
*D7
 10
130
 20
-30
 30
0
 11
118.5
 21
-28.125
 31
0
 70
   32
 71
    5
 72
    0
  3
Standard
 53
0
210
0
220
0
230
1
100
AcDbAlignedDimension
 13
107
 23
-20
 33
0
 14
130
 24
-20.00000000000001
 34
0
100
AcDbRotatedDimension
  0
DIMENSION
  5
14E
100
AcDbEntity
  8
Dimensions
  6
ByLayer
 62
  256
370
   -1
100
AcDbDimension
  2
*D8
 10
153
 20
-30
 30
0
 11
141.5
 21
-28.125
 31
0
 70
   32
 71
    5
 72
    0
  3
Standard
 53
0
210
0
220
0
230
1
100
AcDbAlignedDimension
 13
130
 23
-20.00000000000001
 33
0
 14
153
 24
-20.00000000000001
 34
0
100
AcDbRotatedDimension
  0
DIMENSION
  5
14F
100
AcDbEntity
  8
Dimensions
  6
ByLayer
 62
  256
370
   -1
100
AcDbDimension
  2
*D9
 10
176
 20
-30
 30
0
 11
164.5
 21
-28.125
 31
0
 70
   32
 71
    5
 72
    0
  3
Standard
 53
0
210
0
220
0
230
1
100
AcDbAlignedDimension
 13
153
 23
-20.00000000000001
 33
0
 14
176
 24
-20.00000000000001
 34
0
100
AcDbRotatedDimension
  0
DIMENSION
  5
150
100
AcDbEntity
  8
Dimensions
  6
ByLayer
 62
  256
370
   -1
100
AcDbDimension
  2
*D10
 10
199
 20
-30
 30
0
 11
187.5
 21
-28.125
 31
0
 70
   32
 71
    5
 72
    0
  3
Standard
 53
0
210
0
220
0
230
1
100
AcDbAlignedDimension
 13
176
 23
-20.00000000000001
 33
0
 14
199
 24
-20.00000000000002
 34
0
100
AcDbRotatedDimension
  0
LINE
  5
151
100
AcDbEntity
  8
followers
  6
ByLayer
 62
  256
370
   -1
100
AcDbLine
 10
101.5
 20
89.99999999999999
 11
104.5
 21
89.99999999999999
  0
LINE
  5
152
100
AcDbEntity
  8
followers
  6
ByLayer
 62
  256
370
   -1
100
AcDbLine
 10
104.5
 20
89.99999999999999
 11
104.5
 21
140
  0
LINE
  5
153
100
AcDbEntity
  8
Dimensions
  6
ByLayer
 62
  256
370
   -1
100
AcDbLine
 10
101.5
 20
89.99999999999999
 11
101.5
 21
140
  0
LINE
  5
154
100
AcDbEntity
  8
followers
  6
ByLayer
 62
  256
370
   -1
100
AcDbLine
 10
109.5
 20
89.99999999999999
 11
112.5
 21
89.99999999999999
  0
LINE
  5
155
100
AcDbEntity
  8
followers
  6
ByLayer
 62
  256
370
   -1
100
AcDbLine
 10
112.5
 20
89.99999999999999
 11
112.5
 21
140
  0
LINE
  5
156
100
AcDbEntity
  8
Dimensions
  6
ByLayer
 62
  256
370
   -1
100
AcDbLine
 10
109.5
 20
89.99999999999999
 11
109.5
 21
140
  0
LINE
  5
157
100
AcDbEntity
  8
followers
  6
ByLayer
 62
  256
370
   -1
100
AcDbLine
 10
124.5
 20
89.99999999999999
 11
127.5
 21
89.99999999999999
  0
LINE
  5
158
100
AcDbEntity
  8
followers
  6
ByLayer
 62
  256
370
   -1
100
AcDbLine
 10
127.5
 20
89.99999999999999
 11
127.5
 21
140
  0
LINE
  5
159
100
AcDbEntity
  8
Dimensions
  6
ByLayer
 62
  256
370
   -1
100
AcDbLine
 10
124.5
 20
89.99999999999999
 11
124.5
 21
140
  0
LINE
  5
15A
100
AcDbEntity
  8
followers
  6
ByLayer
 62
  256
370
   -1
100
AcDbLine
 10
132.4999999999999
 20
89.99999999999999
 11
135.4999999999999
 21
89.99999999999999
  0
LINE
  5
15B
100
AcDbEntity
  8
followers
  6
ByLayer
 62
  256
370
   -1
100
AcDbLine
 10
135.4999999999999
 20
89.99999999999999
 11
135.4999999999999
 21
140
  0
LINE
  5
15C
100
AcDbEntity
  8
Dimensions
  6
ByLayer
 62
  256
370
   -1
100
AcDbLine
 10
132.4999999999999
 20
89.99999999999999
 11
132.4999999999999
 21
140
  0
LINE
  5
15D
100
AcDbEntity
  8
followers
  6
ByLayer
 62
  256
370
   -1
100
AcDbLine
 10
147.4999999999999
 20
89.99999999999999
 11
150.4999999999999
 21
89.99999999999999
  0
LINE
  5
15E
100
AcDbEntity
  8
followers
  6
ByLayer
 62
  256
370
   -1
100
AcDbLine
 10
150.4999999999999
 20
89.99999999999999
 11
150.4999999999999
 21
140
  0
LINE
  5
15F
100
AcDbEntity
  8
Dimensions
  6
ByLayer
 62
  256
370
   -1
100
AcDbLine
 10
147.4999999999999
 20
89.99999999999999
 11
147.4999999999999
 21
140
  0
LINE
  5
160
100
AcDbEntity
  8
followers
  6
ByLayer
 62
  256
370
   -1
100
AcDbLine
 10
155.4999999999999
 20
89.99999999999999
 11
158.4999999999999
 21
89.99999999999999
  0
LINE
  5
161
100
AcDbEntity
  8
followers
  6
ByLayer
 62
  256
370
   -1
100
AcDbLine
 10
158.4999999999999
 20
89.99999999999999
 11
158.4999999999999
 21
140
  0
LINE
  5
162
100
AcDbEntity
  8
Dimensions
  6
ByLayer
 62
  256
370
   -1
100
AcDbLine
 10
155.4999999999999
 20
89.99999999999999
 11
155.4999999999999
 21
140
  0
LINE
  5
163
100
AcDbEntity
  8
followers
  6
ByLayer
 62
  256
370
   -1
100
AcDbLine
 10
170.4999999999999
 20
89.99999999999999
 11
173.4999999999999
 21
89.99999999999999
  0
LINE
  5
164
100
AcDbEntity
  8
followers
  6
ByLayer
 62
  256
370
   -1
100
AcDbLine
 10
173.4999999999999
 20
89.99999999999999
 11
173.4999999999999
 21
140
  0
LINE
  5
165
100
AcDbEntity
  8
Dimensions
  6
ByLayer
 62
  256
370
   -1
100
AcDbLine
 10
170.4999999999999
 20
89.99999999999999
 11
170.4999999999999
 21
140
  0
LINE
  5
166
100
AcDbEntity
  8
followers
  6
ByLayer
 62
  256
370
   -1
100
AcDbLine
 10
178.4999999999999
 20
89.99999999999999
 11
181.4999999999999
 21
89.99999999999999
  0
LINE
  5
167
100
AcDbEntity
  8
followers
  6
ByLayer
 62
  256
370
   -1
100
AcDbLine
 10
181.4999999999999
 20
89.99999999999999
 11
181.4999999999999
 21
140
  0
LINE
  5
168
100
AcDbEntity
  8
Dimensions
  6
ByLayer
 62
  256
370
   -1
100
AcDbLine
 10
178.4999999999999
 20
89.99999999999999
 11
178.4999999999999
 21
140
  0
LINE
  5
169
100
AcDbEntity
  8
followers
  6
ByLayer
 62
  256
370
   -1
100
AcDbLine
 10
193.4999999999999
 20
89.99999999999999
 11
196.4999999999999
 21
89.99999999999999
  0
LINE
  5
16A
100
AcDbEntity
  8
followers
  6
ByLayer
 62
  256
370
   -1
100
AcDbLine
 10
196.4999999999999
 20
89.99999999999999
 11
196.4999999999999
 21
140
  0
LINE
  5
16B
100
AcDbEntity
  8
Dimensions
  6
ByLayer
 62
  256
370
   -1
100
AcDbLine
 10
193.4999999999999
 20
89.99999999999999
 11
193.4999999999999
 21
140
  0
LINE
  5
16C
100
AcDbEntity
  8
followers
  6
ByLayer
 62
  256
370
   -1
100
AcDbLine
 10
201.4999999999999
 20
89.99999999999999
 11
204.4999999999999
 21
89.99999999999999
  0
LINE
  5
16D
100
AcDbEntity
  8
followers
  6
ByLayer
 62
  256
370
   -1
100
AcDbLine
 10
204.4999999999999
 20
89.99999999999999
 11
204.4999999999999
 21
140
  0
LINE
  5
16E
100
AcDbEntity
  8
Dimensions
  6
ByLayer
 62
  256
370
   -1
100
AcDbLine
 10
201.4999999999999
 20
89.99999999999999
 11
201.4999999999999
 21
140
  0
DIMENSION
  5
16F
100
AcDbEntity
  8
Dimensions
  6
ByLayer
 62
  256
370
   -1
100
AcDbDimension
  2
*D11
 10
204.5
 20
70
 30
0
 11
99.5
 21
71.875
 31
0
 70
   32
 71
    5
 72
    0
  3
Standard
 53
0
210
0
220
0
230
1
100
AcDbAlignedDimension
 13
-5.499999999999995
 23
60
 33
0
 14
204.5
 24
59.99999999999999
 34
0
100
AcDbRotatedDimension
  0
LINE
  5
170
100
AcDbEntity
  8
Dimensions
  6
ByLayer
 62
  256
370
   -1
100
AcDbLine
 10
-35.8
 20
-20
 11
-35.79999999999999
 21
60
  0
LINE
  5
171
100
AcDbEntity
  8
Dimensions
  6
ByLayer
 62
  256
370
   -1
100
AcDbLine
 10
-2.5
 20
-20
 11
2.5
 21
-20
  0
LINE
  5
172
100
AcDbEntity
  8
Dimensions
  6
ByLayer
 62
  256
370
   -1
100
AcDbLine
 10
246.5
 20
-20
 11
246.5
 21
60
  0
LINE
  5
173
100
AcDbEntity
  8
Dimensions
  6
ByLayer
 62
  256
370
   -1
100
AcDbLine
 10
279.8
 20
-20
 11
279.8
 21
60
  0
MTEXT
  5
174
100
AcDbEntity
  8
Labels
  6
ByLayer
 62
  256
370
   -1
100
AcDbMText
 10
-40
 20
70
 30
0
 40
6
 41
70.99999999999999
 71
    1
 72
    1
  1
LIMIT OF BEARING
  7
STANDARD
210
0
220
0
230
1
 50
90
 73
    2
 44
1
  0
MTEXT
  5
175
100
AcDbEntity
  8
Labels
  6
ByLayer
 62
  256
370
   -1
100
AcDbMText
 10
280
 20
70
 30
0
 40
6
 41
70.99999999999999
 71
    1
 72
    1
  1
LIMIT OF BEARING
  7
STANDARD
210
0
220
0
230
1
 50
90
 73
    2
 44
1
  0
DIMENSION
  5
176
100
AcDbEntity
  8
Labels
  6
ByLayer
 62
  256
370
   -1
100
AcDbDimension
  2
*D12
 10
279.8
 20
-50
 30
0
 11
122
 21
-48.125
 31
0
 70
   32
 71
    5
 72
    0
  3
Standard
 53
0
210
0
220
0
230
1
100
AcDbAlignedDimension
 13
-35.79999999999999
 23
60
 33
0
 14
279.8
 24
60
 34
0
100
AcDbRotatedDimension
  0
LINE
  5
177
100
AcDbEntity
  8
0
  6
ByLayer
 62
  256
370
   -1
100
AcDbLine
 10
-2.500000000000008
 20
-130
 11
-2.499999999999996
 21
40
  0
LINE
  5
178
100
AcDbEntity
  8
0
  6
ByLayer
 62
  256
370
   -1
100
AcDbLine
 10
2.499999999999992
 20
-130
 11
2.500000000000004
 21
40
  0
LINE
  5
179
100
AcDbEntity
  8
0
  6
ByLayer
 62
  256
370
   -1
100
AcDbLine
 10
25.5
 20
-130
 11
25.5
 21
40
  0
LINE
  5
17A
100
AcDbEntity
  8
0
  6
ByLayer
 62
  256
370
   -1
100
AcDbLine
 10
30.5
 20
-130
 11
30.5
 21
40
  0
LINE
  5
17B
100
AcDbEntity
  8
0
  6
ByLayer
 62
  256
370
   -1
100
AcDbLine
 10
53.49999999999997
 20
-130
 11
53.49999999999999
 21
40
  0
LINE
  5
17C
100
AcDbEntity
  8
0
  6
ByLayer
 62
  256
370
   -1
100
AcDbLine
 10
58.49999999999997
 20
-130
 11
58.49999999999999
 21
40
  0
LINE
  5
17D
100
AcDbEntity
  8
0
  6
ByLayer
 62
  256
370
   -1
100
AcDbLine
 10
81.49999999999999
 20
-130
 11
81.49999999999999
 21
40
  0
LINE
  5
17E
100
AcDbEntity
  8
0
  6
ByLayer
 62
  256
370
   -1
100
AcDbLine
 10
109.5
 20
-130
 11
109.5
 21
40
  0
LINE
  5
17F
100
AcDbEntity
  8
0
  6
ByLayer
 62
  256
370
   -1
100
AcDbLine
 10
127.5
 20
-130
 11
127.5
 21
40
  0
LINE
  5
180
100
AcDbEntity
  8
0
  6
ByLayer
 62
  256
370
   -1
100
AcDbLine
 10
132.5
 20
-130
 11
132.5
 21
40
  0
LINE
  5
181
100
AcDbEntity
  8
0
  6
ByLayer
 62
  256
370
   -1
100
AcDbLine
 10
150.5
 20
-130
 11
150.5
 21
39.99999999999999
  0
LINE
  5
182
100
AcDbEntity
  8
0
  6
ByLayer
 62
  256
370
   -1
100
AcDbLine
 10
155.5
 20
-130
 11
155.5
 21
39.99999999999999
  0
LINE
  5
183
100
AcDbEntity
  8
0
  6
ByLayer
 62
  256
370
   -1
100
AcDbLine
 10
173.5
 20
-130
 11
173.5
 21
39.99999999999999
  0
LINE
  5
184
100
AcDbEntity
  8
0
  6
ByLayer
 62
  256
370
   -1
100
AcDbLine
 10
178.5
 20
-130
 11
178.5
 21
39.99999999999999
  0
LINE
  5
185
100
AcDbEntity
  8
0
  6
ByLayer
 62
  256
370
   -1
100
AcDbLine
 10
196.5
 20
-130
 11
196.5
 21
39.99999999999999
  0
LINE
  5
186
100
AcDbEntity
  8
0
  6
ByLayer
 62
  256
370
   -1
100
AcDbLine
 10
201.5
 20
-130
 11
201.5
 21
39.99999999999999
  0
LINE
  5
187
100
AcDbEntity
  8
0
  6
ByLayer
 62
  256
370
   -1
100
AcDbLine
 10
86.49999999999999
 20
-130
 11
86.49999999999999
 21
40
  0
LINE
  5
188
100
AcDbEntity
  8
0
  6
ByLayer
 62
  256
370
   -1
100
AcDbLine
 10
104.5
 20
-130
 11
104.5
 21
40
  0
DIMENSION
  5
189
100
AcDbEntity
  8
Dimensions
  6
ByLayer
 62
  256
370
   -1
100
AcDbDimension
  2
*D13
 10
104.5
 20
-9.999999999999996
 30
0
 11
95.49999999999999
 21
-8.124999999999996
 31
0
 70
   32
 71
    5
 72
    0
  3
Standard
 53
0
210
0
220
0
230
1
100
AcDbAlignedDimension
 13
86.49999999999999
 23
-30
 33
0
 14
104.5
 24
-30
 34
0
100
AcDbRotatedDimension
  0
LINE
  5
18A
100
AcDbEntity
  8
0
  6
ByLayer
 62
  256
370
   -1
100
AcDbLine
 10
-2.499999999999996
 20
30
 11
2.500000000000004
 21
30
  0
LINE
  5
18B
100
AcDbEntity
  8
cam_profiles
  6
ByLayer
 62
  256
370
   -1
100
AcDbLine
 10
2.500000000000003
 20
10
 11
5.499999999999998
 21
10
  0
LINE
  5
18C
100
AcDbEntity
  8
cam_profiles
  6
ByLayer
 62
  256
370
   -1
100
AcDbLine
 10
-5.499999999999996
 20
10
 11
-2.499999999999997
 21
10
  0
LINE
  5
18D
100
AcDbEntity
  8
0
  6
ByLayer
 62
  256
370
   -1
100
AcDbLine
 10
25.5
 20
30
 11
30.5
 21
30
  0
LINE
  5
18E
100
AcDbEntity
  8
cam_profiles
  6
ByLayer
 62
  256
370
   -1
100
AcDbLine
 10
30.5
 20
10
 11
33.49999999999999
 21
10
  0
LINE
  5
18F
100
AcDbEntity
  8
cam_profiles
  6
ByLayer
 62
  256
370
   -1
100
AcDbLine
 10
22.5
 20
10
 11
25.5
 21
10
  0
DIMENSION
  5
190
100
AcDbEntity
  8
Dimensions
  6
ByLayer
 62
  256
370
   -1
100
AcDbDimension
  2
*D14
 10
30.5
 20
5
 30
0
 11
28
 21
6.875
 31
0
 70
   32
 71
    5
  3
Standard
 53
0
210
0
220
0
230
1
100
AcDbAlignedDimension
 13
25.5
 23
30
 33
0
 14
30.5
 24
30
 34
0
100
AcDbRotatedDimension
  0
DIMENSION
  5
191
100
AcDbEntity
  8
Dimensions
  6
ByLayer
 62
  256
370
   -1
100
AcDbDimension
  2
*D15
 10
25.5
 20
-7
 30
0
 11
14
 21
-5.125
 31
0
 70
   32
 71
    5
  3
Standard
 53
0
210
0
220
0
230
1
100
AcDbAlignedDimension
 13
2.500000000000003
 23
10
 33
0
 14
25.5
 24
10
 34
0
100
AcDbRotatedDimension
  0
DIMENSION
  5
192
100
AcDbEntity
  8
Dimensions
  6
ByLayer
 62
  256
370
   -1
100
AcDbDimension
  2
*D16
 10
22.5
 20
7
 30
0
 11
14
 21
8.875
 31
0
 70
   32
 71
    5
  3
Standard
 53
0
210
0
220
0
230
1
100
AcDbAlignedDimension
 13
5.500000000000004
 23
10
 33
0
 14
22.5
 24
10
 34
0
100
AcDbRotatedDimension
  0
LINE
  5
193
100
AcDbEntity
  8
0
  6
ByLayer
 62
  256
370
   -1
100
AcDbLine
 10
53.49999999999999
 20
30
 11
58.49999999999999
 21
30
  0
LINE
  5
194
100
AcDbEntity
  8
0
  6
ByLayer
 62
  256
370
   -1
100
AcDbLine
 10
81.49999999999999
 20
30
 11
86.49999999999999
 21
30
  0
LINE
  5
195
100
AcDbEntity
  8
cam_profiles
  6
ByLayer
 62
  256
370
   -1
100
AcDbLine
 10
58.49999999999999
 20
10
 11
61.49999999999999
 21
10
  0
LINE
  5
196
100
AcDbEntity
  8
cam_profiles
  6
ByLayer
 62
  256
370
   -1
100
AcDbLine
 10
50.49999999999999
 20
10
 11
53.49999999999999
 21
10
  0
LINE
  5
197
100
AcDbEntity
  8
cam_profiles
  6
ByLayer
 62
  256
370
   -1
100
AcDbLine
 10
86.49999999999997
 20
10
 11
89.49999999999997
 21
10
  0
LINE
  5
198
100
AcDbEntity
  8
cam_profiles
  6
ByLayer
 62
  256
370
   -1
100
AcDbLine
 10
78.49999999999999
 20
10
 11
81.49999999999997
 21
10
  0
LINE
  5
199
100
AcDbEntity
  8
0
  6
ByLayer
 62
  256
370
   -1
100
AcDbLine
 10
104.5
 20
30
 11
109.5
 21
30
  0
LINE
  5
19A
100
AcDbEntity
  8
cam_profiles
  6
ByLayer
 62
  256
370
   -1
100
AcDbLine
 10
109.5
 20
9.999999999999996
 11
112.5
 21
9.999999999999996
  0
LINE
  5
19B
100
AcDbEntity
  8
cam_profiles
  6
ByLayer
 62
  256
370
   -1
100
AcDbLine
 10
101.5
 20
9.999999999999996
 11
104.5
 21
9.999999999999996
  0
LINE
  5
19C
100
AcDbEntity
  8
0
  6
ByLayer
 62
  256
370
   -1
100
AcDbLine
 10
127.5
 20
30
 11
132.5
 21
30
  0
LINE
  5
19D
100
AcDbEntity
  8
cam_profiles
  6
ByLayer
 62
  256
370
   -1
100
AcDbLine
 10
132.5
 20
9.999999999999993
 11
135.5
 21
9.999999999999993
  0
LINE
  5
19E
100
AcDbEntity
  8
cam_profiles
  6
ByLayer
 62
  256
370
   -1
100
AcDbLine
 10
124.5
 20
9.999999999999993
 11
127.5
 21
9.999999999999993
  0
LINE
  5
19F
100
AcDbEntity
  8
0
  6
ByLayer
 62
  256
370
   -1
100
AcDbLine
 10
150.5
 20
29.99999999999999
 11
155.5
 21
29.99999999999999
  0
LINE
  5
1A0
100
AcDbEntity
  8
cam_profiles
  6
ByLayer
 62
  256
370
   -1
100
AcDbLine
 10
155.5
 20
9.999999999999989
 11
158.5
 21
9.999999999999989
  0
LINE
  5
1A1
100
AcDbEntity
  8
cam_profiles
  6
ByLayer
 62
  256
370
   -1
100
AcDbLine
 10
147.5
 20
9.999999999999989
 11
150.5
 21
9.999999999999989
  0
LINE
  5
1A2
100
AcDbEntity
  8
0
  6
ByLayer
 62
  256
370
   -1
100
AcDbLine
 10
173.5
 20
29.99999999999999
 11
178.5
 21
29.99999999999999
  0
LINE
  5
1A3
100
AcDbEntity
  8
cam_profiles
  6
ByLayer
 62
  256
370
   -1
100
AcDbLine
 10
178.5
 20
9.999999999999986
 11
181.5
 21
9.999999999999986
  0
LINE
  5
1A4
100
AcDbEntity
  8
cam_profiles
  6
ByLayer
 62
  256
370
   -1
100
AcDbLine
 10
170.5
 20
9.999999999999986
 11
173.5
 21
9.999999999999986
  0
LINE
  5
1A5
100
AcDbEntity
  8
0
  6
ByLayer
 62
  256
370
   -1
100
AcDbLine
 10
196.5
 20
29.99999999999999
 11
201.5
 21
29.99999999999999
  0
LINE
  5
1A6
100
AcDbEntity
  8
cam_profiles
  6
ByLayer
 62
  256
370
   -1
100
AcDbLine
 10
201.5
 20
9.999999999999982
 11
204.5
 21
9.999999999999982
  0
LINE
  5
1A7
100
AcDbEntity
  8
cam_profiles
  6
ByLayer
 62
  256
370
   -1
100
AcDbLine
 10
193.5
 20
9.999999999999982
 11
196.5
 21
9.999999999999982
  0
DIMENSION
  5
1A8
100
AcDbEntity
  8
Dimensions
  6
ByLayer
 62
  256
370
   -1
100
AcDbDimension
  2
*D17
 10
124.5
 20
0
 30
0
 11
118.5
 21
1.875
 31
0
 70
   32
 71
    5
 72
    0
  3
Standard
 53
0
210
0
220
0
230
1
100
AcDbAlignedDimension
 13
112.5
 23
9.999999999999996
 33
0
 14
124.5
 24
9.999999999999993
 34
0
100
AcDbRotatedDimension
  0
DIMENSION
  5
1A9
100
AcDbEntity
  8
Dimensions
  6
ByLayer
 62
  256
370
   -1
100
AcDbDimension
  2
*D18
 10
78.49999999999999
 20
0
 30
0
 11
70
 21
1.875
 31
0
 70
   32
 71
    5
 72
    0
  3
Standard
 53
0
210
0
220
0
230
1
100
AcDbAlignedDimension
 13
61.49999999999999
 23
10
 33
0
 14
78.49999999999999
 24
10
 34
0
100
AcDbRotatedDimension
  0
LINE
  5
1AA
100
AcDbEntity
  8
cam_profiles
  6
ByLayer
 62
  256
370
   -1
100
AcDbLine
 10
86.49999999999997
 20
10
 11
86.49999999999999
 21
40
  0
LINE
  5
1AB
100
AcDbEntity
  8
cam_profiles
  6
ByLayer
 62
  256
370
   -1
100
AcDbLine
 10
104.5
 20
9.999999999999996
 11
104.5
 21
40
  0
LINE
  5
1AC
100
AcDbEntity
  8
cam_profiles
  6
ByLayer
 62
  256
370
   -1
100
AcDbLine
 10
109.5
 20
9.999999999999996
 11
109.5
 21
40
  0
LINE
  5
1AD
100
AcDbEntity
  8
cam_profiles
  6
ByLayer
 62
  256
370
   -1
100
AcDbLine
 10
112.5
 20
9.999999999999996
 11
112.5
 21
40
  0
LINE
  5
1AE
100
AcDbEntity
  8
cam_profiles
  6
ByLayer
 62
  256
370
   -1
100
AcDbLine
 10
124.5
 20
9.999999999999993
 11
124.5
 21
40
  0
LINE
  5
1AF
100
AcDbEntity
  8
cam_profiles
  6
ByLayer
 62
  256
370
   -1
100
AcDbLine
 10
127.5
 20
9.999999999999993
 11
127.5
 21
40
  0
LINE
  5
1B0
100
AcDbEntity
  8
Cam holders
  6
ByLayer
 62
  256
370
   -1
100
AcDbLine
 10
124.5
 20
9.999999999999993
 11
124.5
 21
40
  0
LINE
  5
1B1
100
AcDbEntity
  8
cam_profiles
  6
ByLayer
 62
  256
370
   -1
100
AcDbLine
 10
135.5
 20
9.999999999999993
 11
135.5
 21
40
  0
LINE
  5
1B2
100
AcDbEntity
  8
cam_profiles
  6
ByLayer
 62
  256
370
   -1
100
AcDbLine
 10
132.5
 20
9.999999999999993
 11
132.5
 21
40
  0
LINE
  5
1B3
100
AcDbEntity
  8
cam_profiles
  6
ByLayer
 62
  256
370
   -1
100
AcDbLine
 10
147.5
 20
9.999999999999989
 11
147.5
 21
40
  0
LINE
  5
1B4
100
AcDbEntity
  8
cam_profiles
  6
ByLayer
 62
  256
370
   -1
100
AcDbLine
 10
150.5
 20
9.999999999999989
 11
150.5
 21
40
  0
LINE
  5
1B5
100
AcDbEntity
  8
cam_profiles
  6
ByLayer
 62
  256
370
   -1
100
AcDbLine
 10
155.5
 20
9.999999999999989
 11
155.5
 21
40
  0
LINE
  5
1B6
100
AcDbEntity
  8
cam_profiles
  6
ByLayer
 62
  256
370
   -1
100
AcDbLine
 10
158.5
 20
9.999999999999989
 11
158.5
 21
40
  0
LINE
  5
1B7
100
AcDbEntity
  8
cam_profiles
  6
ByLayer
 62
  256
370
   -1
100
AcDbLine
 10
170.5
 20
9.999999999999986
 11
170.5
 21
40
  0
LINE
  5
1B8
100
AcDbEntity
  8
cam_profiles
  6
ByLayer
 62
  256
370
   -1
100
AcDbLine
 10
173.5
 20
9.999999999999986
 11
173.5
 21
40
  0
LINE
  5
1B9
100
AcDbEntity
  8
cam_profiles
  6
ByLayer
 62
  256
370
   -1
100
AcDbLine
 10
178.5
 20
9.999999999999986
 11
178.5
 21
40
  0
LINE
  5
1BA
100
AcDbEntity
  8
cam_profiles
  6
ByLayer
 62
  256
370
   -1
100
AcDbLine
 10
181.5
 20
9.999999999999986
 11
181.5
 21
40
  0
LINE
  5
1BB
100
AcDbEntity
  8
cam_profiles
  6
ByLayer
 62
  256
370
   -1
100
AcDbLine
 10
193.5
 20
9.999999999999982
 11
193.5
 21
40
  0
LINE
  5
1BC
100
AcDbEntity
  8
cam_profiles
  6
ByLayer
 62
  256
370
   -1
100
AcDbLine
 10
196.5
 20
9.999999999999982
 11
196.5
 21
40
  0
LINE
  5
1BD
100
AcDbEntity
  8
cam_profiles
  6
ByLayer
 62
  256
370
   -1
100
AcDbLine
 10
201.5
 20
9.999999999999982
 11
201.5
 21
40
  0
LINE
  5
1BE
100
AcDbEntity
  8
cam_profiles
  6
ByLayer
 62
  256
370
   -1
100
AcDbLine
 10
204.5
 20
9.999999999999982
 11
204.5
 21
40
  0
LINE
  5
1BF
100
AcDbEntity
  8
cam_profiles
  6
ByLayer
 62
  256
370
   -1
100
AcDbLine
 10
50.49999999999999
 20
10
 11
50.49999999999999
 21
40
  0
LINE
  5
1C0
100
AcDbEntity
  8
cam_profiles
  6
ByLayer
 62
  256
370
   -1
100
AcDbLine
 10
53.49999999999999
 20
10
 11
53.49999999999999
 21
40
  0
LINE
  5
1C1
100
AcDbEntity
  8
cam_profiles
  6
ByLayer
 62
  256
370
   -1
100
AcDbLine
 10
58.49999999999999
 20
10
 11
58.49999999999999
 21
40
  0
LINE
  5
1C2
100
AcDbEntity
  8
cam_profiles
  6
ByLayer
 62
  256
370
   -1
100
AcDbLine
 10
61.49999999999999
 20
10
 11
61.49999999999999
 21
40
  0
LINE
  5
1C3
100
AcDbEntity
  8
cam_profiles
  6
ByLayer
 62
  256
370
   -1
100
AcDbLine
 10
33.5
 20
10
 11
33.5
 21
40
  0
LINE
  5
1C4
100
AcDbEntity
  8
cam_profiles
  6
ByLayer
 62
  256
370
   -1
100
AcDbLine
 10
30.5
 20
10
 11
30.5
 21
40
  0
LINE
  5
1C5
100
AcDbEntity
  8
cam_profiles
  6
ByLayer
 62
  256
370
   -1
100
AcDbLine
 10
25.5
 20
10
 11
25.5
 21
40
  0
LINE
  5
1C6
100
AcDbEntity
  8
cam_profiles
  6
ByLayer
 62
  256
370
   -1
100
AcDbLine
 10
22.5
 20
10
 11
22.5
 21
40
  0
LINE
  5
1C7
100
AcDbEntity
  8
cam_profiles
  6
ByLayer
 62
  256
370
   -1
100
AcDbLine
 10
5.500000000000004
 20
10
 11
5.500000000000005
 21
40
  0
LINE
  5
1C8
100
AcDbEntity
  8
cam_profiles
  6
ByLayer
 62
  256
370
   -1
100
AcDbLine
 10
2.500000000000003
 20
10
 11
2.500000000000004
 21
40
  0
LINE
  5
1C9
100
AcDbEntity
  8
cam_profiles
  6
ByLayer
 62
  256
370
   -1
100
AcDbLine
 10
-2.499999999999997
 20
10
 11
-2.499999999999996
 21
40
  0
LINE
  5
1CA
100
AcDbEntity
  8
cam_profiles
  6
ByLayer
 62
  256
370
   -1
100
AcDbLine
 10
-5.499999999999996
 20
10
 11
-5.499999999999995
 21
40
  0
LINE
  5
1CB
100
AcDbEntity
  8
cam_profiles
  6
ByLayer
 62
  256
370
   -1
100
AcDbLine
 10
78.49999999999999
 20
10
 11
78.49999999999999
 21
40
  0
LINE
  5
1CC
100
AcDbEntity
  8
cam_profiles
  6
ByLayer
 62
  256
370
   -1
100
AcDbLine
 10
81.49999999999997
 20
10
 11
81.49999999999999
 21
40
  0
LINE
  5
1CD
100
AcDbEntity
  8
cam_profiles
  6
ByLayer
 62
  256
370
   -1
100
AcDbLine
 10
2.500000000000005
 20
40
 11
5.500000000000005
 21
40
  0
LINE
  5
1CE
100
AcDbEntity
  8
cam_profiles
  6
ByLayer
 62
  256
370
   -1
100
AcDbLine
 10
-5.499999999999995
 20
40
 11
-2.499999999999995
 21
40
  0
LINE
  5
1CF
100
AcDbEntity
  8
cam_profiles
  6
ByLayer
 62
  256
370
   -1
100
AcDbLine
 10
30.5
 20
40
 11
33.5
 21
40
  0
LINE
  5
1D0
100
AcDbEntity
  8
cam_profiles
  6
ByLayer
 62
  256
370
   -1
100
AcDbLine
 10
22.5
 20
40
 11
25.5
 21
40
  0
LINE
  5
1D1
100
AcDbEntity
  8
cam_profiles
  6
ByLayer
 62
  256
370
   -1
100
AcDbLine
 10
58.49999999999999
 20
40
 11
61.49999999999999
 21
40
  0
LINE
  5
1D2
100
AcDbEntity
  8
cam_profiles
  6
ByLayer
 62
  256
370
   -1
100
AcDbLine
 10
50.49999999999999
 20
40
 11
53.49999999999999
 21
40
  0
LINE
  5
1D3
100
AcDbEntity
  8
cam_profiles
  6
ByLayer
 62
  256
370
   -1
100
AcDbLine
 10
86.49999999999999
 20
40
 11
89.49999999999999
 21
40
  0
LINE
  5
1D4
100
AcDbEntity
  8
cam_profiles
  6
ByLayer
 62
  256
370
   -1
100
AcDbLine
 10
78.49999999999999
 20
40
 11
81.49999999999999
 21
40
  0
LINE
  5
1D5
100
AcDbEntity
  8
cam_profiles
  6
ByLayer
 62
  256
370
   -1
100
AcDbLine
 10
109.5
 20
40
 11
112.5
 21
40
  0
LINE
  5
1D6
100
AcDbEntity
  8
cam_profiles
  6
ByLayer
 62
  256
370
   -1
100
AcDbLine
 10
101.5
 20
40
 11
104.5
 21
40
  0
LINE
  5
1D7
100
AcDbEntity
  8
cam_profiles
  6
ByLayer
 62
  256
370
   -1
100
AcDbLine
 10
132.5
 20
40
 11
135.5
 21
40
  0
LINE
  5
1D8
100
AcDbEntity
  8
cam_profiles
  6
ByLayer
 62
  256
370
   -1
100
AcDbLine
 10
124.5
 20
40
 11
127.5
 21
40
  0
LINE
  5
1D9
100
AcDbEntity
  8
cam_profiles
  6
ByLayer
 62
  256
370
   -1
100
AcDbLine
 10
155.5
 20
39.99999999999999
 11
158.5
 21
39.99999999999999
  0
LINE
  5
1DA
100
AcDbEntity
  8
cam_profiles
  6
ByLayer
 62
  256
370
   -1
100
AcDbLine
 10
147.5
 20
39.99999999999999
 11
150.5
 21
39.99999999999999
  0
LINE
  5
1DB
100
AcDbEntity
  8
cam_profiles
  6
ByLayer
 62
  256
370
   -1
100
AcDbLine
 10
178.5
 20
39.99999999999999
 11
181.5
 21
39.99999999999999
  0
LINE
  5
1DC
100
AcDbEntity
  8
cam_profiles
  6
ByLayer
 62
  256
370
   -1
100
AcDbLine
 10
170.5
 20
39.99999999999999
 11
173.5
 21
39.99999999999999
  0
LINE
  5
1DD
100
AcDbEntity
  8
cam_profiles
  6
ByLayer
 62
  256
370
   -1
100
AcDbLine
 10
201.5
 20
39.99999999999999
 11
204.5
 21
39.99999999999999
  0
LINE
  5
1DE
100
AcDbEntity
  8
cam_profiles
  6
ByLayer
 62
  256
370
   -1
100
AcDbLine
 10
193.5
 20
39.99999999999999
 11
196.5
 21
39.99999999999999
  0
LINE
  5
1DF
100
AcDbEntity
  8
Cam holders
  6
ByLayer
 62
  256
370
   -1
100
AcDbLine
 10
89.49999999999999
 20
40
 11
89.49999999999997
 21
10
  0
LINE
  5
1E0
100
AcDbEntity
  8
Cam holders
  6
ByLayer
 62
  256
370
   -1
100
AcDbLine
 10
101.5
 20
9.999999999999996
 11
101.5
 21
40
  0
LINE
  5
1E1
100
AcDbEntity
  8
Labels
  6
ByLayer
 62
  256
370
   -1
100
AcDbLine
 10
-2.500000000000027
 20
-120
 11
2.499999999999973
 21
-120
  0
LINE
  5
1E2
100
AcDbEntity
  8
Cam holders
  6
ByLayer
 62
  256
370
   -1
100
AcDbLine
 10
25.5
 20
-120
 11
30.5
 21
-120
  0
LINE
  5
1E3
100
AcDbEntity
  8
Cam holders
  6
ByLayer
 62
  256
370
   -1
100
AcDbLine
 10
53.49999999999997
 20
-120
 11
58.49999999999997
 21
-120
  0
LINE
  5
1E4
100
AcDbEntity
  8
Cam holders
  6
ByLayer
 62
  256
370
   -1
100
AcDbLine
 10
150.5
 20
-120
 11
155.5
 21
-120
  0
LINE
  5
1E5
100
AcDbEntity
  8
Cam holders
  6
ByLayer
 62
  256
370
   -1
100
AcDbLine
 10
173.5
 20
-120
 11
178.5
 21
-120
  0
LINE
  5
1E6
100
AcDbEntity
  8
Cam holders
  6
ByLayer
 62
  256
370
   -1
100
AcDbLine
 10
196.5
 20
-120
 11
201.5
 21
-120
  0
LINE
  5
1E7
100
AcDbEntity
  8
Cam holders
  6
ByLayer
 62
  256
370
   -1
100
AcDbLine
 10
81.49999999999999
 20
-120
 11
86.49999999999999
 21
-120
  0
LINE
  5
1E8
100
AcDbEntity
  8
Cam holders
  6
ByLayer
 62
  256
370
   -1
100
AcDbLine
 10
104.5
 20
-120
 11
109.5
 21
-120
  0
LINE
  5
1E9
100
AcDbEntity
  8
Cam holders
  6
ByLayer
 62
  256
370
   -1
100
AcDbLine
 10
127.5
 20
-120
 11
132.5
 21
-120
  0
LINE
  5
1EA
100
AcDbEntity
  8
cam_profiles
  6
ByLayer
 62
  256
370
   -1
100
AcDbLine
 10
2.499999999999971
 20
-130
 11
5.499999999999966
 21
-130
  0
LINE
  5
1EB
100
AcDbEntity
  8
cam_profiles
  6
ByLayer
 62
  256
370
   -1
100
AcDbLine
 10
-5.500000000000028
 20
-130
 11
-2.500000000000029
 21
-130
  0
LINE
  5
1EC
100
AcDbEntity
  8
cam_profiles
  6
ByLayer
 62
  256
370
   -1
100
AcDbLine
 10
30.49999999999997
 20
-130
 11
33.49999999999996
 21
-130
  0
LINE
  5
1ED
100
AcDbEntity
  8
cam_profiles
  6
ByLayer
 62
  256
370
   -1
100
AcDbLine
 10
22.49999999999997
 20
-130
 11
25.49999999999997
 21
-130
  0
LINE
  5
1EE
100
AcDbEntity
  8
cam_profiles
  6
ByLayer
 62
  256
370
   -1
100
AcDbLine
 10
58.49999999999996
 20
-130
 11
61.49999999999996
 21
-130
  0
LINE
  5
1EF
100
AcDbEntity
  8
cam_profiles
  6
ByLayer
 62
  256
370
   -1
100
AcDbLine
 10
50.49999999999996
 20
-130
 11
53.49999999999996
 21
-130
  0
LINE
  5
1F0
100
AcDbEntity
  8
cam_profiles
  6
ByLayer
 62
  256
370
   -1
100
AcDbLine
 10
86.49999999999994
 20
-130
 11
89.49999999999994
 21
-130
  0
LINE
  5
1F1
100
AcDbEntity
  8
cam_profiles
  6
ByLayer
 62
  256
370
   -1
100
AcDbLine
 10
78.49999999999996
 20
-130
 11
81.49999999999994
 21
-130
  0
LINE
  5
1F2
100
AcDbEntity
  8
cam_profiles
  6
ByLayer
 62
  256
370
   -1
100
AcDbLine
 10
109.5
 20
-130
 11
112.5
 21
-130
  0
LINE
  5
1F3
100
AcDbEntity
  8
cam_profiles
  6
ByLayer
 62
  256
370
   -1
100
AcDbLine
 10
101.5
 20
-130
 11
104.5
 21
-130
  0
LINE
  5
1F4
100
AcDbEntity
  8
cam_profiles
  6
ByLayer
 62
  256
370
   -1
100
AcDbLine
 10
132.5
 20
-130
 11
135.5
 21
-130
  0
LINE
  5
1F5
100
AcDbEntity
  8
cam_profiles
  6
ByLayer
 62
  256
370
   -1
100
AcDbLine
 10
124.5
 20
-130
 11
127.5
 21
-130
  0
LINE
  5
1F6
100
AcDbEntity
  8
cam_profiles
  6
ByLayer
 62
  256
370
   -1
100
AcDbLine
 10
155.5
 20
-130
 11
158.5
 21
-130
  0
LINE
  5
1F7
100
AcDbEntity
  8
cam_profiles
  6
ByLayer
 62
  256
370
   -1
100
AcDbLine
 10
147.5
 20
-130
 11
150.5
 21
-130
  0
LINE
  5
1F8
100
AcDbEntity
  8
cam_profiles
  6
ByLayer
 62
  256
370
   -1
100
AcDbLine
 10
178.5
 20
-130
 11
181.5
 21
-130
  0
LINE
  5
1F9
100
AcDbEntity
  8
cam_profiles
  6
ByLayer
 62
  256
370
   -1
100
AcDbLine
 10
170.5
 20
-130
 11
173.5
 21
-130
  0
LINE
  5
1FA
100
AcDbEntity
  8
cam_profiles
  6
ByLayer
 62
  256
370
   -1
100
AcDbLine
 10
201.5
 20
-130
 11
204.5
 21
-130
  0
LINE
  5
1FB
100
AcDbEntity
  8
cam_profiles
  6
ByLayer
 62
  256
370
   -1
100
AcDbLine
 10
193.5
 20
-130
 11
196.5
 21
-130
  0
LINE
  5
1FC
100
AcDbEntity
  8
cam_profiles
  6
ByLayer
 62
  256
370
   -1
100
AcDbLine
 10
86.49999999999994
 20
-130
 11
86.49999999999996
 21
-100
  0
LINE
  5
1FD
100
AcDbEntity
  8
cam_profiles
  6
ByLayer
 62
  256
370
   -1
100
AcDbLine
 10
104.5
 20
-130
 11
104.4999999999999
 21
-100
  0
LINE
  5
1FE
100
AcDbEntity
  8
cam_profiles
  6
ByLayer
 62
  256
370
   -1
100
AcDbLine
 10
109.5
 20
-130
 11
109.4999999999999
 21
-100
  0
LINE
  5
1FF
100
AcDbEntity
  8
cam_profiles
  6
ByLayer
 62
  256
370
   -1
100
AcDbLine
 10
112.5
 20
-130
 11
112.4999999999999
 21
-100
  0
LINE
  5
200
100
AcDbEntity
  8
cam_profiles
  6
ByLayer
 62
  256
370
   -1
100
AcDbLine
 10
124.5
 20
-130
 11
124.4999999999999
 21
-100
  0
LINE
  5
201
100
AcDbEntity
  8
cam_profiles
  6
ByLayer
 62
  256
370
   -1
100
AcDbLine
 10
127.5
 20
-130
 11
127.4999999999999
 21
-100
  0
LINE
  5
202
100
AcDbEntity
  8
Cam holders
  6
ByLayer
 62
  256
370
   -1
100
AcDbLine
 10
124.5
 20
-130
 11
124.4999999999999
 21
-100
  0
LINE
  5
203
100
AcDbEntity
  8
cam_profiles
  6
ByLayer
 62
  256
370
   -1
100
AcDbLine
 10
135.5
 20
-130
 11
135.5
 21
-100
  0
LINE
  5
204
100
AcDbEntity
  8
cam_profiles
  6
ByLayer
 62
  256
370
   -1
100
AcDbLine
 10
132.5
 20
-130
 11
132.5
 21
-100
  0
LINE
  5
205
100
AcDbEntity
  8
cam_profiles
  6
ByLayer
 62
  256
370
   -1
100
AcDbLine
 10
147.5
 20
-130
 11
147.5
 21
-100
  0
LINE
  5
206
100
AcDbEntity
  8
cam_profiles
  6
ByLayer
 62
  256
370
   -1
100
AcDbLine
 10
150.5
 20
-130
 11
150.5
 21
-100
  0
LINE
  5
207
100
AcDbEntity
  8
cam_profiles
  6
ByLayer
 62
  256
370
   -1
100
AcDbLine
 10
155.5
 20
-130
 11
155.5
 21
-100
  0
LINE
  5
208
100
AcDbEntity
  8
cam_profiles
  6
ByLayer
 62
  256
370
   -1
100
AcDbLine
 10
158.5
 20
-130
 11
158.5
 21
-100
  0
LINE
  5
209
100
AcDbEntity
  8
cam_profiles
  6
ByLayer
 62
  256
370
   -1
100
AcDbLine
 10
170.5
 20
-130
 11
170.5
 21
-100
  0
LINE
  5
20A
100
AcDbEntity
  8
cam_profiles
  6
ByLayer
 62
  256
370
   -1
100
AcDbLine
 10
173.5
 20
-130
 11
173.5
 21
-100
  0
LINE
  5
20B
100
AcDbEntity
  8
cam_profiles
  6
ByLayer
 62
  256
370
   -1
100
AcDbLine
 10
178.5
 20
-130
 11
178.5
 21
-100
  0
LINE
  5
20C
100
AcDbEntity
  8
cam_profiles
  6
ByLayer
 62
  256
370
   -1
100
AcDbLine
 10
181.5
 20
-130
 11
181.5
 21
-100
  0
LINE
  5
20D
100
AcDbEntity
  8
cam_profiles
  6
ByLayer
 62
  256
370
   -1
100
AcDbLine
 10
193.5
 20
-130
 11
193.5
 21
-100
  0
LINE
  5
20E
100
AcDbEntity
  8
cam_profiles
  6
ByLayer
 62
  256
370
   -1
100
AcDbLine
 10
196.5
 20
-130
 11
196.5
 21
-100
  0
LINE
  5
20F
100
AcDbEntity
  8
cam_profiles
  6
ByLayer
 62
  256
370
   -1
100
AcDbLine
 10
201.5
 20
-130
 11
201.5
 21
-100
  0
LINE
  5
210
100
AcDbEntity
  8
cam_profiles
  6
ByLayer
 62
  256
370
   -1
100
AcDbLine
 10
204.5
 20
-130
 11
204.5
 21
-100
  0
LINE
  5
211
100
AcDbEntity
  8
cam_profiles
  6
ByLayer
 62
  256
370
   -1
100
AcDbLine
 10
50.49999999999996
 20
-130
 11
50.49999999999996
 21
-100
  0
LINE
  5
212
100
AcDbEntity
  8
cam_profiles
  6
ByLayer
 62
  256
370
   -1
100
AcDbLine
 10
53.49999999999996
 20
-130
 11
53.49999999999996
 21
-100
  0
LINE
  5
213
100
AcDbEntity
  8
cam_profiles
  6
ByLayer
 62
  256
370
   -1
100
AcDbLine
 10
58.49999999999996
 20
-130
 11
58.49999999999996
 21
-100
  0
LINE
  5
214
100
AcDbEntity
  8
cam_profiles
  6
ByLayer
 62
  256
370
   -1
100
AcDbLine
 10
61.49999999999996
 20
-130
 11
61.49999999999996
 21
-100
  0
LINE
  5
215
100
AcDbEntity
  8
cam_profiles
  6
ByLayer
 62
  256
370
   -1
100
AcDbLine
 10
33.49999999999997
 20
-130
 11
33.49999999999997
 21
-100
  0
LINE
  5
216
100
AcDbEntity
  8
cam_profiles
  6
ByLayer
 62
  256
370
   -1
100
AcDbLine
 10
30.49999999999997
 20
-130
 11
30.49999999999997
 21
-100
  0
LINE
  5
217
100
AcDbEntity
  8
cam_profiles
  6
ByLayer
 62
  256
370
   -1
100
AcDbLine
 10
25.49999999999997
 20
-130
 11
25.49999999999997
 21
-100
  0
LINE
  5
218
100
AcDbEntity
  8
cam_profiles
  6
ByLayer
 62
  256
370
   -1
100
AcDbLine
 10
22.49999999999997
 20
-130
 11
22.49999999999997
 21
-100
  0
LINE
  5
219
100
AcDbEntity
  8
cam_profiles
  6
ByLayer
 62
  256
370
   -1
100
AcDbLine
 10
5.499999999999972
 20
-130
 11
5.499999999999973
 21
-100
  0
LINE
  5
21A
100
AcDbEntity
  8
cam_profiles
  6
ByLayer
 62
  256
370
   -1
100
AcDbLine
 10
2.499999999999971
 20
-130
 11
2.499999999999972
 21
-100
  0
LINE
  5
21B
100
AcDbEntity
  8
cam_profiles
  6
ByLayer
 62
  256
370
   -1
100
AcDbLine
 10
-2.500000000000029
 20
-130
 11
-2.500000000000028
 21
-100
  0
LINE
  5
21C
100
AcDbEntity
  8
cam_profiles
  6
ByLayer
 62
  256
370
   -1
100
AcDbLine
 10
-5.500000000000028
 20
-130
 11
-5.500000000000027
 21
-100
  0
LINE
  5
21D
100
AcDbEntity
  8
cam_profiles
  6
ByLayer
 62
  256
370
   -1
100
AcDbLine
 10
78.49999999999996
 20
-130
 11
78.49999999999996
 21
-100
  0
LINE
  5
21E
100
AcDbEntity
  8
cam_profiles
  6
ByLayer
 62
  256
370
   -1
100
AcDbLine
 10
81.49999999999994
 20
-130
 11
81.49999999999996
 21
-100
  0
LINE
  5
21F
100
AcDbEntity
  8
cam_profiles
  6
ByLayer
 62
  256
370
   -1
100
AcDbLine
 10
2.499999999999973
 20
-100
 11
5.499999999999973
 21
-100
  0
LINE
  5
220
100
AcDbEntity
  8
cam_profiles
  6
ByLayer
 62
  256
370
   -1
100
AcDbLine
 10
-5.500000000000027
 20
-100
 11
-2.500000000000027
 21
-100
  0
LINE
  5
221
100
AcDbEntity
  8
cam_profiles
  6
ByLayer
 62
  256
370
   -1
100
AcDbLine
 10
30.49999999999997
 20
-100
 11
33.49999999999997
 21
-100
  0
LINE
  5
222
100
AcDbEntity
  8
cam_profiles
  6
ByLayer
 62
  256
370
   -1
100
AcDbLine
 10
22.49999999999997
 20
-100
 11
25.49999999999997
 21
-100
  0
LINE
  5
223
100
AcDbEntity
  8
cam_profiles
  6
ByLayer
 62
  256
370
   -1
100
AcDbLine
 10
58.49999999999996
 20
-100
 11
61.49999999999996
 21
-100
  0
LINE
  5
224
100
AcDbEntity
  8
cam_profiles
  6
ByLayer
 62
  256
370
   -1
100
AcDbLine
 10
50.49999999999996
 20
-100
 11
53.49999999999996
 21
-100
  0
LINE
  5
225
100
AcDbEntity
  8
cam_profiles
  6
ByLayer
 62
  256
370
   -1
100
AcDbLine
 10
86.49999999999996
 20
-100
 11
89.49999999999996
 21
-100
  0
LINE
  5
226
100
AcDbEntity
  8
cam_profiles
  6
ByLayer
 62
  256
370
   -1
100
AcDbLine
 10
78.49999999999996
 20
-100
 11
81.49999999999996
 21
-100
  0
LINE
  5
227
100
AcDbEntity
  8
cam_profiles
  6
ByLayer
 62
  256
370
   -1
100
AcDbLine
 10
109.5
 20
-100
 11
112.5
 21
-100
  0
LINE
  5
228
100
AcDbEntity
  8
cam_profiles
  6
ByLayer
 62
  256
370
   -1
100
AcDbLine
 10
101.5
 20
-100
 11
104.5
 21
-100
  0
LINE
  5
229
100
AcDbEntity
  8
cam_profiles
  6
ByLayer
 62
  256
370
   -1
100
AcDbLine
 10
132.5
 20
-100
 11
135.5
 21
-100
  0
LINE
  5
22A
100
AcDbEntity
  8
cam_profiles
  6
ByLayer
 62
  256
370
   -1
100
AcDbLine
 10
124.5
 20
-100
 11
127.5
 21
-100
  0
LINE
  5
22B
100
AcDbEntity
  8
cam_profiles
  6
ByLayer
 62
  256
370
   -1
100
AcDbLine
 10
155.5
 20
-100
 11
158.5
 21
-100
  0
LINE
  5
22C
100
AcDbEntity
  8
cam_profiles
  6
ByLayer
 62
  256
370
   -1
100
AcDbLine
 10
147.5
 20
-100
 11
150.5
 21
-100
  0
LINE
  5
22D
100
AcDbEntity
  8
cam_profiles
  6
ByLayer
 62
  256
370
   -1
100
AcDbLine
 10
178.5
 20
-100
 11
181.5
 21
-100
  0
LINE
  5
22E
100
AcDbEntity
  8
cam_profiles
  6
ByLayer
 62
  256
370
   -1
100
AcDbLine
 10
170.5
 20
-100
 11
173.5
 21
-100
  0
LINE
  5
22F
100
AcDbEntity
  8
cam_profiles
  6
ByLayer
 62
  256
370
   -1
100
AcDbLine
 10
201.5
 20
-100
 11
204.5
 21
-100
  0
LINE
  5
230
100
AcDbEntity
  8
cam_profiles
  6
ByLayer
 62
  256
370
   -1
100
AcDbLine
 10
193.5
 20
-100
 11
196.5
 21
-100
  0
LINE
  5
231
100
AcDbEntity
  8
Cam holders
  6
ByLayer
 62
  256
370
   -1
100
AcDbLine
 10
89.49999999999996
 20
-100
 11
89.49999999999994
 21
-130
  0
LINE
  5
232
100
AcDbEntity
  8
Cam holders
  6
ByLayer
 62
  256
370
   -1
100
AcDbLine
 10
101.5
 20
-130
 11
101.5
 21
-100
  0
DIMENSION
  5
233
100
AcDbEntity
  8
Cam holders
  6
ByLayer
 62
  256
370
   -1
100
AcDbDimension
  2
*D19
 10
210
 20
40
 30
0
 11
208.125
 21
-45.00000000000003
 31
0
 70
   32
 71
    5
 72
    0
  3
Standard
 53
0
210
0
220
0
230
1
100
AcDbAlignedDimension
 13
204.5
 23
-130
 33
0
 14
204.5
 24
40
 34
0
 50
90
100
AcDbRotatedDimension
  0
LINE
  5
234
100
AcDbEntity
  8
Cam holders
  6
ByLayer
 62
  256
370
   -1
100
AcDbLine
 10
-2.500000000000023
 20
-45
 11
2.499999999999977
 21
-45
  0
MTEXT
  5
235
100
AcDbEntity
  8
Labels
  6
ByLayer
 62
  256
370
   -1
100
AcDbMText
 10
89.49999999999999
 20
140
 30
0
 40
4
 41
17.22222222222272
 71
    1
 72
    1
  1
16 JMP
  7
STANDARD
210
0
220
0
230
1
 50
90
 73
    2
 44
1
  0
MTEXT
  5
236
100
AcDbEntity
  8
Labels
  6
ByLayer
 62
  256
370
   -1
100
AcDbMText
 10
75.5
 20
140
 30
0
 40
4
 41
16.77777777777827
 71
    1
 72
    1
  1
13 JRP
  7
STANDARD
210
0
220
0
230
1
 50
90
 73
    2
 44
1
  0
MTEXT
  5
237
100
AcDbEntity
  8
Labels
  6
ByLayer
 62
  256
370
   -1
100
AcDbMText
 10
61.49999999999999
 20
140
 30
0
 40
4
 41
15.0000000000005
 71
    1
 72
    1
  1
9 LDN
  7
STANDARD
210
0
220
0
230
1
 50
90
 73
    2
 44
1
  0
MTEXT
  5
238
100
AcDbEntity
  8
Labels
  6
ByLayer
 62
  256
370
   -1
100
AcDbMText
 10
47.5
 20
140
 30
0
 40
4
 41
17.66666581865807
 71
    1
 72
    1
  1
12 STO
  7
STANDARD
210
0
220
0
230
1
 50
90
 73
    2
 44
1
  0
MTEXT
  5
239
100
AcDbEntity
  8
Labels
  6
ByLayer
 62
  256
370
   -1
100
AcDbMText
 10
33.5
 20
140
 30
0
 40
4
 41
22.55555381865807
 71
    1
 72
    1
  1
(NC) SUB
  7
STANDARD
210
0
220
0
230
1
 50
90
 73
    2
 44
1
  0
MTEXT
  5
23A
100
AcDbEntity
  8
Labels
  6
ByLayer
 62
  256
370
   -1
100
AcDbMText
 10
19.5
 20
140
 30
0
 40
4
 41
25.66666492976918
 71
    1
 72
    1
  1
(NC) SUB2
  7
STANDARD
210
0
220
0
230
1
 50
90
 73
    2
 44
1
  0
MTEXT
  5
23B
100
AcDbEntity
  8
Labels
  6
ByLayer
 62
  256
370
   -1
100
AcDbMText
 10
5.50000000000001
 20
140
 30
0
 40
4
 41
17.66666666666666
 71
    1
 72
    1
  1
17 CMP
  7
STANDARD
210
0
220
0
230
1
 50
90
 73
    2
 44
1
  0
MTEXT
  5
23C
100
AcDbEntity
  8
Labels
  6
ByLayer
 62
  256
370
   -1
100
AcDbMText
 10
-8.499999999999989
 20
140
 30
0
 40
4
 41
22.11111022222222
 71
    1
 72
    1
  1
(NC) HLT
  7
STANDARD
210
0
220
0
230
1
 50
90
 73
    2
 44
1
  0
LINE
  5
23D
100
AcDbEntity
  8
Tie rods
  6
ByLayer
 62
  256
370
   -1
100
AcDbLine
 10
-10.50000000000001
 20
-130
 11
-10.5
 21
40
  0
LINE
  5
23E
100
AcDbEntity
  8
Tie rods
  6
ByLayer
 62
  256
370
   -1
100
AcDbLine
 10
212.5
 20
9.99999999999998
 11
212.5
 21
40
  0
DIMENSION
  5
23F
100
AcDbEntity
  8
Tie rods
  6
ByLayer
 62
  256
370
   -1
100
AcDbDimension
  2
*D20
 10
212.5
 20
50
 30
0
 11
101
 21
51.875
 31
0
 70
   32
 71
    5
  3
Standard
 53
0
210
0
220
0
230
1
100
AcDbAlignedDimension
 13
-10.5
 23
40
 33
0
 14
212.5
 24
40
 34
0
100
AcDbRotatedDimension
  0
MTEXT
  5
240
100
AcDbEntity
  8
Tie rods
  6
ByLayer
 62
  256
370
   -1
100
AcDbMText
 10
90
 20
50
 30
0
 40
2
 41
21.88888888888901
 71
    1
 72
    1
  1
TIE ROD LENGTH
  7

210
0
220
0
230
1
 50
0
 73
    2
 44
1
  0
MTEXT
  5
241
100
AcDbEntity
  8
Tie rods
  6
ByLayer
 62
  256
370
   -1
100
AcDbMText
 10
101.5
 20
140
 30
0
 40
4
 41
38.00000000000026
 71
    1
 72
    1
  1
1 PC INJECTOR
  7

210
0
220
0
230
1
 50
90
 73
    2
 44
1
  0
MTEXT
  5
242
100
AcDbEntity
  8
Tie rods
  6
ByLayer
 62
  256
370
   -1
100
AcDbMText
 10
109.5
 20
140
 30
0
 40
4
 41
69.00000000000074
 71
    1
 72
    1
  1
2 MEM DECODER HOLDOFF
  7

210
0
220
0
230
1
 50
90
 73
    2
 44
1
  0
MTEXT
  5
243
100
AcDbEntity
  8
Tie rods
  6
ByLayer
 62
  256
370
   -1
100
AcDbMText
 10
124.5
 20
140
 30
0
 40
4
 41
39.77777777777802
 71
    1
 72
    1
  1
3 MEM RETURN\P
  7

210
0
220
0
230
1
 50
90
 73
    2
 44
1
  0
MTEXT
  5
244
100
AcDbEntity
  8
Tie rods
  6
ByLayer
 62
  256
370
   -1
100
AcDbMText
 10
132.4999999999999
 20
140
 30
0
 40
4
 41
67.22222222222247
 71
    1
 72
    1
  1
4 MEM OUTPUT HOLDOFF\P
  7

210
0
220
0
230
1
 50
90
 73
    2
 44
1
  0
ENDSEC
  0
SECTION
  2
OBJECTS
  0
DICTIONARY
  5
C
330
0
100
AcDbDictionary
281
    1
  3
ACAD_GROUP
350
D
  0
DICTIONARY
  5
D
330
C
100
AcDbDictionary
281
    1
  0
ENDSEC
  0
EOF
